<?xml version="1.0" standalone="no"?>
<!DOCTYPE svg PUBLIC "-//W3C//DTD SVG 20010904//EN"
 "http://www.w3.org/TR/2001/REC-SVG-20010904/DTD/svg10.dtd">
<svg version="1.0" xmlns="http://www.w3.org/2000/svg"
 width="300.000000pt" height="300.000000pt" viewBox="0 0 300.000000 300.000000"
 preserveAspectRatio="xMidYMid meet">
<metadata>
Created by potrace 1.14, written by Peter Selinger 2001-2017
</metadata>
<g transform="translate(0.000000,300.000000) scale(0.100000,-0.100000)"
fill="#000000" stroke="none">
<path d="M968 2685 c-2 -1 -31 -5 -65 -9 -188 -20 -378 -137 -455 -283 -18
-34 -32 -46 -77 -63 -102 -39 -240 -149 -287 -229 -10 -17 -21 -31 -25 -31 -3
0 -12 -18 -19 -40 -7 -22 -16 -40 -20 -40 -9 0 -10 -7 -15 -144 -3 -82 0 -141
10 -189 27 -131 114 -270 219 -350 39 -29 47 -51 26 -67 -14 -11 -80 -129 -80
-144 0 -9 -5 -16 -11 -16 -5 0 -8 -4 -4 -9 3 -5 1 -12 -4 -15 -5 -3 -12 -23
-16 -43 -4 -21 -10 -42 -15 -48 -4 -5 -8 -17 -8 -25 0 -8 -3 -26 -7 -40 -3
-14 -7 -41 -10 -60 -2 -19 -5 -35 -6 -35 -7 0 -4 -234 3 -248 6 -11 5 -17 -2
-17 -8 0 -8 -6 0 -20 6 -10 9 -23 8 -27 -3 -15 14 -63 23 -63 5 0 9 -5 9 -11
0 -15 39 -47 79 -65 100 -45 229 16 234 111 1 19 5 35 9 35 4 0 3 13 -3 28
-12 36 -17 202 -5 202 4 0 6 6 3 14 -3 8 0 39 7 70 15 61 14 60 27 94 5 13 9
26 9 30 0 4 9 18 20 32 15 20 20 21 20 8 0 -24 124 -148 185 -186 146 -90 351
-140 451 -109 38 11 109 82 99 97 -9 15 41 12 52 -2 6 -7 18 -39 28 -70 10
-32 22 -58 26 -58 5 0 9 -5 9 -11 0 -17 54 -90 106 -143 204 -207 524 -227
803 -49 68 44 175 151 201 204 16 31 33 45 75 64 120 52 247 160 320 271 19
28 35 57 37 65 2 8 6 17 11 20 4 3 9 15 11 26 3 11 9 36 14 55 10 38 13 248 3
248 -3 0 -7 10 -7 23 -6 99 -94 237 -202 314 -35 26 -40 34 -30 45 28 29 65
84 72 106 4 12 12 22 17 22 5 0 9 4 9 9 0 5 10 30 22 57 11 27 20 50 19 52 -1
1 6 16 14 32 9 17 13 30 10 30 -3 0 -1 8 4 18 5 9 12 34 15 56 4 21 8 41 10
45 20 34 26 341 8 364 -7 8 -9 16 -7 19 3 3 -11 22 -30 41 -90 90 -258 50
-298 -70 -11 -31 -15 -122 -7 -143 1 -3 1 -18 0 -35 -2 -16 -4 -48 -5 -70 -2
-22 -4 -40 -5 -40 -1 0 -3 -16 -6 -35 -2 -19 -11 -52 -19 -73 -8 -20 -15 -39
-15 -42 -1 -2 -10 -25 -21 -51 -20 -44 -21 -45 -40 -28 -10 9 -19 21 -19 25 0
16 -91 94 -153 132 -95 58 -200 88 -329 92 -64 2 -87 -2 -127 -21 -52 -23
-101 -82 -104 -123 -2 -26 -5 -26 -64 2 -46 21 -65 39 -69 63 -4 22 -68 144
-76 144 -4 0 -8 6 -8 14 0 22 -149 171 -210 209 -69 43 -172 84 -230 92 -67 9
-119 13 -122 10z m137 -365 c96 -43 179 -160 180 -255 1 -53 21 -125 35 -125
4 0 10 -7 13 -15 4 -10 -15 -25 -66 -51 -202 -102 -332 -277 -354 -473 -3 -31
-6 -67 -5 -81 1 -14 2 -40 2 -59 0 -18 5 -41 10 -50 5 -10 11 -31 14 -47 2
-16 5 -31 6 -34 1 -3 2 -8 1 -12 0 -5 4 -8 10 -8 5 0 8 -4 5 -9 -3 -5 4 -20
15 -35 17 -22 18 -26 5 -26 -15 0 -72 33 -106 62 -21 17 -63 78 -54 78 3 0 1
7 -6 15 -7 8 -9 15 -5 15 4 0 3 6 -2 13 -6 6 -10 27 -9 45 0 17 -3 32 -8 32
-5 0 -4 6 2 13 15 19 -29 110 -69 140 -19 14 -54 30 -79 36 -153 38 -212 73
-255 152 -21 38 -27 75 -29 156 0 66 2 75 30 110 17 21 49 52 72 70 36 27 49
31 101 31 44 -1 68 5 95 21 38 24 72 72 79 111 16 96 92 166 212 196 58 14
104 9 160 -16z m969 -385 c43 -18 106 -72 106 -91 0 -8 4 -14 8 -14 5 0 9 -6
9 -12 1 -7 5 -26 10 -43 4 -16 8 -56 7 -87 0 -32 3 -58 8 -58 4 0 8 -6 8 -12
0 -18 40 -61 70 -75 14 -7 60 -19 103 -27 44 -9 96 -26 117 -39 39 -23 80 -67
84 -90 1 -6 5 -18 10 -25 13 -21 13 -139 0 -178 -14 -40 -58 -91 -118 -135
-29 -22 -50 -29 -83 -29 -82 0 -166 -59 -179 -125 -3 -19 -10 -38 -15 -41 -5
-3 -9 -13 -9 -23 0 -29 -87 -111 -147 -138 -79 -36 -168 -42 -225 -14 -47 23
-108 75 -108 91 0 5 -4 10 -10 10 -5 0 -12 11 -16 25 -3 14 -10 25 -16 25 -5
0 -6 5 -3 10 3 6 3 16 -2 23 -11 17 -11 70 0 85 6 8 5 12 -3 12 -8 0 -11 3 -7
6 3 3 2 17 -4 30 -7 20 -5 26 9 30 88 28 186 87 247 147 48 49 96 113 99 132
1 7 8 20 15 29 7 9 11 16 8 16 -3 0 0 15 8 33 7 17 16 49 19 71 4 21 9 42 12
47 3 5 0 9 -6 9 -6 0 -8 5 -4 12 11 18 11 78 0 78 -6 0 -5 5 2 12 8 8 8 16 0
32 -6 12 -10 22 -9 24 7 7 -12 82 -20 82 -6 0 -8 4 -4 9 6 11 -53 128 -85 168
-11 14 -20 29 -20 33 0 10 91 -7 134 -25z m-364 -263 c35 -94 6 -229 -56 -263
-13 -7 -24 -16 -24 -19 0 -12 -89 -47 -152 -61 -43 -9 -67 -21 -92 -47 -31
-31 -54 -82 -47 -106 1 -5 -5 -4 -13 3 -24 20 -79 144 -69 155 3 3 7 25 10 48
4 54 33 108 79 152 35 33 90 60 206 101 51 18 123 89 111 109 -4 6 1 5 10 -2
9 -8 26 -39 37 -70z"/>
</g>
</svg>
