<svg width="61" height="52" viewBox="0 0 61 52" fill="none" xmlns="http://www.w3.org/2000/svg">
<path d="M19.1743 0.0959995H21.7663V0.96H19.1743V0.0959995ZM17.4463 0.96H19.1743V1.824H17.4463V0.96ZM21.7663 0.96H23.4943V1.824H21.7663V0.96ZM16.5823 1.824H17.4463V2.688H16.5823V1.824ZM23.4943 1.824H24.3583V2.688H23.4943V1.824ZM25.7698 8.136H31.8178V9H25.7698V8.136ZM33.2346 8.136H39.2826V9H33.2346V8.136ZM43.2914 0.0959995H45.8834V0.96H43.2914V0.0959995ZM41.5634 0.96H43.2914V1.824H41.5634V0.96ZM45.8834 0.96H47.6114V1.824H45.8834V0.96ZM40.6994 1.824H41.5634V2.688H40.6994V1.824ZM47.6114 1.824H48.4754V2.688H47.6114V1.824ZM8.25556 14.06H9.11956V14.924H8.25556V14.06ZM7.39156 14.924H8.25556V15.788H7.39156V14.924ZM6.52756 15.788H7.39156V21.836H6.52756V15.788ZM7.39156 21.836H8.25556V22.7H7.39156V21.836ZM8.25556 22.7H9.11956V23.564H8.25556V22.7ZM17.2646 17.828C17.2006 17.932 17.1086 18.064 16.9886 18.224C16.8686 18.384 16.7286 18.552 16.5686 18.728C16.4166 18.904 16.2606 19.072 16.1006 19.232C15.9486 19.384 15.8046 19.516 15.6686 19.628H15.0686V19.484C15.1806 19.332 15.3006 19.152 15.4286 18.944C15.5566 18.736 15.6806 18.524 15.8006 18.308C15.9286 18.084 16.0326 17.884 16.1126 17.708H17.2646V17.828ZM15.1526 17.828C15.0886 17.932 14.9966 18.064 14.8766 18.224C14.7566 18.384 14.6166 18.552 14.4566 18.728C14.3046 18.904 14.1486 19.072 13.9886 19.232C13.8366 19.384 13.6926 19.516 13.5566 19.628H12.9566V19.484C13.0686 19.332 13.1886 19.152 13.3166 18.944C13.4446 18.736 13.5686 18.524 13.6886 18.308C13.8086 18.084 13.9126 17.884 14.0006 17.708H15.1526V17.828ZM22.238 17.624C22.238 17.92 22.194 18.192 22.106 18.44C22.018 18.68 21.89 18.888 21.722 19.064C21.554 19.24 21.342 19.376 21.086 19.472C20.838 19.56 20.55 19.604 20.222 19.604C19.886 19.604 19.59 19.556 19.334 19.46C19.086 19.364 18.878 19.232 18.71 19.064C18.542 18.888 18.414 18.68 18.326 18.44C18.246 18.192 18.206 17.92 18.206 17.624H18.938C18.938 17.928 18.982 18.192 19.07 18.416C19.166 18.632 19.306 18.8 19.49 18.92C19.682 19.04 19.926 19.1 20.222 19.1C20.518 19.1 20.762 19.04 20.954 18.92C21.146 18.8 21.286 18.632 21.374 18.416C21.462 18.192 21.506 17.928 21.506 17.624H22.238ZM25.8125 23.06L25.9325 22.076C26.4125 22.076 26.8645 22.032 27.2885 21.944C27.7125 21.848 28.1005 21.724 28.4525 21.572C28.8125 21.412 29.1205 21.232 29.3765 21.032C29.6325 20.824 29.8285 20.612 29.9645 20.396C30.1085 20.172 30.1805 19.952 30.1805 19.736C30.1805 19.632 30.1445 19.528 30.0725 19.424C30.0005 19.312 29.8765 19.22 29.7005 19.148C29.5325 19.076 29.3045 19.04 29.0165 19.04C28.8405 19.04 28.6445 19.064 28.4285 19.112C28.2125 19.16 28.0045 19.228 27.8045 19.316C27.6125 19.396 27.4525 19.488 27.3245 19.592C27.5405 19.768 27.7405 19.94 27.9245 20.108C28.1165 20.276 28.3125 20.46 28.5125 20.66C28.7125 20.852 28.9285 21.072 29.1605 21.32C29.3445 21.456 29.5485 21.572 29.7725 21.668C30.0045 21.764 30.2525 21.844 30.5165 21.908C30.7885 21.964 31.0645 22.008 31.3445 22.04C31.6245 22.064 31.9045 22.076 32.1845 22.076C32.3525 22.076 32.4725 22.124 32.5445 22.22C32.6245 22.308 32.6645 22.416 32.6645 22.544C32.6645 22.672 32.6085 22.792 32.4965 22.904C32.3845 23.008 32.2405 23.06 32.0645 23.06C31.6245 23.06 31.1725 23.02 30.7085 22.94C30.2525 22.852 29.8245 22.724 29.4245 22.556C29.0245 22.38 28.6845 22.16 28.4045 21.896C28.2685 21.72 28.1165 21.544 27.9485 21.368C27.7805 21.192 27.5965 21.016 27.3965 20.84C27.2045 20.656 26.9965 20.484 26.7725 20.324C26.7245 20.284 26.6765 20.212 26.6285 20.108C26.5805 20.004 26.5405 19.896 26.5085 19.784C26.4765 19.672 26.4605 19.588 26.4605 19.532C26.4605 19.412 26.5365 19.268 26.6885 19.1C26.8405 18.932 27.0445 18.772 27.3005 18.62C27.5565 18.46 27.8485 18.328 28.1765 18.224C28.5045 18.12 28.8445 18.068 29.1965 18.068C29.6525 18.068 30.0205 18.136 30.3005 18.272C30.5885 18.408 30.7965 18.584 30.9245 18.8C31.0605 19.008 31.1285 19.232 31.1285 19.472C31.1285 19.824 31.0405 20.176 30.8645 20.528C30.6885 20.872 30.4365 21.196 30.1085 21.5C29.7805 21.804 29.3965 22.076 28.9565 22.316C28.5165 22.548 28.0285 22.732 27.4925 22.868C26.9645 22.996 26.4045 23.06 25.8125 23.06ZM39.6755 17.624C39.6755 17.92 39.6315 18.192 39.5435 18.44C39.4555 18.68 39.3275 18.888 39.1595 19.064C38.9915 19.24 38.7795 19.376 38.5235 19.472C38.2755 19.56 37.9875 19.604 37.6595 19.604C37.3235 19.604 37.0275 19.556 36.7715 19.46C36.5235 19.364 36.3155 19.232 36.1475 19.064C35.9795 18.888 35.8515 18.68 35.7635 18.44C35.6835 18.192 35.6435 17.92 35.6435 17.624H36.3755C36.3755 17.928 36.4195 18.192 36.5075 18.416C36.6035 18.632 36.7435 18.8 36.9275 18.92C37.1195 19.04 37.3635 19.1 37.6595 19.1C37.9555 19.1 38.1995 19.04 38.3915 18.92C38.5835 18.8 38.7235 18.632 38.8115 18.416C38.8995 18.192 38.9435 17.928 38.9435 17.624H39.6755ZM44.9208 17.828C44.8568 17.932 44.7648 18.064 44.6448 18.224C44.5248 18.384 44.3848 18.552 44.2248 18.728C44.0728 18.904 43.9168 19.072 43.7568 19.232C43.6048 19.384 43.4608 19.516 43.3248 19.628H42.7248V19.484C42.8368 19.332 42.9568 19.152 43.0848 18.944C43.2128 18.736 43.3368 18.524 43.4568 18.308C43.5848 18.084 43.6888 17.884 43.7688 17.708H44.9208V17.828ZM42.8088 17.828C42.7448 17.932 42.6528 18.064 42.5328 18.224C42.4128 18.384 42.2728 18.552 42.1128 18.728C41.9608 18.904 41.8048 19.072 41.6448 19.232C41.4928 19.384 41.3488 19.516 41.2128 19.628H40.6128V19.484C40.7248 19.332 40.8448 19.152 40.9728 18.944C41.1008 18.736 41.2248 18.524 41.3448 18.308C41.4648 18.084 41.5688 17.884 41.6568 17.708H42.8088V17.828ZM49.6994 14.06H50.5634V14.924H49.6994V14.06ZM50.5634 14.924H51.4274V15.788H50.5634V14.924ZM51.4274 15.788H52.2914V21.836H51.4274V15.788ZM50.5634 21.836H51.4274V22.7H50.5634V21.836ZM49.6994 22.7H50.5634V23.564H49.6994V22.7ZM19.1269 28.06H19.9909V29.752H19.1269V28.06ZM18.2629 29.752H19.1269V31.432H18.2629V29.752ZM17.3989 31.432H18.2629V33.112H17.3989V31.432ZM16.5349 33.112H17.3989V34.804H16.5349V33.112ZM15.6709 34.804H16.5349V36.484H15.6709V34.804ZM14.8069 36.484H15.6709V38.164H14.8069V36.484ZM26.8325 28.096H29.4245V28.96H26.8325V28.096ZM25.1045 28.96H26.8325V29.824H25.1045V28.96ZM29.4245 28.96H31.1525V29.824H29.4245V28.96ZM24.2405 29.824H25.1045V30.688H24.2405V29.824ZM31.1525 29.824H32.0165V30.688H31.1525V29.824ZM36.596 30.04L35.744 30.688C37.256 31.96 39.248 34.168 40.292 35.74L41.192 35.032C40.112 33.544 37.976 31.228 36.596 30.04ZM5.94631 41.292C5.86231 42.888 5.86231 48.66 0.966312 51.156C1.24231 51.36 1.54231 51.636 1.69831 51.864C6.66631 49.164 6.84631 43.176 6.94231 41.292H5.94631ZM6.90631 41.532L6.04231 41.616C6.12631 42.72 6.46231 49.428 11.5503 51.864C11.6943 51.612 11.9703 51.312 12.2343 51.108C7.29031 48.84 6.94231 42.468 6.90631 41.532ZM13.7463 50.136H19.7943V51H13.7463V50.136ZM21.2112 50.136H27.2592V51H21.2112V50.136ZM28.676 50.136H34.724V51H28.676V50.136ZM38.9728 43.476H41.8288V44.412H38.9728V43.476ZM36.1288 44.412H38.9728V45.36H36.1288V44.412ZM41.8288 44.412H42.7768V45.36H41.8288V44.412ZM42.7768 45.36H43.7248V49.116H42.7768V45.36ZM41.8288 49.116H42.7768V50.064H41.8288V49.116ZM39.9328 50.064H41.8288V51H39.9328V50.064ZM45.1408 50.136H51.1888V51H45.1408V50.136ZM55.4377 43.476H58.2937V44.412H55.4377V43.476ZM52.5937 44.412H55.4377V45.36H52.5937V44.412ZM58.2937 44.412H59.2417V45.36H58.2937V44.412ZM59.2417 45.36H60.1897V49.116H59.2417V45.36ZM58.2937 49.116H59.2417V50.064H58.2937V49.116ZM56.3977 50.064H58.2937V51H56.3977V50.064Z" fill="black"/>
</svg>
