<svg width="96" height="39" viewBox="0 0 96 39" fill="none" xmlns="http://www.w3.org/2000/svg">
<path d="M3.598 5.075H4.966V7.811H7.702V9.179H6.334V10.547H4.966V9.179H3.598V10.547H2.23V9.179H0.862V7.811H3.598V5.075ZM0.862 10.547H2.23V11.915H0.862V10.547ZM6.334 10.547H7.702V11.915H6.334V10.547ZM8.54824 2.567C8.54824 3.764 9.51724 4.733 10.7332 4.733C11.9302 4.733 12.8992 3.764 12.8992 2.567C12.8992 1.37 11.9302 0.381999 10.7332 0.381999C9.51724 0.381999 8.54824 1.37 8.54824 2.567ZM9.38424 2.567C9.38424 1.864 10.0112 1.237 10.7332 1.237C11.4362 1.237 12.0632 1.864 12.0632 2.567C12.0632 3.27 11.4362 3.916 10.7332 3.916C10.0112 3.916 9.38424 3.251 9.38424 2.567ZM36.6068 1.845H37.9748V3.213H36.6068V1.845ZM35.2388 3.213H36.6068V4.581H35.2388V3.213ZM33.8708 4.581H35.2388V14.157H33.8708V4.581ZM35.2388 14.157H36.6068V15.525H35.2388V14.157ZM36.6068 15.525H37.9748V16.893H36.6068V15.525ZM40.2165 2.32H41.5845V5.056H40.2165V2.32ZM41.5845 5.056H42.9525V7.792H41.5845V5.056ZM42.9525 7.792H44.3205V10.528H42.9525V7.792ZM44.3205 10.528H45.6885V13.264H44.3205V10.528ZM45.6885 13.264H47.0565V16H45.6885V13.264ZM56.9613 1.845H58.3293V3.213H56.9613V1.845ZM55.5933 3.213H56.9613V4.581H55.5933V3.213ZM54.2253 4.581H55.5933V14.157H54.2253V4.581ZM55.5933 14.157H56.9613V15.525H55.5933V14.157ZM56.9613 15.525H58.3293V16.893H56.9613V15.525ZM60.571 2.32H61.939V5.056H60.571V2.32ZM61.939 5.056H63.307V7.792H61.939V5.056ZM63.307 7.792H64.675V10.528H63.307V7.792ZM64.675 10.528H66.043V13.264H64.675V10.528ZM66.043 13.264H67.411V16H66.043V13.264ZM2.23 29.792H9.07V31.16H2.23V29.792ZM0.862 31.16H2.23V36.632H0.862V31.16ZM9.07 31.16H10.438V32.528H9.07V31.16ZM9.07 35.264H10.438V36.632H9.07V35.264ZM2.23 36.632H9.07V38H2.23V36.632ZM15.4173 23.845H16.7853V25.213H15.4173V23.845ZM14.0493 25.213H15.4173V26.581H14.0493V25.213ZM12.6813 26.581H14.0493V36.157H12.6813V26.581ZM14.0493 36.157H15.4173V37.525H14.0493V36.157ZM15.4173 37.525H16.7853V38.893H15.4173V37.525ZM23.131 23.902H27.235V25.27H23.131V23.902ZM20.395 25.27H23.131V26.638H20.395V25.27ZM27.235 25.27H29.971V26.638H27.235V25.27ZM19.027 26.638H20.395V28.006H19.027V26.638ZM29.971 26.638H31.339V28.006H29.971V26.638ZM36.3099 23.845H37.6779V25.213H36.3099V23.845ZM34.9419 25.213H36.3099V26.581H34.9419V25.213ZM33.5739 26.581H34.9419V36.157H33.5739V26.581ZM34.9419 36.157H36.3099V37.525H34.9419V36.157ZM36.3099 37.525H37.6779V38.893H36.3099V37.525ZM39.9196 36.632H49.4956V38H39.9196V36.632ZM54.475 27.075H55.843V29.811H58.579V31.179H57.211V32.547H55.843V31.179H54.475V32.547H53.107V31.179H51.739V29.811H54.475V27.075ZM51.739 32.547H53.107V33.915H51.739V32.547ZM57.211 32.547H58.579V33.915H57.211V32.547ZM63.5482 22.933V24.301H62.1802V22.933H63.5482ZM62.1802 24.301V25.669H60.8122V24.301H62.1802ZM68.5209 27.36H69.8889V31.464H68.5209V27.36ZM67.1529 31.464H68.5209V32.832H67.1529V31.464ZM69.8889 31.464H71.2569V32.832H69.8889V31.464ZM65.7849 32.832H67.1529V34.2H65.7849V32.832ZM71.2569 32.832H72.6249V34.2H71.2569V32.832ZM74.8581 23.845H76.2261V25.213H74.8581V23.845ZM76.2261 25.213H77.5941V26.581H76.2261V25.213ZM79.8308 23.845H81.1988V25.213H79.8308V23.845ZM81.1988 25.213H82.5668V26.581H81.1988V25.213ZM82.5668 26.581H83.9348V36.157H82.5668V26.581ZM81.1988 36.157H82.5668V37.525H81.1988V36.157ZM79.8308 37.525H81.1988V38.893H79.8308V37.525ZM86.1765 36.632H95.7525V38H86.1765V36.632Z" fill="black"/>
</svg>
