<svg width="83" height="51" viewBox="0 0 83 51" fill="none" xmlns="http://www.w3.org/2000/svg">
<path d="M12.1196 0.952H12.9836V1.816H12.1196V0.952ZM11.2556 1.816H12.1196V3.544H11.2556V1.816ZM12.9836 1.816H13.8476V3.544H12.9836V1.816ZM10.3916 3.544H11.2556V5.272H10.3916V3.544ZM13.8476 3.544H14.7116V5.272H13.8476V3.544ZM9.52756 5.272H10.3916V7H9.52756V5.272ZM14.7116 5.272H15.5756V7H14.7116V5.272ZM16.9924 6.136H23.0404V7H16.9924V6.136ZM27.0493 0.952H27.9133V1.816H27.0493V0.952ZM26.1853 1.816H27.0493V3.544H26.1853V1.816ZM27.9133 1.816H28.7773V3.544H27.9133V1.816ZM25.3213 3.544H26.1853V5.272H25.3213V3.544ZM28.7773 3.544H29.6413V5.272H28.7773V3.544ZM24.4573 5.272H25.3213V7H24.4573V5.272ZM29.6413 5.272H30.5053V7H29.6413V5.272ZM6.43916 12.06H7.30316V12.924H6.43916V12.06ZM5.57516 12.924H6.43916V13.788H5.57516V12.924ZM4.71116 13.788H5.57516V19.836H4.71116V13.788ZM5.57516 19.836H6.43916V20.7H5.57516V19.836ZM6.43916 20.7H7.30316V21.564H6.43916V20.7ZM10.447 14.1H11.311V15.828H13.039V16.692H12.175V17.556H11.311V16.692H10.447V17.556H9.58297V16.692H8.71897V15.828H10.447V14.1ZM8.71897 17.556H9.58297V18.42H8.71897V17.556ZM12.175 17.556H13.039V18.42H12.175V17.556ZM17.6794 15.444C17.1154 15.444 16.6714 15.888 16.6714 16.44C16.6714 17.004 17.1154 17.448 17.6794 17.448C18.2314 17.448 18.6874 17.004 18.6874 16.44C18.6874 15.888 18.2314 15.444 17.6794 15.444ZM22.7314 14.088H23.5954V14.952H22.7314V14.088ZM24.4594 14.088H25.3234V14.952H24.4594V14.088ZM21.8674 14.952H22.7314V20.136H23.5954V21H21.8674V14.952ZM25.3234 14.952H26.1874V21H24.4594V20.136H25.3234V14.952ZM23.5954 17.544H24.4594V20.136H23.5954V17.544ZM29.4099 15.444C28.8459 15.444 28.4019 15.888 28.4019 16.44C28.4019 17.004 28.8459 17.448 29.4099 17.448C29.9619 17.448 30.4179 17.004 30.4179 16.44C30.4179 15.888 29.9619 15.444 29.4099 15.444ZM33.5979 12.06H34.4619V12.924H33.5979V12.06ZM34.4619 12.924H35.3259V13.788H34.4619V12.924ZM35.3259 13.788H36.1899V19.836H35.3259V13.788ZM34.4619 19.836H35.3259V20.7H34.4619V19.836ZM33.5979 20.7H34.4619V21.564H33.5979V20.7ZM0.176 34.136H6.224V35H0.176V34.136ZM9.36884 26.06H10.2328V26.924H9.36884V26.06ZM8.50484 26.924H9.36884V27.788H8.50484V26.924ZM7.64084 27.788H8.50484V33.836H7.64084V27.788ZM8.50484 33.836H9.36884V34.7H8.50484V33.836ZM9.36884 34.7H10.2328V35.564H9.36884V34.7ZM11.6487 34.136H17.6967V35H11.6487V34.136ZM19.1135 34.136H25.1615V35H19.1135V34.136ZM29.4103 27.476H32.2663V28.412H29.4103V27.476ZM26.5663 28.412H29.4103V29.36H26.5663V28.412ZM32.2663 28.412H33.2143V29.36H32.2663V28.412ZM33.2143 29.36H34.1623V33.116H33.2143V29.36ZM32.2663 33.116H33.2143V34.064H32.2663V33.116ZM30.3703 34.064H32.2663V35H30.3703V34.064ZM39.8983 26.06H40.7623V27.752H39.8983V26.06ZM39.0343 27.752H39.8983V29.432H39.0343V27.752ZM38.1703 29.432H39.0343V31.112H38.1703V29.432ZM37.3063 31.112H38.1703V32.804H37.3063V31.112ZM36.4423 32.804H37.3063V34.484H36.4423V32.804ZM35.5783 34.484H36.4423V36.164H35.5783V34.484ZM42.176 26.348H49.88V27.212H42.176V26.348ZM51.2932 26.348H58.9972V27.212H51.2932V26.348ZM60.4104 26.348H68.1144V27.212H60.4104V26.348ZM73.8476 26.06H74.7116V27.752H73.8476V26.06ZM72.9836 27.752H73.8476V29.432H72.9836V27.752ZM72.1196 29.432H72.9836V31.112H72.1196V29.432ZM71.2556 31.112H72.1196V32.804H71.2556V31.112ZM70.3916 32.804H71.2556V34.484H70.3916V32.804ZM69.5276 34.484H70.3916V36.164H69.5276V34.484ZM76.1252 34.136H82.1732V35H76.1252V34.136ZM21.7151 40.36H22.5791V42.088H21.7151V40.36ZM22.5791 42.088H23.4431V43.816H22.5791V42.088ZM23.4431 43.816H24.3071V45.544H23.4431V43.816ZM24.3071 45.544H25.1711V47.272H24.3071V45.544ZM25.1711 47.272H26.0351V49H25.1711V47.272ZM31.7655 40.06H32.6295V41.752H31.7655V40.06ZM30.9015 41.752H31.7655V43.432H30.9015V41.752ZM30.0375 43.432H30.9015V45.112H30.0375V43.432ZM29.1735 45.112H30.0375V46.804H29.1735V45.112ZM28.3095 46.804H29.1735V48.484H28.3095V46.804ZM27.4455 48.484H28.3095V50.164H27.4455V48.484ZM67.5546 40.06H68.4186V41.752H67.5546V40.06ZM66.6906 41.752H67.5546V43.432H66.6906V41.752ZM65.8266 43.432H66.6906V45.112H65.8266V43.432ZM64.9626 45.112H65.8266V46.804H64.9626V45.112ZM64.0986 46.804H64.9626V48.484H64.0986V46.804ZM63.2346 48.484H64.0986V50.164H63.2346V48.484Z" fill="black"/>
</svg>
