<svg width="82" height="45" viewBox="0 0 82 45" fill="none" xmlns="http://www.w3.org/2000/svg">
<path d="M15.9951 0.699999C16.7018 0.699999 17.3551 0.799999 17.9551 0.999999C18.5685 1.2 19.1085 1.47333 19.5751 1.82L18.9151 3.14C18.6485 2.94 18.3551 2.76667 18.0351 2.62C17.7151 2.47333 17.3818 2.36 17.0351 2.28C16.7018 2.2 16.3818 2.16 16.0751 2.16C15.5151 2.16 15.0551 2.25333 14.6951 2.44C14.3351 2.62667 14.0618 2.9 13.8751 3.26C13.7018 3.60667 13.6151 4.04667 13.6151 4.58C13.6151 5.04667 13.6951 5.49333 13.8551 5.92C14.0285 6.34667 14.2751 6.74 14.5951 7.1C14.9151 7.44667 15.3018 7.76 15.7551 8.04C16.2218 8.32 16.7485 8.55333 17.3351 8.74V16H15.5751V9.66C14.8818 9.34 14.2951 8.98 13.8151 8.58C13.3351 8.16667 12.9485 7.73333 12.6551 7.28C12.3618 6.82667 12.1485 6.36667 12.0151 5.9C11.8818 5.43333 11.8151 4.97333 11.8151 4.52C11.8151 3.72 11.9685 3.04 12.2751 2.48C12.5951 1.90667 13.0685 1.46667 13.6951 1.16C14.3218 0.853332 15.0885 0.699999 15.9951 0.699999ZM29.1661 20.44H20.8661V19.16H29.1661V20.44ZM29.1661 17.8H20.8661V16.52H29.1661V17.8ZM26.9661 7.38H29.7261V10.18H26.9661V7.38ZM37.2786 7.24H38.8586V8.8H37.2786V7.24ZM46.4192 7.38H49.1792V10.18H46.4192V7.38ZM58.9317 20.44H50.6317V19.16H58.9317V20.44ZM58.9317 17.8H50.6317V16.52H58.9317V17.8ZM58.5917 0.699999C59.5117 0.699999 60.2784 0.853332 60.8917 1.16C61.5184 1.46667 61.985 1.90667 62.2917 2.48C62.6117 3.04 62.7717 3.72 62.7717 4.52C62.7717 4.97333 62.705 5.43333 62.5717 5.9C62.4384 6.36667 62.225 6.82667 61.9317 7.28C61.6384 7.73333 61.2517 8.16667 60.7717 8.58C60.2917 8.98 59.705 9.34 59.0117 9.66V16H57.2517V8.74C57.8384 8.55333 58.3584 8.32 58.8117 8.04C59.2784 7.76 59.6717 7.44667 59.9917 7.1C60.3117 6.74 60.5517 6.34667 60.7117 5.92C60.885 5.49333 60.9717 5.04667 60.9717 4.58C60.9717 4.04667 60.885 3.60667 60.7117 3.26C60.5384 2.9 60.265 2.62667 59.8917 2.44C59.5317 2.25333 59.0717 2.16 58.5117 2.16C58.205 2.16 57.885 2.2 57.5517 2.28C57.2184 2.36 56.885 2.47333 56.5517 2.62C56.2317 2.76667 55.9384 2.94 55.6717 3.14L55.0117 1.82C55.4784 1.47333 56.0184 1.2 56.6317 0.999999C57.245 0.799999 57.8984 0.699999 58.5917 0.699999ZM7.26178 24.1H8.70178V26.92H7.26178V24.1ZM5.82178 26.92H7.26178V29.72H5.82178V26.92ZM4.38178 29.72H5.82178V32.52H4.38178V29.72ZM2.94178 32.52H4.38178V35.34H2.94178V32.52ZM1.50178 35.34H2.94178V38.14H1.50178V35.34ZM0.06178 38.14H1.50178V40.94H0.06178V38.14ZM21.0132 26.46H25.7532V28.02H21.0132V26.46ZM16.2532 28.02H21.0132V29.6H16.2532V28.02ZM25.7532 28.02H27.3532V29.6H25.7532V28.02ZM27.3532 29.6H28.9332V35.86H27.3532V29.6ZM25.7532 35.86H27.3532V37.44H25.7532V35.86ZM22.5932 37.44H25.7532V39H22.5932V37.44ZM29.8532 24.62H31.4332V26.2H29.8532V24.62ZM31.4332 26.2H33.0132V27.76H31.4332V26.2ZM29.8532 27.76H31.4332V29.32H29.8532V27.76ZM31.4332 29.32H33.0132V30.9H31.4332V29.32ZM38.2543 26.04H41.1343V27.48H38.2543V26.04ZM42.5743 26.04H45.4543V27.48H42.5743V26.04ZM36.8143 27.48H38.2543V28.92H36.8143V27.48ZM41.1343 27.48H42.5743V28.92H41.1343V27.48ZM45.4543 27.48H46.8943V28.92H45.4543V27.48ZM35.3743 28.92H36.8143V33.24H35.3743V28.92ZM46.8943 28.92H48.3343V33.24H46.8943V28.92ZM36.8143 33.24H38.2543V34.68H36.8143V33.24ZM45.4543 33.24H46.8943V34.68H45.4543V33.24ZM38.2543 34.68H39.6943V36.12H38.2543V34.68ZM44.0143 34.68H45.4543V36.12H44.0143V34.68ZM39.6943 36.12H41.1343V37.56H39.6943V36.12ZM42.5743 36.12H44.0143V37.56H42.5743V36.12ZM41.1343 37.56H42.5743V39H41.1343V37.56ZM55.8821 30.44H65.9621V31.88H55.8821V30.44ZM55.8821 33.32H65.9621V34.76H55.8821V33.32ZM72.3635 41.5H60.3635V40.48H72.3635V41.5ZM76.4065 44.5H64.4065V43.48H76.4065V44.5ZM72.3635 26.5H60.3635V25.48H72.3635V26.5ZM76.4065 23.5H64.4065V22.48H76.4065V23.5ZM71.2035 26.04H74.0835V27.48H71.2035V26.04ZM75.5235 26.04H78.4035V27.48H75.5235V26.04ZM69.7635 27.48H71.2035V28.92H69.7635V27.48ZM74.0835 27.48H75.5235V28.92H74.0835V27.48ZM78.4035 27.48H79.8435V28.92H78.4035V27.48ZM68.3235 28.92H69.7635V33.24H68.3235V28.92ZM79.8435 28.92H81.2835V33.24H79.8435V28.92ZM69.7635 33.24H71.2035V34.68H69.7635V33.24ZM78.4035 33.24H79.8435V34.68H78.4035V33.24ZM71.2035 34.68H72.6435V36.12H71.2035V34.68ZM76.9635 34.68H78.4035V36.12H76.9635V34.68ZM72.6435 36.12H74.0835V37.56H72.6435V36.12ZM75.5235 36.12H76.9635V37.56H75.5235V36.12ZM74.0835 37.56H75.5235V39H74.0835V37.56Z" fill="black"/>
</svg>
