<svg width="55" height="48" viewBox="0 0 55 48" fill="none" xmlns="http://www.w3.org/2000/svg">
<path d="M2.63 0.824999H3.71V1.905H2.63V0.824999ZM1.55 1.905H2.63V2.985H1.55V1.905ZM0.47 2.985H1.55V10.545H0.47V2.985ZM1.55 10.545H2.63V11.625H1.55V10.545ZM2.63 11.625H3.71V12.705H2.63V11.625ZM5.47977 0.824999H6.55977V1.905H5.47977V0.824999ZM6.55977 1.905H7.63977V2.985H6.55977V1.905ZM7.63977 2.985H8.71977V4.065H7.63977V2.985ZM8.71977 4.065H9.79977V5.145H8.71977V4.065ZM9.79977 5.145H10.8798V6.225H9.79977V5.145ZM10.8798 6.225H11.9598V7.305H10.8798V6.225ZM9.79977 7.305H10.8798V8.385H9.79977V7.305ZM8.71977 8.385H9.79977V9.465H8.71977V8.385ZM7.63977 9.465H8.71977V10.545H7.63977V9.465ZM6.55977 10.545H7.63977V11.625H6.55977V10.545ZM5.47977 11.625H6.55977V12.705H5.47977V11.625ZM17.6233 0.164999H19.7833V3.405H18.7033V2.325H17.6233V0.164999ZM20.8633 0.164999H23.0233V3.405H21.9433V2.325H20.8633V0.164999ZM17.6233 3.405H18.7033V4.485H17.6233V3.405ZM20.8633 3.405H21.9433V4.485H20.8633V3.405ZM28.6829 0.164999H30.8429V3.405H29.7629V2.325H28.6829V0.164999ZM31.9229 0.164999H34.0829V3.405H33.0029V2.325H31.9229V0.164999ZM28.6829 3.405H29.7629V4.485H28.6829V3.405ZM31.9229 3.405H33.0029V4.485H31.9229V3.405ZM45.1425 0.824999H46.2225V1.905H45.1425V0.824999ZM44.0625 1.905H45.1425V2.985H44.0625V1.905ZM42.9825 2.985H44.0625V4.065H42.9825V2.985ZM41.9025 4.065H42.9825V5.145H41.9025V4.065ZM40.8225 5.145H41.9025V6.225H40.8225V5.145ZM39.7425 6.225H40.8225V7.305H39.7425V6.225ZM40.8225 7.305H41.9025V8.385H40.8225V7.305ZM41.9025 8.385H42.9825V9.465H41.9025V8.385ZM42.9825 9.465H44.0625V10.545H42.9825V9.465ZM44.0625 10.545H45.1425V11.625H44.0625V10.545ZM45.1425 11.625H46.2225V12.705H45.1425V11.625ZM47.9895 0.824999H49.0695V1.905H47.9895V0.824999ZM49.0695 1.905H50.1495V2.985H49.0695V1.905ZM50.1495 2.985H51.2295V10.545H50.1495V2.985ZM49.0695 10.545H50.1495V11.625H49.0695V10.545ZM47.9895 11.625H49.0695V12.705H47.9895V11.625ZM2.63 17.825H3.71V18.905H2.63V17.825ZM1.55 18.905H2.63V19.985H1.55V18.905ZM0.47 19.985H1.55V27.545H0.47V19.985ZM1.55 27.545H2.63V28.625H1.55V27.545ZM2.63 28.625H3.71V29.705H2.63V28.625ZM9.37625 22.58H16.9363V23.66H9.37625V22.58ZM9.37625 24.74H16.9363V25.82H9.37625V24.74ZM18.7073 17.165H20.8673V20.405H19.7873V19.325H18.7073V17.165ZM18.7073 20.405H19.7873V21.485H18.7073V20.405ZM23.7131 22.52H29.1131V23.6H23.7131V22.52ZM22.6331 23.6H23.7131V27.92H22.6331V23.6ZM29.1131 23.6H30.1931V27.92H29.1131V23.6ZM23.7131 27.92H29.1131V29H23.7131V27.92ZM31.9641 17.81H33.0441V19.97H31.9641V17.81ZM34.8206 22.58H42.3806V23.66H34.8206V22.58ZM34.8206 24.74H42.3806V25.82H34.8206V24.74ZM48.0481 17.825H49.1281V18.905H48.0481V17.825ZM49.1281 18.905H50.2081V19.985H49.1281V18.905ZM50.2081 19.985H51.2881V27.545H50.2081V19.985ZM49.1281 27.545H50.2081V28.625H49.1281V27.545ZM48.0481 28.625H49.1281V29.705H48.0481V28.625ZM0.47 39.52H5.87V40.6H0.47V39.52ZM9.79309 34.825H10.8731V35.905H9.79309V34.825ZM8.71309 35.905H9.79309V36.985H8.71309V35.905ZM7.63309 36.985H8.71309V44.545H7.63309V36.985ZM8.71309 44.545H9.79309V45.625H8.71309V44.545ZM9.79309 45.625H10.8731V46.705H9.79309V45.625ZM13.5429 44.755H14.4429V46.555H13.5429V44.755ZM12.6429 46.555H13.5429V47.455H12.6429V46.555ZM17.1171 44.755H18.0171V46.555H17.1171V44.755ZM16.2171 46.555H17.1171V47.455H16.2171V46.555ZM19.7913 34.825H20.8713V35.905H19.7913V34.825ZM20.8713 35.905H21.9513V36.985H20.8713V35.905ZM21.9513 36.985H23.0313V44.545H21.9513V36.985ZM20.8713 44.545H21.9513V45.625H20.8713V44.545ZM19.7913 45.625H20.8713V46.705H19.7913V45.625ZM24.8011 39.52H30.2011V40.6H24.8011V39.52ZM34.1241 34.825H35.2041V35.905H34.1241V34.825ZM33.0441 35.905H34.1241V36.985H33.0441V35.905ZM31.9641 36.985H33.0441V44.545H31.9641V36.985ZM33.0441 44.545H34.1241V45.625H33.0441V44.545ZM34.1241 45.625H35.2041V46.705H34.1241V45.625ZM37.8739 44.755H38.7739V46.555H37.8739V44.755ZM36.9739 46.555H37.8739V47.455H36.9739V46.555ZM41.4481 44.755H42.3481V46.555H41.4481V44.755ZM40.5481 46.555H41.4481V47.455H40.5481V46.555ZM44.1223 34.825H45.2023V35.905H44.1223V34.825ZM45.2023 35.905H46.2823V36.985H45.2023V35.905ZM46.2823 36.985H47.3623V44.545H46.2823V36.985ZM45.2023 44.545H46.2823V45.625H45.2023V44.545ZM44.1223 45.625H45.2023V46.705H44.1223V45.625ZM49.1321 39.52H54.5321V40.6H49.1321V39.52Z" fill="black"/>
</svg>
