<svg width="58" height="54" viewBox="0 0 58 54" fill="none" xmlns="http://www.w3.org/2000/svg">
<path d="M14.1833 0.928H15.4793V2.224H14.1833V0.928ZM12.8873 2.224H14.1833V4.816H12.8873V2.224ZM15.4793 2.224H16.7753V4.816H15.4793V2.224ZM11.5913 4.816H12.8873V7.408H11.5913V4.816ZM16.7753 4.816H18.0713V7.408H16.7753V4.816ZM10.2953 7.408H11.5913V10H10.2953V7.408ZM18.0713 7.408H19.3673V10H18.0713V7.408ZM22.5725 8.506H23.6525V10.666H22.5725V8.506ZM21.4925 10.666H22.5725V11.746H21.4925V10.666ZM26.8616 8.506H27.9416V10.666H26.8616V8.506ZM25.7816 10.666H26.8616V11.746H25.7816V10.666ZM31.1506 8.506H32.2306V10.666H31.1506V8.506ZM30.0706 10.666H31.1506V11.746H30.0706V10.666ZM38.2477 0.928H39.5437V2.224H38.2477V0.928ZM36.9517 2.224H38.2477V4.816H36.9517V2.224ZM39.5437 2.224H40.8397V4.816H39.5437V2.224ZM35.6557 4.816H36.9517V7.408H35.6557V4.816ZM40.8397 4.816H42.1357V7.408H40.8397V4.816ZM34.3597 7.408H35.6557V10H34.3597V7.408ZM42.1357 7.408H43.4317V10H42.1357V7.408ZM6.43608 17.59H7.73208V18.886H6.43608V17.59ZM5.14008 18.886H6.43608V20.182H5.14008V18.886ZM3.84408 20.182H5.14008V29.254H3.84408V20.182ZM5.14008 29.254H6.43608V30.55H5.14008V29.254ZM6.43608 30.55H7.73208V31.846H6.43608V30.55ZM21.1874 32.62H13.7174V31.468H21.1874V32.62ZM21.1874 34.996H13.7174V33.844H21.1874V34.996ZM19.2074 23.242H21.6914V25.762H19.2074V23.242ZM28.4886 23.116H29.9106V24.52H28.4886V23.116ZM36.7152 23.242H39.1992V25.762H36.7152V23.242ZM47.9764 32.62H40.5064V31.468H47.9764V32.62ZM47.9764 34.996H40.5064V33.844H47.9764V34.996ZM45.9964 17.59H47.2924V18.886H45.9964V17.59ZM47.2924 18.886H48.5884V20.182H47.2924V18.886ZM48.5884 20.182H49.8844V29.254H48.5884V20.182ZM47.2924 29.254H48.5884V30.55H47.2924V29.254ZM45.9964 30.55H47.2924V31.846H45.9964V30.55ZM6.94908 38.59H8.24508V41.128H6.94908V38.59ZM5.65308 41.128H6.94908V43.648H5.65308V41.128ZM4.35708 43.648H5.65308V46.168H4.35708V43.648ZM3.06108 46.168H4.35708V48.706H3.06108V46.168ZM1.76508 48.706H3.06108V51.226H1.76508V48.706ZM0.469078 51.226H1.76508V53.746H0.469078V51.226ZM33.3527 40.714H37.6187V42.118H33.3527V40.714ZM29.0687 42.118H33.3527V43.54H29.0687V42.118ZM37.6187 42.118H39.0587V43.54H37.6187V42.118ZM39.0587 43.54H40.4807V49.174H39.0587V43.54ZM37.6187 49.174H39.0587V50.596H37.6187V49.174ZM34.7747 50.596H37.6187V52H34.7747V50.596ZM41.3087 39.058H42.7307V40.48H41.3087V39.058ZM42.7307 40.48H44.1527V41.884H42.7307V40.48ZM41.3087 41.884H42.7307V43.288H41.3087V41.884ZM42.7307 43.288H44.1527V44.71H42.7307V43.288ZM48.8697 40.336H51.4617V41.632H48.8697V40.336ZM52.7577 40.336H55.3497V41.632H52.7577V40.336ZM47.5737 41.632H48.8697V42.928H47.5737V41.632ZM51.4617 41.632H52.7577V42.928H51.4617V41.632ZM55.3497 41.632H56.6457V42.928H55.3497V41.632ZM46.2777 42.928H47.5737V46.816H46.2777V42.928ZM56.6457 42.928H57.9417V46.816H56.6457V42.928ZM47.5737 46.816H48.8697V48.112H47.5737V46.816ZM55.3497 46.816H56.6457V48.112H55.3497V46.816ZM48.8697 48.112H50.1657V49.408H48.8697V48.112ZM54.0537 48.112H55.3497V49.408H54.0537V48.112ZM50.1657 49.408H51.4617V50.704H50.1657V49.408ZM52.7577 49.408H54.0537V50.704H52.7577V49.408ZM51.4617 50.704H52.7577V52H51.4617V50.704Z" fill="black"/>
</svg>
