<svg width="82" height="44" viewBox="0 0 82 44" fill="none" xmlns="http://www.w3.org/2000/svg">
<path d="M16.6621 0.033251C17.3688 0.033251 18.0221 0.133251 18.6221 0.333251C19.2355 0.533251 19.7755 0.806585 20.2421 1.15325L19.5821 2.47325C19.3155 2.27325 19.0221 2.09992 18.7021 1.95325C18.3821 1.80658 18.0488 1.69325 17.7021 1.61325C17.3688 1.53325 17.0488 1.49325 16.7421 1.49325C16.1821 1.49325 15.7221 1.58658 15.3621 1.77325C15.0021 1.95992 14.7288 2.23325 14.5421 2.59325C14.3688 2.93992 14.2821 3.37992 14.2821 3.91325C14.2821 4.37992 14.3621 4.82659 14.5221 5.25325C14.6955 5.67992 14.9421 6.07325 15.2621 6.43325C15.5821 6.77992 15.9688 7.09325 16.4221 7.37325C16.8888 7.65325 17.4155 7.88659 18.0021 8.07325V15.3333H16.2421V8.99325C15.5488 8.67325 14.9621 8.31325 14.4821 7.91325C14.0021 7.49992 13.6155 7.06659 13.3221 6.61325C13.0288 6.15992 12.8155 5.69992 12.6821 5.23325C12.5488 4.76659 12.4821 4.30658 12.4821 3.85325C12.4821 3.05325 12.6355 2.37325 12.9421 1.81325C13.2621 1.23992 13.7355 0.799918 14.3621 0.493251C14.9888 0.186584 15.7555 0.033251 16.6621 0.033251ZM29.8331 19.7733H21.5331V18.4933H29.8331V19.7733ZM29.8331 17.1333H21.5331V15.8533H29.8331V17.1333ZM27.6331 6.71325H30.3931V9.51325H27.6331V6.71325ZM37.9456 6.57325H39.5256V8.13325H37.9456V6.57325ZM47.0862 6.71325H49.8462V9.51325H47.0862V6.71325ZM59.5987 19.7733H51.2987V18.4933H59.5987V19.7733ZM59.5987 17.1333H51.2987V15.8533H59.5987V17.1333ZM59.2587 0.033251C60.1787 0.033251 60.9454 0.186584 61.5587 0.493251C62.1854 0.799918 62.652 1.23992 62.9587 1.81325C63.2787 2.37325 63.4387 3.05325 63.4387 3.85325C63.4387 4.30658 63.372 4.76659 63.2387 5.23325C63.1054 5.69992 62.892 6.15992 62.5987 6.61325C62.3054 7.06659 61.9187 7.49992 61.4387 7.91325C60.9587 8.31325 60.372 8.67325 59.6787 8.99325V15.3333H57.9187V8.07325C58.5054 7.88659 59.0254 7.65325 59.4787 7.37325C59.9454 7.09325 60.3387 6.77992 60.6587 6.43325C60.9787 6.07325 61.2187 5.67992 61.3787 5.25325C61.552 4.82659 61.6387 4.37992 61.6387 3.91325C61.6387 3.37992 61.552 2.93992 61.3787 2.59325C61.2054 2.23325 60.932 1.95992 60.5587 1.77325C60.1987 1.58658 59.7387 1.49325 59.1787 1.49325C58.872 1.49325 58.552 1.53325 58.2187 1.61325C57.8854 1.69325 57.552 1.80658 57.2187 1.95325C56.8987 2.09992 56.6054 2.27325 56.3387 2.47325L55.6787 1.15325C56.1454 0.806585 56.6854 0.533251 57.2987 0.333251C57.912 0.133251 58.5654 0.033251 59.2587 0.033251ZM7.92877 23.4333H9.36877V26.2533H7.92877V23.4333ZM6.48877 26.2533H7.92877V29.0533H6.48877V26.2533ZM5.04877 29.0533H6.48877V31.8533H5.04877V29.0533ZM3.60877 31.8533H5.04877V34.6733H3.60877V31.8533ZM2.16877 34.6733H3.60877V37.4733H2.16877V34.6733ZM0.728772 37.4733H2.16877V40.2733H0.728772V37.4733ZM21.6802 25.7933H26.4202V27.3533H21.6802V25.7933ZM16.9202 27.3533H21.6802V28.9333H16.9202V27.3533ZM26.4202 27.3533H28.0202V28.9333H26.4202V27.3533ZM28.0202 28.9333H29.6002V35.1933H28.0202V28.9333ZM26.4202 35.1933H28.0202V36.7733H26.4202V35.1933ZM23.2602 36.7733H26.4202V38.3333H23.2602V36.7733ZM30.5202 23.9533H32.1002V25.5333H30.5202V23.9533ZM32.1002 25.5333H33.6802V27.0933H32.1002V25.5333ZM30.5202 27.0933H32.1002V28.6533H30.5202V27.0933ZM32.1002 28.6533H33.6802V30.2333H32.1002V28.6533ZM38.9213 25.3733H41.8013V26.8133H38.9213V25.3733ZM43.2413 25.3733H46.1213V26.8133H43.2413V25.3733ZM37.4813 26.8133H38.9213V28.2533H37.4813V26.8133ZM41.8013 26.8133H43.2413V28.2533H41.8013V26.8133ZM46.1213 26.8133H47.5613V28.2533H46.1213V26.8133ZM36.0413 28.2533H37.4813V32.5733H36.0413V28.2533ZM47.5613 28.2533H49.0013V32.5733H47.5613V28.2533ZM37.4813 32.5733H38.9213V34.0133H37.4813V32.5733ZM46.1213 32.5733H47.5613V34.0133H46.1213V32.5733ZM38.9213 34.0133H40.3613V35.4533H38.9213V34.0133ZM44.6813 34.0133H46.1213V35.4533H44.6813V34.0133ZM40.3613 35.4533H41.8013V36.8933H40.3613V35.4533ZM43.2413 35.4533H44.6813V36.8933H43.2413V35.4533ZM41.8013 36.8933H43.2413V38.3333H41.8013V36.8933ZM56.5491 29.7733H66.6291V31.2133H56.5491V29.7733ZM56.5491 32.6533H66.6291V34.0933H56.5491V32.6533ZM73.0305 40.8333H61.0305V39.8133H73.0305V40.8333ZM77.0735 43.8333H65.0735V42.8133H77.0735V43.8333ZM73.0305 25.8333H61.0305V24.8133H73.0305V25.8333ZM77.0735 22.8333H65.0735V21.8133H77.0735V22.8333ZM71.8705 25.3733H74.7505V26.8133H71.8705V25.3733ZM76.1905 25.3733H79.0705V26.8133H76.1905V25.3733ZM70.4305 26.8133H71.8705V28.2533H70.4305V26.8133ZM74.7505 26.8133H76.1905V28.2533H74.7505V26.8133ZM79.0705 26.8133H80.5105V28.2533H79.0705V26.8133ZM68.9905 28.2533H70.4305V32.5733H68.9905V28.2533ZM80.5105 28.2533H81.9505V32.5733H80.5105V28.2533ZM70.4305 32.5733H71.8705V34.0133H70.4305V32.5733ZM79.0705 32.5733H80.5105V34.0133H79.0705V32.5733ZM71.8705 34.0133H73.3105V35.4533H71.8705V34.0133ZM77.6305 34.0133H79.0705V35.4533H77.6305V34.0133ZM73.3105 35.4533H74.7505V36.8933H73.3105V35.4533ZM76.1905 35.4533H77.6305V36.8933H76.1905V35.4533ZM74.7505 36.8933H76.1905V38.3333H74.7505V36.8933Z" fill="black"/>
</svg>
