<svg width="170" height="244" viewBox="0 0 170 244" fill="none" xmlns="http://www.w3.org/2000/svg">
<path d="M3.96516 49.3477L36.0482 6.04673C37.9343 3.50122 40.915 2 44.0831 2H125.691C128.837 2 131.8 3.48051 133.688 5.99652L166.22 49.3323C167.519 51.0639 168.222 53.1706 168.222 55.3358V232C168.222 237.523 163.745 242 158.222 242H12C6.47715 242 2 237.523 2 232V55.301C2 53.1572 2.68892 51.0702 3.96516 49.3477Z" fill="white"/>
<path d="M3.96516 49.3477L36.0482 6.04673C37.9343 3.50122 40.915 2 44.0831 2H125.691C128.837 2 131.8 3.48051 133.688 5.99652L166.22 49.3323C167.519 51.0639 168.222 53.1706 168.222 55.3358V232C168.222 237.523 163.745 242 158.222 242H12C6.47715 242 2 237.523 2 232V55.301C2 53.1572 2.68892 51.0702 3.96516 49.3477Z" fill="url(#paint0_linear_1204_2210)"/>
<path d="M3.96516 49.3477L36.0482 6.04673C37.9343 3.50122 40.915 2 44.0831 2H125.691C128.837 2 131.8 3.48051 133.688 5.99652L166.22 49.3323C167.519 51.0639 168.222 53.1706 168.222 55.3358V232C168.222 237.523 163.745 242 158.222 242H12C6.47715 242 2 237.523 2 232V55.301C2 53.1572 2.68892 51.0702 3.96516 49.3477Z" stroke="#F5DA93" stroke-width="3"/>
<path d="M9.25021 53.1829L39.0068 12.3342C40.889 9.75041 43.893 8.22217 47.0897 8.22217H122.715C125.89 8.22217 128.876 9.72959 130.761 12.2839L160.934 53.1671C162.204 54.8869 162.889 56.968 162.889 59.1054V226.667C162.889 232.189 158.411 236.667 152.889 236.667H17.333C11.8102 236.667 7.33301 232.189 7.33301 226.667V59.0709C7.33301 56.9548 8.00427 54.8933 9.25021 53.1829Z" fill="url(#paint1_linear_1204_2210)" stroke="#F5DA93" stroke-width="3"/>
<text transform="matrix(0 -1 1 0 11.7773 222.444)" fill="black" xml:space="preserve" style="white-space: pre" font-family="PFStardust 1.4" font-size="16" font-weight="500" letter-spacing="0em"><tspan x="6.86545" y="14.752">&#xff9f; &#x273d;.&#xff61;.:*&#x30fb;&#xff9f; &#x273d;.&#xff61;.:*&#x30fb;&#xff9f; &#x273d;.&#xff61;.:*</tspan></text>
<text transform="matrix(0 -1 -1 0 160.223 218.889)" fill="black" xml:space="preserve" style="white-space: pre" font-family="PFStardust 1.4" font-size="16" font-weight="500" letter-spacing="0em"><tspan x="5.08768" y="14.752">&#xff9f; &#x273d;.&#xff61;.:*&#x30fb;&#xff9f; &#x273d;.&#xff61;.:*&#x30fb;&#xff9f; &#x273d;.&#xff61;.:*</tspan></text>
<defs>
<linearGradient id="paint0_linear_1204_2210" x1="85.1111" y1="2" x2="85.1111" y2="242" gradientUnits="userSpaceOnUse">
<stop stop-color="#F8F1E5"/>
<stop offset="1" stop-color="#FFBB36" stop-opacity="0.1"/>
</linearGradient>
<linearGradient id="paint1_linear_1204_2210" x1="85.1108" y1="8.22217" x2="85.1108" y2="236.667" gradientUnits="userSpaceOnUse">
<stop stop-color="#FFFFF4"/>
<stop offset="1" stop-color="#FFFFF4" stop-opacity="0"/>
</linearGradient>
</defs>
</svg>
