<svg width="170" height="244" viewBox="0 0 170 244" fill="none" xmlns="http://www.w3.org/2000/svg">
<path d="M3.96516 49.3477L36.0482 6.04673C37.9343 3.50122 40.915 2 44.0831 2H125.691C128.837 2 131.8 3.48051 133.688 5.99652L166.22 49.3323C167.519 51.0639 168.222 53.1706 168.222 55.3358V232C168.222 237.523 163.745 242 158.222 242H12C6.47715 242 2 237.523 2 232V55.301C2 53.1572 2.68892 51.0702 3.96516 49.3477Z" fill="white"/>
<path d="M3.96516 49.3477L36.0482 6.04673C37.9343 3.50122 40.915 2 44.0831 2H125.691C128.837 2 131.8 3.48051 133.688 5.99652L166.22 49.3323C167.519 51.0639 168.222 53.1706 168.222 55.3358V232C168.222 237.523 163.745 242 158.222 242H12C6.47715 242 2 237.523 2 232V55.301C2 53.1572 2.68892 51.0702 3.96516 49.3477Z" fill="url(#paint0_linear_1204_2210)"/>
<path d="M3.96516 49.3477L36.0482 6.04673C37.9343 3.50122 40.915 2 44.0831 2H125.691C128.837 2 131.8 3.48051 133.688 5.99652L166.22 49.3323C167.519 51.0639 168.222 53.1706 168.222 55.3358V232C168.222 237.523 163.745 242 158.222 242H12C6.47715 242 2 237.523 2 232V55.301C2 53.1572 2.68892 51.0702 3.96516 49.3477Z" stroke="#F5DA93" stroke-width="3"/>
<path d="M9.25021 53.1829L39.0068 12.3342C40.889 9.75041 43.893 8.22217 47.0897 8.22217H122.715C125.89 8.22217 128.876 9.72959 130.761 12.2839L160.934 53.1671C162.204 54.8869 162.889 56.968 162.889 59.1054V226.667C162.889 232.189 158.411 236.667 152.889 236.667H17.333C11.8102 236.667 7.33301 232.189 7.33301 226.667V59.0709C7.33301 56.9548 8.00427 54.8933 9.25021 53.1829Z" fill="url(#paint1_linear_1204_2210)" stroke="#F5DA93" stroke-width="3"/>
<path d="M15.1453 214.491C14.4893 214.491 13.9453 214.123 13.9453 213.611C13.9453 213.131 14.4893 212.731 15.1453 212.731C15.8013 212.731 16.3453 213.131 16.3453 213.611C16.3453 214.123 15.8013 214.491 15.1453 214.491ZM15.1453 215.147C16.2333 215.147 17.1133 214.475 17.1133 213.611C17.1133 212.763 16.2333 212.091 15.1453 212.091C14.0573 212.091 13.1773 212.763 13.1773 213.611C13.1773 214.475 14.0573 215.147 15.1453 215.147ZM18.6173 199.551V198.399H20.9213V197.247H22.0733V198.399H24.3773V199.551H22.0733V200.703H20.9213V199.551H18.6173ZM19.7693 201.855V200.703H20.9213V201.855H19.7693ZM19.7693 197.247V196.095H20.9213V197.247H19.7693ZM22.0733 201.855V200.703H23.2253V201.855H22.0733ZM22.0733 197.247V196.095H23.2253V197.247H22.0733ZM25.6253 194.214V193.062H26.7773V194.214H25.6253ZM22.8893 189.759C22.8893 191.087 23.9773 192.191 25.3213 192.191C26.6653 192.191 27.7533 191.087 27.7533 189.759C27.7533 188.399 26.6653 187.311 25.3213 187.311C23.9773 187.311 22.8893 188.399 22.8893 189.759ZM26.9373 189.759C26.9373 190.639 26.2173 191.375 25.3213 191.375C24.4253 191.375 23.7053 190.639 23.7053 189.759C23.7053 188.847 24.4253 188.127 25.3213 188.127C26.2173 188.127 26.9373 188.847 26.9373 189.759ZM25.6253 183.167V182.015H26.7773V183.167H25.6253ZM20.9693 180.12V178.968H22.1213V180.12H20.9693ZM25.5773 180.12V178.968H26.7293V180.12H25.5773ZM17.5773 174.769V173.617H19.8813V171.313H21.0333V172.465H22.1853V173.617H21.0333V174.769H22.1853V175.921H21.0333V177.073H19.8813V174.769H17.5773ZM22.1853 177.073V175.921H23.3373V177.073H22.1853ZM22.1853 172.465V171.313H23.3373V172.465H22.1853ZM19.7693 169.433V168.169H21.0173V169.433H19.7693ZM15.1453 166.757C14.4893 166.757 13.9453 166.389 13.9453 165.877C13.9453 165.397 14.4893 164.997 15.1453 164.997C15.8013 164.997 16.3453 165.397 16.3453 165.877C16.3453 166.389 15.8013 166.757 15.1453 166.757ZM15.1453 167.413C16.2333 167.413 17.1133 166.741 17.1133 165.877C17.1133 165.029 16.2333 164.357 15.1453 164.357C14.0573 164.357 13.1773 165.029 13.1773 165.877C13.1773 166.741 14.0573 167.413 15.1453 167.413ZM18.6173 151.816V150.664H20.9213L20.9213 149.512H22.0733L22.0733 150.664H24.3773V151.816H22.0733V152.968H20.9213V151.816H18.6173ZM19.7693 154.12V152.968H20.9213V154.12H19.7693ZM19.7693 149.512V148.36H20.9213V149.512H19.7693ZM22.0733 154.12V152.968H23.2253V154.12H22.0733ZM22.0733 149.512V148.36H23.2253V149.512H22.0733ZM25.6253 146.48V145.328H26.7773V146.48H25.6253ZM22.8893 142.025C22.8893 143.353 23.9773 144.457 25.3213 144.457C26.6653 144.457 27.7533 143.353 27.7533 142.025C27.7533 140.665 26.6653 139.577 25.3213 139.577C23.9773 139.577 22.8893 140.665 22.8893 142.025ZM26.9373 142.025C26.9373 142.905 26.2173 143.641 25.3213 143.641C24.4253 143.641 23.7053 142.905 23.7053 142.025C23.7053 141.113 24.4253 140.393 25.3213 140.393C26.2173 140.393 26.9373 141.113 26.9373 142.025ZM25.6253 135.433V134.281H26.7773V135.433H25.6253ZM20.9693 132.386V131.234H22.1213V132.386H20.9693ZM25.5773 132.386V131.234H26.7293V132.386H25.5773ZM17.5773 127.035V125.883H19.8813V123.579H21.0333V124.731H22.1853V125.883H21.0333V127.035H22.1853V128.187H21.0333V129.339H19.8813V127.035H17.5773ZM22.1853 129.339V128.187H23.3373V129.339H22.1853ZM22.1853 124.731V123.579H23.3373V124.731H22.1853ZM19.7693 121.698V120.434H21.0173V121.698H19.7693ZM15.1453 119.022C14.4893 119.022 13.9453 118.654 13.9453 118.142C13.9453 117.662 14.4893 117.262 15.1453 117.262C15.8013 117.262 16.3453 117.662 16.3453 118.142C16.3453 118.654 15.8013 119.022 15.1453 119.022ZM15.1453 119.678C16.2333 119.678 17.1133 119.006 17.1133 118.142C17.1133 117.294 16.2333 116.622 15.1453 116.622C14.0573 116.622 13.1773 117.294 13.1773 118.142C13.1773 119.006 14.0573 119.678 15.1453 119.678ZM18.6173 104.082V102.93H20.9213V101.778H22.0733V102.93H24.3773V104.082H22.0733V105.234H20.9213V104.082H18.6173ZM19.7693 106.386V105.234H20.9213V106.386H19.7693ZM19.7693 101.778V100.626H20.9213V101.778H19.7693ZM22.0733 106.386V105.234H23.2253V106.386H22.0733ZM22.0733 101.778V100.626H23.2253V101.778H22.0733ZM25.6253 98.7453V97.5933H26.7773V98.7453H25.6253ZM22.8893 94.2904C22.8893 95.6184 23.9773 96.7224 25.3213 96.7224C26.6653 96.7224 27.7533 95.6184 27.7533 94.2904C27.7533 92.9304 26.6653 91.8424 25.3213 91.8424C23.9773 91.8424 22.8893 92.9304 22.8893 94.2904ZM26.9373 94.2904C26.9373 95.1704 26.2173 95.9064 25.3213 95.9064C24.4253 95.9064 23.7053 95.1704 23.7053 94.2904C23.7053 93.3784 24.4253 92.6584 25.3213 92.6584C26.2173 92.6584 26.9373 93.3784 26.9373 94.2904ZM25.6253 87.6984V86.5464H26.7773V87.6984H25.6253ZM20.9693 84.6515V83.4995H22.1213V84.6515H20.9693ZM25.5773 84.6515V83.4995H26.7293V84.6515H25.5773ZM17.5773 79.3006V78.1486H19.8813V75.8446H21.0333V76.9966H22.1853V78.1486H21.0333V79.3006H22.1853V80.4526H21.0333V81.6046H19.8813V79.3006H17.5773ZM22.1853 81.6046V80.4526H23.3373V81.6046H22.1853ZM22.1853 76.9966V75.8446H23.3373V76.9966H22.1853Z" fill="black"/>
<path d="M156.855 212.713C157.511 212.713 158.055 212.345 158.055 211.833C158.055 211.353 157.511 210.953 156.855 210.953C156.199 210.953 155.655 211.353 155.655 211.833C155.655 212.345 156.199 212.713 156.855 212.713ZM156.855 213.369C155.767 213.369 154.887 212.697 154.887 211.833C154.887 210.985 155.767 210.313 156.855 210.313C157.943 210.313 158.823 210.985 158.823 211.833C158.823 212.697 157.943 213.369 156.855 213.369ZM153.383 197.773V196.621H151.079V195.469H149.927V196.621H147.623V197.773H149.927V198.925H151.079V197.773H153.383ZM152.231 200.077V198.925H151.079V200.077H152.231ZM152.231 195.469V194.317H151.079V195.469H152.231ZM149.927 200.077V198.925H148.775V200.077H149.927ZM149.927 195.469V194.317H148.775V195.469H149.927ZM146.375 192.436V191.284H145.223V192.436H146.375ZM149.111 187.981C149.111 189.309 148.023 190.413 146.679 190.413C145.335 190.413 144.247 189.309 144.247 187.981C144.247 186.621 145.335 185.533 146.679 185.533C148.023 185.533 149.111 186.621 149.111 187.981ZM145.063 187.981C145.063 188.861 145.783 189.597 146.679 189.597C147.575 189.597 148.295 188.861 148.295 187.981C148.295 187.069 147.575 186.349 146.679 186.349C145.783 186.349 145.063 187.069 145.063 187.981ZM146.375 181.389V180.237H145.223V181.389H146.375ZM151.031 178.343V177.191H149.879V178.343H151.031ZM146.423 178.343V177.191H145.271V178.343H146.423ZM154.423 172.992V171.84H152.119V169.536H150.967V170.688H149.815V171.84H150.967V172.992H149.815V174.144H150.967V175.296H152.119V172.992H154.423ZM149.815 175.296V174.144H148.663V175.296H149.815ZM149.815 170.688V169.536H148.663V170.688H149.815ZM152.231 167.655V166.391H150.983V167.655H152.231ZM156.855 164.979C157.511 164.979 158.055 164.611 158.055 164.099C158.055 163.619 157.511 163.219 156.855 163.219C156.199 163.219 155.655 163.619 155.655 164.099C155.655 164.611 156.199 164.979 156.855 164.979ZM156.855 165.635C155.767 165.635 154.887 164.963 154.887 164.099C154.887 163.251 155.767 162.579 156.855 162.579C157.943 162.579 158.823 163.251 158.823 164.099C158.823 164.963 157.943 165.635 156.855 165.635ZM153.383 150.039V148.887H151.079V147.735H149.927V148.887H147.623V150.039H149.927V151.191H151.079V150.039H153.383ZM152.231 152.343V151.191H151.079V152.343H152.231ZM152.231 147.735V146.583H151.079V147.735H152.231ZM149.927 152.343V151.191H148.775V152.343H149.927ZM149.927 147.735V146.583H148.775V147.735H149.927ZM146.375 144.702V143.55H145.223V144.702H146.375ZM149.111 140.247C149.111 141.575 148.023 142.679 146.679 142.679C145.335 142.679 144.247 141.575 144.247 140.247C144.247 138.887 145.335 137.799 146.679 137.799C148.023 137.799 149.111 138.887 149.111 140.247ZM145.063 140.247C145.063 141.127 145.783 141.863 146.679 141.863C147.575 141.863 148.295 141.127 148.295 140.247C148.295 139.335 147.575 138.615 146.679 138.615C145.783 138.615 145.063 139.335 145.063 140.247ZM146.375 133.655V132.503H145.223V133.655H146.375ZM151.031 130.608V129.456H149.879V130.608H151.031ZM146.423 130.608V129.456H145.271V130.608H146.423ZM154.423 125.257V124.105H152.119V121.801H150.967V122.953H149.815V124.105H150.967V125.257H149.815V126.409H150.967V127.561H152.119V125.257H154.423ZM149.815 127.561V126.409H148.663V127.561H149.815ZM149.815 122.953V121.801H148.663V122.953H149.815ZM152.231 119.921V118.657H150.983V119.921H152.231ZM156.855 117.244C157.511 117.244 158.055 116.876 158.055 116.364C158.055 115.884 157.511 115.484 156.855 115.484C156.199 115.484 155.655 115.884 155.655 116.364C155.655 116.876 156.199 117.244 156.855 117.244ZM156.855 117.9C155.767 117.9 154.887 117.228 154.887 116.364C154.887 115.516 155.767 114.844 156.855 114.844C157.943 114.844 158.823 115.516 158.823 116.364C158.823 117.228 157.943 117.9 156.855 117.9ZM153.383 102.304V101.152H151.079V100H149.927V101.152H147.623V102.304H149.927V103.456H151.079V102.304H153.383ZM152.231 104.608V103.456H151.079V104.608H152.231ZM152.231 100V98.8482H151.079V100H152.231ZM149.927 104.608V103.456H148.775V104.608H149.927ZM149.927 100V98.8482H148.775V100H149.927ZM146.375 96.9676V95.8156H145.223V96.9676H146.375ZM149.111 92.5127C149.111 93.8407 148.023 94.9447 146.679 94.9447C145.335 94.9447 144.247 93.8407 144.247 92.5127C144.247 91.1527 145.335 90.0647 146.679 90.0647C148.023 90.0647 149.111 91.1527 149.111 92.5127ZM145.063 92.5127C145.063 93.3927 145.783 94.1287 146.679 94.1287C147.575 94.1287 148.295 93.3927 148.295 92.5127C148.295 91.6007 147.575 90.8807 146.679 90.8807C145.783 90.8807 145.063 91.6007 145.063 92.5127ZM146.375 85.9207V84.7687H145.223V85.9207H146.375ZM151.031 82.8739V81.7219H149.879V82.8739H151.031ZM146.423 82.8739V81.7219H145.271V82.8739H146.423ZM154.423 77.523V76.371H152.119V74.067H150.967V75.219H149.815V76.371H150.967V77.523H149.815V78.675H150.967V79.827H152.119V77.523H154.423ZM149.815 79.827V78.675H148.663V79.827H149.815ZM149.815 75.219V74.067H148.663V75.219H149.815Z" fill="black"/>
<defs>
<linearGradient id="paint0_linear_1204_2210" x1="85.1111" y1="2" x2="85.1111" y2="242" gradientUnits="userSpaceOnUse">
<stop stop-color="#F8F1E5"/>
<stop offset="1" stop-color="#FFBB36" stop-opacity="0.1"/>
</linearGradient>
<linearGradient id="paint1_linear_1204_2210" x1="85.1108" y1="8.22217" x2="85.1108" y2="236.667" gradientUnits="userSpaceOnUse">
<stop stop-color="#FFFFF4"/>
<stop offset="1" stop-color="#FFFFF4" stop-opacity="0"/>
</linearGradient>
</defs>
</svg>
