<svg width="170" height="244" viewBox="0 0 170 244" fill="none" xmlns="http://www.w3.org/2000/svg">
<path d="M3.96516 49.3477L36.0482 6.04673C37.9343 3.50122 40.915 2 44.0831 2H125.691C128.837 2 131.8 3.48051 133.688 5.99652L166.22 49.3323C167.519 51.0639 168.222 53.1706 168.222 55.3358V232C168.222 237.523 163.745 242 158.222 242H12C6.47715 242 2 237.523 2 232V55.301C2 53.1572 2.68892 51.0702 3.96516 49.3477Z" fill="white"/>
<path d="M3.96516 49.3477L36.0482 6.04673C37.9343 3.50122 40.915 2 44.0831 2H125.691C128.837 2 131.8 3.48051 133.688 5.99652L166.22 49.3323C167.519 51.0639 168.222 53.1706 168.222 55.3358V232C168.222 237.523 163.745 242 158.222 242H12C6.47715 242 2 237.523 2 232V55.301C2 53.1572 2.68892 51.0702 3.96516 49.3477Z" fill="url(#paint0_linear_1215_5163)"/>
<path d="M3.96516 49.3477L36.0482 6.04673C37.9343 3.50122 40.915 2 44.0831 2H125.691C128.837 2 131.8 3.48051 133.688 5.99652L166.22 49.3323C167.519 51.0639 168.222 53.1706 168.222 55.3358V232C168.222 237.523 163.745 242 158.222 242H12C6.47715 242 2 237.523 2 232V55.301C2 53.1572 2.68892 51.0702 3.96516 49.3477Z" stroke="#ED726B" stroke-width="3"/>
<path d="M9.25119 53.183L39.0078 12.3343C40.89 9.75051 43.894 8.22227 47.0906 8.22227H122.716C125.891 8.22227 128.877 9.7297 130.762 12.284L160.935 53.1672C162.205 54.887 162.89 56.9681 162.89 59.1055V226.667C162.89 232.19 158.412 236.667 152.89 236.667H17.334C11.8111 236.667 7.33398 232.19 7.33398 226.667V59.071C7.33398 56.9549 8.00525 54.8934 9.25119 53.183Z" fill="url(#paint1_linear_1215_5163)" stroke="#ED726B" stroke-width="3"/>
<path d="M15.1463 214.491C14.4903 214.491 13.9463 214.123 13.9463 213.611C13.9463 213.131 14.4903 212.731 15.1463 212.731C15.8023 212.731 16.3463 213.131 16.3463 213.611C16.3463 214.123 15.8023 214.491 15.1463 214.491ZM15.1463 215.147C16.2343 215.147 17.1143 214.475 17.1143 213.611C17.1143 212.763 16.2343 212.091 15.1463 212.091C14.0583 212.091 13.1783 212.763 13.1783 213.611C13.1783 214.475 14.0583 215.147 15.1463 215.147ZM18.6183 199.551V198.399H20.9223V197.247H22.0743V198.399H24.3783V199.551H22.0743V200.703H20.9223V199.551H18.6183ZM19.7703 201.855V200.703H20.9223V201.855H19.7703ZM19.7703 197.247V196.095H20.9223V197.247H19.7703ZM22.0743 201.855V200.703H23.2263V201.855H22.0743ZM22.0743 197.247V196.095H23.2263V197.247H22.0743ZM25.6263 194.214V193.062H26.7783V194.214H25.6263ZM22.8903 189.759C22.8903 191.087 23.9783 192.191 25.3223 192.191C26.6663 192.191 27.7543 191.087 27.7543 189.759C27.7543 188.399 26.6663 187.311 25.3223 187.311C23.9783 187.311 22.8903 188.399 22.8903 189.759ZM26.9383 189.759C26.9383 190.639 26.2183 191.375 25.3223 191.375C24.4263 191.375 23.7063 190.639 23.7063 189.759C23.7063 188.847 24.4263 188.127 25.3223 188.127C26.2183 188.127 26.9383 188.847 26.9383 189.759ZM25.6263 183.167V182.015H26.7783V183.167H25.6263ZM20.9703 180.12V178.968H22.1223V180.12H20.9703ZM25.5783 180.12V178.968H26.7303V180.12H25.5783ZM17.5783 174.769V173.617H19.8823V171.313H21.0343V172.465H22.1863V173.617H21.0343V174.769H22.1863V175.921H21.0343V177.073H19.8823V174.769H17.5783ZM22.1863 177.073V175.921H23.3383V177.073H22.1863ZM22.1863 172.465V171.313H23.3383V172.465H22.1863ZM19.7703 169.433V168.169H21.0183V169.433H19.7703ZM15.1463 166.757C14.4903 166.757 13.9463 166.389 13.9463 165.877C13.9463 165.397 14.4903 164.997 15.1463 164.997C15.8023 164.997 16.3463 165.397 16.3463 165.877C16.3463 166.389 15.8023 166.757 15.1463 166.757ZM15.1463 167.413C16.2343 167.413 17.1143 166.741 17.1143 165.877C17.1143 165.029 16.2343 164.357 15.1463 164.357C14.0583 164.357 13.1783 165.029 13.1783 165.877C13.1783 166.741 14.0583 167.413 15.1463 167.413ZM18.6183 151.816V150.664H20.9223L20.9223 149.512H22.0743L22.0743 150.664H24.3783V151.816H22.0743V152.968H20.9223V151.816H18.6183ZM19.7703 154.12V152.968H20.9223V154.12H19.7703ZM19.7703 149.512V148.36H20.9223V149.512H19.7703ZM22.0743 154.12V152.968H23.2263V154.12H22.0743ZM22.0743 149.512V148.36H23.2263V149.512H22.0743ZM25.6263 146.48V145.328H26.7783V146.48H25.6263ZM22.8903 142.025C22.8903 143.353 23.9783 144.457 25.3223 144.457C26.6663 144.457 27.7543 143.353 27.7543 142.025C27.7543 140.665 26.6663 139.577 25.3223 139.577C23.9783 139.577 22.8903 140.665 22.8903 142.025ZM26.9383 142.025C26.9383 142.905 26.2183 143.641 25.3223 143.641C24.4263 143.641 23.7063 142.905 23.7063 142.025C23.7063 141.113 24.4263 140.393 25.3223 140.393C26.2183 140.393 26.9383 141.113 26.9383 142.025ZM25.6263 135.433V134.281H26.7783V135.433H25.6263ZM20.9703 132.386V131.234H22.1223V132.386H20.9703ZM25.5783 132.386V131.234H26.7303V132.386H25.5783ZM17.5783 127.035V125.883H19.8823V123.579H21.0343V124.731H22.1863V125.883H21.0343V127.035H22.1863V128.187H21.0343V129.339H19.8823V127.035H17.5783ZM22.1863 129.339V128.187H23.3383V129.339H22.1863ZM22.1863 124.731V123.579H23.3383V124.731H22.1863ZM19.7703 121.698V120.434H21.0183V121.698H19.7703ZM15.1463 119.022C14.4903 119.022 13.9463 118.654 13.9463 118.142C13.9463 117.662 14.4903 117.262 15.1463 117.262C15.8023 117.262 16.3463 117.662 16.3463 118.142C16.3463 118.654 15.8023 119.022 15.1463 119.022ZM15.1463 119.678C16.2343 119.678 17.1143 119.006 17.1143 118.142C17.1143 117.294 16.2343 116.622 15.1463 116.622C14.0583 116.622 13.1783 117.294 13.1783 118.142C13.1783 119.006 14.0583 119.678 15.1463 119.678ZM18.6183 104.082V102.93H20.9223V101.778H22.0743V102.93H24.3783V104.082H22.0743V105.234H20.9223V104.082H18.6183ZM19.7703 106.386V105.234H20.9223V106.386H19.7703ZM19.7703 101.778V100.626H20.9223V101.778H19.7703ZM22.0743 106.386V105.234H23.2263V106.386H22.0743ZM22.0743 101.778V100.626H23.2263V101.778H22.0743ZM25.6263 98.7454V97.5934H26.7783V98.7454H25.6263ZM22.8903 94.2905C22.8903 95.6185 23.9783 96.7225 25.3223 96.7225C26.6663 96.7225 27.7543 95.6185 27.7543 94.2905C27.7543 92.9305 26.6663 91.8425 25.3223 91.8425C23.9783 91.8425 22.8903 92.9305 22.8903 94.2905ZM26.9383 94.2905C26.9383 95.1705 26.2183 95.9065 25.3223 95.9065C24.4263 95.9065 23.7063 95.1705 23.7063 94.2905C23.7063 93.3785 24.4263 92.6585 25.3223 92.6585C26.2183 92.6585 26.9383 93.3785 26.9383 94.2905ZM25.6263 87.6985V86.5465H26.7783V87.6985H25.6263ZM20.9703 84.6516V83.4996H22.1223V84.6516H20.9703ZM25.5783 84.6516V83.4996H26.7303V84.6516H25.5783ZM17.5783 79.3007V78.1487H19.8823V75.8447H21.0343V76.9967H22.1863V78.1487H21.0343V79.3007H22.1863V80.4527H21.0343V81.6047H19.8823V79.3007H17.5783ZM22.1863 81.6047V80.4527H23.3383V81.6047H22.1863ZM22.1863 76.9967V75.8447H23.3383V76.9967H22.1863Z" fill="black"/>
<path d="M156.854 212.713C157.51 212.713 158.054 212.345 158.054 211.833C158.054 211.353 157.51 210.953 156.854 210.953C156.198 210.953 155.654 211.353 155.654 211.833C155.654 212.345 156.198 212.713 156.854 212.713ZM156.854 213.369C155.766 213.369 154.886 212.697 154.886 211.833C154.886 210.985 155.766 210.313 156.854 210.313C157.942 210.313 158.822 210.985 158.822 211.833C158.822 212.697 157.942 213.369 156.854 213.369ZM153.382 197.773V196.621H151.078V195.469H149.926V196.621H147.622V197.773H149.926V198.925H151.078V197.773H153.382ZM152.23 200.077V198.925H151.078V200.077H152.23ZM152.23 195.469V194.317H151.078V195.469H152.23ZM149.926 200.077V198.925H148.774V200.077H149.926ZM149.926 195.469V194.317H148.774V195.469H149.926ZM146.374 192.436V191.284H145.222V192.436H146.374ZM149.11 187.981C149.11 189.309 148.022 190.413 146.678 190.413C145.334 190.413 144.246 189.309 144.246 187.981C144.246 186.621 145.334 185.533 146.678 185.533C148.022 185.533 149.11 186.621 149.11 187.981ZM145.062 187.981C145.062 188.861 145.782 189.597 146.678 189.597C147.574 189.597 148.294 188.861 148.294 187.981C148.294 187.069 147.574 186.349 146.678 186.349C145.782 186.349 145.062 187.069 145.062 187.981ZM146.374 181.389V180.237H145.222V181.389H146.374ZM151.03 178.343V177.191H149.878V178.343H151.03ZM146.422 178.343V177.191H145.27V178.343H146.422ZM154.422 172.992V171.84H152.118V169.536H150.966V170.688H149.814V171.84H150.966V172.992H149.814V174.144H150.966V175.296H152.118V172.992H154.422ZM149.814 175.296V174.144H148.662V175.296H149.814ZM149.814 170.688V169.536H148.662V170.688H149.814ZM152.23 167.655V166.391H150.982V167.655H152.23ZM156.854 164.979C157.51 164.979 158.054 164.611 158.054 164.099C158.054 163.619 157.51 163.219 156.854 163.219C156.198 163.219 155.654 163.619 155.654 164.099C155.654 164.611 156.198 164.979 156.854 164.979ZM156.854 165.635C155.766 165.635 154.886 164.963 154.886 164.099C154.886 163.251 155.766 162.579 156.854 162.579C157.942 162.579 158.822 163.251 158.822 164.099C158.822 164.963 157.942 165.635 156.854 165.635ZM153.382 150.039V148.887H151.078V147.735H149.926V148.887H147.622V150.039H149.926V151.191H151.078V150.039H153.382ZM152.23 152.343V151.191H151.078V152.343H152.23ZM152.23 147.735V146.583H151.078V147.735H152.23ZM149.926 152.343V151.191H148.774V152.343H149.926ZM149.926 147.735V146.583H148.774V147.735H149.926ZM146.374 144.702V143.55H145.222V144.702H146.374ZM149.11 140.247C149.11 141.575 148.022 142.679 146.678 142.679C145.334 142.679 144.246 141.575 144.246 140.247C144.246 138.887 145.334 137.799 146.678 137.799C148.022 137.799 149.11 138.887 149.11 140.247ZM145.062 140.247C145.062 141.127 145.782 141.863 146.678 141.863C147.574 141.863 148.294 141.127 148.294 140.247C148.294 139.335 147.574 138.615 146.678 138.615C145.782 138.615 145.062 139.335 145.062 140.247ZM146.374 133.655V132.503H145.222V133.655H146.374ZM151.03 130.608V129.456H149.878V130.608H151.03ZM146.422 130.608V129.456H145.27V130.608H146.422ZM154.422 125.257V124.105H152.118V121.801H150.966V122.953H149.814V124.105H150.966V125.257H149.814V126.409H150.966V127.561H152.118V125.257H154.422ZM149.814 127.561V126.409H148.662V127.561H149.814ZM149.814 122.953V121.801H148.662V122.953H149.814ZM152.23 119.921V118.657H150.982V119.921H152.23ZM156.854 117.244C157.51 117.244 158.054 116.876 158.054 116.364C158.054 115.884 157.51 115.484 156.854 115.484C156.198 115.484 155.654 115.884 155.654 116.364C155.654 116.876 156.198 117.244 156.854 117.244ZM156.854 117.9C155.766 117.9 154.886 117.228 154.886 116.364C154.886 115.516 155.766 114.844 156.854 114.844C157.942 114.844 158.822 115.516 158.822 116.364C158.822 117.228 157.942 117.9 156.854 117.9ZM153.382 102.304V101.152H151.078V100H149.926V101.152H147.622V102.304H149.926V103.456H151.078V102.304H153.382ZM152.23 104.608V103.456H151.078V104.608H152.23ZM152.23 100V98.8482H151.078V100H152.23ZM149.926 104.608V103.456H148.774V104.608H149.926ZM149.926 100V98.8482H148.774V100H149.926ZM146.374 96.9675V95.8155H145.222V96.9675H146.374ZM149.11 92.5127C149.11 93.8407 148.022 94.9447 146.678 94.9447C145.334 94.9447 144.246 93.8407 144.246 92.5127C144.246 91.1527 145.334 90.0647 146.678 90.0647C148.022 90.0647 149.11 91.1527 149.11 92.5127ZM145.062 92.5127C145.062 93.3927 145.782 94.1287 146.678 94.1287C147.574 94.1287 148.294 93.3927 148.294 92.5127C148.294 91.6007 147.574 90.8807 146.678 90.8807C145.782 90.8807 145.062 91.6007 145.062 92.5127ZM146.374 85.9206V84.7686H145.222V85.9206H146.374ZM151.03 82.8738V81.7218H149.878V82.8738H151.03ZM146.422 82.8738V81.7218H145.27V82.8738H146.422ZM154.422 77.5229V76.3709H152.118V74.0669H150.966V75.2189H149.814V76.3709H150.966V77.5229H149.814V78.6749H150.966V79.8269H152.118V77.5229H154.422ZM149.814 79.8269V78.6749H148.662V79.8269H149.814ZM149.814 75.2189V74.0669H148.662V75.2189H149.814Z" fill="black"/>
<defs>
<linearGradient id="paint0_linear_1215_5163" x1="85.1111" y1="2" x2="85.1111" y2="242" gradientUnits="userSpaceOnUse">
<stop stop-color="#FFEFEF"/>
<stop offset="1" stop-color="#D76D6D" stop-opacity="0"/>
</linearGradient>
<linearGradient id="paint1_linear_1215_5163" x1="85.1118" y1="8.22227" x2="85.1118" y2="236.667" gradientUnits="userSpaceOnUse">
<stop stop-color="#FFECEC"/>
<stop offset="1" stop-color="#E16A6A" stop-opacity="0"/>
</linearGradient>
</defs>
</svg>
