<svg width="55" height="49" viewBox="0 0 55 49" fill="none" xmlns="http://www.w3.org/2000/svg">
<path d="M3.07434 1.60283H4.15434V2.68283H3.07434V1.60283ZM1.99434 2.68283H3.07434V3.76283H1.99434V2.68283ZM0.914336 3.76283H1.99434V11.3228H0.914336V3.76283ZM1.99434 11.3228H3.07434V12.4028H1.99434V11.3228ZM3.07434 12.4028H4.15434V13.4828H3.07434V12.4028ZM5.9241 1.60283H7.0041V2.68283H5.9241V1.60283ZM7.0041 2.68283H8.0841V3.76283H7.0041V2.68283ZM8.0841 3.76283H9.1641V4.84283H8.0841V3.76283ZM9.1641 4.84283H10.2441V5.92283H9.1641V4.84283ZM10.2441 5.92283H11.3241V7.00283H10.2441V5.92283ZM11.3241 7.00283H12.4041V8.08283H11.3241V7.00283ZM10.2441 8.08283H11.3241V9.16283H10.2441V8.08283ZM9.1641 9.16283H10.2441V10.2428H9.1641V9.16283ZM8.0841 10.2428H9.1641V11.3228H8.0841V10.2428ZM7.0041 11.3228H8.0841V12.4028H7.0041V11.3228ZM5.9241 12.4028H7.0041V13.4828H5.9241V12.4028ZM18.0677 0.942832H20.2277V4.18283H19.1477V3.10283H18.0677V0.942832ZM21.3077 0.942832H23.4677V4.18283H22.3877V3.10283H21.3077V0.942832ZM18.0677 4.18283H19.1477V5.26283H18.0677V4.18283ZM21.3077 4.18283H22.3877V5.26283H21.3077V4.18283ZM29.1272 0.942832H31.2872V4.18283H30.2072V3.10283H29.1272V0.942832ZM32.3672 0.942832H34.5272V4.18283H33.4472V3.10283H32.3672V0.942832ZM29.1272 4.18283H30.2072V5.26283H29.1272V4.18283ZM32.3672 4.18283H33.4472V5.26283H32.3672V4.18283ZM45.5868 1.60283H46.6668V2.68283H45.5868V1.60283ZM44.5068 2.68283H45.5868V3.76283H44.5068V2.68283ZM43.4268 3.76283H44.5068V4.84283H43.4268V3.76283ZM42.3468 4.84283H43.4268V5.92283H42.3468V4.84283ZM41.2668 5.92283H42.3468V7.00283H41.2668V5.92283ZM40.1868 7.00283H41.2668V8.08283H40.1868V7.00283ZM41.2668 8.08283H42.3468V9.16283H41.2668V8.08283ZM42.3468 9.16283H43.4268V10.2428H42.3468V9.16283ZM43.4268 10.2428H44.5068V11.3228H43.4268V10.2428ZM44.5068 11.3228H45.5868V12.4028H44.5068V11.3228ZM45.5868 12.4028H46.6668V13.4828H45.5868V12.4028ZM48.4339 1.60283H49.5139V2.68283H48.4339V1.60283ZM49.5139 2.68283H50.5939V3.76283H49.5139V2.68283ZM50.5939 3.76283H51.6739V11.3228H50.5939V3.76283ZM49.5139 11.3228H50.5939V12.4028H49.5139V11.3228ZM48.4339 12.4028H49.5139V13.4828H48.4339V12.4028ZM3.07434 18.6028H4.15434V19.6828H3.07434V18.6028ZM1.99434 19.6828H3.07434V20.7628H1.99434V19.6828ZM0.914336 20.7628H1.99434V28.3228H0.914336V20.7628ZM1.99434 28.3228H3.07434V29.4028H1.99434V28.3228ZM3.07434 29.4028H4.15434V30.4828H3.07434V29.4028ZM9.82059 23.3578H17.3806V24.4378H9.82059V23.3578ZM9.82059 25.5178H17.3806V26.5978H9.82059V25.5178ZM19.1516 17.9428H21.3116V21.1828H20.2316V20.1028H19.1516V17.9428ZM19.1516 21.1828H20.2316V22.2628H19.1516V21.1828ZM24.1574 23.2978H29.5574V24.3778H24.1574V23.2978ZM23.0774 24.3778H24.1574V28.6978H23.0774V24.3778ZM29.5574 24.3778H30.6374V28.6978H29.5574V24.3778ZM24.1574 28.6978H29.5574V29.7778H24.1574V28.6978ZM32.4085 18.5878H33.4885V20.7478H32.4085V18.5878ZM35.2649 23.3578H42.8249V24.4378H35.2649V23.3578ZM35.2649 25.5178H42.8249V26.5978H35.2649V25.5178ZM48.4925 18.6028H49.5725V19.6828H48.4925V18.6028ZM49.5725 19.6828H50.6525V20.7628H49.5725V19.6828ZM50.6525 20.7628H51.7325V28.3228H50.6525V20.7628ZM49.5725 28.3228H50.6525V29.4028H49.5725V28.3228ZM48.4925 29.4028H49.5725V30.4828H48.4925V29.4028ZM0.914336 40.2978H6.31434V41.3778H0.914336V40.2978ZM10.2374 35.6028H11.3174V36.6828H10.2374V35.6028ZM9.15742 36.6828H10.2374V37.7628H9.15742V36.6828ZM8.07742 37.7628H9.15742V45.3228H8.07742V37.7628ZM9.15742 45.3228H10.2374V46.4028H9.15742V45.3228ZM10.2374 46.4028H11.3174V47.4828H10.2374V46.4028ZM13.9872 45.5328H14.8872V47.3328H13.9872V45.5328ZM13.0872 47.3328H13.9872V48.2328H13.0872V47.3328ZM17.5614 45.5328H18.4614V47.3328H17.5614V45.5328ZM16.6614 47.3328H17.5614V48.2328H16.6614V47.3328ZM20.2356 35.6028H21.3156V36.6828H20.2356V35.6028ZM21.3156 36.6828H22.3956V37.7628H21.3156V36.6828ZM22.3956 37.7628H23.4756V45.3228H22.3956V37.7628ZM21.3156 45.3228H22.3956V46.4028H21.3156V45.3228ZM20.2356 46.4028H21.3156V47.4828H20.2356V46.4028ZM25.2454 40.2978H30.6454V41.3778H25.2454V40.2978ZM34.5685 35.6028H35.6485V36.6828H34.5685V35.6028ZM33.4885 36.6828H34.5685V37.7628H33.4885V36.6828ZM32.4085 37.7628H33.4885V45.3228H32.4085V37.7628ZM33.4885 45.3228H34.5685V46.4028H33.4885V45.3228ZM34.5685 46.4028H35.6485V47.4828H34.5685V46.4028ZM38.3182 45.5328H39.2182V47.3328H38.3182V45.5328ZM37.4182 47.3328H38.3182V48.2328H37.4182V47.3328ZM41.8925 45.5328H42.7925V47.3328H41.8925V45.5328ZM40.9925 47.3328H41.8925V48.2328H40.9925V47.3328ZM44.5667 35.6028H45.6467V36.6828H44.5667V35.6028ZM45.6467 36.6828H46.7267V37.7628H45.6467V36.6828ZM46.7267 37.7628H47.8067V45.3228H46.7267V37.7628ZM45.6467 45.3228H46.7267V46.4028H45.6467V45.3228ZM44.5667 46.4028H45.6467V47.4828H44.5667V46.4028ZM49.5764 40.2978H54.9764V41.3778H49.5764V40.2978Z" fill="black"/>
</svg>
