<svg width="29" height="29" viewBox="0 0 29 29" fill="none" xmlns="http://www.w3.org/2000/svg">
<path d="M28.5 14.4286C28.5 15.2964 27.7964 16 26.9286 16H15.6429V26.9286C15.6429 27.7964 14.9393 28.5 14.0714 28.5C13.2036 28.5 12.5 27.7964 12.5 26.9286V16H1.57143C0.703553 16 0 15.2964 0 14.4286C0 13.5607 0.703553 12.8571 1.57143 12.8571H12.5V1.57143C12.5 0.703551 13.2036 0 14.0714 0C14.9393 0 15.6429 0.703552 15.6429 1.57143V12.8571H26.9286C27.7964 12.8571 28.5 13.5607 28.5 14.4286Z" fill="#4A4A4A"/>
</svg>
