<svg width="238" height="258" viewBox="0 0 238 258" fill="none" xmlns="http://www.w3.org/2000/svg">
<path d="M71.9652 63.3477L104.048 20.0467C105.934 17.5012 108.915 16 112.083 16H193.691C196.837 16 199.8 17.4805 201.688 19.9965L234.22 63.3323C235.519 65.0639 236.222 67.1706 236.222 69.3358V246C236.222 251.523 231.745 256 226.222 256H80C74.4772 256 70 251.523 70 246V69.301C70 67.1572 70.6889 65.0702 71.9652 63.3477Z" fill="white"/>
<path d="M71.9652 63.3477L104.048 20.0467C105.934 17.5012 108.915 16 112.083 16H193.691C196.837 16 199.8 17.4805 201.688 19.9965L234.22 63.3323C235.519 65.0639 236.222 67.1706 236.222 69.3358V246C236.222 251.523 231.745 256 226.222 256H80C74.4772 256 70 251.523 70 246V69.301C70 67.1572 70.6889 65.0702 71.9652 63.3477Z" fill="url(#paint0_linear_1204_2164)"/>
<path d="M71.9652 63.3477L104.048 20.0467C105.934 17.5012 108.915 16 112.083 16H193.691C196.837 16 199.8 17.4805 201.688 19.9965L234.22 63.3323C235.519 65.0639 236.222 67.1706 236.222 69.3358V246C236.222 251.523 231.745 256 226.222 256H80C74.4772 256 70 251.523 70 246V69.301C70 67.1572 70.6889 65.0702 71.9652 63.3477Z" stroke="#F5DA93" stroke-width="3"/>
<path d="M77.2502 67.1829L107.007 26.3342C108.889 23.7504 111.893 22.2222 115.09 22.2222H190.715C193.89 22.2222 196.876 23.7296 198.761 26.2839L228.934 67.1671C230.204 68.8869 230.889 70.968 230.889 73.1054V240.667C230.889 246.189 226.411 250.667 220.889 250.667H85.333C79.8102 250.667 75.333 246.189 75.333 240.667V73.0709C75.333 70.9548 76.0043 68.8933 77.2502 67.1829Z" fill="url(#paint1_linear_1204_2164)" stroke="#F5DA93" stroke-width="3"/>
<path d="M83.1453 228.491C82.4893 228.491 81.9453 228.123 81.9453 227.611C81.9453 227.131 82.4893 226.731 83.1453 226.731C83.8013 226.731 84.3453 227.131 84.3453 227.611C84.3453 228.123 83.8013 228.491 83.1453 228.491ZM83.1453 229.147C84.2333 229.147 85.1133 228.475 85.1133 227.611C85.1133 226.763 84.2333 226.091 83.1453 226.091C82.0573 226.091 81.1773 226.763 81.1773 227.611C81.1773 228.475 82.0573 229.147 83.1453 229.147ZM86.6173 213.551V212.399H88.9213V211.247H90.0733V212.399H92.3773V213.551H90.0733V214.703H88.9213V213.551H86.6173ZM87.7693 215.855V214.703H88.9213V215.855H87.7693ZM87.7693 211.247V210.095H88.9213V211.247H87.7693ZM90.0733 215.855V214.703H91.2253V215.855H90.0733ZM90.0733 211.247V210.095H91.2253V211.247H90.0733ZM93.6253 208.214V207.062H94.7773V208.214H93.6253ZM90.8893 203.759C90.8893 205.087 91.9773 206.191 93.3213 206.191C94.6653 206.191 95.7533 205.087 95.7533 203.759C95.7533 202.399 94.6653 201.311 93.3213 201.311C91.9773 201.311 90.8893 202.399 90.8893 203.759ZM94.9373 203.759C94.9373 204.639 94.2173 205.375 93.3213 205.375C92.4253 205.375 91.7053 204.639 91.7053 203.759C91.7053 202.847 92.4253 202.127 93.3213 202.127C94.2173 202.127 94.9373 202.847 94.9373 203.759ZM93.6253 197.167V196.015H94.7773V197.167H93.6253ZM88.9693 194.12V192.968H90.1213V194.12H88.9693ZM93.5773 194.12V192.968H94.7293V194.12H93.5773ZM85.5773 188.769V187.617H87.8813V185.313H89.0333V186.465H90.1853V187.617H89.0333V188.769H90.1853V189.921H89.0333V191.073H87.8813V188.769H85.5773ZM90.1853 191.073V189.921H91.3373V191.073H90.1853ZM90.1853 186.465V185.313H91.3373V186.465H90.1853ZM87.7693 183.433V182.169H89.0173V183.433H87.7693ZM83.1453 180.757C82.4893 180.757 81.9453 180.389 81.9453 179.877C81.9453 179.397 82.4893 178.997 83.1453 178.997C83.8013 178.997 84.3453 179.397 84.3453 179.877C84.3453 180.389 83.8013 180.757 83.1453 180.757ZM83.1453 181.413C84.2333 181.413 85.1133 180.741 85.1133 179.877C85.1133 179.029 84.2333 178.357 83.1453 178.357C82.0573 178.357 81.1773 179.029 81.1773 179.877C81.1773 180.741 82.0573 181.413 83.1453 181.413ZM86.6173 165.816V164.664H88.9213V163.512H90.0733V164.664H92.3773V165.816H90.0733V166.968H88.9213V165.816H86.6173ZM87.7693 168.12V166.968H88.9213V168.12H87.7693ZM87.7693 163.512V162.36H88.9213V163.512H87.7693ZM90.0733 168.12V166.968H91.2253V168.12H90.0733ZM90.0733 163.512V162.36H91.2253V163.512H90.0733ZM93.6253 160.48V159.328H94.7773V160.48H93.6253ZM90.8893 156.025C90.8893 157.353 91.9773 158.457 93.3213 158.457C94.6653 158.457 95.7533 157.353 95.7533 156.025C95.7533 154.665 94.6653 153.577 93.3213 153.577C91.9773 153.577 90.8893 154.665 90.8893 156.025ZM94.9373 156.025C94.9373 156.905 94.2173 157.641 93.3213 157.641C92.4253 157.641 91.7053 156.905 91.7053 156.025C91.7053 155.113 92.4253 154.393 93.3213 154.393C94.2173 154.393 94.9373 155.113 94.9373 156.025ZM93.6253 149.433V148.281H94.7773V149.433H93.6253ZM88.9693 146.386V145.234H90.1213V146.386H88.9693ZM93.5773 146.386V145.234H94.7293V146.386H93.5773ZM85.5773 141.035V139.883H87.8813V137.579H89.0333V138.731H90.1853V139.883H89.0333V141.035H90.1853V142.187H89.0333V143.339H87.8813V141.035H85.5773ZM90.1853 143.339V142.187H91.3373V143.339H90.1853ZM90.1853 138.731V137.579H91.3373V138.731H90.1853ZM87.7693 135.698V134.434H89.0173V135.698H87.7693ZM83.1453 133.022C82.4893 133.022 81.9453 132.654 81.9453 132.142C81.9453 131.662 82.4893 131.262 83.1453 131.262C83.8013 131.262 84.3453 131.662 84.3453 132.142C84.3453 132.654 83.8013 133.022 83.1453 133.022ZM83.1453 133.678C84.2333 133.678 85.1133 133.006 85.1133 132.142C85.1133 131.294 84.2333 130.622 83.1453 130.622C82.0573 130.622 81.1773 131.294 81.1773 132.142C81.1773 133.006 82.0573 133.678 83.1453 133.678ZM86.6173 118.082V116.93H88.9213V115.778H90.0733V116.93H92.3773V118.082H90.0733V119.234H88.9213V118.082H86.6173ZM87.7693 120.386V119.234H88.9213V120.386H87.7693ZM87.7693 115.778V114.626H88.9213V115.778H87.7693ZM90.0733 120.386V119.234H91.2253V120.386H90.0733ZM90.0733 115.778V114.626H91.2253V115.778H90.0733ZM93.6253 112.745V111.593H94.7773V112.745H93.6253ZM90.8893 108.29C90.8893 109.618 91.9773 110.722 93.3213 110.722C94.6653 110.722 95.7533 109.618 95.7533 108.29C95.7533 106.93 94.6653 105.842 93.3213 105.842C91.9773 105.842 90.8893 106.93 90.8893 108.29ZM94.9373 108.29C94.9373 109.17 94.2173 109.906 93.3213 109.906C92.4253 109.906 91.7053 109.17 91.7053 108.29C91.7053 107.378 92.4253 106.658 93.3213 106.658C94.2173 106.658 94.9373 107.378 94.9373 108.29ZM93.6253 101.698V100.546H94.7773V101.698H93.6253ZM88.9693 98.6515V97.4995H90.1213V98.6515H88.9693ZM93.5773 98.6515V97.4995H94.7293V98.6515H93.5773ZM85.5773 93.3006V92.1486H87.8813V89.8446H89.0333V90.9966H90.1853V92.1486H89.0333V93.3006H90.1853V94.4526H89.0333V95.6046H87.8813V93.3006H85.5773ZM90.1853 95.6046V94.4526H91.3373V95.6046H90.1853ZM90.1853 90.9966V89.8446H91.3373V90.9966H90.1853Z" fill="black"/>
<path d="M224.855 226.713C225.511 226.713 226.055 226.345 226.055 225.833C226.055 225.353 225.511 224.953 224.855 224.953C224.199 224.953 223.655 225.353 223.655 225.833C223.655 226.345 224.199 226.713 224.855 226.713ZM224.855 227.369C223.767 227.369 222.887 226.697 222.887 225.833C222.887 224.985 223.767 224.313 224.855 224.313C225.943 224.313 226.823 224.985 226.823 225.833C226.823 226.697 225.943 227.369 224.855 227.369ZM221.383 211.773V210.621H219.079V209.469H217.927V210.621H215.623V211.773H217.927V212.925H219.079V211.773H221.383ZM220.231 214.077V212.925H219.079V214.077H220.231ZM220.231 209.469V208.317H219.079V209.469H220.231ZM217.927 214.077V212.925H216.775V214.077H217.927ZM217.927 209.469V208.317H216.775V209.469H217.927ZM214.375 206.436V205.284H213.223V206.436H214.375ZM217.111 201.981C217.111 203.309 216.023 204.413 214.679 204.413C213.335 204.413 212.247 203.309 212.247 201.981C212.247 200.621 213.335 199.533 214.679 199.533C216.023 199.533 217.111 200.621 217.111 201.981ZM213.063 201.981C213.063 202.861 213.783 203.597 214.679 203.597C215.575 203.597 216.295 202.861 216.295 201.981C216.295 201.069 215.575 200.349 214.679 200.349C213.783 200.349 213.063 201.069 213.063 201.981ZM214.375 195.389V194.237H213.223V195.389H214.375ZM219.031 192.343V191.191H217.879V192.343H219.031ZM214.423 192.343V191.191H213.271V192.343H214.423ZM222.423 186.992V185.84H220.119V183.536H218.967V184.688H217.815V185.84H218.967V186.992H217.815V188.144H218.967V189.296H220.119V186.992H222.423ZM217.815 189.296V188.144H216.663V189.296H217.815ZM217.815 184.688V183.536H216.663V184.688H217.815ZM220.231 181.655V180.391H218.983V181.655H220.231ZM224.855 178.979C225.511 178.979 226.055 178.611 226.055 178.099C226.055 177.619 225.511 177.219 224.855 177.219C224.199 177.219 223.655 177.619 223.655 178.099C223.655 178.611 224.199 178.979 224.855 178.979ZM224.855 179.635C223.767 179.635 222.887 178.963 222.887 178.099C222.887 177.251 223.767 176.579 224.855 176.579C225.943 176.579 226.823 177.251 226.823 178.099C226.823 178.963 225.943 179.635 224.855 179.635ZM221.383 164.039V162.887H219.079V161.735H217.927V162.887H215.623V164.039H217.927V165.191H219.079V164.039H221.383ZM220.231 166.343V165.191H219.079V166.343H220.231ZM220.231 161.735V160.583H219.079V161.735H220.231ZM217.927 166.343V165.191H216.775V166.343H217.927ZM217.927 161.735V160.583H216.775V161.735H217.927ZM214.375 158.702V157.55H213.223V158.702H214.375ZM217.111 154.247C217.111 155.575 216.023 156.679 214.679 156.679C213.335 156.679 212.247 155.575 212.247 154.247C212.247 152.887 213.335 151.799 214.679 151.799C216.023 151.799 217.111 152.887 217.111 154.247ZM213.063 154.247C213.063 155.127 213.783 155.863 214.679 155.863C215.575 155.863 216.295 155.127 216.295 154.247C216.295 153.335 215.575 152.615 214.679 152.615C213.783 152.615 213.063 153.335 213.063 154.247ZM214.375 147.655V146.503H213.223V147.655H214.375ZM219.031 144.608V143.456H217.879V144.608H219.031ZM214.423 144.608V143.456H213.271V144.608H214.423ZM222.423 139.257V138.105H220.119V135.801H218.967V136.953H217.815V138.105H218.967V139.257H217.815V140.409H218.967V141.561H220.119V139.257H222.423ZM217.815 141.561V140.409H216.663V141.561H217.815ZM217.815 136.953V135.801H216.663V136.953H217.815ZM220.231 133.921V132.657H218.983V133.921H220.231ZM224.855 131.244C225.511 131.244 226.055 130.876 226.055 130.364C226.055 129.884 225.511 129.484 224.855 129.484C224.199 129.484 223.655 129.884 223.655 130.364C223.655 130.876 224.199 131.244 224.855 131.244ZM224.855 131.9C223.767 131.9 222.887 131.228 222.887 130.364C222.887 129.516 223.767 128.844 224.855 128.844C225.943 128.844 226.823 129.516 226.823 130.364C226.823 131.228 225.943 131.9 224.855 131.9ZM221.383 116.304V115.152H219.079V114H217.927V115.152H215.623V116.304H217.927V117.456H219.079V116.304H221.383ZM220.231 118.608V117.456H219.079V118.608H220.231ZM220.231 114V112.848H219.079V114H220.231ZM217.927 118.608V117.456H216.775V118.608H217.927ZM217.927 114V112.848H216.775V114H217.927ZM214.375 110.968V109.816H213.223V110.968H214.375ZM217.111 106.513C217.111 107.841 216.023 108.945 214.679 108.945C213.335 108.945 212.247 107.841 212.247 106.513C212.247 105.153 213.335 104.065 214.679 104.065C216.023 104.065 217.111 105.153 217.111 106.513ZM213.063 106.513C213.063 107.393 213.783 108.129 214.679 108.129C215.575 108.129 216.295 107.393 216.295 106.513C216.295 105.601 215.575 104.881 214.679 104.881C213.783 104.881 213.063 105.601 213.063 106.513ZM214.375 99.9207V98.7687H213.223V99.9207H214.375ZM219.031 96.8739V95.7219H217.879V96.8739H219.031ZM214.423 96.8739V95.7219H213.271V96.8739H214.423ZM222.423 91.523V90.371H220.119V88.067H218.967V89.219H217.815V90.371H218.967V91.523H217.815V92.675H218.967V93.827H220.119V91.523H222.423ZM217.815 93.827V92.675H216.663V93.827H217.815ZM217.815 89.219V88.067H216.663V89.219H217.815Z" fill="black"/>
<rect x="99" y="89" width="107.556" height="144" rx="10" fill="#FFFAED" stroke="#F5DA93" stroke-width="3"/>
<path d="M128.63 32.825H129.71V33.905H128.63V32.825ZM127.55 33.905H128.63V34.985H127.55V33.905ZM126.47 34.985H127.55V42.545H126.47V34.985ZM127.55 42.545H128.63V43.625H127.55V42.545ZM128.63 43.625H129.71V44.705H128.63V43.625ZM131.48 32.825H132.56V33.905H131.48V32.825ZM132.56 33.905H133.64V34.985H132.56V33.905ZM133.64 34.985H134.72V36.065H133.64V34.985ZM134.72 36.065H135.8V37.145H134.72V36.065ZM135.8 37.145H136.88V38.225H135.8V37.145ZM136.88 38.225H137.96V39.305H136.88V38.225ZM135.8 39.305H136.88V40.385H135.8V39.305ZM134.72 40.385H135.8V41.465H134.72V40.385ZM133.64 41.465H134.72V42.545H133.64V41.465ZM132.56 42.545H133.64V43.625H132.56V42.545ZM131.48 43.625H132.56V44.705H131.48V43.625ZM143.623 32.165H145.783V35.405H144.703V34.325H143.623V32.165ZM146.863 32.165H149.023V35.405H147.943V34.325H146.863V32.165ZM143.623 35.405H144.703V36.485H143.623V35.405ZM146.863 35.405H147.943V36.485H146.863V35.405ZM154.683 32.165H156.843V35.405H155.763V34.325H154.683V32.165ZM157.923 32.165H160.083V35.405H159.003V34.325H157.923V32.165ZM154.683 35.405H155.763V36.485H154.683V35.405ZM157.923 35.405H159.003V36.485H157.923V35.405ZM171.142 32.825H172.222V33.905H171.142V32.825ZM170.062 33.905H171.142V34.985H170.062V33.905ZM168.982 34.985H170.062V36.065H168.982V34.985ZM167.902 36.065H168.982V37.145H167.902V36.065ZM166.822 37.145H167.902V38.225H166.822V37.145ZM165.742 38.225H166.822V39.305H165.742V38.225ZM166.822 39.305H167.902V40.385H166.822V39.305ZM167.902 40.385H168.982V41.465H167.902V40.385ZM168.982 41.465H170.062V42.545H168.982V41.465ZM170.062 42.545H171.142V43.625H170.062V42.545ZM171.142 43.625H172.222V44.705H171.142V43.625ZM173.99 32.825H175.07V33.905H173.99V32.825ZM175.07 33.905H176.15V34.985H175.07V33.905ZM176.15 34.985H177.23V42.545H176.15V34.985ZM175.07 42.545H176.15V43.625H175.07V42.545ZM173.99 43.625H175.07V44.705H173.99V43.625ZM128.63 49.825H129.71V50.905H128.63V49.825ZM127.55 50.905H128.63V51.985H127.55V50.905ZM126.47 51.985H127.55V59.545H126.47V51.985ZM127.55 59.545H128.63V60.625H127.55V59.545ZM128.63 60.625H129.71V61.705H128.63V60.625ZM135.376 54.58H142.936V55.66H135.376V54.58ZM135.376 56.74H142.936V57.82H135.376V56.74ZM144.707 49.165H146.867V52.405H145.787V51.325H144.707V49.165ZM144.707 52.405H145.787V53.485H144.707V52.405ZM149.713 54.52H155.113V55.6H149.713V54.52ZM148.633 55.6H149.713V59.92H148.633V55.6ZM155.113 55.6H156.193V59.92H155.113V55.6ZM149.713 59.92H155.113V61H149.713V59.92ZM157.964 49.81H159.044V51.97H157.964V49.81ZM160.821 54.58H168.381V55.66H160.821V54.58ZM160.821 56.74H168.381V57.82H160.821V56.74ZM174.048 49.825H175.128V50.905H174.048V49.825ZM175.128 50.905H176.208V51.985H175.128V50.905ZM176.208 51.985H177.288V59.545H176.208V51.985ZM175.128 59.545H176.208V60.625H175.128V59.545ZM174.048 60.625H175.128V61.705H174.048V60.625ZM126.47 71.52H131.87V72.6H126.47V71.52ZM135.793 66.825H136.873V67.905H135.793V66.825ZM134.713 67.905H135.793V68.985H134.713V67.905ZM133.633 68.985H134.713V76.545H133.633V68.985ZM134.713 76.545H135.793V77.625H134.713V76.545ZM135.793 77.625H136.873V78.705H135.793V77.625ZM139.543 76.755H140.443V78.555H139.543V76.755ZM138.643 78.555H139.543V79.455H138.643V78.555ZM143.117 76.755H144.017V78.555H143.117V76.755ZM142.217 78.555H143.117V79.455H142.217V78.555ZM145.791 66.825H146.871V67.905H145.791V66.825ZM146.871 67.905H147.951V68.985H146.871V67.905ZM147.951 68.985H149.031V76.545H147.951V68.985ZM146.871 76.545H147.951V77.625H146.871V76.545ZM145.791 77.625H146.871V78.705H145.791V77.625ZM150.801 71.52H156.201V72.6H150.801V71.52ZM160.124 66.825H161.204V67.905H160.124V66.825ZM159.044 67.905H160.124V68.985H159.044V67.905ZM157.964 68.985H159.044V76.545H157.964V68.985ZM159.044 76.545H160.124V77.625H159.044V76.545ZM160.124 77.625H161.204V78.705H160.124V77.625ZM163.874 76.755H164.774V78.555H163.874V76.755ZM162.974 78.555H163.874V79.455H162.974V78.555ZM167.448 76.755H168.348V78.555H167.448V76.755ZM166.548 78.555H167.448V79.455H166.548V78.555ZM170.122 66.825H171.202V67.905H170.122V66.825ZM171.202 67.905H172.282V68.985H171.202V67.905ZM172.282 68.985H173.362V76.545H172.282V68.985ZM171.202 76.545H172.282V77.625H171.202V76.545ZM170.122 77.625H171.202V78.705H170.122V77.625ZM175.132 71.52H180.532V72.6H175.132V71.52Z" fill="black"/>
<path d="M112.326 119.315H118.553V120.147H113.223V124.359H112.326V119.315ZM113.223 124.359H118.553V125.204H113.223V124.359ZM120.256 119.315H121.153V121.837H122.05V122.682H121.153V125.204H120.256V119.315ZM114.042 126.049H120.256V126.894H114.042V126.049ZM113.145 126.894H114.042V129.416H113.145V126.894ZM120.256 126.894H121.153V129.416H120.256V126.894ZM114.042 129.416H120.256V130.261H114.042V129.416ZM126.238 119.315H127.122V122.682H126.238V119.315ZM125.341 122.682H126.238V123.527H125.341V122.682ZM127.122 122.682H128.019V123.527H127.122V122.682ZM124.457 123.527H125.341V124.372H124.457V123.527ZM128.019 123.527H128.903V124.372H128.019V123.527ZM123.573 124.372H124.457V125.204H123.573V124.372ZM128.903 124.372H129.787V125.204H128.903V124.372ZM131.698 119.315H132.582V125.204H131.698V119.315ZM124.392 126.049H125.289V129.416H132.4V130.261H124.392V126.049ZM135.008 119.315H138.557V120.147H135.008V119.315ZM134.111 120.147H135.008V127.739H134.111V120.147ZM138.557 120.147H139.454V127.739H138.557V120.147ZM135.008 127.739H138.557V128.571H135.008V127.739ZM142.236 119.328H143.12V130.274H142.236V119.328ZM148.025 119.315H148.909V120.992H153.368V119.315H154.252V125.204H148.025V119.315ZM148.909 121.837V124.359H153.368V121.837H148.909ZM155.955 119.315H156.852V121.837H157.749V122.682H156.852V125.204H155.955V119.315ZM148.844 126.049H156.852V126.894H149.741V129.416H156.852V130.261H148.844V126.049ZM161.002 119.315H167.216V120.147H161.002V119.315ZM160.105 120.147H161.002V122.682H160.105V120.147ZM167.216 120.147H168.113V122.682H167.216V120.147ZM161.002 122.682H167.216V123.527H161.002V122.682ZM159.286 124.372H169.01V125.217H159.286V124.372ZM160.105 126.049H161.002V129.416H168.113V130.261H160.105V126.049ZM174.742 119.315H182.75V125.204H174.742V119.315ZM175.639 120.147V124.359H181.853V120.147H175.639ZM173.923 126.049H183.647V126.894H179.188V130.261H178.304V126.894H173.923V126.049ZM186.003 119.315H194.011V120.147H190.449V123.527H189.565V120.147H186.003V119.315ZM188.668 123.527H189.565V124.359H188.668V123.527ZM190.449 123.527H191.346V124.359H190.449V123.527ZM187.784 124.359H188.668V125.204H187.784V124.359ZM191.346 124.359H192.23V125.204H191.346V124.359ZM186.003 125.204H187.784V126.049H186.003V125.204ZM192.23 125.204H194.011V126.049H192.23V125.204ZM189.565 126.049H190.449V128.571H194.908V129.403H185.184V128.571H189.565V126.049ZM110.028 134.315H116.255V138.514H115.371V135.147H110.028V134.315ZM114.474 138.514H115.371V139.359H114.474V138.514ZM113.59 139.359H114.474V140.204H113.59V139.359ZM117.958 134.315H118.855V140.204H117.958V137.682H116.255V136.837H117.958V134.315ZM110.847 141.049H111.744V144.416H118.855V145.261H110.847V141.049ZM123.065 134.315H123.949V140.204H123.065V134.315ZM122.168 140.204H123.065V141.894H122.168V140.204ZM123.949 140.204H124.833V141.894H123.949V140.204ZM121.284 141.894H122.168V142.739H121.284V141.894ZM124.833 141.894H125.73V142.739H124.833V141.894ZM120.387 142.739H121.284V143.571H120.387V142.739ZM125.73 142.739H126.614V143.571H125.73V142.739ZM127.784 134.315H128.681V139.372H130.254V140.217H128.681V145.261H127.784V134.315ZM131.787 134.315H138.014V137.682H132.671V139.359H138.014V140.204H131.787V136.837H137.117V135.147H131.787V134.315ZM139.717 134.315H140.614V136.837H141.511V137.682H140.614V140.204H139.717V134.315ZM133.503 141.049H139.717V141.894H133.503V141.049ZM132.606 141.894H133.503V144.416H132.606V141.894ZM139.717 141.894H140.614V144.416H139.717V141.894ZM133.503 144.416H139.717V145.261H133.503V144.416ZM145.726 134.315H146.61V135.147H149.275V135.992H143.048V135.147H145.726V134.315ZM144.829 136.837H147.494V137.682H144.829V136.837ZM143.945 137.682H144.829V142.739H143.945V137.682ZM147.494 137.682H148.391V142.739H147.494V137.682ZM144.829 142.739H147.494V143.571H144.829V142.739ZM150.445 134.315H151.342V139.372H152.915V140.217H151.342V145.261H150.445V134.315ZM155.268 134.315H156.165V137.682H163.276V138.527H155.268V134.315ZM154.449 139.372H164.173V140.217H154.449V139.372ZM155.268 141.049H156.165V144.416H163.276V145.261H155.268V141.049ZM168.387 134.315H169.271V140.204H168.387V134.315ZM167.49 140.204H168.387V141.894H167.49V140.204ZM169.271 140.204H170.155V141.894H169.271V140.204ZM166.606 141.894H167.49V142.739H166.606V141.894ZM170.155 141.894H171.052V142.739H170.155V141.894ZM165.709 142.739H166.606V143.571H165.709V142.739ZM171.052 142.739H171.936V143.571H171.052V142.739ZM173.106 134.315H174.003V139.372H175.576V140.217H174.003V145.261H173.106V134.315ZM177.11 134.315H183.337V137.682H177.994V139.359H183.337V140.204H177.11V136.837H182.44V135.147H177.11V134.315ZM185.04 134.315H185.937V136.837H186.834V137.682H185.937V140.204H185.04V134.315ZM178.826 141.049H185.04V141.894H178.826V141.049ZM177.929 141.894H178.826V144.416H177.929V141.894ZM185.04 141.894H185.937V144.416H185.04V141.894ZM178.826 144.416H185.04V145.261H178.826V144.416ZM189.254 134.315H193.7V135.16H189.254V134.315ZM188.37 135.16H189.254V139.372H188.37V135.16ZM193.7 135.16H194.597V139.372H193.7V135.16ZM189.254 139.372H193.7V140.217H189.254V139.372ZM196.313 134.315H197.21V145.261H196.313V134.315ZM188.383 141.894H194.597V142.739H188.383V141.894ZM143.163 149.315H144.06V150.992H150.274V149.315H151.171V155.204H143.163V149.315ZM144.06 151.837V154.359H150.274V151.837H144.06ZM142.344 156.049H152.068V156.894H147.609V160.261H146.725V156.894H142.344V156.049ZM153.591 149.315H159.805V150.147H157.14V152.682H156.256V150.147H153.591V149.315ZM155.359 152.682H156.256V153.527H155.359V152.682ZM157.14 152.682H158.037V153.527H157.14V152.682ZM154.475 153.527H155.359V154.359H154.475V153.527ZM158.037 153.527H158.921V154.359H158.037V153.527ZM153.591 154.359H154.475V155.204H153.591V154.359ZM158.921 154.359H159.805V155.204H158.921V154.359ZM161.521 149.315H162.418V155.204H161.521V152.682H159.818V151.837H161.521V149.315ZM154.41 156.049H162.418V160.261H161.521V156.894H154.41V156.049ZM163.951 149.315H164.887V157.739H163.951V149.315ZM163.951 158.675H164.887V159.611H163.951V158.675ZM114.016 164.315H117.565V165.147H114.016V164.315ZM113.119 165.147H114.016V172.739H113.119V165.147ZM117.565 165.147H118.462V172.739H117.565V165.147ZM114.016 172.739H117.565V173.571H114.016V172.739ZM121.244 164.328H122.128V175.274H121.244V164.328ZM127.852 164.315H128.749V165.992H134.963V164.315H135.86V170.204H127.852V164.315ZM128.749 166.837V169.359H134.963V166.837H128.749ZM127.033 171.049H136.757V171.894H132.298V175.261H131.414V171.894H127.033V171.049ZM138.281 164.315H144.495V165.147H141.83V167.682H140.946V165.147H138.281V164.315ZM140.049 167.682H140.946V168.527H140.049V167.682ZM141.83 167.682H142.727V168.527H141.83V167.682ZM139.165 168.527H140.049V169.359H139.165V168.527ZM142.727 168.527H143.611V169.359H142.727V168.527ZM138.281 169.359H139.165V170.204H138.281V169.359ZM143.611 169.359H144.495V170.204H143.611V169.359ZM146.211 164.315H147.108V170.204H146.211V167.682H144.508V166.837H146.211V164.315ZM139.1 171.049H147.108V175.261H146.211V171.894H139.1V171.049ZM150.356 164.315H156.57V165.147H150.356V164.315ZM149.459 165.147H150.356V167.682H149.459V165.147ZM156.57 165.147H157.467V167.682H156.57V165.147ZM150.356 167.682H156.57V168.527H150.356V167.682ZM148.64 169.372H158.364V170.217H148.64V169.372ZM149.459 171.049H157.467V173.571H150.356V174.416H157.467V175.261H149.459V172.739H156.57V171.894H149.459V171.049ZM163.278 164.315H169.505V165.147H166.84V170.204H165.956V165.147H163.278V164.315ZM165.059 170.204H165.956V171.894H165.059V170.204ZM166.84 170.204H167.724V171.894H166.84V170.204ZM164.175 171.894H165.059V172.739H164.175V171.894ZM167.724 171.894H168.621V172.739H167.724V171.894ZM163.278 172.739H164.175V173.571H163.278V172.739ZM168.621 172.739H169.505V173.571H168.621V172.739ZM171.429 164.328H172.313V175.274H171.429V164.328ZM173.853 164.315H174.75V172.739H173.853V164.315ZM174.75 172.739H179.196V173.571H174.75V172.739ZM181.978 164.328H182.862V175.274H181.978V164.328ZM185.209 164.315H193.217V170.217H192.32V165.16H185.209V164.315ZM191.436 170.217H192.32V171.062H191.436V170.217ZM188.771 171.049H189.655V173.571H194.114V174.403H184.39V173.571H188.771V171.049ZM109.308 179.315H111.973V180.16H109.308V179.315ZM108.424 180.16H109.308V180.992H108.424V180.16ZM111.973 180.16H112.87V180.992H111.973V180.16ZM107.527 180.992H108.424V183.527H107.527V180.992ZM112.87 180.992H113.754V183.527H112.87V180.992ZM108.424 183.527H109.308V184.372H108.424V183.527ZM111.973 183.527H112.87V184.372H111.973V183.527ZM109.308 184.372H111.973V185.204H109.308V184.372ZM115.652 179.315H116.536V185.204H115.652V179.315ZM110.127 186.049H111.011V188.571H110.127V186.049ZM113.689 186.049H114.573V188.571H113.689V186.049ZM109.243 188.571H110.127V189.416H109.243V188.571ZM111.011 188.571H111.908V189.416H111.011V188.571ZM112.792 188.571H113.689V189.416H112.792V188.571ZM114.573 188.571H115.457V189.416H114.573V188.571ZM108.346 189.416H109.243V190.261H108.346V189.416ZM111.908 189.416H112.792V190.261H111.908V189.416ZM115.457 189.416H116.354V190.261H115.457V189.416ZM120.664 179.315H125.11V180.147H120.664V179.315ZM119.78 180.147H120.664V180.992H119.78V180.147ZM125.11 180.147H125.994V180.992H125.11V180.147ZM118.883 180.992H119.78V184.359H118.883V180.992ZM125.994 180.992H126.891V184.359H125.994V180.992ZM119.78 184.359H120.664V185.204H119.78V184.359ZM125.11 184.359H125.994V185.204H125.11V184.359ZM120.664 185.204H125.11V186.049H120.664V185.204ZM118.064 188.558H127.788V189.403H118.064V188.558ZM129.325 179.315H135.552V185.204H129.325V179.315ZM130.209 180.147V184.359H134.668V180.147H130.209ZM137.398 179.315H138.282V185.204H137.398V183.527H135.617V182.682H137.398V181.837H135.617V180.992H137.398V179.315ZM130.144 186.049H131.041V189.416H138.152V190.261H130.144V186.049ZM143.188 179.315H149.415V180.147H144.085V184.359H143.188V179.315ZM144.085 184.359H149.415V185.204H144.085V184.359ZM151.118 179.315H152.015V181.837H152.912V182.682H152.015V185.204H151.118V179.315ZM144.904 186.049H151.118V186.894H144.904V186.049ZM144.007 186.894H144.904V189.416H144.007V186.894ZM151.118 186.894H152.015V189.416H151.118V186.894ZM144.904 189.416H151.118V190.261H144.904V189.416ZM157.101 179.315H157.985V182.682H157.101V179.315ZM156.204 182.682H157.101V183.527H156.204V182.682ZM157.985 182.682H158.882V183.527H157.985V182.682ZM155.32 183.527H156.204V184.372H155.32V183.527ZM158.882 183.527H159.766V184.372H158.882V183.527ZM154.436 184.372H155.32V185.204H154.436V184.372ZM159.766 184.372H160.65V185.204H159.766V184.372ZM162.561 179.315H163.445V185.204H162.561V179.315ZM155.255 186.049H156.152V189.416H163.263V190.261H155.255V186.049ZM165.857 179.315H170.303V180.16H165.857V179.315ZM164.973 180.16H165.857V184.372H164.973V180.16ZM170.303 180.16H171.2V184.372H170.303V180.16ZM165.857 184.372H170.303V185.217H165.857V184.372ZM172.916 179.315H173.813V190.261H172.916V179.315ZM164.986 186.894H171.2V187.739H164.986V186.894ZM183.103 179.315H183.987V183.527H183.103V179.315ZM182.206 183.527H183.103V184.372H182.206V183.527ZM183.987 183.527H184.884V184.372H183.987V183.527ZM181.322 184.372H182.206V185.217H181.322V184.372ZM184.884 184.372H185.768V185.217H184.884V184.372ZM179.541 185.217H181.322V186.062H179.541V185.217ZM185.768 185.217H187.549V186.062H185.768V185.217ZM183.103 186.049H183.987V188.571H188.446V189.403H178.722V188.571H183.103V186.049ZM189.983 179.315H196.21V185.204H189.983V179.315ZM190.867 180.147V184.359H195.326V180.147H190.867ZM197.913 179.315H198.81V181.837H199.707V182.682H198.81V185.204H197.913V179.315ZM191.699 186.049H197.913V186.894H191.699V186.049ZM190.802 186.894H191.699V189.416H190.802V186.894ZM197.913 186.894H198.81V189.416H197.913V186.894ZM191.699 189.416H197.913V190.261H191.699V189.416ZM113.483 194.315H117.032V195.147H113.483V194.315ZM112.586 195.147H113.483V202.739H112.586V195.147ZM117.032 195.147H117.929V202.739H117.032V195.147ZM113.483 202.739H117.032V203.571H113.483V202.739ZM120.711 194.328H121.595V205.274H120.711V194.328ZM129.165 194.315H130.062V195.16H132.727V196.005H130.946V196.837H128.281V196.005H126.5V195.16H129.165V194.315ZM127.384 196.837H128.281V199.372H127.384V196.837ZM130.946 196.837H131.83V199.372H130.946V196.837ZM128.281 199.372H130.946V200.217H128.281V199.372ZM134.573 194.315H135.457V200.204H134.573V198.527H132.792V197.682H134.573V196.837H132.792V195.992H134.573V194.315ZM127.319 201.049H128.216V204.416H135.327V205.261H127.319V201.049ZM139.638 194.315H140.522V197.682H139.638V194.315ZM138.741 197.682H139.638V198.527H138.741V197.682ZM140.522 197.682H141.419V198.527H140.522V197.682ZM137.857 198.527H138.741V199.372H137.857V198.527ZM141.419 198.527H142.303V199.372H141.419V198.527ZM136.973 199.372H137.857V200.204H136.973V199.372ZM142.303 199.372H143.187V200.204H142.303V199.372ZM145.098 194.315H145.982V200.204H145.098V194.315ZM137.792 201.049H145.8V203.571H138.689V204.416H145.8V205.261H137.792V202.739H144.903V201.894H137.792V201.049ZM148.408 194.315H151.957V195.147H148.408V194.315ZM147.511 195.147H148.408V202.739H147.511V195.147ZM151.957 195.147H152.854V202.739H151.957V195.147ZM148.408 202.739H151.957V203.571H148.408V202.739ZM155.636 194.328H156.52V205.274H155.636V194.328ZM161.425 194.315H167.652V195.16H162.322V197.682H161.425V194.315ZM162.322 197.682H167.652V198.527H162.322V197.682ZM169.368 194.315H170.265V200.217H169.368V194.315ZM164.103 197.682H164.987V199.372H167.652V200.217H161.438V199.372H164.103V197.682ZM162.257 201.049H163.154V202.739H169.368V201.049H170.265V205.261H162.257V201.049ZM163.154 203.571V204.416H169.368V203.571H163.154ZM171.797 194.315H172.694V202.739H171.797V194.315ZM172.694 202.739H177.14V203.571H172.694V202.739ZM179.922 194.328H180.806V205.274H179.922V194.328ZM182.334 194.315H187.677V195.147H183.231V202.739H182.334V194.315ZM186.78 201.894H187.677V202.739H186.78V201.894ZM183.231 202.739H186.78V203.571H183.231V202.739ZM189.705 194.315H190.602V199.372H192.175V200.217H190.602V205.261H189.705V194.315ZM193.709 203.064H194.645V204H193.709V203.064Z" fill="black"/>
<path d="M3.96516 49.3477L36.0482 6.04673C37.9343 3.50122 40.915 2 44.0831 2H125.691C128.837 2 131.8 3.48051 133.688 5.99652L166.22 49.3323C167.519 51.0639 168.222 53.1706 168.222 55.3358V232C168.222 237.523 163.745 242 158.222 242H12C6.47715 242 2 237.523 2 232V55.301C2 53.1572 2.68892 51.0702 3.96516 49.3477Z" fill="white"/>
<path d="M3.96516 49.3477L36.0482 6.04673C37.9343 3.50122 40.915 2 44.0831 2H125.691C128.837 2 131.8 3.48051 133.688 5.99652L166.22 49.3323C167.519 51.0639 168.222 53.1706 168.222 55.3358V232C168.222 237.523 163.745 242 158.222 242H12C6.47715 242 2 237.523 2 232V55.301C2 53.1572 2.68892 51.0702 3.96516 49.3477Z" fill="url(#paint2_linear_1204_2164)"/>
<path d="M3.96516 49.3477L36.0482 6.04673C37.9343 3.50122 40.915 2 44.0831 2H125.691C128.837 2 131.8 3.48051 133.688 5.99652L166.22 49.3323C167.519 51.0639 168.222 53.1706 168.222 55.3358V232C168.222 237.523 163.745 242 158.222 242H12C6.47715 242 2 237.523 2 232V55.301C2 53.1572 2.68892 51.0702 3.96516 49.3477Z" stroke="#F5DA93" stroke-width="3"/>
<path d="M9.25021 53.1829L39.0068 12.3342C40.889 9.75041 43.893 8.22217 47.0897 8.22217H122.715C125.89 8.22217 128.876 9.72959 130.761 12.2839L160.934 53.1671C162.204 54.8869 162.889 56.968 162.889 59.1054V226.667C162.889 232.189 158.411 236.667 152.889 236.667H17.333C11.8102 236.667 7.33301 232.189 7.33301 226.667V59.0709C7.33301 56.9548 8.00427 54.8933 9.25021 53.1829Z" fill="url(#paint3_linear_1204_2164)" stroke="#F5DA93" stroke-width="3"/>
<path d="M15.1453 214.491C14.4893 214.491 13.9453 214.123 13.9453 213.611C13.9453 213.131 14.4893 212.731 15.1453 212.731C15.8013 212.731 16.3453 213.131 16.3453 213.611C16.3453 214.123 15.8013 214.491 15.1453 214.491ZM15.1453 215.147C16.2333 215.147 17.1133 214.475 17.1133 213.611C17.1133 212.763 16.2333 212.091 15.1453 212.091C14.0573 212.091 13.1773 212.763 13.1773 213.611C13.1773 214.475 14.0573 215.147 15.1453 215.147ZM18.6173 199.551V198.399H20.9213V197.247H22.0733V198.399H24.3773V199.551H22.0733V200.703H20.9213V199.551H18.6173ZM19.7693 201.855V200.703H20.9213V201.855H19.7693ZM19.7693 197.247V196.095H20.9213V197.247H19.7693ZM22.0733 201.855V200.703H23.2253V201.855H22.0733ZM22.0733 197.247V196.095H23.2253V197.247H22.0733ZM25.6253 194.214V193.062H26.7773V194.214H25.6253ZM22.8893 189.759C22.8893 191.087 23.9773 192.191 25.3213 192.191C26.6653 192.191 27.7533 191.087 27.7533 189.759C27.7533 188.399 26.6653 187.311 25.3213 187.311C23.9773 187.311 22.8893 188.399 22.8893 189.759ZM26.9373 189.759C26.9373 190.639 26.2173 191.375 25.3213 191.375C24.4253 191.375 23.7053 190.639 23.7053 189.759C23.7053 188.847 24.4253 188.127 25.3213 188.127C26.2173 188.127 26.9373 188.847 26.9373 189.759ZM25.6253 183.167V182.015H26.7773V183.167H25.6253ZM20.9693 180.12V178.968H22.1213V180.12H20.9693ZM25.5773 180.12V178.968H26.7293V180.12H25.5773ZM17.5773 174.769V173.617H19.8813V171.313H21.0333V172.465H22.1853V173.617H21.0333V174.769H22.1853V175.921H21.0333V177.073H19.8813V174.769H17.5773ZM22.1853 177.073V175.921H23.3373V177.073H22.1853ZM22.1853 172.465V171.313H23.3373V172.465H22.1853ZM19.7693 169.433V168.169H21.0173V169.433H19.7693ZM15.1453 166.757C14.4893 166.757 13.9453 166.389 13.9453 165.877C13.9453 165.397 14.4893 164.997 15.1453 164.997C15.8013 164.997 16.3453 165.397 16.3453 165.877C16.3453 166.389 15.8013 166.757 15.1453 166.757ZM15.1453 167.413C16.2333 167.413 17.1133 166.741 17.1133 165.877C17.1133 165.029 16.2333 164.357 15.1453 164.357C14.0573 164.357 13.1773 165.029 13.1773 165.877C13.1773 166.741 14.0573 167.413 15.1453 167.413ZM18.6173 151.816V150.664H20.9213L20.9213 149.512H22.0733L22.0733 150.664H24.3773V151.816H22.0733V152.968H20.9213V151.816H18.6173ZM19.7693 154.12V152.968H20.9213V154.12H19.7693ZM19.7693 149.512V148.36H20.9213V149.512H19.7693ZM22.0733 154.12V152.968H23.2253V154.12H22.0733ZM22.0733 149.512V148.36H23.2253V149.512H22.0733ZM25.6253 146.48V145.328H26.7773V146.48H25.6253ZM22.8893 142.025C22.8893 143.353 23.9773 144.457 25.3213 144.457C26.6653 144.457 27.7533 143.353 27.7533 142.025C27.7533 140.665 26.6653 139.577 25.3213 139.577C23.9773 139.577 22.8893 140.665 22.8893 142.025ZM26.9373 142.025C26.9373 142.905 26.2173 143.641 25.3213 143.641C24.4253 143.641 23.7053 142.905 23.7053 142.025C23.7053 141.113 24.4253 140.393 25.3213 140.393C26.2173 140.393 26.9373 141.113 26.9373 142.025ZM25.6253 135.433V134.281H26.7773V135.433H25.6253ZM20.9693 132.386V131.234H22.1213V132.386H20.9693ZM25.5773 132.386V131.234H26.7293V132.386H25.5773ZM17.5773 127.035V125.883H19.8813V123.579H21.0333V124.731H22.1853V125.883H21.0333V127.035H22.1853V128.187H21.0333V129.339H19.8813V127.035H17.5773ZM22.1853 129.339V128.187H23.3373V129.339H22.1853ZM22.1853 124.731V123.579H23.3373V124.731H22.1853ZM19.7693 121.698V120.434H21.0173V121.698H19.7693ZM15.1453 119.022C14.4893 119.022 13.9453 118.654 13.9453 118.142C13.9453 117.662 14.4893 117.262 15.1453 117.262C15.8013 117.262 16.3453 117.662 16.3453 118.142C16.3453 118.654 15.8013 119.022 15.1453 119.022ZM15.1453 119.678C16.2333 119.678 17.1133 119.006 17.1133 118.142C17.1133 117.294 16.2333 116.622 15.1453 116.622C14.0573 116.622 13.1773 117.294 13.1773 118.142C13.1773 119.006 14.0573 119.678 15.1453 119.678ZM18.6173 104.082V102.93H20.9213V101.778H22.0733V102.93H24.3773V104.082H22.0733V105.234H20.9213V104.082H18.6173ZM19.7693 106.386V105.234H20.9213V106.386H19.7693ZM19.7693 101.778V100.626H20.9213V101.778H19.7693ZM22.0733 106.386V105.234H23.2253V106.386H22.0733ZM22.0733 101.778V100.626H23.2253V101.778H22.0733ZM25.6253 98.7453V97.5933H26.7773V98.7453H25.6253ZM22.8893 94.2904C22.8893 95.6184 23.9773 96.7224 25.3213 96.7224C26.6653 96.7224 27.7533 95.6184 27.7533 94.2904C27.7533 92.9304 26.6653 91.8424 25.3213 91.8424C23.9773 91.8424 22.8893 92.9304 22.8893 94.2904ZM26.9373 94.2904C26.9373 95.1704 26.2173 95.9064 25.3213 95.9064C24.4253 95.9064 23.7053 95.1704 23.7053 94.2904C23.7053 93.3784 24.4253 92.6584 25.3213 92.6584C26.2173 92.6584 26.9373 93.3784 26.9373 94.2904ZM25.6253 87.6984V86.5464H26.7773V87.6984H25.6253ZM20.9693 84.6515V83.4995H22.1213V84.6515H20.9693ZM25.5773 84.6515V83.4995H26.7293V84.6515H25.5773ZM17.5773 79.3006V78.1486H19.8813V75.8446H21.0333V76.9966H22.1853V78.1486H21.0333V79.3006H22.1853V80.4526H21.0333V81.6046H19.8813V79.3006H17.5773ZM22.1853 81.6046V80.4526H23.3373V81.6046H22.1853ZM22.1853 76.9966V75.8446H23.3373V76.9966H22.1853Z" fill="black"/>
<path d="M156.855 212.713C157.511 212.713 158.055 212.345 158.055 211.833C158.055 211.353 157.511 210.953 156.855 210.953C156.199 210.953 155.655 211.353 155.655 211.833C155.655 212.345 156.199 212.713 156.855 212.713ZM156.855 213.369C155.767 213.369 154.887 212.697 154.887 211.833C154.887 210.985 155.767 210.313 156.855 210.313C157.943 210.313 158.823 210.985 158.823 211.833C158.823 212.697 157.943 213.369 156.855 213.369ZM153.383 197.773V196.621H151.079V195.469H149.927V196.621H147.623V197.773H149.927V198.925H151.079V197.773H153.383ZM152.231 200.077V198.925H151.079V200.077H152.231ZM152.231 195.469V194.317H151.079V195.469H152.231ZM149.927 200.077V198.925H148.775V200.077H149.927ZM149.927 195.469V194.317H148.775V195.469H149.927ZM146.375 192.436V191.284H145.223V192.436H146.375ZM149.111 187.981C149.111 189.309 148.023 190.413 146.679 190.413C145.335 190.413 144.247 189.309 144.247 187.981C144.247 186.621 145.335 185.533 146.679 185.533C148.023 185.533 149.111 186.621 149.111 187.981ZM145.063 187.981C145.063 188.861 145.783 189.597 146.679 189.597C147.575 189.597 148.295 188.861 148.295 187.981C148.295 187.069 147.575 186.349 146.679 186.349C145.783 186.349 145.063 187.069 145.063 187.981ZM146.375 181.389V180.237H145.223V181.389H146.375ZM151.031 178.343V177.191H149.879V178.343H151.031ZM146.423 178.343V177.191H145.271V178.343H146.423ZM154.423 172.992V171.84H152.119V169.536H150.967V170.688H149.815V171.84H150.967V172.992H149.815V174.144H150.967V175.296H152.119V172.992H154.423ZM149.815 175.296V174.144H148.663V175.296H149.815ZM149.815 170.688V169.536H148.663V170.688H149.815ZM152.231 167.655V166.391H150.983V167.655H152.231ZM156.855 164.979C157.511 164.979 158.055 164.611 158.055 164.099C158.055 163.619 157.511 163.219 156.855 163.219C156.199 163.219 155.655 163.619 155.655 164.099C155.655 164.611 156.199 164.979 156.855 164.979ZM156.855 165.635C155.767 165.635 154.887 164.963 154.887 164.099C154.887 163.251 155.767 162.579 156.855 162.579C157.943 162.579 158.823 163.251 158.823 164.099C158.823 164.963 157.943 165.635 156.855 165.635ZM153.383 150.039V148.887H151.079V147.735H149.927V148.887H147.623V150.039H149.927V151.191H151.079V150.039H153.383ZM152.231 152.343V151.191H151.079V152.343H152.231ZM152.231 147.735V146.583H151.079V147.735H152.231ZM149.927 152.343V151.191H148.775V152.343H149.927ZM149.927 147.735V146.583H148.775V147.735H149.927ZM146.375 144.702V143.55H145.223V144.702H146.375ZM149.111 140.247C149.111 141.575 148.023 142.679 146.679 142.679C145.335 142.679 144.247 141.575 144.247 140.247C144.247 138.887 145.335 137.799 146.679 137.799C148.023 137.799 149.111 138.887 149.111 140.247ZM145.063 140.247C145.063 141.127 145.783 141.863 146.679 141.863C147.575 141.863 148.295 141.127 148.295 140.247C148.295 139.335 147.575 138.615 146.679 138.615C145.783 138.615 145.063 139.335 145.063 140.247ZM146.375 133.655V132.503H145.223V133.655H146.375ZM151.031 130.608V129.456H149.879V130.608H151.031ZM146.423 130.608V129.456H145.271V130.608H146.423ZM154.423 125.257V124.105H152.119V121.801H150.967V122.953H149.815V124.105H150.967V125.257H149.815V126.409H150.967V127.561H152.119V125.257H154.423ZM149.815 127.561V126.409H148.663V127.561H149.815ZM149.815 122.953V121.801H148.663V122.953H149.815ZM152.231 119.921V118.657H150.983V119.921H152.231ZM156.855 117.244C157.511 117.244 158.055 116.876 158.055 116.364C158.055 115.884 157.511 115.484 156.855 115.484C156.199 115.484 155.655 115.884 155.655 116.364C155.655 116.876 156.199 117.244 156.855 117.244ZM156.855 117.9C155.767 117.9 154.887 117.228 154.887 116.364C154.887 115.516 155.767 114.844 156.855 114.844C157.943 114.844 158.823 115.516 158.823 116.364C158.823 117.228 157.943 117.9 156.855 117.9ZM153.383 102.304V101.152H151.079V100H149.927V101.152H147.623V102.304H149.927V103.456H151.079V102.304H153.383ZM152.231 104.608V103.456H151.079V104.608H152.231ZM152.231 100V98.8482H151.079V100H152.231ZM149.927 104.608V103.456H148.775V104.608H149.927ZM149.927 100V98.8482H148.775V100H149.927ZM146.375 96.9676V95.8156H145.223V96.9676H146.375ZM149.111 92.5127C149.111 93.8407 148.023 94.9447 146.679 94.9447C145.335 94.9447 144.247 93.8407 144.247 92.5127C144.247 91.1527 145.335 90.0647 146.679 90.0647C148.023 90.0647 149.111 91.1527 149.111 92.5127ZM145.063 92.5127C145.063 93.3927 145.783 94.1287 146.679 94.1287C147.575 94.1287 148.295 93.3927 148.295 92.5127C148.295 91.6007 147.575 90.8807 146.679 90.8807C145.783 90.8807 145.063 91.6007 145.063 92.5127ZM146.375 85.9207V84.7687H145.223V85.9207H146.375ZM151.031 82.8739V81.7219H149.879V82.8739H151.031ZM146.423 82.8739V81.7219H145.271V82.8739H146.423ZM154.423 77.523V76.371H152.119V74.067H150.967V75.219H149.815V76.371H150.967V77.523H149.815V78.675H150.967V79.827H152.119V77.523H154.423ZM149.815 79.827V78.675H148.663V79.827H149.815ZM149.815 75.219V74.067H148.663V75.219H149.815Z" fill="black"/>
<rect x="31" y="75" width="107.556" height="144" rx="10" fill="#FFFAED" stroke="#F5DA93" stroke-width="3"/>
<path d="M58.0124 94.12H72.7964V104.992H58.0124V94.12ZM59.6684 95.656V103.432H71.1404V95.656H59.6684ZM56.5004 106.552H74.4524V108.112H66.2204V114.328H64.5884V108.112H56.5004V106.552ZM78.8015 94.12H93.5855V95.656H87.0095V101.896H85.3775V95.656H78.8015V94.12ZM83.7215 101.896H85.3775V103.432H83.7215V101.896ZM87.0095 101.896H88.6655V103.432H87.0095V101.896ZM82.0895 103.432H83.7215V104.992H82.0895V103.432ZM88.6655 103.432H90.2975V104.992H88.6655V103.432ZM78.8015 104.992H82.0895V106.552H78.8015V104.992ZM90.2975 104.992H93.5855V106.552H90.2975V104.992ZM85.3775 106.552H87.0095V111.208H95.2415V112.744H77.2895V111.208H85.3775V106.552ZM98.0786 94.12H109.575V101.872H107.943V95.656H98.0786V94.12ZM106.287 101.872H107.943V103.432H106.287V101.872ZM104.655 103.432H106.287V104.992H104.655V103.432ZM112.719 94.12H114.375V104.992H112.719V100.336H109.575V98.776H112.719V94.12ZM99.5906 106.552H101.247V112.768H114.375V114.328H99.5906V106.552ZM60.3546 122.12H61.9866V132.992H60.3546V122.12ZM58.6986 132.992H60.3546V136.112H58.6986V132.992ZM61.9866 132.992H63.6186V136.112H61.9866V132.992ZM57.0666 136.112H58.6986V137.672H57.0666V136.112ZM63.6186 136.112H65.2746V137.672H63.6186V136.112ZM55.4106 137.672H57.0666V139.208H55.4106V137.672ZM65.2746 137.672H66.9066V139.208H65.2746V137.672ZM69.0666 122.12H70.7226V131.456H73.6266V133.016H70.7226V142.328H69.0666V122.12ZM76.4575 122.12H87.9535V128.336H78.0895V131.432H87.9535V132.992H76.4575V126.776H86.2975V123.656H76.4575V122.12ZM91.0975 122.12H92.7535V126.776H94.4095V128.336H92.7535V132.992H91.0975V122.12ZM79.6255 134.552H91.0975V136.112H79.6255V134.552ZM77.9695 136.112H79.6255V140.768H77.9695V136.112ZM91.0975 136.112H92.7535V140.768H91.0975V136.112ZM79.6255 140.768H91.0975V142.328H79.6255V140.768ZM102.191 122.12H103.823V123.656H108.743V125.216H97.2465V123.656H102.191V122.12ZM100.535 126.776H105.455V128.336H100.535V126.776ZM98.9025 128.336H100.535V137.672H98.9025V128.336ZM105.455 128.336H107.111V137.672H105.455V128.336ZM100.535 137.672H105.455V139.208H100.535V137.672ZM110.903 122.12H112.559V131.456H115.463V133.016H112.559V142.328H110.903V122.12ZM57.0515 150.12H58.7075V156.336H71.8355V157.896H57.0515V150.12ZM55.5395 159.456H73.4915V161.016H55.5395V159.456ZM57.0515 162.552H58.7075V168.768H71.8355V170.328H57.0515V162.552ZM81.2726 150.12H82.9046V160.992H81.2726V150.12ZM79.6166 160.992H81.2726V164.112H79.6166V160.992ZM82.9046 160.992H84.5366V164.112H82.9046V160.992ZM77.9846 164.112H79.6166V165.672H77.9846V164.112ZM84.5366 164.112H86.1926V165.672H84.5366V164.112ZM76.3286 165.672H77.9846V167.208H76.3286V165.672ZM86.1926 165.672H87.8246V167.208H86.1926V165.672ZM89.9846 150.12H91.6406V159.456H94.5446V161.016H91.6406V170.328H89.9846V150.12ZM97.3754 150.12H108.871V156.336H99.0074V159.432H108.871V160.992H97.3754V154.776H107.215V151.656H97.3754V150.12ZM112.015 150.12H113.671V154.776H115.327V156.336H113.671V160.992H112.015V150.12ZM100.543 162.552H112.015V164.112H100.543V162.552ZM98.8874 164.112H100.543V168.768H98.8874V164.112ZM112.015 164.112H113.671V168.768H112.015V164.112ZM100.543 168.768H112.015V170.328H100.543V168.768ZM58.9645 178.12H67.1725V179.68H58.9645V178.12ZM57.3325 179.68H58.9645V187.456H57.3325V179.68ZM67.1725 179.68H68.8285V187.456H67.1725V179.68ZM58.9645 187.456H67.1725V189.016H58.9645V187.456ZM71.9965 178.12H73.6525V198.328H71.9965V178.12ZM57.3565 192.112H68.8285V193.672H57.3565V192.112ZM77.9929 178.12H79.6489V181.216H91.1209V178.12H92.7769V188.992H77.9929V178.12ZM79.6489 182.776V187.432H91.1209V182.776H79.6489ZM76.4809 190.552H94.4329V192.112H86.2009V198.328H84.5689V192.112H76.4809V190.552ZM97.246 178.12H108.718V179.656H103.798V184.336H102.166V179.656H97.246V178.12ZM100.51 184.336H102.166V185.896H100.51V184.336ZM103.798 184.336H105.454V185.896H103.798V184.336ZM98.878 185.896H100.51V187.432H98.878V185.896ZM105.454 185.896H107.086V187.432H105.454V185.896ZM97.246 187.432H98.878V188.992H97.246V187.432ZM107.086 187.432H108.718V188.992H107.086V187.432ZM111.886 178.12H113.542V188.992H111.886V184.336H108.742V182.776H111.886V178.12ZM98.758 190.552H113.542V198.328H111.886V192.112H98.758V190.552Z" fill="black"/>
<path d="M60.63 18.825H61.71V19.905H60.63V18.825ZM59.55 19.905H60.63V20.985H59.55V19.905ZM58.47 20.985H59.55V28.545H58.47V20.985ZM59.55 28.545H60.63V29.625H59.55V28.545ZM60.63 29.625H61.71V30.705H60.63V29.625ZM63.4798 18.825H64.5598V19.905H63.4798V18.825ZM64.5598 19.905H65.6398V20.985H64.5598V19.905ZM65.6398 20.985H66.7198V22.065H65.6398V20.985ZM66.7198 22.065H67.7998V23.145H66.7198V22.065ZM67.7998 23.145H68.8798V24.225H67.7998V23.145ZM68.8798 24.225H69.9598V25.305H68.8798V24.225ZM67.7998 25.305H68.8798V26.385H67.7998V25.305ZM66.7198 26.385H67.7998V27.465H66.7198V26.385ZM65.6398 27.465H66.7198V28.545H65.6398V27.465ZM64.5598 28.545H65.6398V29.625H64.5598V28.545ZM63.4798 29.625H64.5598V30.705H63.4798V29.625ZM75.6233 18.165H77.7833V21.405H76.7033V20.325H75.6233V18.165ZM78.8633 18.165H81.0233V21.405H79.9433V20.325H78.8633V18.165ZM75.6233 21.405H76.7033V22.485H75.6233V21.405ZM78.8633 21.405H79.9433V22.485H78.8633V21.405ZM86.6829 18.165H88.8429V21.405H87.7629V20.325H86.6829V18.165ZM89.9229 18.165H92.0829V21.405H91.0029V20.325H89.9229V18.165ZM86.6829 21.405H87.7629V22.485H86.6829V21.405ZM89.9229 21.405H91.0029V22.485H89.9229V21.405ZM103.142 18.825H104.222V19.905H103.142V18.825ZM102.062 19.905H103.142V20.985H102.062V19.905ZM100.982 20.985H102.062V22.065H100.982V20.985ZM99.9025 22.065H100.982V23.145H99.9025V22.065ZM98.8225 23.145H99.9025V24.225H98.8225V23.145ZM97.7425 24.225H98.8225V25.305H97.7425V24.225ZM98.8225 25.305H99.9025V26.385H98.8225V25.305ZM99.9025 26.385H100.982V27.465H99.9025V26.385ZM100.982 27.465H102.062V28.545H100.982V27.465ZM102.062 28.545H103.142V29.625H102.062V28.545ZM103.142 29.625H104.222V30.705H103.142V29.625ZM105.99 18.825H107.07V19.905H105.99V18.825ZM107.07 19.905H108.15V20.985H107.07V19.905ZM108.15 20.985H109.23V28.545H108.15V20.985ZM107.07 28.545H108.15V29.625H107.07V28.545ZM105.99 29.625H107.07V30.705H105.99V29.625ZM60.63 35.825H61.71V36.905H60.63V35.825ZM59.55 36.905H60.63V37.985H59.55V36.905ZM58.47 37.985H59.55V45.545H58.47V37.985ZM59.55 45.545H60.63V46.625H59.55V45.545ZM60.63 46.625H61.71V47.705H60.63V46.625ZM67.3763 40.58H74.9363V41.66H67.3763V40.58ZM67.3763 42.74H74.9363V43.82H67.3763V42.74ZM76.7073 35.165H78.8673V38.405H77.7873V37.325H76.7073V35.165ZM76.7073 38.405H77.7873V39.485H76.7073V38.405ZM81.7131 40.52H87.1131V41.6H81.7131V40.52ZM80.6331 41.6H81.7131V45.92H80.6331V41.6ZM87.1131 41.6H88.1931V45.92H87.1131V41.6ZM81.7131 45.92H87.1131V47H81.7131V45.92ZM89.9641 35.81H91.0441V37.97H89.9641V35.81ZM92.8206 40.58H100.381V41.66H92.8206V40.58ZM92.8206 42.74H100.381V43.82H92.8206V42.74ZM106.048 35.825H107.128V36.905H106.048V35.825ZM107.128 36.905H108.208V37.985H107.128V36.905ZM108.208 37.985H109.288V45.545H108.208V37.985ZM107.128 45.545H108.208V46.625H107.128V45.545ZM106.048 46.625H107.128V47.705H106.048V46.625ZM58.47 57.52H63.87V58.6H58.47V57.52ZM67.7931 52.825H68.8731V53.905H67.7931V52.825ZM66.7131 53.905H67.7931V54.985H66.7131V53.905ZM65.6331 54.985H66.7131V62.545H65.6331V54.985ZM66.7131 62.545H67.7931V63.625H66.7131V62.545ZM67.7931 63.625H68.8731V64.705H67.7931V63.625ZM71.5429 62.755H72.4429V64.555H71.5429V62.755ZM70.6429 64.555H71.5429V65.455H70.6429V64.555ZM75.1171 62.755H76.0171V64.555H75.1171V62.755ZM74.2171 64.555H75.1171V65.455H74.2171V64.555ZM77.7913 52.825H78.8713V53.905H77.7913V52.825ZM78.8713 53.905H79.9513V54.985H78.8713V53.905ZM79.9513 54.985H81.0313V62.545H79.9513V54.985ZM78.8713 62.545H79.9513V63.625H78.8713V62.545ZM77.7913 63.625H78.8713V64.705H77.7913V63.625ZM82.8011 57.52H88.2011V58.6H82.8011V57.52ZM92.1241 52.825H93.2041V53.905H92.1241V52.825ZM91.0441 53.905H92.1241V54.985H91.0441V53.905ZM89.9641 54.985H91.0441V62.545H89.9641V54.985ZM91.0441 62.545H92.1241V63.625H91.0441V62.545ZM92.1241 63.625H93.2041V64.705H92.1241V63.625ZM95.8739 62.755H96.7739V64.555H95.8739V62.755ZM94.9739 64.555H95.8739V65.455H94.9739V64.555ZM99.4481 62.755H100.348V64.555H99.4481V62.755ZM98.5481 64.555H99.4481V65.455H98.5481V64.555ZM102.122 52.825H103.202V53.905H102.122V52.825ZM103.202 53.905H104.282V54.985H103.202V53.905ZM104.282 54.985H105.362V62.545H104.282V54.985ZM103.202 62.545H104.282V63.625H103.202V62.545ZM102.122 63.625H103.202V64.705H102.122V63.625ZM107.132 57.52H112.532V58.6H107.132V57.52Z" fill="black"/>
<defs>
<linearGradient id="paint0_linear_1204_2164" x1="153.111" y1="16" x2="153.111" y2="256" gradientUnits="userSpaceOnUse">
<stop stop-color="#F8F1E5"/>
<stop offset="1" stop-color="#FFBB36" stop-opacity="0.1"/>
</linearGradient>
<linearGradient id="paint1_linear_1204_2164" x1="153.111" y1="22.2222" x2="153.111" y2="250.667" gradientUnits="userSpaceOnUse">
<stop stop-color="#FFFFF4"/>
<stop offset="1" stop-color="#FFFFF4" stop-opacity="0"/>
</linearGradient>
<linearGradient id="paint2_linear_1204_2164" x1="85.1111" y1="2" x2="85.1111" y2="242" gradientUnits="userSpaceOnUse">
<stop stop-color="#F8F1E5"/>
<stop offset="1" stop-color="#FFBB36" stop-opacity="0.1"/>
</linearGradient>
<linearGradient id="paint3_linear_1204_2164" x1="85.1108" y1="8.22217" x2="85.1108" y2="236.667" gradientUnits="userSpaceOnUse">
<stop stop-color="#FFFFF4"/>
<stop offset="1" stop-color="#FFFFF4" stop-opacity="0"/>
</linearGradient>
</defs>
</svg>
