<svg width="253" height="254" viewBox="0 0 253 254" fill="none" xmlns="http://www.w3.org/2000/svg">
<path d="M86.9652 59.3477L119.048 16.0467C120.934 13.5012 123.915 12 127.083 12H208.691C211.837 12 214.8 13.4805 216.688 15.9965L249.22 59.3323C250.519 61.0639 251.222 63.1706 251.222 65.3358V242C251.222 247.523 246.745 252 241.222 252H95C89.4772 252 85 247.523 85 242V65.301C85 63.1572 85.6889 61.0702 86.9652 59.3477Z" fill="white"/>
<path d="M86.9652 59.3477L119.048 16.0467C120.934 13.5012 123.915 12 127.083 12H208.691C211.837 12 214.8 13.4805 216.688 15.9965L249.22 59.3323C250.519 61.0639 251.222 63.1706 251.222 65.3358V242C251.222 247.523 246.745 252 241.222 252H95C89.4772 252 85 247.523 85 242V65.301C85 63.1572 85.6889 61.0702 86.9652 59.3477Z" fill="url(#paint0_linear_1184_1829)"/>
<path d="M86.9652 59.3477L119.048 16.0467C120.934 13.5012 123.915 12 127.083 12H208.691C211.837 12 214.8 13.4805 216.688 15.9965L249.22 59.3323C250.519 61.0639 251.222 63.1706 251.222 65.3358V242C251.222 247.523 246.745 252 241.222 252H95C89.4772 252 85 247.523 85 242V65.301C85 63.1572 85.6889 61.0702 86.9652 59.3477Z" stroke="#E6CE92" stroke-width="3"/>
<path d="M92.2502 63.1829L122.007 22.3342C123.889 19.7504 126.893 18.2222 130.09 18.2222H205.715C208.89 18.2222 211.876 19.7296 213.761 22.2839L243.934 63.1671C245.204 64.8869 245.889 66.968 245.889 69.1054V236.667C245.889 242.189 241.411 246.667 235.889 246.667H100.333C94.8102 246.667 90.333 242.189 90.333 236.667V69.0709C90.333 66.9548 91.0043 64.8933 92.2502 63.1829Z" fill="url(#paint1_linear_1184_1829)" stroke="#E6CE92" stroke-width="3"/>
<path d="M145.63 28.825H146.71V29.905H145.63V28.825ZM144.55 29.905H145.63V30.985H144.55V29.905ZM143.47 30.985H144.55V38.545H143.47V30.985ZM144.55 38.545H145.63V39.625H144.55V38.545ZM145.63 39.625H146.71V40.705H145.63V39.625ZM148.48 28.825H149.56V29.905H148.48V28.825ZM149.56 29.905H150.64V30.985H149.56V29.905ZM150.64 30.985H151.72V32.065H150.64V30.985ZM151.72 32.065H152.8V33.145H151.72V32.065ZM152.8 33.145H153.88V34.225H152.8V33.145ZM153.88 34.225H154.96V35.305H153.88V34.225ZM152.8 35.305H153.88V36.385H152.8V35.305ZM151.72 36.385H152.8V37.465H151.72V36.385ZM150.64 37.465H151.72V38.545H150.64V37.465ZM149.56 38.545H150.64V39.625H149.56V38.545ZM148.48 39.625H149.56V40.705H148.48V39.625ZM160.623 28.165H162.783V31.405H161.703V30.325H160.623V28.165ZM163.863 28.165H166.023V31.405H164.943V30.325H163.863V28.165ZM160.623 31.405H161.703V32.485H160.623V31.405ZM163.863 31.405H164.943V32.485H163.863V31.405ZM171.683 28.165H173.843V31.405H172.763V30.325H171.683V28.165ZM174.923 28.165H177.083V31.405H176.003V30.325H174.923V28.165ZM171.683 31.405H172.763V32.485H171.683V31.405ZM174.923 31.405H176.003V32.485H174.923V31.405ZM188.142 28.825H189.222V29.905H188.142V28.825ZM187.062 29.905H188.142V30.985H187.062V29.905ZM185.982 30.985H187.062V32.065H185.982V30.985ZM184.902 32.065H185.982V33.145H184.902V32.065ZM183.822 33.145H184.902V34.225H183.822V33.145ZM182.742 34.225H183.822V35.305H182.742V34.225ZM183.822 35.305H184.902V36.385H183.822V35.305ZM184.902 36.385H185.982V37.465H184.902V36.385ZM185.982 37.465H187.062V38.545H185.982V37.465ZM187.062 38.545H188.142V39.625H187.062V38.545ZM188.142 39.625H189.222V40.705H188.142V39.625ZM190.99 28.825H192.07V29.905H190.99V28.825ZM192.07 29.905H193.15V30.985H192.07V29.905ZM193.15 30.985H194.23V38.545H193.15V30.985ZM192.07 38.545H193.15V39.625H192.07V38.545ZM190.99 39.625H192.07V40.705H190.99V39.625ZM145.63 45.825H146.71V46.905H145.63V45.825ZM144.55 46.905H145.63V47.985H144.55V46.905ZM143.47 47.985H144.55V55.545H143.47V47.985ZM144.55 55.545H145.63V56.625H144.55V55.545ZM145.63 56.625H146.71V57.705H145.63V56.625ZM152.376 50.58H159.936V51.66H152.376V50.58ZM152.376 52.74H159.936V53.82H152.376V52.74ZM161.707 45.165H163.867V48.405H162.787V47.325H161.707V45.165ZM161.707 48.405H162.787V49.485H161.707V48.405ZM166.713 50.52H172.113V51.6H166.713V50.52ZM165.633 51.6H166.713V55.92H165.633V51.6ZM172.113 51.6H173.193V55.92H172.113V51.6ZM166.713 55.92H172.113V57H166.713V55.92ZM174.964 45.81H176.044V47.97H174.964V45.81ZM177.821 50.58H185.381V51.66H177.821V50.58ZM177.821 52.74H185.381V53.82H177.821V52.74ZM191.048 45.825H192.128V46.905H191.048V45.825ZM192.128 46.905H193.208V47.985H192.128V46.905ZM193.208 47.985H194.288V55.545H193.208V47.985ZM192.128 55.545H193.208V56.625H192.128V55.545ZM191.048 56.625H192.128V57.705H191.048V56.625ZM143.47 67.52H148.87V68.6H143.47V67.52ZM152.793 62.825H153.873V63.905H152.793V62.825ZM151.713 63.905H152.793V64.985H151.713V63.905ZM150.633 64.985H151.713V72.545H150.633V64.985ZM151.713 72.545H152.793V73.625H151.713V72.545ZM152.793 73.625H153.873V74.705H152.793V73.625ZM156.543 72.755H157.443V74.555H156.543V72.755ZM155.643 74.555H156.543V75.455H155.643V74.555ZM160.117 72.755H161.017V74.555H160.117V72.755ZM159.217 74.555H160.117V75.455H159.217V74.555ZM162.791 62.825H163.871V63.905H162.791V62.825ZM163.871 63.905H164.951V64.985H163.871V63.905ZM164.951 64.985H166.031V72.545H164.951V64.985ZM163.871 72.545H164.951V73.625H163.871V72.545ZM162.791 73.625H163.871V74.705H162.791V73.625ZM167.801 67.52H173.201V68.6H167.801V67.52ZM177.124 62.825H178.204V63.905H177.124V62.825ZM176.044 63.905H177.124V64.985H176.044V63.905ZM174.964 64.985H176.044V72.545H174.964V64.985ZM176.044 72.545H177.124V73.625H176.044V72.545ZM177.124 73.625H178.204V74.705H177.124V73.625ZM180.874 72.755H181.774V74.555H180.874V72.755ZM179.974 74.555H180.874V75.455H179.974V74.555ZM184.448 72.755H185.348V74.555H184.448V72.755ZM183.548 74.555H184.448V75.455H183.548V74.555ZM187.122 62.825H188.202V63.905H187.122V62.825ZM188.202 63.905H189.282V64.985H188.202V63.905ZM189.282 64.985H190.362V72.545H189.282V64.985ZM188.202 72.545H189.282V73.625H188.202V72.545ZM187.122 73.625H188.202V74.705H187.122V73.625ZM192.132 67.52H197.532V68.6H192.132V67.52Z" fill="black"/>
<rect x="114.333" y="84.8889" width="107.556" height="144" rx="10" fill="#FEFFF5" stroke="#E6CE92" stroke-width="3"/>
<path d="M98.1453 224.491C97.4893 224.491 96.9453 224.123 96.9453 223.611C96.9453 223.131 97.4893 222.731 98.1453 222.731C98.8013 222.731 99.3453 223.131 99.3453 223.611C99.3453 224.123 98.8013 224.491 98.1453 224.491ZM98.1453 225.147C99.2333 225.147 100.113 224.475 100.113 223.611C100.113 222.763 99.2333 222.091 98.1453 222.091C97.0573 222.091 96.1773 222.763 96.1773 223.611C96.1773 224.475 97.0573 225.147 98.1453 225.147ZM101.617 209.551V208.399H103.921V207.247H105.073V208.399H107.377V209.551H105.073V210.703H103.921V209.551H101.617ZM102.769 211.855V210.703H103.921V211.855H102.769ZM102.769 207.247V206.095H103.921V207.247H102.769ZM105.073 211.855V210.703H106.225V211.855H105.073ZM105.073 207.247V206.095H106.225V207.247H105.073ZM108.625 204.214V203.062H109.777V204.214H108.625ZM105.889 199.759C105.889 201.087 106.977 202.191 108.321 202.191C109.665 202.191 110.753 201.087 110.753 199.759C110.753 198.399 109.665 197.311 108.321 197.311C106.977 197.311 105.889 198.399 105.889 199.759ZM109.937 199.759C109.937 200.639 109.217 201.375 108.321 201.375C107.425 201.375 106.705 200.639 106.705 199.759C106.705 198.847 107.425 198.127 108.321 198.127C109.217 198.127 109.937 198.847 109.937 199.759ZM108.625 193.167V192.015H109.777V193.167H108.625ZM103.969 190.12V188.968H105.121V190.12H103.969ZM108.577 190.12V188.968H109.729V190.12H108.577ZM100.577 184.769V183.617H102.881V181.313H104.033V182.465H105.185V183.617H104.033V184.769H105.185V185.921H104.033V187.073H102.881V184.769H100.577ZM105.185 187.073V185.921H106.337V187.073H105.185ZM105.185 182.465V181.313H106.337V182.465H105.185ZM102.769 179.433V178.169H104.017V179.433H102.769ZM98.1453 176.757C97.4893 176.757 96.9453 176.389 96.9453 175.877C96.9453 175.397 97.4893 174.997 98.1453 174.997C98.8013 174.997 99.3453 175.397 99.3453 175.877C99.3453 176.389 98.8013 176.757 98.1453 176.757ZM98.1453 177.413C99.2333 177.413 100.113 176.741 100.113 175.877C100.113 175.029 99.2333 174.357 98.1453 174.357C97.0573 174.357 96.1773 175.029 96.1773 175.877C96.1773 176.741 97.0573 177.413 98.1453 177.413ZM101.617 161.816V160.664H103.921V159.512H105.073V160.664H107.377V161.816H105.073V162.968H103.921V161.816H101.617ZM102.769 164.12V162.968H103.921V164.12H102.769ZM102.769 159.512V158.36H103.921V159.512H102.769ZM105.073 164.12V162.968H106.225V164.12H105.073ZM105.073 159.512V158.36H106.225V159.512H105.073ZM108.625 156.48V155.328H109.777V156.48H108.625ZM105.889 152.025C105.889 153.353 106.977 154.457 108.321 154.457C109.665 154.457 110.753 153.353 110.753 152.025C110.753 150.665 109.665 149.577 108.321 149.577C106.977 149.577 105.889 150.665 105.889 152.025ZM109.937 152.025C109.937 152.905 109.217 153.641 108.321 153.641C107.425 153.641 106.705 152.905 106.705 152.025C106.705 151.113 107.425 150.393 108.321 150.393C109.217 150.393 109.937 151.113 109.937 152.025ZM108.625 145.433V144.281H109.777V145.433H108.625ZM103.969 142.386V141.234H105.121V142.386H103.969ZM108.577 142.386V141.234H109.729V142.386H108.577ZM100.577 137.035V135.883H102.881V133.579H104.033V134.731H105.185V135.883H104.033V137.035H105.185V138.187H104.033V139.339H102.881V137.035H100.577ZM105.185 139.339V138.187H106.337V139.339H105.185ZM105.185 134.731V133.579H106.337V134.731H105.185ZM102.769 131.698V130.434H104.017V131.698H102.769ZM98.1453 129.022C97.4893 129.022 96.9453 128.654 96.9453 128.142C96.9453 127.662 97.4893 127.262 98.1453 127.262C98.8013 127.262 99.3453 127.662 99.3453 128.142C99.3453 128.654 98.8013 129.022 98.1453 129.022ZM98.1453 129.678C99.2333 129.678 100.113 129.006 100.113 128.142C100.113 127.294 99.2333 126.622 98.1453 126.622C97.0573 126.622 96.1773 127.294 96.1773 128.142C96.1773 129.006 97.0573 129.678 98.1453 129.678ZM101.617 114.082V112.93H103.921V111.778H105.073V112.93H107.377V114.082H105.073V115.234H103.921V114.082H101.617ZM102.769 116.386V115.234H103.921V116.386H102.769ZM102.769 111.778V110.626H103.921V111.778H102.769ZM105.073 116.386V115.234H106.225V116.386H105.073ZM105.073 111.778V110.626H106.225V111.778H105.073ZM108.625 108.745V107.593H109.777V108.745H108.625ZM105.889 104.29C105.889 105.618 106.977 106.722 108.321 106.722C109.665 106.722 110.753 105.618 110.753 104.29C110.753 102.93 109.665 101.842 108.321 101.842C106.977 101.842 105.889 102.93 105.889 104.29ZM109.937 104.29C109.937 105.17 109.217 105.906 108.321 105.906C107.425 105.906 106.705 105.17 106.705 104.29C106.705 103.378 107.425 102.658 108.321 102.658C109.217 102.658 109.937 103.378 109.937 104.29ZM108.625 97.6984V96.5464H109.777V97.6984H108.625ZM103.969 94.6515V93.4995H105.121V94.6515H103.969ZM108.577 94.6515V93.4995H109.729V94.6515H108.577ZM100.577 89.3006V88.1486H102.881V85.8446H104.033V86.9966H105.185V88.1486H104.033V89.3006H105.185V90.4526H104.033V91.6046H102.881V89.3006H100.577ZM105.185 91.6046V90.4526H106.337V91.6046H105.185ZM105.185 86.9966V85.8446H106.337V86.9966H105.185Z" fill="black"/>
<path d="M239.855 222.713C240.511 222.713 241.055 222.345 241.055 221.833C241.055 221.353 240.511 220.953 239.855 220.953C239.199 220.953 238.655 221.353 238.655 221.833C238.655 222.345 239.199 222.713 239.855 222.713ZM239.855 223.369C238.767 223.369 237.887 222.697 237.887 221.833C237.887 220.985 238.767 220.313 239.855 220.313C240.943 220.313 241.823 220.985 241.823 221.833C241.823 222.697 240.943 223.369 239.855 223.369ZM236.383 207.773V206.621H234.079V205.469H232.927V206.621H230.623V207.773H232.927V208.925H234.079V207.773H236.383ZM235.231 210.077V208.925H234.079V210.077H235.231ZM235.231 205.469V204.317H234.079V205.469H235.231ZM232.927 210.077V208.925H231.775V210.077H232.927ZM232.927 205.469V204.317H231.775V205.469H232.927ZM229.375 202.436V201.284H228.223V202.436H229.375ZM232.111 197.981C232.111 199.309 231.023 200.413 229.679 200.413C228.335 200.413 227.247 199.309 227.247 197.981C227.247 196.621 228.335 195.533 229.679 195.533C231.023 195.533 232.111 196.621 232.111 197.981ZM228.063 197.981C228.063 198.861 228.783 199.597 229.679 199.597C230.575 199.597 231.295 198.861 231.295 197.981C231.295 197.069 230.575 196.349 229.679 196.349C228.783 196.349 228.063 197.069 228.063 197.981ZM229.375 191.389V190.237H228.223V191.389H229.375ZM234.031 188.343V187.191H232.879V188.343H234.031ZM229.423 188.343V187.191H228.271V188.343H229.423ZM237.423 182.992V181.84H235.119V179.536H233.967V180.688H232.815V181.84H233.967V182.992H232.815V184.144H233.967V185.296H235.119V182.992H237.423ZM232.815 185.296V184.144H231.663V185.296H232.815ZM232.815 180.688V179.536H231.663V180.688H232.815ZM235.231 177.655V176.391H233.983V177.655H235.231ZM239.855 174.979C240.511 174.979 241.055 174.611 241.055 174.099C241.055 173.619 240.511 173.219 239.855 173.219C239.199 173.219 238.655 173.619 238.655 174.099C238.655 174.611 239.199 174.979 239.855 174.979ZM239.855 175.635C238.767 175.635 237.887 174.963 237.887 174.099C237.887 173.251 238.767 172.579 239.855 172.579C240.943 172.579 241.823 173.251 241.823 174.099C241.823 174.963 240.943 175.635 239.855 175.635ZM236.383 160.039V158.887H234.079V157.735H232.927V158.887H230.623V160.039H232.927V161.191H234.079V160.039H236.383ZM235.231 162.343V161.191H234.079V162.343H235.231ZM235.231 157.735V156.583H234.079V157.735H235.231ZM232.927 162.343V161.191H231.775V162.343H232.927ZM232.927 157.735V156.583H231.775V157.735H232.927ZM229.375 154.702V153.55H228.223V154.702H229.375ZM232.111 150.247C232.111 151.575 231.023 152.679 229.679 152.679C228.335 152.679 227.247 151.575 227.247 150.247C227.247 148.887 228.335 147.799 229.679 147.799C231.023 147.799 232.111 148.887 232.111 150.247ZM228.063 150.247C228.063 151.127 228.783 151.863 229.679 151.863C230.575 151.863 231.295 151.127 231.295 150.247C231.295 149.335 230.575 148.615 229.679 148.615C228.783 148.615 228.063 149.335 228.063 150.247ZM229.375 143.655V142.503H228.223V143.655H229.375ZM234.031 140.608V139.456H232.879V140.608H234.031ZM229.423 140.608V139.456H228.271V140.608H229.423ZM237.423 135.257V134.105H235.119V131.801H233.967V132.953H232.815V134.105H233.967V135.257H232.815V136.409H233.967V137.561H235.119V135.257H237.423ZM232.815 137.561V136.409H231.663V137.561H232.815ZM232.815 132.953V131.801H231.663V132.953H232.815ZM235.231 129.921V128.657H233.983V129.921H235.231ZM239.855 127.244C240.511 127.244 241.055 126.876 241.055 126.364C241.055 125.884 240.511 125.484 239.855 125.484C239.199 125.484 238.655 125.884 238.655 126.364C238.655 126.876 239.199 127.244 239.855 127.244ZM239.855 127.9C238.767 127.9 237.887 127.228 237.887 126.364C237.887 125.516 238.767 124.844 239.855 124.844C240.943 124.844 241.823 125.516 241.823 126.364C241.823 127.228 240.943 127.9 239.855 127.9ZM236.383 112.304V111.152H234.079V110H232.927V111.152H230.623V112.304H232.927V113.456H234.079V112.304H236.383ZM235.231 114.608V113.456H234.079V114.608H235.231ZM235.231 110V108.848H234.079V110H235.231ZM232.927 114.608V113.456H231.775V114.608H232.927ZM232.927 110V108.848H231.775V110H232.927ZM229.375 106.968V105.816H228.223V106.968H229.375ZM232.111 102.513C232.111 103.841 231.023 104.945 229.679 104.945C228.335 104.945 227.247 103.841 227.247 102.513C227.247 101.153 228.335 100.065 229.679 100.065C231.023 100.065 232.111 101.153 232.111 102.513ZM228.063 102.513C228.063 103.393 228.783 104.129 229.679 104.129C230.575 104.129 231.295 103.393 231.295 102.513C231.295 101.601 230.575 100.881 229.679 100.881C228.783 100.881 228.063 101.601 228.063 102.513ZM229.375 95.9207V94.7687H228.223V95.9207H229.375ZM234.031 92.8739V91.7219H232.879V92.8739H234.031ZM229.423 92.8739V91.7219H228.271V92.8739H229.423ZM237.423 87.523V86.371H235.119V84.067H233.967V85.219H232.815V86.371H233.967V87.523H232.815V88.675H233.967V89.827H235.119V87.523H237.423ZM232.815 89.827V88.675H231.663V89.827H232.815ZM232.815 85.219V84.067H231.663V85.219H232.815Z" fill="black"/>
<path d="M127.326 111.315H133.553V112.147H128.223V116.359H127.326V111.315ZM128.223 116.359H133.553V117.204H128.223V116.359ZM135.256 111.315H136.153V113.837H137.05V114.682H136.153V117.204H135.256V111.315ZM129.042 118.049H135.256V118.894H129.042V118.049ZM128.145 118.894H129.042V121.416H128.145V118.894ZM135.256 118.894H136.153V121.416H135.256V118.894ZM129.042 121.416H135.256V122.261H129.042V121.416ZM141.238 111.315H142.122V114.682H141.238V111.315ZM140.341 114.682H141.238V115.527H140.341V114.682ZM142.122 114.682H143.019V115.527H142.122V114.682ZM139.457 115.527H140.341V116.372H139.457V115.527ZM143.019 115.527H143.903V116.372H143.019V115.527ZM138.573 116.372H139.457V117.204H138.573V116.372ZM143.903 116.372H144.787V117.204H143.903V116.372ZM146.698 111.315H147.582V117.204H146.698V111.315ZM139.392 118.049H140.289V121.416H147.4V122.261H139.392V118.049ZM150.008 111.315H153.557V112.147H150.008V111.315ZM149.111 112.147H150.008V119.739H149.111V112.147ZM153.557 112.147H154.454V119.739H153.557V112.147ZM150.008 119.739H153.557V120.571H150.008V119.739ZM157.236 111.328H158.12V122.274H157.236V111.328ZM163.025 111.315H163.909V112.992H168.368V111.315H169.252V117.204H163.025V111.315ZM163.909 113.837V116.359H168.368V113.837H163.909ZM170.955 111.315H171.852V113.837H172.749V114.682H171.852V117.204H170.955V111.315ZM163.844 118.049H171.852V118.894H164.741V121.416H171.852V122.261H163.844V118.049ZM176.002 111.315H182.216V112.147H176.002V111.315ZM175.105 112.147H176.002V114.682H175.105V112.147ZM182.216 112.147H183.113V114.682H182.216V112.147ZM176.002 114.682H182.216V115.527H176.002V114.682ZM174.286 116.372H184.01V117.217H174.286V116.372ZM175.105 118.049H176.002V121.416H183.113V122.261H175.105V118.049ZM189.742 111.315H197.75V117.204H189.742V111.315ZM190.639 112.147V116.359H196.853V112.147H190.639ZM188.923 118.049H198.647V118.894H194.188V122.261H193.304V118.894H188.923V118.049ZM201.003 111.315H209.011V112.147H205.449V115.527H204.565V112.147H201.003V111.315ZM203.668 115.527H204.565V116.359H203.668V115.527ZM205.449 115.527H206.346V116.359H205.449V115.527ZM202.784 116.359H203.668V117.204H202.784V116.359ZM206.346 116.359H207.23V117.204H206.346V116.359ZM201.003 117.204H202.784V118.049H201.003V117.204ZM207.23 117.204H209.011V118.049H207.23V117.204ZM204.565 118.049H205.449V120.571H209.908V121.403H200.184V120.571H204.565V118.049ZM125.028 126.315H131.255V130.514H130.371V127.147H125.028V126.315ZM129.474 130.514H130.371V131.359H129.474V130.514ZM128.59 131.359H129.474V132.204H128.59V131.359ZM132.958 126.315H133.855V132.204H132.958V129.682H131.255V128.837H132.958V126.315ZM125.847 133.049H126.744V136.416H133.855V137.261H125.847V133.049ZM138.065 126.315H138.949V132.204H138.065V126.315ZM137.168 132.204H138.065V133.894H137.168V132.204ZM138.949 132.204H139.833V133.894H138.949V132.204ZM136.284 133.894H137.168V134.739H136.284V133.894ZM139.833 133.894H140.73V134.739H139.833V133.894ZM135.387 134.739H136.284V135.571H135.387V134.739ZM140.73 134.739H141.614V135.571H140.73V134.739ZM142.784 126.315H143.681V131.372H145.254V132.217H143.681V137.261H142.784V126.315ZM146.787 126.315H153.014V129.682H147.671V131.359H153.014V132.204H146.787V128.837H152.117V127.147H146.787V126.315ZM154.717 126.315H155.614V128.837H156.511V129.682H155.614V132.204H154.717V126.315ZM148.503 133.049H154.717V133.894H148.503V133.049ZM147.606 133.894H148.503V136.416H147.606V133.894ZM154.717 133.894H155.614V136.416H154.717V133.894ZM148.503 136.416H154.717V137.261H148.503V136.416ZM160.726 126.315H161.61V127.147H164.275V127.992H158.048V127.147H160.726V126.315ZM159.829 128.837H162.494V129.682H159.829V128.837ZM158.945 129.682H159.829V134.739H158.945V129.682ZM162.494 129.682H163.391V134.739H162.494V129.682ZM159.829 134.739H162.494V135.571H159.829V134.739ZM165.445 126.315H166.342V131.372H167.915V132.217H166.342V137.261H165.445V126.315ZM170.268 126.315H171.165V129.682H178.276V130.527H170.268V126.315ZM169.449 131.372H179.173V132.217H169.449V131.372ZM170.268 133.049H171.165V136.416H178.276V137.261H170.268V133.049ZM183.387 126.315H184.271V132.204H183.387V126.315ZM182.49 132.204H183.387V133.894H182.49V132.204ZM184.271 132.204H185.155V133.894H184.271V132.204ZM181.606 133.894H182.49V134.739H181.606V133.894ZM185.155 133.894H186.052V134.739H185.155V133.894ZM180.709 134.739H181.606V135.571H180.709V134.739ZM186.052 134.739H186.936V135.571H186.052V134.739ZM188.106 126.315H189.003V131.372H190.576V132.217H189.003V137.261H188.106V126.315ZM192.11 126.315H198.337V129.682H192.994V131.359H198.337V132.204H192.11V128.837H197.44V127.147H192.11V126.315ZM200.04 126.315H200.937V128.837H201.834V129.682H200.937V132.204H200.04V126.315ZM193.826 133.049H200.04V133.894H193.826V133.049ZM192.929 133.894H193.826V136.416H192.929V133.894ZM200.04 133.894H200.937V136.416H200.04V133.894ZM193.826 136.416H200.04V137.261H193.826V136.416ZM204.254 126.315H208.7V127.16H204.254V126.315ZM203.37 127.16H204.254V131.372H203.37V127.16ZM208.7 127.16H209.597V131.372H208.7V127.16ZM204.254 131.372H208.7V132.217H204.254V131.372ZM211.313 126.315H212.21V137.261H211.313V126.315ZM203.383 133.894H209.597V134.739H203.383V133.894ZM158.163 141.315H159.06V142.992H165.274V141.315H166.171V147.204H158.163V141.315ZM159.06 143.837V146.359H165.274V143.837H159.06ZM157.344 148.049H167.068V148.894H162.609V152.261H161.725V148.894H157.344V148.049ZM168.591 141.315H174.805V142.147H172.14V144.682H171.256V142.147H168.591V141.315ZM170.359 144.682H171.256V145.527H170.359V144.682ZM172.14 144.682H173.037V145.527H172.14V144.682ZM169.475 145.527H170.359V146.359H169.475V145.527ZM173.037 145.527H173.921V146.359H173.037V145.527ZM168.591 146.359H169.475V147.204H168.591V146.359ZM173.921 146.359H174.805V147.204H173.921V146.359ZM176.521 141.315H177.418V147.204H176.521V144.682H174.818V143.837H176.521V141.315ZM169.41 148.049H177.418V152.261H176.521V148.894H169.41V148.049ZM178.951 141.315H179.887V149.739H178.951V141.315ZM178.951 150.675H179.887V151.611H178.951V150.675ZM129.016 156.315H132.565V157.147H129.016V156.315ZM128.119 157.147H129.016V164.739H128.119V157.147ZM132.565 157.147H133.462V164.739H132.565V157.147ZM129.016 164.739H132.565V165.571H129.016V164.739ZM136.244 156.328H137.128V167.274H136.244V156.328ZM142.852 156.315H143.749V157.992H149.963V156.315H150.86V162.204H142.852V156.315ZM143.749 158.837V161.359H149.963V158.837H143.749ZM142.033 163.049H151.757V163.894H147.298V167.261H146.414V163.894H142.033V163.049ZM153.281 156.315H159.495V157.147H156.83V159.682H155.946V157.147H153.281V156.315ZM155.049 159.682H155.946V160.527H155.049V159.682ZM156.83 159.682H157.727V160.527H156.83V159.682ZM154.165 160.527H155.049V161.359H154.165V160.527ZM157.727 160.527H158.611V161.359H157.727V160.527ZM153.281 161.359H154.165V162.204H153.281V161.359ZM158.611 161.359H159.495V162.204H158.611V161.359ZM161.211 156.315H162.108V162.204H161.211V159.682H159.508V158.837H161.211V156.315ZM154.1 163.049H162.108V167.261H161.211V163.894H154.1V163.049ZM165.356 156.315H171.57V157.147H165.356V156.315ZM164.459 157.147H165.356V159.682H164.459V157.147ZM171.57 157.147H172.467V159.682H171.57V157.147ZM165.356 159.682H171.57V160.527H165.356V159.682ZM163.64 161.372H173.364V162.217H163.64V161.372ZM164.459 163.049H172.467V165.571H165.356V166.416H172.467V167.261H164.459V164.739H171.57V163.894H164.459V163.049ZM178.278 156.315H184.505V157.147H181.84V162.204H180.956V157.147H178.278V156.315ZM180.059 162.204H180.956V163.894H180.059V162.204ZM181.84 162.204H182.724V163.894H181.84V162.204ZM179.175 163.894H180.059V164.739H179.175V163.894ZM182.724 163.894H183.621V164.739H182.724V163.894ZM178.278 164.739H179.175V165.571H178.278V164.739ZM183.621 164.739H184.505V165.571H183.621V164.739ZM186.429 156.328H187.313V167.274H186.429V156.328ZM188.853 156.315H189.75V164.739H188.853V156.315ZM189.75 164.739H194.196V165.571H189.75V164.739ZM196.978 156.328H197.862V167.274H196.978V156.328ZM200.209 156.315H208.217V162.217H207.32V157.16H200.209V156.315ZM206.436 162.217H207.32V163.062H206.436V162.217ZM203.771 163.049H204.655V165.571H209.114V166.403H199.39V165.571H203.771V163.049ZM124.308 171.315H126.973V172.16H124.308V171.315ZM123.424 172.16H124.308V172.992H123.424V172.16ZM126.973 172.16H127.87V172.992H126.973V172.16ZM122.527 172.992H123.424V175.527H122.527V172.992ZM127.87 172.992H128.754V175.527H127.87V172.992ZM123.424 175.527H124.308V176.372H123.424V175.527ZM126.973 175.527H127.87V176.372H126.973V175.527ZM124.308 176.372H126.973V177.204H124.308V176.372ZM130.652 171.315H131.536V177.204H130.652V171.315ZM125.127 178.049H126.011V180.571H125.127V178.049ZM128.689 178.049H129.573V180.571H128.689V178.049ZM124.243 180.571H125.127V181.416H124.243V180.571ZM126.011 180.571H126.908V181.416H126.011V180.571ZM127.792 180.571H128.689V181.416H127.792V180.571ZM129.573 180.571H130.457V181.416H129.573V180.571ZM123.346 181.416H124.243V182.261H123.346V181.416ZM126.908 181.416H127.792V182.261H126.908V181.416ZM130.457 181.416H131.354V182.261H130.457V181.416ZM135.664 171.315H140.11V172.147H135.664V171.315ZM134.78 172.147H135.664V172.992H134.78V172.147ZM140.11 172.147H140.994V172.992H140.11V172.147ZM133.883 172.992H134.78V176.359H133.883V172.992ZM140.994 172.992H141.891V176.359H140.994V172.992ZM134.78 176.359H135.664V177.204H134.78V176.359ZM140.11 176.359H140.994V177.204H140.11V176.359ZM135.664 177.204H140.11V178.049H135.664V177.204ZM133.064 180.558H142.788V181.403H133.064V180.558ZM144.325 171.315H150.552V177.204H144.325V171.315ZM145.209 172.147V176.359H149.668V172.147H145.209ZM152.398 171.315H153.282V177.204H152.398V175.527H150.617V174.682H152.398V173.837H150.617V172.992H152.398V171.315ZM145.144 178.049H146.041V181.416H153.152V182.261H145.144V178.049ZM158.188 171.315H164.415V172.147H159.085V176.359H158.188V171.315ZM159.085 176.359H164.415V177.204H159.085V176.359ZM166.118 171.315H167.015V173.837H167.912V174.682H167.015V177.204H166.118V171.315ZM159.904 178.049H166.118V178.894H159.904V178.049ZM159.007 178.894H159.904V181.416H159.007V178.894ZM166.118 178.894H167.015V181.416H166.118V178.894ZM159.904 181.416H166.118V182.261H159.904V181.416ZM172.101 171.315H172.985V174.682H172.101V171.315ZM171.204 174.682H172.101V175.527H171.204V174.682ZM172.985 174.682H173.882V175.527H172.985V174.682ZM170.32 175.527H171.204V176.372H170.32V175.527ZM173.882 175.527H174.766V176.372H173.882V175.527ZM169.436 176.372H170.32V177.204H169.436V176.372ZM174.766 176.372H175.65V177.204H174.766V176.372ZM177.561 171.315H178.445V177.204H177.561V171.315ZM170.255 178.049H171.152V181.416H178.263V182.261H170.255V178.049ZM180.857 171.315H185.303V172.16H180.857V171.315ZM179.973 172.16H180.857V176.372H179.973V172.16ZM185.303 172.16H186.2V176.372H185.303V172.16ZM180.857 176.372H185.303V177.217H180.857V176.372ZM187.916 171.315H188.813V182.261H187.916V171.315ZM179.986 178.894H186.2V179.739H179.986V178.894ZM198.103 171.315H198.987V175.527H198.103V171.315ZM197.206 175.527H198.103V176.372H197.206V175.527ZM198.987 175.527H199.884V176.372H198.987V175.527ZM196.322 176.372H197.206V177.217H196.322V176.372ZM199.884 176.372H200.768V177.217H199.884V176.372ZM194.541 177.217H196.322V178.062H194.541V177.217ZM200.768 177.217H202.549V178.062H200.768V177.217ZM198.103 178.049H198.987V180.571H203.446V181.403H193.722V180.571H198.103V178.049ZM204.983 171.315H211.21V177.204H204.983V171.315ZM205.867 172.147V176.359H210.326V172.147H205.867ZM212.913 171.315H213.81V173.837H214.707V174.682H213.81V177.204H212.913V171.315ZM206.699 178.049H212.913V178.894H206.699V178.049ZM205.802 178.894H206.699V181.416H205.802V178.894ZM212.913 178.894H213.81V181.416H212.913V178.894ZM206.699 181.416H212.913V182.261H206.699V181.416ZM128.483 186.315H132.032V187.147H128.483V186.315ZM127.586 187.147H128.483V194.739H127.586V187.147ZM132.032 187.147H132.929V194.739H132.032V187.147ZM128.483 194.739H132.032V195.571H128.483V194.739ZM135.711 186.328H136.595V197.274H135.711V186.328ZM144.165 186.315H145.062V187.16H147.727V188.005H145.946V188.837H143.281V188.005H141.5V187.16H144.165V186.315ZM142.384 188.837H143.281V191.372H142.384V188.837ZM145.946 188.837H146.83V191.372H145.946V188.837ZM143.281 191.372H145.946V192.217H143.281V191.372ZM149.573 186.315H150.457V192.204H149.573V190.527H147.792V189.682H149.573V188.837H147.792V187.992H149.573V186.315ZM142.319 193.049H143.216V196.416H150.327V197.261H142.319V193.049ZM154.638 186.315H155.522V189.682H154.638V186.315ZM153.741 189.682H154.638V190.527H153.741V189.682ZM155.522 189.682H156.419V190.527H155.522V189.682ZM152.857 190.527H153.741V191.372H152.857V190.527ZM156.419 190.527H157.303V191.372H156.419V190.527ZM151.973 191.372H152.857V192.204H151.973V191.372ZM157.303 191.372H158.187V192.204H157.303V191.372ZM160.098 186.315H160.982V192.204H160.098V186.315ZM152.792 193.049H160.8V195.571H153.689V196.416H160.8V197.261H152.792V194.739H159.903V193.894H152.792V193.049ZM163.408 186.315H166.957V187.147H163.408V186.315ZM162.511 187.147H163.408V194.739H162.511V187.147ZM166.957 187.147H167.854V194.739H166.957V187.147ZM163.408 194.739H166.957V195.571H163.408V194.739ZM170.636 186.328H171.52V197.274H170.636V186.328ZM176.425 186.315H182.652V187.16H177.322V189.682H176.425V186.315ZM177.322 189.682H182.652V190.527H177.322V189.682ZM184.368 186.315H185.265V192.217H184.368V186.315ZM179.103 189.682H179.987V191.372H182.652V192.217H176.438V191.372H179.103V189.682ZM177.257 193.049H178.154V194.739H184.368V193.049H185.265V197.261H177.257V193.049ZM178.154 195.571V196.416H184.368V195.571H178.154ZM186.797 186.315H187.694V194.739H186.797V186.315ZM187.694 194.739H192.14V195.571H187.694V194.739ZM194.922 186.328H195.806V197.274H194.922V186.328ZM197.334 186.315H202.677V187.147H198.231V194.739H197.334V186.315ZM201.78 193.894H202.677V194.739H201.78V193.894ZM198.231 194.739H201.78V195.571H198.231V194.739ZM204.705 186.315H205.602V191.372H207.175V192.217H205.602V197.261H204.705V186.315ZM208.709 195.064H209.645V196H208.709V195.064Z" fill="black"/>
<path d="M3.96516 49.3477L36.0482 6.04673C37.9343 3.50122 40.915 2 44.0831 2H125.691C128.837 2 131.8 3.48051 133.688 5.99652L166.22 49.3323C167.519 51.0639 168.222 53.1706 168.222 55.3358V232C168.222 237.523 163.745 242 158.222 242H12C6.47715 242 2 237.523 2 232V55.301C2 53.1572 2.68892 51.0702 3.96516 49.3477Z" fill="white"/>
<path d="M3.96516 49.3477L36.0482 6.04673C37.9343 3.50122 40.915 2 44.0831 2H125.691C128.837 2 131.8 3.48051 133.688 5.99652L166.22 49.3323C167.519 51.0639 168.222 53.1706 168.222 55.3358V232C168.222 237.523 163.745 242 158.222 242H12C6.47715 242 2 237.523 2 232V55.301C2 53.1572 2.68892 51.0702 3.96516 49.3477Z" fill="url(#paint2_linear_1184_1829)"/>
<path d="M3.96516 49.3477L36.0482 6.04673C37.9343 3.50122 40.915 2 44.0831 2H125.691C128.837 2 131.8 3.48051 133.688 5.99652L166.22 49.3323C167.519 51.0639 168.222 53.1706 168.222 55.3358V232C168.222 237.523 163.745 242 158.222 242H12C6.47715 242 2 237.523 2 232V55.301C2 53.1572 2.68892 51.0702 3.96516 49.3477Z" stroke="#E6CE92" stroke-width="3"/>
<path d="M9.25021 53.1829L39.0068 12.3342C40.889 9.75041 43.893 8.22217 47.0897 8.22217H122.715C125.89 8.22217 128.876 9.72959 130.761 12.2839L160.934 53.1671C162.204 54.8869 162.889 56.968 162.889 59.1054V226.667C162.889 232.189 158.411 236.667 152.889 236.667H17.333C11.8102 236.667 7.33301 232.189 7.33301 226.667V59.0709C7.33301 56.9548 8.00427 54.8933 9.25021 53.1829Z" fill="url(#paint3_linear_1184_1829)" stroke="#E6CE92" stroke-width="3"/>
<path d="M15.1453 214.491C14.4893 214.491 13.9453 214.123 13.9453 213.611C13.9453 213.131 14.4893 212.731 15.1453 212.731C15.8013 212.731 16.3453 213.131 16.3453 213.611C16.3453 214.123 15.8013 214.491 15.1453 214.491ZM15.1453 215.147C16.2333 215.147 17.1133 214.475 17.1133 213.611C17.1133 212.763 16.2333 212.091 15.1453 212.091C14.0573 212.091 13.1773 212.763 13.1773 213.611C13.1773 214.475 14.0573 215.147 15.1453 215.147ZM18.6173 199.551V198.399H20.9213V197.247H22.0733V198.399H24.3773V199.551H22.0733V200.703H20.9213V199.551H18.6173ZM19.7693 201.855V200.703H20.9213V201.855H19.7693ZM19.7693 197.247V196.095H20.9213V197.247H19.7693ZM22.0733 201.855V200.703H23.2253V201.855H22.0733ZM22.0733 197.247V196.095H23.2253V197.247H22.0733ZM25.6253 194.214V193.062H26.7773V194.214H25.6253ZM22.8893 189.759C22.8893 191.087 23.9773 192.191 25.3213 192.191C26.6653 192.191 27.7533 191.087 27.7533 189.759C27.7533 188.399 26.6653 187.311 25.3213 187.311C23.9773 187.311 22.8893 188.399 22.8893 189.759ZM26.9373 189.759C26.9373 190.639 26.2173 191.375 25.3213 191.375C24.4253 191.375 23.7053 190.639 23.7053 189.759C23.7053 188.847 24.4253 188.127 25.3213 188.127C26.2173 188.127 26.9373 188.847 26.9373 189.759ZM25.6253 183.167V182.015H26.7773V183.167H25.6253ZM20.9693 180.12V178.968H22.1213V180.12H20.9693ZM25.5773 180.12V178.968H26.7293V180.12H25.5773ZM17.5773 174.769V173.617H19.8813V171.313H21.0333V172.465H22.1853V173.617H21.0333V174.769H22.1853V175.921H21.0333V177.073H19.8813V174.769H17.5773ZM22.1853 177.073V175.921H23.3373V177.073H22.1853ZM22.1853 172.465V171.313H23.3373V172.465H22.1853ZM19.7693 169.433V168.169H21.0173V169.433H19.7693ZM15.1453 166.757C14.4893 166.757 13.9453 166.389 13.9453 165.877C13.9453 165.397 14.4893 164.997 15.1453 164.997C15.8013 164.997 16.3453 165.397 16.3453 165.877C16.3453 166.389 15.8013 166.757 15.1453 166.757ZM15.1453 167.413C16.2333 167.413 17.1133 166.741 17.1133 165.877C17.1133 165.029 16.2333 164.357 15.1453 164.357C14.0573 164.357 13.1773 165.029 13.1773 165.877C13.1773 166.741 14.0573 167.413 15.1453 167.413ZM18.6173 151.816V150.664H20.9213L20.9213 149.512H22.0733L22.0733 150.664H24.3773V151.816H22.0733V152.968H20.9213V151.816H18.6173ZM19.7693 154.12V152.968H20.9213V154.12H19.7693ZM19.7693 149.512V148.36H20.9213V149.512H19.7693ZM22.0733 154.12V152.968H23.2253V154.12H22.0733ZM22.0733 149.512V148.36H23.2253V149.512H22.0733ZM25.6253 146.48V145.328H26.7773V146.48H25.6253ZM22.8893 142.025C22.8893 143.353 23.9773 144.457 25.3213 144.457C26.6653 144.457 27.7533 143.353 27.7533 142.025C27.7533 140.665 26.6653 139.577 25.3213 139.577C23.9773 139.577 22.8893 140.665 22.8893 142.025ZM26.9373 142.025C26.9373 142.905 26.2173 143.641 25.3213 143.641C24.4253 143.641 23.7053 142.905 23.7053 142.025C23.7053 141.113 24.4253 140.393 25.3213 140.393C26.2173 140.393 26.9373 141.113 26.9373 142.025ZM25.6253 135.433V134.281H26.7773V135.433H25.6253ZM20.9693 132.386V131.234H22.1213V132.386H20.9693ZM25.5773 132.386V131.234H26.7293V132.386H25.5773ZM17.5773 127.035V125.883H19.8813V123.579H21.0333V124.731H22.1853V125.883H21.0333V127.035H22.1853V128.187H21.0333V129.339H19.8813V127.035H17.5773ZM22.1853 129.339V128.187H23.3373V129.339H22.1853ZM22.1853 124.731V123.579H23.3373V124.731H22.1853ZM19.7693 121.698V120.434H21.0173V121.698H19.7693ZM15.1453 119.022C14.4893 119.022 13.9453 118.654 13.9453 118.142C13.9453 117.662 14.4893 117.262 15.1453 117.262C15.8013 117.262 16.3453 117.662 16.3453 118.142C16.3453 118.654 15.8013 119.022 15.1453 119.022ZM15.1453 119.678C16.2333 119.678 17.1133 119.006 17.1133 118.142C17.1133 117.294 16.2333 116.622 15.1453 116.622C14.0573 116.622 13.1773 117.294 13.1773 118.142C13.1773 119.006 14.0573 119.678 15.1453 119.678ZM18.6173 104.082V102.93H20.9213V101.778H22.0733V102.93H24.3773V104.082H22.0733V105.234H20.9213V104.082H18.6173ZM19.7693 106.386V105.234H20.9213V106.386H19.7693ZM19.7693 101.778V100.626H20.9213V101.778H19.7693ZM22.0733 106.386V105.234H23.2253V106.386H22.0733ZM22.0733 101.778V100.626H23.2253V101.778H22.0733ZM25.6253 98.7453V97.5933H26.7773V98.7453H25.6253ZM22.8893 94.2904C22.8893 95.6184 23.9773 96.7224 25.3213 96.7224C26.6653 96.7224 27.7533 95.6184 27.7533 94.2904C27.7533 92.9304 26.6653 91.8424 25.3213 91.8424C23.9773 91.8424 22.8893 92.9304 22.8893 94.2904ZM26.9373 94.2904C26.9373 95.1704 26.2173 95.9064 25.3213 95.9064C24.4253 95.9064 23.7053 95.1704 23.7053 94.2904C23.7053 93.3784 24.4253 92.6584 25.3213 92.6584C26.2173 92.6584 26.9373 93.3784 26.9373 94.2904ZM25.6253 87.6984V86.5464H26.7773V87.6984H25.6253ZM20.9693 84.6515V83.4995H22.1213V84.6515H20.9693ZM25.5773 84.6515V83.4995H26.7293V84.6515H25.5773ZM17.5773 79.3006V78.1486H19.8813V75.8446H21.0333V76.9966H22.1853V78.1486H21.0333V79.3006H22.1853V80.4526H21.0333V81.6046H19.8813V79.3006H17.5773ZM22.1853 81.6046V80.4526H23.3373V81.6046H22.1853ZM22.1853 76.9966V75.8446H23.3373V76.9966H22.1853Z" fill="black"/>
<path d="M156.855 212.713C157.511 212.713 158.055 212.345 158.055 211.833C158.055 211.353 157.511 210.953 156.855 210.953C156.199 210.953 155.655 211.353 155.655 211.833C155.655 212.345 156.199 212.713 156.855 212.713ZM156.855 213.369C155.767 213.369 154.887 212.697 154.887 211.833C154.887 210.985 155.767 210.313 156.855 210.313C157.943 210.313 158.823 210.985 158.823 211.833C158.823 212.697 157.943 213.369 156.855 213.369ZM153.383 197.773V196.621H151.079V195.469H149.927V196.621H147.623V197.773H149.927V198.925H151.079V197.773H153.383ZM152.231 200.077V198.925H151.079V200.077H152.231ZM152.231 195.469V194.317H151.079V195.469H152.231ZM149.927 200.077V198.925H148.775V200.077H149.927ZM149.927 195.469V194.317H148.775V195.469H149.927ZM146.375 192.436V191.284H145.223V192.436H146.375ZM149.111 187.981C149.111 189.309 148.023 190.413 146.679 190.413C145.335 190.413 144.247 189.309 144.247 187.981C144.247 186.621 145.335 185.533 146.679 185.533C148.023 185.533 149.111 186.621 149.111 187.981ZM145.063 187.981C145.063 188.861 145.783 189.597 146.679 189.597C147.575 189.597 148.295 188.861 148.295 187.981C148.295 187.069 147.575 186.349 146.679 186.349C145.783 186.349 145.063 187.069 145.063 187.981ZM146.375 181.389V180.237H145.223V181.389H146.375ZM151.031 178.343V177.191H149.879V178.343H151.031ZM146.423 178.343V177.191H145.271V178.343H146.423ZM154.423 172.992V171.84H152.119V169.536H150.967V170.688H149.815V171.84H150.967V172.992H149.815V174.144H150.967V175.296H152.119V172.992H154.423ZM149.815 175.296V174.144H148.663V175.296H149.815ZM149.815 170.688V169.536H148.663V170.688H149.815ZM152.231 167.655V166.391H150.983V167.655H152.231ZM156.855 164.979C157.511 164.979 158.055 164.611 158.055 164.099C158.055 163.619 157.511 163.219 156.855 163.219C156.199 163.219 155.655 163.619 155.655 164.099C155.655 164.611 156.199 164.979 156.855 164.979ZM156.855 165.635C155.767 165.635 154.887 164.963 154.887 164.099C154.887 163.251 155.767 162.579 156.855 162.579C157.943 162.579 158.823 163.251 158.823 164.099C158.823 164.963 157.943 165.635 156.855 165.635ZM153.383 150.039V148.887H151.079V147.735H149.927V148.887H147.623V150.039H149.927V151.191H151.079V150.039H153.383ZM152.231 152.343V151.191H151.079V152.343H152.231ZM152.231 147.735V146.583H151.079V147.735H152.231ZM149.927 152.343V151.191H148.775V152.343H149.927ZM149.927 147.735V146.583H148.775V147.735H149.927ZM146.375 144.702V143.55H145.223V144.702H146.375ZM149.111 140.247C149.111 141.575 148.023 142.679 146.679 142.679C145.335 142.679 144.247 141.575 144.247 140.247C144.247 138.887 145.335 137.799 146.679 137.799C148.023 137.799 149.111 138.887 149.111 140.247ZM145.063 140.247C145.063 141.127 145.783 141.863 146.679 141.863C147.575 141.863 148.295 141.127 148.295 140.247C148.295 139.335 147.575 138.615 146.679 138.615C145.783 138.615 145.063 139.335 145.063 140.247ZM146.375 133.655V132.503H145.223V133.655H146.375ZM151.031 130.608V129.456H149.879V130.608H151.031ZM146.423 130.608V129.456H145.271V130.608H146.423ZM154.423 125.257V124.105H152.119V121.801H150.967V122.953H149.815V124.105H150.967V125.257H149.815V126.409H150.967V127.561H152.119V125.257H154.423ZM149.815 127.561V126.409H148.663V127.561H149.815ZM149.815 122.953V121.801H148.663V122.953H149.815ZM152.231 119.921V118.657H150.983V119.921H152.231ZM156.855 117.244C157.511 117.244 158.055 116.876 158.055 116.364C158.055 115.884 157.511 115.484 156.855 115.484C156.199 115.484 155.655 115.884 155.655 116.364C155.655 116.876 156.199 117.244 156.855 117.244ZM156.855 117.9C155.767 117.9 154.887 117.228 154.887 116.364C154.887 115.516 155.767 114.844 156.855 114.844C157.943 114.844 158.823 115.516 158.823 116.364C158.823 117.228 157.943 117.9 156.855 117.9ZM153.383 102.304V101.152H151.079V100H149.927V101.152H147.623V102.304H149.927V103.456H151.079V102.304H153.383ZM152.231 104.608V103.456H151.079V104.608H152.231ZM152.231 100V98.8482H151.079V100H152.231ZM149.927 104.608V103.456H148.775V104.608H149.927ZM149.927 100V98.8482H148.775V100H149.927ZM146.375 96.9676V95.8156H145.223V96.9676H146.375ZM149.111 92.5127C149.111 93.8407 148.023 94.9447 146.679 94.9447C145.335 94.9447 144.247 93.8407 144.247 92.5127C144.247 91.1527 145.335 90.0647 146.679 90.0647C148.023 90.0647 149.111 91.1527 149.111 92.5127ZM145.063 92.5127C145.063 93.3927 145.783 94.1287 146.679 94.1287C147.575 94.1287 148.295 93.3927 148.295 92.5127C148.295 91.6007 147.575 90.8807 146.679 90.8807C145.783 90.8807 145.063 91.6007 145.063 92.5127ZM146.375 85.9207V84.7687H145.223V85.9207H146.375ZM151.031 82.8739V81.7219H149.879V82.8739H151.031ZM146.423 82.8739V81.7219H145.271V82.8739H146.423ZM154.423 77.523V76.371H152.119V74.067H150.967V75.219H149.815V76.371H150.967V77.523H149.815V78.675H150.967V79.827H152.119V77.523H154.423ZM149.815 79.827V78.675H148.663V79.827H149.815ZM149.815 75.219V74.067H148.663V75.219H149.815Z" fill="black"/>
<rect x="31" y="75" width="107.556" height="144" rx="10" fill="#FEFFF5" stroke="#E6CE92" stroke-width="3"/>
<path d="M58.0124 94.12H72.7964V104.992H58.0124V94.12ZM59.6684 95.656V103.432H71.1404V95.656H59.6684ZM56.5004 106.552H74.4524V108.112H66.2204V114.328H64.5884V108.112H56.5004V106.552ZM78.8015 94.12H93.5855V95.656H87.0095V101.896H85.3775V95.656H78.8015V94.12ZM83.7215 101.896H85.3775V103.432H83.7215V101.896ZM87.0095 101.896H88.6655V103.432H87.0095V101.896ZM82.0895 103.432H83.7215V104.992H82.0895V103.432ZM88.6655 103.432H90.2975V104.992H88.6655V103.432ZM78.8015 104.992H82.0895V106.552H78.8015V104.992ZM90.2975 104.992H93.5855V106.552H90.2975V104.992ZM85.3775 106.552H87.0095V111.208H95.2415V112.744H77.2895V111.208H85.3775V106.552ZM98.0786 94.12H109.575V101.872H107.943V95.656H98.0786V94.12ZM106.287 101.872H107.943V103.432H106.287V101.872ZM104.655 103.432H106.287V104.992H104.655V103.432ZM112.719 94.12H114.375V104.992H112.719V100.336H109.575V98.776H112.719V94.12ZM99.5906 106.552H101.247V112.768H114.375V114.328H99.5906V106.552ZM60.3546 122.12H61.9866V132.992H60.3546V122.12ZM58.6986 132.992H60.3546V136.112H58.6986V132.992ZM61.9866 132.992H63.6186V136.112H61.9866V132.992ZM57.0666 136.112H58.6986V137.672H57.0666V136.112ZM63.6186 136.112H65.2746V137.672H63.6186V136.112ZM55.4106 137.672H57.0666V139.208H55.4106V137.672ZM65.2746 137.672H66.9066V139.208H65.2746V137.672ZM69.0666 122.12H70.7226V131.456H73.6266V133.016H70.7226V142.328H69.0666V122.12ZM76.4575 122.12H87.9535V128.336H78.0895V131.432H87.9535V132.992H76.4575V126.776H86.2975V123.656H76.4575V122.12ZM91.0975 122.12H92.7535V126.776H94.4095V128.336H92.7535V132.992H91.0975V122.12ZM79.6255 134.552H91.0975V136.112H79.6255V134.552ZM77.9695 136.112H79.6255V140.768H77.9695V136.112ZM91.0975 136.112H92.7535V140.768H91.0975V136.112ZM79.6255 140.768H91.0975V142.328H79.6255V140.768ZM102.191 122.12H103.823V123.656H108.743V125.216H97.2465V123.656H102.191V122.12ZM100.535 126.776H105.455V128.336H100.535V126.776ZM98.9025 128.336H100.535V137.672H98.9025V128.336ZM105.455 128.336H107.111V137.672H105.455V128.336ZM100.535 137.672H105.455V139.208H100.535V137.672ZM110.903 122.12H112.559V131.456H115.463V133.016H112.559V142.328H110.903V122.12ZM57.0515 150.12H58.7075V156.336H71.8355V157.896H57.0515V150.12ZM55.5395 159.456H73.4915V161.016H55.5395V159.456ZM57.0515 162.552H58.7075V168.768H71.8355V170.328H57.0515V162.552ZM81.2726 150.12H82.9046V160.992H81.2726V150.12ZM79.6166 160.992H81.2726V164.112H79.6166V160.992ZM82.9046 160.992H84.5366V164.112H82.9046V160.992ZM77.9846 164.112H79.6166V165.672H77.9846V164.112ZM84.5366 164.112H86.1926V165.672H84.5366V164.112ZM76.3286 165.672H77.9846V167.208H76.3286V165.672ZM86.1926 165.672H87.8246V167.208H86.1926V165.672ZM89.9846 150.12H91.6406V159.456H94.5446V161.016H91.6406V170.328H89.9846V150.12ZM97.3754 150.12H108.871V156.336H99.0074V159.432H108.871V160.992H97.3754V154.776H107.215V151.656H97.3754V150.12ZM112.015 150.12H113.671V154.776H115.327V156.336H113.671V160.992H112.015V150.12ZM100.543 162.552H112.015V164.112H100.543V162.552ZM98.8874 164.112H100.543V168.768H98.8874V164.112ZM112.015 164.112H113.671V168.768H112.015V164.112ZM100.543 168.768H112.015V170.328H100.543V168.768ZM58.9645 178.12H67.1725V179.68H58.9645V178.12ZM57.3325 179.68H58.9645V187.456H57.3325V179.68ZM67.1725 179.68H68.8285V187.456H67.1725V179.68ZM58.9645 187.456H67.1725V189.016H58.9645V187.456ZM71.9965 178.12H73.6525V198.328H71.9965V178.12ZM57.3565 192.112H68.8285V193.672H57.3565V192.112ZM77.9929 178.12H79.6489V181.216H91.1209V178.12H92.7769V188.992H77.9929V178.12ZM79.6489 182.776V187.432H91.1209V182.776H79.6489ZM76.4809 190.552H94.4329V192.112H86.2009V198.328H84.5689V192.112H76.4809V190.552ZM97.246 178.12H108.718V179.656H103.798V184.336H102.166V179.656H97.246V178.12ZM100.51 184.336H102.166V185.896H100.51V184.336ZM103.798 184.336H105.454V185.896H103.798V184.336ZM98.878 185.896H100.51V187.432H98.878V185.896ZM105.454 185.896H107.086V187.432H105.454V185.896ZM97.246 187.432H98.878V188.992H97.246V187.432ZM107.086 187.432H108.718V188.992H107.086V187.432ZM111.886 178.12H113.542V188.992H111.886V184.336H108.742V182.776H111.886V178.12ZM98.758 190.552H113.542V198.328H111.886V192.112H98.758V190.552Z" fill="black"/>
<path d="M60.63 18.825H61.71V19.905H60.63V18.825ZM59.55 19.905H60.63V20.985H59.55V19.905ZM58.47 20.985H59.55V28.545H58.47V20.985ZM59.55 28.545H60.63V29.625H59.55V28.545ZM60.63 29.625H61.71V30.705H60.63V29.625ZM63.4798 18.825H64.5598V19.905H63.4798V18.825ZM64.5598 19.905H65.6398V20.985H64.5598V19.905ZM65.6398 20.985H66.7198V22.065H65.6398V20.985ZM66.7198 22.065H67.7998V23.145H66.7198V22.065ZM67.7998 23.145H68.8798V24.225H67.7998V23.145ZM68.8798 24.225H69.9598V25.305H68.8798V24.225ZM67.7998 25.305H68.8798V26.385H67.7998V25.305ZM66.7198 26.385H67.7998V27.465H66.7198V26.385ZM65.6398 27.465H66.7198V28.545H65.6398V27.465ZM64.5598 28.545H65.6398V29.625H64.5598V28.545ZM63.4798 29.625H64.5598V30.705H63.4798V29.625ZM75.6233 18.165H77.7833V21.405H76.7033V20.325H75.6233V18.165ZM78.8633 18.165H81.0233V21.405H79.9433V20.325H78.8633V18.165ZM75.6233 21.405H76.7033V22.485H75.6233V21.405ZM78.8633 21.405H79.9433V22.485H78.8633V21.405ZM86.6829 18.165H88.8429V21.405H87.7629V20.325H86.6829V18.165ZM89.9229 18.165H92.0829V21.405H91.0029V20.325H89.9229V18.165ZM86.6829 21.405H87.7629V22.485H86.6829V21.405ZM89.9229 21.405H91.0029V22.485H89.9229V21.405ZM103.142 18.825H104.222V19.905H103.142V18.825ZM102.062 19.905H103.142V20.985H102.062V19.905ZM100.982 20.985H102.062V22.065H100.982V20.985ZM99.9025 22.065H100.982V23.145H99.9025V22.065ZM98.8225 23.145H99.9025V24.225H98.8225V23.145ZM97.7425 24.225H98.8225V25.305H97.7425V24.225ZM98.8225 25.305H99.9025V26.385H98.8225V25.305ZM99.9025 26.385H100.982V27.465H99.9025V26.385ZM100.982 27.465H102.062V28.545H100.982V27.465ZM102.062 28.545H103.142V29.625H102.062V28.545ZM103.142 29.625H104.222V30.705H103.142V29.625ZM105.99 18.825H107.07V19.905H105.99V18.825ZM107.07 19.905H108.15V20.985H107.07V19.905ZM108.15 20.985H109.23V28.545H108.15V20.985ZM107.07 28.545H108.15V29.625H107.07V28.545ZM105.99 29.625H107.07V30.705H105.99V29.625ZM60.63 35.825H61.71V36.905H60.63V35.825ZM59.55 36.905H60.63V37.985H59.55V36.905ZM58.47 37.985H59.55V45.545H58.47V37.985ZM59.55 45.545H60.63V46.625H59.55V45.545ZM60.63 46.625H61.71V47.705H60.63V46.625ZM67.3763 40.58H74.9363V41.66H67.3763V40.58ZM67.3763 42.74H74.9363V43.82H67.3763V42.74ZM76.7073 35.165H78.8673V38.405H77.7873V37.325H76.7073V35.165ZM76.7073 38.405H77.7873V39.485H76.7073V38.405ZM81.7131 40.52H87.1131V41.6H81.7131V40.52ZM80.6331 41.6H81.7131V45.92H80.6331V41.6ZM87.1131 41.6H88.1931V45.92H87.1131V41.6ZM81.7131 45.92H87.1131V47H81.7131V45.92ZM89.9641 35.81H91.0441V37.97H89.9641V35.81ZM92.8206 40.58H100.381V41.66H92.8206V40.58ZM92.8206 42.74H100.381V43.82H92.8206V42.74ZM106.048 35.825H107.128V36.905H106.048V35.825ZM107.128 36.905H108.208V37.985H107.128V36.905ZM108.208 37.985H109.288V45.545H108.208V37.985ZM107.128 45.545H108.208V46.625H107.128V45.545ZM106.048 46.625H107.128V47.705H106.048V46.625ZM58.47 57.52H63.87V58.6H58.47V57.52ZM67.7931 52.825H68.8731V53.905H67.7931V52.825ZM66.7131 53.905H67.7931V54.985H66.7131V53.905ZM65.6331 54.985H66.7131V62.545H65.6331V54.985ZM66.7131 62.545H67.7931V63.625H66.7131V62.545ZM67.7931 63.625H68.8731V64.705H67.7931V63.625ZM71.5429 62.755H72.4429V64.555H71.5429V62.755ZM70.6429 64.555H71.5429V65.455H70.6429V64.555ZM75.1171 62.755H76.0171V64.555H75.1171V62.755ZM74.2171 64.555H75.1171V65.455H74.2171V64.555ZM77.7913 52.825H78.8713V53.905H77.7913V52.825ZM78.8713 53.905H79.9513V54.985H78.8713V53.905ZM79.9513 54.985H81.0313V62.545H79.9513V54.985ZM78.8713 62.545H79.9513V63.625H78.8713V62.545ZM77.7913 63.625H78.8713V64.705H77.7913V63.625ZM82.8011 57.52H88.2011V58.6H82.8011V57.52ZM92.1241 52.825H93.2041V53.905H92.1241V52.825ZM91.0441 53.905H92.1241V54.985H91.0441V53.905ZM89.9641 54.985H91.0441V62.545H89.9641V54.985ZM91.0441 62.545H92.1241V63.625H91.0441V62.545ZM92.1241 63.625H93.2041V64.705H92.1241V63.625ZM95.8739 62.755H96.7739V64.555H95.8739V62.755ZM94.9739 64.555H95.8739V65.455H94.9739V64.555ZM99.4481 62.755H100.348V64.555H99.4481V62.755ZM98.5481 64.555H99.4481V65.455H98.5481V64.555ZM102.122 52.825H103.202V53.905H102.122V52.825ZM103.202 53.905H104.282V54.985H103.202V53.905ZM104.282 54.985H105.362V62.545H104.282V54.985ZM103.202 62.545H104.282V63.625H103.202V62.545ZM102.122 63.625H103.202V64.705H102.122V63.625ZM107.132 57.52H112.532V58.6H107.132V57.52Z" fill="black"/>
<defs>
<linearGradient id="paint0_linear_1184_1829" x1="168.111" y1="12" x2="168.111" y2="252" gradientUnits="userSpaceOnUse">
<stop stop-color="#E7E6D1"/>
<stop offset="1" stop-color="#FFF960" stop-opacity="0"/>
</linearGradient>
<linearGradient id="paint1_linear_1184_1829" x1="168.111" y1="18.2222" x2="168.111" y2="246.667" gradientUnits="userSpaceOnUse">
<stop stop-color="#FFFFF4"/>
<stop offset="1" stop-color="#FFFFF4" stop-opacity="0"/>
</linearGradient>
<linearGradient id="paint2_linear_1184_1829" x1="85.1111" y1="2" x2="85.1111" y2="242" gradientUnits="userSpaceOnUse">
<stop stop-color="#E7E6D1"/>
<stop offset="1" stop-color="#FFF73D" stop-opacity="0"/>
</linearGradient>
<linearGradient id="paint3_linear_1184_1829" x1="85.1108" y1="8.22217" x2="85.1108" y2="236.667" gradientUnits="userSpaceOnUse">
<stop stop-color="#FFFFF4"/>
<stop offset="1" stop-color="#FFFFF4" stop-opacity="0"/>
</linearGradient>
</defs>
</svg>
