<svg width="238" height="258" viewBox="0 0 238 258" fill="none" xmlns="http://www.w3.org/2000/svg">
<path d="M71.9652 63.3477L104.048 20.0467C105.934 17.5012 108.915 16 112.083 16H193.691C196.837 16 199.8 17.4805 201.688 19.9965L234.22 63.3323C235.519 65.0639 236.222 67.1706 236.222 69.3358V246C236.222 251.523 231.745 256 226.222 256H80C74.4772 256 70 251.523 70 246V69.301C70 67.1572 70.6889 65.0702 71.9652 63.3477Z" fill="white"/>
<path d="M71.9652 63.3477L104.048 20.0467C105.934 17.5012 108.915 16 112.083 16H193.691C196.837 16 199.8 17.4805 201.688 19.9965L234.22 63.3323C235.519 65.0639 236.222 67.1706 236.222 69.3358V246C236.222 251.523 231.745 256 226.222 256H80C74.4772 256 70 251.523 70 246V69.301C70 67.1572 70.6889 65.0702 71.9652 63.3477Z" fill="url(#paint0_linear_1204_2181)"/>
<path d="M71.9652 63.3477L104.048 20.0467C105.934 17.5012 108.915 16 112.083 16H193.691C196.837 16 199.8 17.4805 201.688 19.9965L234.22 63.3323C235.519 65.0639 236.222 67.1706 236.222 69.3358V246C236.222 251.523 231.745 256 226.222 256H80C74.4772 256 70 251.523 70 246V69.301C70 67.1572 70.6889 65.0702 71.9652 63.3477Z" stroke="#FDB3EE" stroke-width="3"/>
<path d="M77.2502 67.1829L107.007 26.3342C108.889 23.7504 111.893 22.2222 115.09 22.2222H190.715C193.89 22.2222 196.876 23.7296 198.761 26.2839L228.934 67.1671C230.204 68.8869 230.889 70.968 230.889 73.1054V240.667C230.889 246.189 226.411 250.667 220.889 250.667H85.333C79.8102 250.667 75.333 246.189 75.333 240.667V73.0709C75.333 70.9548 76.0043 68.8933 77.2502 67.1829Z" fill="url(#paint1_linear_1204_2181)" stroke="#FDB3EE" stroke-width="3"/>
<path d="M83.1453 228.491C82.4893 228.491 81.9453 228.123 81.9453 227.611C81.9453 227.131 82.4893 226.731 83.1453 226.731C83.8013 226.731 84.3453 227.131 84.3453 227.611C84.3453 228.123 83.8013 228.491 83.1453 228.491ZM83.1453 229.147C84.2333 229.147 85.1133 228.475 85.1133 227.611C85.1133 226.763 84.2333 226.091 83.1453 226.091C82.0573 226.091 81.1773 226.763 81.1773 227.611C81.1773 228.475 82.0573 229.147 83.1453 229.147ZM86.6173 213.551V212.399H88.9213V211.247H90.0733V212.399H92.3773V213.551H90.0733V214.703H88.9213V213.551H86.6173ZM87.7693 215.855V214.703H88.9213V215.855H87.7693ZM87.7693 211.247V210.095H88.9213V211.247H87.7693ZM90.0733 215.855V214.703H91.2253V215.855H90.0733ZM90.0733 211.247V210.095H91.2253V211.247H90.0733ZM93.6253 208.214V207.062H94.7773V208.214H93.6253ZM90.8893 203.759C90.8893 205.087 91.9773 206.191 93.3213 206.191C94.6653 206.191 95.7533 205.087 95.7533 203.759C95.7533 202.399 94.6653 201.311 93.3213 201.311C91.9773 201.311 90.8893 202.399 90.8893 203.759ZM94.9373 203.759C94.9373 204.639 94.2173 205.375 93.3213 205.375C92.4253 205.375 91.7053 204.639 91.7053 203.759C91.7053 202.847 92.4253 202.127 93.3213 202.127C94.2173 202.127 94.9373 202.847 94.9373 203.759ZM93.6253 197.167V196.015H94.7773V197.167H93.6253ZM88.9693 194.12V192.968H90.1213V194.12H88.9693ZM93.5773 194.12V192.968H94.7293V194.12H93.5773ZM85.5773 188.769V187.617H87.8813V185.313H89.0333V186.465H90.1853V187.617H89.0333V188.769H90.1853V189.921H89.0333V191.073H87.8813V188.769H85.5773ZM90.1853 191.073V189.921H91.3373V191.073H90.1853ZM90.1853 186.465V185.313H91.3373V186.465H90.1853ZM87.7693 183.433V182.169H89.0173V183.433H87.7693ZM83.1453 180.757C82.4893 180.757 81.9453 180.389 81.9453 179.877C81.9453 179.397 82.4893 178.997 83.1453 178.997C83.8013 178.997 84.3453 179.397 84.3453 179.877C84.3453 180.389 83.8013 180.757 83.1453 180.757ZM83.1453 181.413C84.2333 181.413 85.1133 180.741 85.1133 179.877C85.1133 179.029 84.2333 178.357 83.1453 178.357C82.0573 178.357 81.1773 179.029 81.1773 179.877C81.1773 180.741 82.0573 181.413 83.1453 181.413ZM86.6173 165.816V164.664H88.9213V163.512H90.0733V164.664H92.3773V165.816H90.0733V166.968H88.9213V165.816H86.6173ZM87.7693 168.12V166.968H88.9213V168.12H87.7693ZM87.7693 163.512V162.36H88.9213V163.512H87.7693ZM90.0733 168.12V166.968H91.2253V168.12H90.0733ZM90.0733 163.512V162.36H91.2253V163.512H90.0733ZM93.6253 160.48V159.328H94.7773V160.48H93.6253ZM90.8893 156.025C90.8893 157.353 91.9773 158.457 93.3213 158.457C94.6653 158.457 95.7533 157.353 95.7533 156.025C95.7533 154.665 94.6653 153.577 93.3213 153.577C91.9773 153.577 90.8893 154.665 90.8893 156.025ZM94.9373 156.025C94.9373 156.905 94.2173 157.641 93.3213 157.641C92.4253 157.641 91.7053 156.905 91.7053 156.025C91.7053 155.113 92.4253 154.393 93.3213 154.393C94.2173 154.393 94.9373 155.113 94.9373 156.025ZM93.6253 149.433V148.281H94.7773V149.433H93.6253ZM88.9693 146.386V145.234H90.1213V146.386H88.9693ZM93.5773 146.386V145.234H94.7293V146.386H93.5773ZM85.5773 141.035V139.883H87.8813V137.579H89.0333V138.731H90.1853V139.883H89.0333V141.035H90.1853V142.187H89.0333V143.339H87.8813V141.035H85.5773ZM90.1853 143.339V142.187H91.3373V143.339H90.1853ZM90.1853 138.731V137.579H91.3373V138.731H90.1853ZM87.7693 135.698V134.434H89.0173V135.698H87.7693ZM83.1453 133.022C82.4893 133.022 81.9453 132.654 81.9453 132.142C81.9453 131.662 82.4893 131.262 83.1453 131.262C83.8013 131.262 84.3453 131.662 84.3453 132.142C84.3453 132.654 83.8013 133.022 83.1453 133.022ZM83.1453 133.678C84.2333 133.678 85.1133 133.006 85.1133 132.142C85.1133 131.294 84.2333 130.622 83.1453 130.622C82.0573 130.622 81.1773 131.294 81.1773 132.142C81.1773 133.006 82.0573 133.678 83.1453 133.678ZM86.6173 118.082V116.93H88.9213V115.778H90.0733V116.93H92.3773V118.082H90.0733V119.234H88.9213V118.082H86.6173ZM87.7693 120.386V119.234H88.9213V120.386H87.7693ZM87.7693 115.778V114.626H88.9213V115.778H87.7693ZM90.0733 120.386V119.234H91.2253V120.386H90.0733ZM90.0733 115.778V114.626H91.2253V115.778H90.0733ZM93.6253 112.745V111.593H94.7773V112.745H93.6253ZM90.8893 108.29C90.8893 109.618 91.9773 110.722 93.3213 110.722C94.6653 110.722 95.7533 109.618 95.7533 108.29C95.7533 106.93 94.6653 105.842 93.3213 105.842C91.9773 105.842 90.8893 106.93 90.8893 108.29ZM94.9373 108.29C94.9373 109.17 94.2173 109.906 93.3213 109.906C92.4253 109.906 91.7053 109.17 91.7053 108.29C91.7053 107.378 92.4253 106.658 93.3213 106.658C94.2173 106.658 94.9373 107.378 94.9373 108.29ZM93.6253 101.698V100.546H94.7773V101.698H93.6253ZM88.9693 98.6515V97.4995H90.1213V98.6515H88.9693ZM93.5773 98.6515V97.4995H94.7293V98.6515H93.5773ZM85.5773 93.3006V92.1486H87.8813V89.8446H89.0333V90.9966H90.1853V92.1486H89.0333V93.3006H90.1853V94.4526H89.0333V95.6046H87.8813V93.3006H85.5773ZM90.1853 95.6046V94.4526H91.3373V95.6046H90.1853ZM90.1853 90.9966V89.8446H91.3373V90.9966H90.1853Z" fill="black"/>
<path d="M224.855 226.713C225.511 226.713 226.055 226.345 226.055 225.833C226.055 225.353 225.511 224.953 224.855 224.953C224.199 224.953 223.655 225.353 223.655 225.833C223.655 226.345 224.199 226.713 224.855 226.713ZM224.855 227.369C223.767 227.369 222.887 226.697 222.887 225.833C222.887 224.985 223.767 224.313 224.855 224.313C225.943 224.313 226.823 224.985 226.823 225.833C226.823 226.697 225.943 227.369 224.855 227.369ZM221.383 211.773V210.621H219.079V209.469H217.927V210.621H215.623V211.773H217.927V212.925H219.079V211.773H221.383ZM220.231 214.077V212.925H219.079V214.077H220.231ZM220.231 209.469V208.317H219.079V209.469H220.231ZM217.927 214.077V212.925H216.775V214.077H217.927ZM217.927 209.469V208.317H216.775V209.469H217.927ZM214.375 206.436V205.284H213.223V206.436H214.375ZM217.111 201.981C217.111 203.309 216.023 204.413 214.679 204.413C213.335 204.413 212.247 203.309 212.247 201.981C212.247 200.621 213.335 199.533 214.679 199.533C216.023 199.533 217.111 200.621 217.111 201.981ZM213.063 201.981C213.063 202.861 213.783 203.597 214.679 203.597C215.575 203.597 216.295 202.861 216.295 201.981C216.295 201.069 215.575 200.349 214.679 200.349C213.783 200.349 213.063 201.069 213.063 201.981ZM214.375 195.389V194.237H213.223V195.389H214.375ZM219.031 192.343V191.191H217.879V192.343H219.031ZM214.423 192.343V191.191H213.271V192.343H214.423ZM222.423 186.992V185.84H220.119V183.536H218.967V184.688H217.815V185.84H218.967V186.992H217.815V188.144H218.967V189.296H220.119V186.992H222.423ZM217.815 189.296V188.144H216.663V189.296H217.815ZM217.815 184.688V183.536H216.663V184.688H217.815ZM220.231 181.655V180.391H218.983V181.655H220.231ZM224.855 178.979C225.511 178.979 226.055 178.611 226.055 178.099C226.055 177.619 225.511 177.219 224.855 177.219C224.199 177.219 223.655 177.619 223.655 178.099C223.655 178.611 224.199 178.979 224.855 178.979ZM224.855 179.635C223.767 179.635 222.887 178.963 222.887 178.099C222.887 177.251 223.767 176.579 224.855 176.579C225.943 176.579 226.823 177.251 226.823 178.099C226.823 178.963 225.943 179.635 224.855 179.635ZM221.383 164.039V162.887H219.079V161.735H217.927V162.887H215.623V164.039H217.927V165.191H219.079V164.039H221.383ZM220.231 166.343V165.191H219.079V166.343H220.231ZM220.231 161.735V160.583H219.079V161.735H220.231ZM217.927 166.343V165.191H216.775V166.343H217.927ZM217.927 161.735V160.583H216.775V161.735H217.927ZM214.375 158.702V157.55H213.223V158.702H214.375ZM217.111 154.247C217.111 155.575 216.023 156.679 214.679 156.679C213.335 156.679 212.247 155.575 212.247 154.247C212.247 152.887 213.335 151.799 214.679 151.799C216.023 151.799 217.111 152.887 217.111 154.247ZM213.063 154.247C213.063 155.127 213.783 155.863 214.679 155.863C215.575 155.863 216.295 155.127 216.295 154.247C216.295 153.335 215.575 152.615 214.679 152.615C213.783 152.615 213.063 153.335 213.063 154.247ZM214.375 147.655V146.503H213.223V147.655H214.375ZM219.031 144.608V143.456H217.879V144.608H219.031ZM214.423 144.608V143.456H213.271V144.608H214.423ZM222.423 139.257V138.105H220.119V135.801H218.967V136.953H217.815V138.105H218.967V139.257H217.815V140.409H218.967V141.561H220.119V139.257H222.423ZM217.815 141.561V140.409H216.663V141.561H217.815ZM217.815 136.953V135.801H216.663V136.953H217.815ZM220.231 133.921V132.657H218.983V133.921H220.231ZM224.855 131.244C225.511 131.244 226.055 130.876 226.055 130.364C226.055 129.884 225.511 129.484 224.855 129.484C224.199 129.484 223.655 129.884 223.655 130.364C223.655 130.876 224.199 131.244 224.855 131.244ZM224.855 131.9C223.767 131.9 222.887 131.228 222.887 130.364C222.887 129.516 223.767 128.844 224.855 128.844C225.943 128.844 226.823 129.516 226.823 130.364C226.823 131.228 225.943 131.9 224.855 131.9ZM221.383 116.304V115.152H219.079V114H217.927V115.152H215.623V116.304H217.927V117.456H219.079V116.304H221.383ZM220.231 118.608V117.456H219.079V118.608H220.231ZM220.231 114V112.848H219.079V114H220.231ZM217.927 118.608V117.456H216.775V118.608H217.927ZM217.927 114V112.848H216.775V114H217.927ZM214.375 110.968V109.816H213.223V110.968H214.375ZM217.111 106.513C217.111 107.841 216.023 108.945 214.679 108.945C213.335 108.945 212.247 107.841 212.247 106.513C212.247 105.153 213.335 104.065 214.679 104.065C216.023 104.065 217.111 105.153 217.111 106.513ZM213.063 106.513C213.063 107.393 213.783 108.129 214.679 108.129C215.575 108.129 216.295 107.393 216.295 106.513C216.295 105.601 215.575 104.881 214.679 104.881C213.783 104.881 213.063 105.601 213.063 106.513ZM214.375 99.9207V98.7687H213.223V99.9207H214.375ZM219.031 96.8739V95.7219H217.879V96.8739H219.031ZM214.423 96.8739V95.7219H213.271V96.8739H214.423ZM222.423 91.523V90.371H220.119V88.067H218.967V89.219H217.815V90.371H218.967V91.523H217.815V92.675H218.967V93.827H220.119V91.523H222.423ZM217.815 93.827V92.675H216.663V93.827H217.815ZM217.815 89.219V88.067H216.663V89.219H217.815Z" fill="black"/>
<rect x="99" y="90" width="107.556" height="144" rx="10" fill="#FFEBFC" stroke="#FDB3EE" stroke-width="3"/>
<path d="M108.282 119.315H114.509V120.147H109.179V124.359H108.282V119.315ZM109.179 124.359H114.509V125.204H109.179V124.359ZM116.212 119.315H117.109V121.837H118.006V122.682H117.109V125.204H116.212V119.315ZM109.998 126.049H116.212V126.894H109.998V126.049ZM109.101 126.894H109.998V129.416H109.101V126.894ZM116.212 126.894H117.109V129.416H116.212V126.894ZM109.998 129.416H116.212V130.261H109.998V129.416ZM122.195 119.315H123.079V122.682H122.195V119.315ZM121.298 122.682H122.195V123.527H121.298V122.682ZM123.079 122.682H123.976V123.527H123.079V122.682ZM120.414 123.527H121.298V124.372H120.414V123.527ZM123.976 123.527H124.86V124.372H123.976V123.527ZM119.53 124.372H120.414V125.204H119.53V124.372ZM124.86 124.372H125.744V125.204H124.86V124.372ZM127.655 119.315H128.539V125.204H127.655V119.315ZM120.349 126.049H121.246V129.416H128.357V130.261H120.349V126.049ZM130.964 119.315H134.513V120.147H130.964V119.315ZM130.067 120.147H130.964V127.739H130.067V120.147ZM134.513 120.147H135.41V127.739H134.513V120.147ZM130.964 127.739H134.513V128.571H130.964V127.739ZM138.192 119.328H139.076V130.274H138.192V119.328ZM143.981 119.315H144.865V120.992H149.324V119.315H150.208V125.204H143.981V119.315ZM144.865 121.837V124.359H149.324V121.837H144.865ZM151.911 119.315H152.808V121.837H153.705V122.682H152.808V125.204H151.911V119.315ZM144.8 126.049H152.808V126.894H145.697V129.416H152.808V130.261H144.8V126.049ZM156.958 119.315H163.172V120.147H156.958V119.315ZM156.061 120.147H156.958V122.682H156.061V120.147ZM163.172 120.147H164.069V122.682H163.172V120.147ZM156.958 122.682H163.172V123.527H156.958V122.682ZM155.242 124.372H164.966V125.217H155.242V124.372ZM156.061 126.049H156.958V129.416H164.069V130.261H156.061V126.049ZM169.88 119.64H173.624V128.064H176.432V129H169.88V128.064H172.688V120.576H169.88V119.64ZM178.786 119.315H186.794V120.147H179.683V122.682H186.794V123.527H178.786V119.315ZM177.967 124.372H187.691V125.217H177.967V124.372ZM179.683 126.049H185.897V126.894H179.683V126.049ZM178.786 126.894H179.683V129.416H178.786V126.894ZM185.897 126.894H186.794V129.416H185.897V126.894ZM179.683 129.416H185.897V130.261H179.683V129.416ZM189.227 119.315H195.454V125.204H189.227V119.315ZM190.111 120.147V124.359H194.57V120.147H190.111ZM197.157 119.315H198.054V121.837H198.951V122.682H198.054V125.204H197.157V119.315ZM190.046 126.049H190.943V129.416H198.054V130.261H190.046V126.049ZM110.688 134.315H116.915V135.147H111.585V139.359H110.688V134.315ZM111.585 139.359H116.915V140.204H111.585V139.359ZM118.618 134.315H119.515V136.837H120.412V137.682H119.515V140.204H118.618V134.315ZM112.404 141.049H118.618V141.894H112.404V141.049ZM111.507 141.894H112.404V144.416H111.507V141.894ZM118.618 141.894H119.515V144.416H118.618V141.894ZM112.404 144.416H118.618V145.261H112.404V144.416ZM124.601 134.315H125.485V135.16H128.15V135.992H125.485V138.527H124.601V135.992H121.936V135.16H124.601V134.315ZM123.704 138.527H124.601V139.372H123.704V138.527ZM125.485 138.527H126.382V139.372H125.485V138.527ZM121.936 139.372H123.704V140.204H121.936V139.372ZM126.382 139.372H128.15V140.204H126.382V139.372ZM129.866 134.315H130.763V140.204H129.866V137.682H128.163V136.837H129.866V134.315ZM122.755 141.049H130.763V145.261H122.755V141.049ZM123.652 141.894V144.416H129.866V141.894H123.652ZM132.295 134.315H138.522V135.16H133.192V139.372H132.295V134.315ZM133.192 139.372H138.522V140.217H133.192V139.372ZM140.225 134.315H141.135V145.261H140.225V134.315ZM134.934 140.217H135.805V141.881H138.522V142.726H132.308V141.881H134.934V140.217ZM143.486 134.315H144.383V137.682H151.494V138.527H143.486V134.315ZM142.667 139.372H152.391V140.217H142.667V139.372ZM143.486 141.049H144.383V144.416H151.494V145.261H143.486V141.049ZM154.747 134.315H162.755V137.682H155.644V140.204H162.755V141.049H154.747V136.837H161.858V135.147H154.747V134.315ZM158.309 141.049H159.193V143.571H163.652V144.403H153.928V143.571H158.309V141.049ZM166.008 134.315H174.016V135.147H170.454V140.204H169.57V135.147H166.905V140.204H166.008V134.315ZM166.905 140.204H169.57V141.049H166.905V140.204ZM170.454 140.204H174.016V141.049H170.454V140.204ZM169.57 141.049H170.454V143.571H174.913V144.403H165.189V143.571H169.57V141.049ZM177.334 134.315H181.78V135.16H177.334V134.315ZM176.45 135.16H177.334V139.372H176.45V135.16ZM181.78 135.16H182.677V139.372H181.78V135.16ZM177.334 139.372H181.78V140.217H177.334V139.372ZM184.393 134.315H185.29V145.261H184.393V134.315ZM176.463 141.894H182.677V142.739H176.463V141.894ZM187.641 134.315H188.538V135.992H194.752V134.315H195.649V140.204H187.641V134.315ZM188.538 136.837V139.359H194.752V136.837H188.538ZM186.822 141.049H196.546V141.894H192.087V145.261H191.203V141.894H186.822V141.049ZM147.961 149.315H154.175V150.147H151.51V152.682H150.626V150.147H147.961V149.315ZM149.729 152.682H150.626V153.527H149.729V152.682ZM151.51 152.682H152.407V153.527H151.51V152.682ZM148.845 153.527H149.729V154.359H148.845V153.527ZM152.407 153.527H153.291V154.359H152.407V153.527ZM147.961 154.359H148.845V155.204H147.961V154.359ZM153.291 154.359H154.175V155.204H153.291V154.359ZM155.891 149.315H156.788V155.204H155.891V152.682H154.188V151.837H155.891V149.315ZM148.78 156.049H156.788V160.261H155.891V156.894H148.78V156.049ZM158.321 149.315H159.257V157.739H158.321V149.315ZM158.321 158.675H159.257V159.611H158.321V158.675ZM114.016 164.315H117.565V165.147H114.016V164.315ZM113.119 165.147H114.016V172.739H113.119V165.147ZM117.565 165.147H118.462V172.739H117.565V165.147ZM114.016 172.739H117.565V173.571H114.016V172.739ZM121.244 164.328H122.128V175.274H121.244V164.328ZM127.852 164.315H128.749V165.992H134.963V164.315H135.86V170.204H127.852V164.315ZM128.749 166.837V169.359H134.963V166.837H128.749ZM127.033 171.049H136.757V171.894H132.298V175.261H131.414V171.894H127.033V171.049ZM138.281 164.315H144.495V165.147H141.83V167.682H140.946V165.147H138.281V164.315ZM140.049 167.682H140.946V168.527H140.049V167.682ZM141.83 167.682H142.727V168.527H141.83V167.682ZM139.165 168.527H140.049V169.359H139.165V168.527ZM142.727 168.527H143.611V169.359H142.727V168.527ZM138.281 169.359H139.165V170.204H138.281V169.359ZM143.611 169.359H144.495V170.204H143.611V169.359ZM146.211 164.315H147.108V170.204H146.211V167.682H144.508V166.837H146.211V164.315ZM139.1 171.049H147.108V175.261H146.211V171.894H139.1V171.049ZM150.356 164.315H156.57V165.147H150.356V164.315ZM149.459 165.147H150.356V167.682H149.459V165.147ZM156.57 165.147H157.467V167.682H156.57V165.147ZM150.356 167.682H156.57V168.527H150.356V167.682ZM148.64 169.372H158.364V170.217H148.64V169.372ZM149.459 171.049H157.467V173.571H150.356V174.416H157.467V175.261H149.459V172.739H156.57V171.894H149.459V171.049ZM163.278 164.315H169.505V165.147H166.84V170.204H165.956V165.147H163.278V164.315ZM165.059 170.204H165.956V171.894H165.059V170.204ZM166.84 170.204H167.724V171.894H166.84V170.204ZM164.175 171.894H165.059V172.739H164.175V171.894ZM167.724 171.894H168.621V172.739H167.724V171.894ZM163.278 172.739H164.175V173.571H163.278V172.739ZM168.621 172.739H169.505V173.571H168.621V172.739ZM171.429 164.328H172.313V175.274H171.429V164.328ZM173.853 164.315H174.75V172.739H173.853V164.315ZM174.75 172.739H179.196V173.571H174.75V172.739ZM181.978 164.328H182.862V175.274H181.978V164.328ZM185.209 164.315H193.217V170.217H192.32V165.16H185.209V164.315ZM191.436 170.217H192.32V171.062H191.436V170.217ZM188.771 171.049H189.655V173.571H194.114V174.403H184.39V173.571H188.771V171.049ZM109.308 179.315H111.973V180.16H109.308V179.315ZM108.424 180.16H109.308V180.992H108.424V180.16ZM111.973 180.16H112.87V180.992H111.973V180.16ZM107.527 180.992H108.424V183.527H107.527V180.992ZM112.87 180.992H113.754V183.527H112.87V180.992ZM108.424 183.527H109.308V184.372H108.424V183.527ZM111.973 183.527H112.87V184.372H111.973V183.527ZM109.308 184.372H111.973V185.204H109.308V184.372ZM115.652 179.315H116.536V185.204H115.652V179.315ZM110.127 186.049H111.011V188.571H110.127V186.049ZM113.689 186.049H114.573V188.571H113.689V186.049ZM109.243 188.571H110.127V189.416H109.243V188.571ZM111.011 188.571H111.908V189.416H111.011V188.571ZM112.792 188.571H113.689V189.416H112.792V188.571ZM114.573 188.571H115.457V189.416H114.573V188.571ZM108.346 189.416H109.243V190.261H108.346V189.416ZM111.908 189.416H112.792V190.261H111.908V189.416ZM115.457 189.416H116.354V190.261H115.457V189.416ZM120.664 179.315H125.11V180.147H120.664V179.315ZM119.78 180.147H120.664V180.992H119.78V180.147ZM125.11 180.147H125.994V180.992H125.11V180.147ZM118.883 180.992H119.78V184.359H118.883V180.992ZM125.994 180.992H126.891V184.359H125.994V180.992ZM119.78 184.359H120.664V185.204H119.78V184.359ZM125.11 184.359H125.994V185.204H125.11V184.359ZM120.664 185.204H125.11V186.049H120.664V185.204ZM118.064 188.558H127.788V189.403H118.064V188.558ZM129.325 179.315H135.552V185.204H129.325V179.315ZM130.209 180.147V184.359H134.668V180.147H130.209ZM137.398 179.315H138.282V185.204H137.398V183.527H135.617V182.682H137.398V181.837H135.617V180.992H137.398V179.315ZM130.144 186.049H131.041V189.416H138.152V190.261H130.144V186.049ZM143.188 179.315H149.415V180.147H144.085V184.359H143.188V179.315ZM144.085 184.359H149.415V185.204H144.085V184.359ZM151.118 179.315H152.015V181.837H152.912V182.682H152.015V185.204H151.118V179.315ZM144.904 186.049H151.118V186.894H144.904V186.049ZM144.007 186.894H144.904V189.416H144.007V186.894ZM151.118 186.894H152.015V189.416H151.118V186.894ZM144.904 189.416H151.118V190.261H144.904V189.416ZM157.101 179.315H157.985V182.682H157.101V179.315ZM156.204 182.682H157.101V183.527H156.204V182.682ZM157.985 182.682H158.882V183.527H157.985V182.682ZM155.32 183.527H156.204V184.372H155.32V183.527ZM158.882 183.527H159.766V184.372H158.882V183.527ZM154.436 184.372H155.32V185.204H154.436V184.372ZM159.766 184.372H160.65V185.204H159.766V184.372ZM162.561 179.315H163.445V185.204H162.561V179.315ZM155.255 186.049H156.152V189.416H163.263V190.261H155.255V186.049ZM165.857 179.315H170.303V180.16H165.857V179.315ZM164.973 180.16H165.857V184.372H164.973V180.16ZM170.303 180.16H171.2V184.372H170.303V180.16ZM165.857 184.372H170.303V185.217H165.857V184.372ZM172.916 179.315H173.813V190.261H172.916V179.315ZM164.986 186.894H171.2V187.739H164.986V186.894ZM183.103 179.315H183.987V183.527H183.103V179.315ZM182.206 183.527H183.103V184.372H182.206V183.527ZM183.987 183.527H184.884V184.372H183.987V183.527ZM181.322 184.372H182.206V185.217H181.322V184.372ZM184.884 184.372H185.768V185.217H184.884V184.372ZM179.541 185.217H181.322V186.062H179.541V185.217ZM185.768 185.217H187.549V186.062H185.768V185.217ZM183.103 186.049H183.987V188.571H188.446V189.403H178.722V188.571H183.103V186.049ZM189.983 179.315H196.21V185.204H189.983V179.315ZM190.867 180.147V184.359H195.326V180.147H190.867ZM197.913 179.315H198.81V181.837H199.707V182.682H198.81V185.204H197.913V179.315ZM191.699 186.049H197.913V186.894H191.699V186.049ZM190.802 186.894H191.699V189.416H190.802V186.894ZM197.913 186.894H198.81V189.416H197.913V186.894ZM191.699 189.416H197.913V190.261H191.699V189.416ZM113.483 194.315H117.032V195.147H113.483V194.315ZM112.586 195.147H113.483V202.739H112.586V195.147ZM117.032 195.147H117.929V202.739H117.032V195.147ZM113.483 202.739H117.032V203.571H113.483V202.739ZM120.711 194.328H121.595V205.274H120.711V194.328ZM129.165 194.315H130.062V195.16H132.727V196.005H130.946V196.837H128.281V196.005H126.5V195.16H129.165V194.315ZM127.384 196.837H128.281V199.372H127.384V196.837ZM130.946 196.837H131.83V199.372H130.946V196.837ZM128.281 199.372H130.946V200.217H128.281V199.372ZM134.573 194.315H135.457V200.204H134.573V198.527H132.792V197.682H134.573V196.837H132.792V195.992H134.573V194.315ZM127.319 201.049H128.216V204.416H135.327V205.261H127.319V201.049ZM139.638 194.315H140.522V197.682H139.638V194.315ZM138.741 197.682H139.638V198.527H138.741V197.682ZM140.522 197.682H141.419V198.527H140.522V197.682ZM137.857 198.527H138.741V199.372H137.857V198.527ZM141.419 198.527H142.303V199.372H141.419V198.527ZM136.973 199.372H137.857V200.204H136.973V199.372ZM142.303 199.372H143.187V200.204H142.303V199.372ZM145.098 194.315H145.982V200.204H145.098V194.315ZM137.792 201.049H145.8V203.571H138.689V204.416H145.8V205.261H137.792V202.739H144.903V201.894H137.792V201.049ZM148.408 194.315H151.957V195.147H148.408V194.315ZM147.511 195.147H148.408V202.739H147.511V195.147ZM151.957 195.147H152.854V202.739H151.957V195.147ZM148.408 202.739H151.957V203.571H148.408V202.739ZM155.636 194.328H156.52V205.274H155.636V194.328ZM161.425 194.315H167.652V195.16H162.322V197.682H161.425V194.315ZM162.322 197.682H167.652V198.527H162.322V197.682ZM169.368 194.315H170.265V200.217H169.368V194.315ZM164.103 197.682H164.987V199.372H167.652V200.217H161.438V199.372H164.103V197.682ZM162.257 201.049H163.154V202.739H169.368V201.049H170.265V205.261H162.257V201.049ZM163.154 203.571V204.416H169.368V203.571H163.154ZM171.797 194.315H172.694V202.739H171.797V194.315ZM172.694 202.739H177.14V203.571H172.694V202.739ZM179.922 194.328H180.806V205.274H179.922V194.328ZM182.334 194.315H187.677V195.147H183.231V202.739H182.334V194.315ZM186.78 201.894H187.677V202.739H186.78V201.894ZM183.231 202.739H186.78V203.571H183.231V202.739ZM189.705 194.315H190.602V199.372H192.175V200.217H190.602V205.261H189.705V194.315ZM193.709 203.064H194.645V204H193.709V203.064Z" fill="black"/>
<path d="M112.598 42.075H113.966V44.811H116.702V46.179H115.334V47.547H113.966V46.179H112.598V47.547H111.23V46.179H109.862V44.811H112.598V42.075ZM109.862 47.547H111.23V48.915H109.862V47.547ZM115.334 47.547H116.702V48.915H115.334V47.547ZM117.548 39.567C117.548 40.764 118.517 41.733 119.733 41.733C120.93 41.733 121.899 40.764 121.899 39.567C121.899 38.37 120.93 37.382 119.733 37.382C118.517 37.382 117.548 38.37 117.548 39.567ZM118.384 39.567C118.384 38.864 119.011 38.237 119.733 38.237C120.436 38.237 121.063 38.864 121.063 39.567C121.063 40.27 120.436 40.916 119.733 40.916C119.011 40.916 118.384 40.251 118.384 39.567ZM145.607 38.845H146.975V40.213H145.607V38.845ZM144.239 40.213H145.607V41.581H144.239V40.213ZM142.871 41.581H144.239V51.157H142.871V41.581ZM144.239 51.157H145.607V52.525H144.239V51.157ZM145.607 52.525H146.975V53.893H145.607V52.525ZM149.216 39.32H150.584V42.056H149.216V39.32ZM150.584 42.056H151.952V44.792H150.584V42.056ZM151.952 44.792H153.32V47.528H151.952V44.792ZM153.32 47.528H154.688V50.264H153.32V47.528ZM154.688 50.264H156.056V53H154.688V50.264ZM165.961 38.845H167.329V40.213H165.961V38.845ZM164.593 40.213H165.961V41.581H164.593V40.213ZM163.225 41.581H164.593V51.157H163.225V41.581ZM164.593 51.157H165.961V52.525H164.593V51.157ZM165.961 52.525H167.329V53.893H165.961V52.525ZM169.571 39.32H170.939V42.056H169.571V39.32ZM170.939 42.056H172.307V44.792H170.939V42.056ZM172.307 44.792H173.675V47.528H172.307V44.792ZM173.675 47.528H175.043V50.264H173.675V47.528ZM175.043 50.264H176.411V53H175.043V50.264ZM111.23 66.792H118.07V68.16H111.23V66.792ZM109.862 68.16H111.23V73.632H109.862V68.16ZM118.07 68.16H119.438V69.528H118.07V68.16ZM118.07 72.264H119.438V73.632H118.07V72.264ZM111.23 73.632H118.07V75H111.23V73.632ZM124.417 60.845H125.785V62.213H124.417V60.845ZM123.049 62.213H124.417V63.581H123.049V62.213ZM121.681 63.581H123.049V73.157H121.681V63.581ZM123.049 73.157H124.417V74.525H123.049V73.157ZM124.417 74.525H125.785V75.893H124.417V74.525ZM132.131 60.902H136.235V62.27H132.131V60.902ZM129.395 62.27H132.131V63.638H129.395V62.27ZM136.235 62.27H138.971V63.638H136.235V62.27ZM128.027 63.638H129.395V65.006H128.027V63.638ZM138.971 63.638H140.339V65.006H138.971V63.638ZM145.31 60.845H146.678V62.213H145.31V60.845ZM143.942 62.213H145.31V63.581H143.942V62.213ZM142.574 63.581H143.942V73.157H142.574V63.581ZM143.942 73.157H145.31V74.525H143.942V73.157ZM145.31 74.525H146.678V75.893H145.31V74.525ZM148.92 73.632H158.496V75H148.92V73.632ZM163.475 64.075H164.843V66.811H167.579V68.179H166.211V69.547H164.843V68.179H163.475V69.547H162.107V68.179H160.739V66.811H163.475V64.075ZM160.739 69.547H162.107V70.915H160.739V69.547ZM166.211 69.547H167.579V70.915H166.211V69.547ZM172.548 59.933V61.301H171.18V59.933H172.548ZM171.18 61.301V62.669H169.812V61.301H171.18ZM177.521 64.36H178.889V68.464H177.521V64.36ZM176.153 68.464H177.521V69.832H176.153V68.464ZM178.889 68.464H180.257V69.832H178.889V68.464ZM174.785 69.832H176.153V71.2H174.785V69.832ZM180.257 69.832H181.625V71.2H180.257V69.832ZM183.858 60.845H185.226V62.213H183.858V60.845ZM185.226 62.213H186.594V63.581H185.226V62.213ZM188.831 60.845H190.199V62.213H188.831V60.845ZM190.199 62.213H191.567V63.581H190.199V62.213ZM191.567 63.581H192.935V73.157H191.567V63.581ZM190.199 73.157H191.567V74.525H190.199V73.157ZM188.831 74.525H190.199V75.893H188.831V74.525ZM195.176 73.632H204.752V75H195.176V73.632Z" fill="black"/>
<path d="M3.96516 49.3477L36.0482 6.04673C37.9343 3.50122 40.915 2 44.0831 2H125.691C128.837 2 131.8 3.48051 133.688 5.99652L166.22 49.3323C167.519 51.0639 168.222 53.1706 168.222 55.3358V232C168.222 237.523 163.745 242 158.222 242H12C6.47715 242 2 237.523 2 232V55.301C2 53.1572 2.68892 51.0702 3.96516 49.3477Z" fill="white"/>
<path d="M3.96516 49.3477L36.0482 6.04673C37.9343 3.50122 40.915 2 44.0831 2H125.691C128.837 2 131.8 3.48051 133.688 5.99652L166.22 49.3323C167.519 51.0639 168.222 53.1706 168.222 55.3358V232C168.222 237.523 163.745 242 158.222 242H12C6.47715 242 2 237.523 2 232V55.301C2 53.1572 2.68892 51.0702 3.96516 49.3477Z" fill="url(#paint2_linear_1204_2181)"/>
<path d="M3.96516 49.3477L36.0482 6.04673C37.9343 3.50122 40.915 2 44.0831 2H125.691C128.837 2 131.8 3.48051 133.688 5.99652L166.22 49.3323C167.519 51.0639 168.222 53.1706 168.222 55.3358V232C168.222 237.523 163.745 242 158.222 242H12C6.47715 242 2 237.523 2 232V55.301C2 53.1572 2.68892 51.0702 3.96516 49.3477Z" stroke="#FDB3EE" stroke-width="3"/>
<path d="M9.25021 53.1829L39.0068 12.3342C40.889 9.75041 43.893 8.22217 47.0897 8.22217H122.715C125.89 8.22217 128.876 9.72959 130.761 12.2839L160.934 53.1671C162.204 54.8869 162.889 56.968 162.889 59.1054V226.667C162.889 232.189 158.411 236.667 152.889 236.667H17.333C11.8102 236.667 7.33301 232.189 7.33301 226.667V59.0709C7.33301 56.9548 8.00427 54.8933 9.25021 53.1829Z" fill="url(#paint3_linear_1204_2181)" stroke="#FDB3EE" stroke-width="3"/>
<path d="M15.1453 214.491C14.4893 214.491 13.9453 214.123 13.9453 213.611C13.9453 213.131 14.4893 212.731 15.1453 212.731C15.8013 212.731 16.3453 213.131 16.3453 213.611C16.3453 214.123 15.8013 214.491 15.1453 214.491ZM15.1453 215.147C16.2333 215.147 17.1133 214.475 17.1133 213.611C17.1133 212.763 16.2333 212.091 15.1453 212.091C14.0573 212.091 13.1773 212.763 13.1773 213.611C13.1773 214.475 14.0573 215.147 15.1453 215.147ZM18.6173 199.551V198.399H20.9213V197.247H22.0733V198.399H24.3773V199.551H22.0733V200.703H20.9213V199.551H18.6173ZM19.7693 201.855V200.703H20.9213V201.855H19.7693ZM19.7693 197.247V196.095H20.9213V197.247H19.7693ZM22.0733 201.855V200.703H23.2253V201.855H22.0733ZM22.0733 197.247V196.095H23.2253V197.247H22.0733ZM25.6253 194.214V193.062H26.7773V194.214H25.6253ZM22.8893 189.759C22.8893 191.087 23.9773 192.191 25.3213 192.191C26.6653 192.191 27.7533 191.087 27.7533 189.759C27.7533 188.399 26.6653 187.311 25.3213 187.311C23.9773 187.311 22.8893 188.399 22.8893 189.759ZM26.9373 189.759C26.9373 190.639 26.2173 191.375 25.3213 191.375C24.4253 191.375 23.7053 190.639 23.7053 189.759C23.7053 188.847 24.4253 188.127 25.3213 188.127C26.2173 188.127 26.9373 188.847 26.9373 189.759ZM25.6253 183.167V182.015H26.7773V183.167H25.6253ZM20.9693 180.12V178.968H22.1213V180.12H20.9693ZM25.5773 180.12V178.968H26.7293V180.12H25.5773ZM17.5773 174.769V173.617H19.8813V171.313H21.0333V172.465H22.1853V173.617H21.0333V174.769H22.1853V175.921H21.0333V177.073H19.8813V174.769H17.5773ZM22.1853 177.073V175.921H23.3373V177.073H22.1853ZM22.1853 172.465V171.313H23.3373V172.465H22.1853ZM19.7693 169.433V168.169H21.0173V169.433H19.7693ZM15.1453 166.757C14.4893 166.757 13.9453 166.389 13.9453 165.877C13.9453 165.397 14.4893 164.997 15.1453 164.997C15.8013 164.997 16.3453 165.397 16.3453 165.877C16.3453 166.389 15.8013 166.757 15.1453 166.757ZM15.1453 167.413C16.2333 167.413 17.1133 166.741 17.1133 165.877C17.1133 165.029 16.2333 164.357 15.1453 164.357C14.0573 164.357 13.1773 165.029 13.1773 165.877C13.1773 166.741 14.0573 167.413 15.1453 167.413ZM18.6173 151.816V150.664H20.9213L20.9213 149.512H22.0733L22.0733 150.664H24.3773V151.816H22.0733V152.968H20.9213V151.816H18.6173ZM19.7693 154.12V152.968H20.9213V154.12H19.7693ZM19.7693 149.512V148.36H20.9213V149.512H19.7693ZM22.0733 154.12V152.968H23.2253V154.12H22.0733ZM22.0733 149.512V148.36H23.2253V149.512H22.0733ZM25.6253 146.48V145.328H26.7773V146.48H25.6253ZM22.8893 142.025C22.8893 143.353 23.9773 144.457 25.3213 144.457C26.6653 144.457 27.7533 143.353 27.7533 142.025C27.7533 140.665 26.6653 139.577 25.3213 139.577C23.9773 139.577 22.8893 140.665 22.8893 142.025ZM26.9373 142.025C26.9373 142.905 26.2173 143.641 25.3213 143.641C24.4253 143.641 23.7053 142.905 23.7053 142.025C23.7053 141.113 24.4253 140.393 25.3213 140.393C26.2173 140.393 26.9373 141.113 26.9373 142.025ZM25.6253 135.433V134.281H26.7773V135.433H25.6253ZM20.9693 132.386V131.234H22.1213V132.386H20.9693ZM25.5773 132.386V131.234H26.7293V132.386H25.5773ZM17.5773 127.035V125.883H19.8813V123.579H21.0333V124.731H22.1853V125.883H21.0333V127.035H22.1853V128.187H21.0333V129.339H19.8813V127.035H17.5773ZM22.1853 129.339V128.187H23.3373V129.339H22.1853ZM22.1853 124.731V123.579H23.3373V124.731H22.1853ZM19.7693 121.698V120.434H21.0173V121.698H19.7693ZM15.1453 119.022C14.4893 119.022 13.9453 118.654 13.9453 118.142C13.9453 117.662 14.4893 117.262 15.1453 117.262C15.8013 117.262 16.3453 117.662 16.3453 118.142C16.3453 118.654 15.8013 119.022 15.1453 119.022ZM15.1453 119.678C16.2333 119.678 17.1133 119.006 17.1133 118.142C17.1133 117.294 16.2333 116.622 15.1453 116.622C14.0573 116.622 13.1773 117.294 13.1773 118.142C13.1773 119.006 14.0573 119.678 15.1453 119.678ZM18.6173 104.082V102.93H20.9213V101.778H22.0733V102.93H24.3773V104.082H22.0733V105.234H20.9213V104.082H18.6173ZM19.7693 106.386V105.234H20.9213V106.386H19.7693ZM19.7693 101.778V100.626H20.9213V101.778H19.7693ZM22.0733 106.386V105.234H23.2253V106.386H22.0733ZM22.0733 101.778V100.626H23.2253V101.778H22.0733ZM25.6253 98.7453V97.5933H26.7773V98.7453H25.6253ZM22.8893 94.2904C22.8893 95.6184 23.9773 96.7224 25.3213 96.7224C26.6653 96.7224 27.7533 95.6184 27.7533 94.2904C27.7533 92.9304 26.6653 91.8424 25.3213 91.8424C23.9773 91.8424 22.8893 92.9304 22.8893 94.2904ZM26.9373 94.2904C26.9373 95.1704 26.2173 95.9064 25.3213 95.9064C24.4253 95.9064 23.7053 95.1704 23.7053 94.2904C23.7053 93.3784 24.4253 92.6584 25.3213 92.6584C26.2173 92.6584 26.9373 93.3784 26.9373 94.2904ZM25.6253 87.6984V86.5464H26.7773V87.6984H25.6253ZM20.9693 84.6515V83.4995H22.1213V84.6515H20.9693ZM25.5773 84.6515V83.4995H26.7293V84.6515H25.5773ZM17.5773 79.3006V78.1486H19.8813V75.8446H21.0333V76.9966H22.1853V78.1486H21.0333V79.3006H22.1853V80.4526H21.0333V81.6046H19.8813V79.3006H17.5773ZM22.1853 81.6046V80.4526H23.3373V81.6046H22.1853ZM22.1853 76.9966V75.8446H23.3373V76.9966H22.1853Z" fill="black"/>
<path d="M156.855 212.713C157.511 212.713 158.055 212.345 158.055 211.833C158.055 211.353 157.511 210.953 156.855 210.953C156.199 210.953 155.655 211.353 155.655 211.833C155.655 212.345 156.199 212.713 156.855 212.713ZM156.855 213.369C155.767 213.369 154.887 212.697 154.887 211.833C154.887 210.985 155.767 210.313 156.855 210.313C157.943 210.313 158.823 210.985 158.823 211.833C158.823 212.697 157.943 213.369 156.855 213.369ZM153.383 197.773V196.621H151.079V195.469H149.927V196.621H147.623V197.773H149.927V198.925H151.079V197.773H153.383ZM152.231 200.077V198.925H151.079V200.077H152.231ZM152.231 195.469V194.317H151.079V195.469H152.231ZM149.927 200.077V198.925H148.775V200.077H149.927ZM149.927 195.469V194.317H148.775V195.469H149.927ZM146.375 192.436V191.284H145.223V192.436H146.375ZM149.111 187.981C149.111 189.309 148.023 190.413 146.679 190.413C145.335 190.413 144.247 189.309 144.247 187.981C144.247 186.621 145.335 185.533 146.679 185.533C148.023 185.533 149.111 186.621 149.111 187.981ZM145.063 187.981C145.063 188.861 145.783 189.597 146.679 189.597C147.575 189.597 148.295 188.861 148.295 187.981C148.295 187.069 147.575 186.349 146.679 186.349C145.783 186.349 145.063 187.069 145.063 187.981ZM146.375 181.389V180.237H145.223V181.389H146.375ZM151.031 178.343V177.191H149.879V178.343H151.031ZM146.423 178.343V177.191H145.271V178.343H146.423ZM154.423 172.992V171.84H152.119V169.536H150.967V170.688H149.815V171.84H150.967V172.992H149.815V174.144H150.967V175.296H152.119V172.992H154.423ZM149.815 175.296V174.144H148.663V175.296H149.815ZM149.815 170.688V169.536H148.663V170.688H149.815ZM152.231 167.655V166.391H150.983V167.655H152.231ZM156.855 164.979C157.511 164.979 158.055 164.611 158.055 164.099C158.055 163.619 157.511 163.219 156.855 163.219C156.199 163.219 155.655 163.619 155.655 164.099C155.655 164.611 156.199 164.979 156.855 164.979ZM156.855 165.635C155.767 165.635 154.887 164.963 154.887 164.099C154.887 163.251 155.767 162.579 156.855 162.579C157.943 162.579 158.823 163.251 158.823 164.099C158.823 164.963 157.943 165.635 156.855 165.635ZM153.383 150.039V148.887H151.079V147.735H149.927V148.887H147.623V150.039H149.927V151.191H151.079V150.039H153.383ZM152.231 152.343V151.191H151.079V152.343H152.231ZM152.231 147.735V146.583H151.079V147.735H152.231ZM149.927 152.343V151.191H148.775V152.343H149.927ZM149.927 147.735V146.583H148.775V147.735H149.927ZM146.375 144.702V143.55H145.223V144.702H146.375ZM149.111 140.247C149.111 141.575 148.023 142.679 146.679 142.679C145.335 142.679 144.247 141.575 144.247 140.247C144.247 138.887 145.335 137.799 146.679 137.799C148.023 137.799 149.111 138.887 149.111 140.247ZM145.063 140.247C145.063 141.127 145.783 141.863 146.679 141.863C147.575 141.863 148.295 141.127 148.295 140.247C148.295 139.335 147.575 138.615 146.679 138.615C145.783 138.615 145.063 139.335 145.063 140.247ZM146.375 133.655V132.503H145.223V133.655H146.375ZM151.031 130.608V129.456H149.879V130.608H151.031ZM146.423 130.608V129.456H145.271V130.608H146.423ZM154.423 125.257V124.105H152.119V121.801H150.967V122.953H149.815V124.105H150.967V125.257H149.815V126.409H150.967V127.561H152.119V125.257H154.423ZM149.815 127.561V126.409H148.663V127.561H149.815ZM149.815 122.953V121.801H148.663V122.953H149.815ZM152.231 119.921V118.657H150.983V119.921H152.231ZM156.855 117.244C157.511 117.244 158.055 116.876 158.055 116.364C158.055 115.884 157.511 115.484 156.855 115.484C156.199 115.484 155.655 115.884 155.655 116.364C155.655 116.876 156.199 117.244 156.855 117.244ZM156.855 117.9C155.767 117.9 154.887 117.228 154.887 116.364C154.887 115.516 155.767 114.844 156.855 114.844C157.943 114.844 158.823 115.516 158.823 116.364C158.823 117.228 157.943 117.9 156.855 117.9ZM153.383 102.304V101.152H151.079V100H149.927V101.152H147.623V102.304H149.927V103.456H151.079V102.304H153.383ZM152.231 104.608V103.456H151.079V104.608H152.231ZM152.231 100V98.8482H151.079V100H152.231ZM149.927 104.608V103.456H148.775V104.608H149.927ZM149.927 100V98.8482H148.775V100H149.927ZM146.375 96.9676V95.8156H145.223V96.9676H146.375ZM149.111 92.5127C149.111 93.8407 148.023 94.9447 146.679 94.9447C145.335 94.9447 144.247 93.8407 144.247 92.5127C144.247 91.1527 145.335 90.0647 146.679 90.0647C148.023 90.0647 149.111 91.1527 149.111 92.5127ZM145.063 92.5127C145.063 93.3927 145.783 94.1287 146.679 94.1287C147.575 94.1287 148.295 93.3927 148.295 92.5127C148.295 91.6007 147.575 90.8807 146.679 90.8807C145.783 90.8807 145.063 91.6007 145.063 92.5127ZM146.375 85.9207V84.7687H145.223V85.9207H146.375ZM151.031 82.8739V81.7219H149.879V82.8739H151.031ZM146.423 82.8739V81.7219H145.271V82.8739H146.423ZM154.423 77.523V76.371H152.119V74.067H150.967V75.219H149.815V76.371H150.967V77.523H149.815V78.675H150.967V79.827H152.119V77.523H154.423ZM149.815 79.827V78.675H148.663V79.827H149.815ZM149.815 75.219V74.067H148.663V75.219H149.815Z" fill="black"/>
<rect x="31" y="76" width="107.556" height="144" rx="10" fill="#FFEBFC" stroke="#FDB3EE" stroke-width="3"/>
<path d="M44.598 28.075H45.966V30.811H48.702V32.179H47.334V33.547H45.966V32.179H44.598V33.547H43.23V32.179H41.862V30.811H44.598V28.075ZM41.862 33.547H43.23V34.915H41.862V33.547ZM47.334 33.547H48.702V34.915H47.334V33.547ZM49.5482 25.567C49.5482 26.764 50.5172 27.733 51.7332 27.733C52.9302 27.733 53.8992 26.764 53.8992 25.567C53.8992 24.37 52.9302 23.382 51.7332 23.382C50.5172 23.382 49.5482 24.37 49.5482 25.567ZM50.3842 25.567C50.3842 24.864 51.0112 24.237 51.7332 24.237C52.4362 24.237 53.0632 24.864 53.0632 25.567C53.0632 26.27 52.4362 26.916 51.7332 26.916C51.0112 26.916 50.3842 26.251 50.3842 25.567ZM77.6068 24.845H78.9748V26.213H77.6068V24.845ZM76.2388 26.213H77.6068V27.581H76.2388V26.213ZM74.8708 27.581H76.2388V37.157H74.8708V27.581ZM76.2388 37.157H77.6068V38.525H76.2388V37.157ZM77.6068 38.525H78.9748V39.893H77.6068V38.525ZM81.2165 25.32H82.5845V28.056H81.2165V25.32ZM82.5845 28.056H83.9525V30.792H82.5845V28.056ZM83.9525 30.792H85.3205V33.528H83.9525V30.792ZM85.3205 33.528H86.6885V36.264H85.3205V33.528ZM86.6885 36.264H88.0565V39H86.6885V36.264ZM97.9613 24.845H99.3293V26.213H97.9613V24.845ZM96.5933 26.213H97.9613V27.581H96.5933V26.213ZM95.2253 27.581H96.5933V37.157H95.2253V27.581ZM96.5933 37.157H97.9613V38.525H96.5933V37.157ZM97.9613 38.525H99.3293V39.893H97.9613V38.525ZM101.571 25.32H102.939V28.056H101.571V25.32ZM102.939 28.056H104.307V30.792H102.939V28.056ZM104.307 30.792H105.675V33.528H104.307V30.792ZM105.675 33.528H107.043V36.264H105.675V33.528ZM107.043 36.264H108.411V39H107.043V36.264ZM43.23 52.792H50.07V54.16H43.23V52.792ZM41.862 54.16H43.23V59.632H41.862V54.16ZM50.07 54.16H51.438V55.528H50.07V54.16ZM50.07 58.264H51.438V59.632H50.07V58.264ZM43.23 59.632H50.07V61H43.23V59.632ZM56.4173 46.845H57.7853V48.213H56.4173V46.845ZM55.0493 48.213H56.4173V49.581H55.0493V48.213ZM53.6813 49.581H55.0493V59.157H53.6813V49.581ZM55.0493 59.157H56.4173V60.525H55.0493V59.157ZM56.4173 60.525H57.7853V61.893H56.4173V60.525ZM64.131 46.902H68.235V48.27H64.131V46.902ZM61.395 48.27H64.131V49.638H61.395V48.27ZM68.235 48.27H70.971V49.638H68.235V48.27ZM60.027 49.638H61.395V51.006H60.027V49.638ZM70.971 49.638H72.339V51.006H70.971V49.638ZM77.3099 46.845H78.6779V48.213H77.3099V46.845ZM75.9419 48.213H77.3099V49.581H75.9419V48.213ZM74.5739 49.581H75.9419V59.157H74.5739V49.581ZM75.9419 59.157H77.3099V60.525H75.9419V59.157ZM77.3099 60.525H78.6779V61.893H77.3099V60.525ZM80.9196 59.632H90.4956V61H80.9196V59.632ZM95.475 50.075H96.843V52.811H99.579V54.179H98.211V55.547H96.843V54.179H95.475V55.547H94.107V54.179H92.739V52.811H95.475V50.075ZM92.739 55.547H94.107V56.915H92.739V55.547ZM98.211 55.547H99.579V56.915H98.211V55.547ZM104.548 45.933V47.301H103.18V45.933H104.548ZM103.18 47.301V48.669H101.812V47.301H103.18ZM109.521 50.36H110.889V54.464H109.521V50.36ZM108.153 54.464H109.521V55.832H108.153V54.464ZM110.889 54.464H112.257V55.832H110.889V54.464ZM106.785 55.832H108.153V57.2H106.785V55.832ZM112.257 55.832H113.625V57.2H112.257V55.832ZM115.858 46.845H117.226V48.213H115.858V46.845ZM117.226 48.213H118.594V49.581H117.226V48.213ZM120.831 46.845H122.199V48.213H120.831V46.845ZM122.199 48.213H123.567V49.581H122.199V48.213ZM123.567 49.581H124.935V59.157H123.567V49.581ZM122.199 59.157H123.567V60.525H122.199V59.157ZM120.831 60.525H122.199V61.893H120.831V60.525ZM127.176 59.632H136.752V61H127.176V59.632Z" fill="black"/>
<path d="M59.2092 95.72H66.1212V111.272H71.3052V113H59.2092V111.272H64.3932V97.448H59.2092V95.72ZM75.6509 95.12H90.4349V96.656H77.3069V101.336H90.4349V102.896H75.6509V95.12ZM74.1389 104.456H92.0909V106.016H74.1389V104.456ZM77.3069 107.552H88.7789V109.112H77.3069V107.552ZM75.6509 109.112H77.3069V113.768H75.6509V109.112ZM88.7789 109.112H90.4349V113.768H88.7789V109.112ZM77.3069 113.768H88.7789V115.328H77.3069V113.768ZM94.928 95.12H106.424V105.992H94.928V95.12ZM96.56 96.656V104.432H104.792V96.656H96.56ZM109.568 95.12H111.224V99.776H112.88V101.336H111.224V105.992H109.568V95.12ZM96.44 107.552H98.096V113.768H111.224V115.328H96.44V107.552ZM57.9436 123.12H69.4396V124.656H59.5996V132.432H57.9436V123.12ZM59.5996 132.432H69.4396V133.992H59.5996V132.432ZM72.5836 123.12H74.2396V127.776H75.8956V129.336H74.2396V133.992H72.5836V123.12ZM61.1116 135.552H72.5836V137.112H61.1116V135.552ZM59.4556 137.112H61.1116V141.768H59.4556V137.112ZM72.5836 137.112H74.2396V141.768H72.5836V137.112ZM61.1116 141.768H72.5836V143.328H61.1116V141.768ZM83.6286 123.12H85.2606V124.68H90.1806V126.216H85.2606V130.896H83.6286V126.216H78.7086V124.68H83.6286V123.12ZM81.9726 130.896H83.6286V132.456H81.9726V130.896ZM85.2606 130.896H86.9166V132.456H85.2606V130.896ZM78.7086 132.456H81.9726V133.992H78.7086V132.456ZM86.9166 132.456H90.1806V133.992H86.9166V132.456ZM93.3486 123.12H95.0046V133.992H93.3486V129.336H90.2046V127.776H93.3486V123.12ZM80.2206 135.552H95.0046V143.328H80.2206V135.552ZM81.8766 137.112V141.768H93.3486V137.112H81.8766ZM97.8342 123.12H109.33V124.68H99.4902V132.456H97.8342V123.12ZM99.4902 132.456H109.33V134.016H99.4902V132.456ZM112.474 123.12H114.154V143.328H112.474V123.12ZM102.706 134.016H104.314V137.088H109.33V138.648H97.8582V137.088H102.706V134.016ZM57.7915 151.12H59.4475V157.336H72.5755V158.896H57.7915V151.12ZM56.2795 160.456H74.2315V162.016H56.2795V160.456ZM57.7915 163.552H59.4475V169.768H72.5755V171.328H57.7915V163.552ZM78.5806 151.12H93.3646V157.336H80.2366V161.992H93.3646V163.552H78.5806V155.776H91.7086V152.656H78.5806V151.12ZM85.1566 163.552H86.7886V168.208H95.0206V169.744H77.0686V168.208H85.1566V163.552ZM99.3696 151.12H114.154V152.656H107.578V161.992H105.946V152.656H101.026V161.992H99.3696V151.12ZM101.026 161.992H105.946V163.552H101.026V161.992ZM107.578 161.992H114.154V163.552H107.578V161.992ZM105.946 163.552H107.578V168.208H115.81V169.744H97.8576V168.208H105.946V163.552ZM59.5756 179.12H67.7836V180.68H59.5756V179.12ZM57.9436 180.68H59.5756V188.456H57.9436V180.68ZM67.7836 180.68H69.4396V188.456H67.7836V180.68ZM59.5756 188.456H67.7836V190.016H59.5756V188.456ZM72.6076 179.12H74.2636V199.328H72.6076V179.12ZM57.9676 193.112H69.4396V194.672H57.9676V193.112ZM78.604 179.12H80.26V182.216H91.732V179.12H93.388V189.992H78.604V179.12ZM80.26 183.776V188.432H91.732V183.776H80.26ZM77.092 191.552H95.044V193.112H86.812V199.328H85.18V193.112H77.092V191.552ZM97.8571 179.12H109.329V180.656H104.409V185.336H102.777V180.656H97.8571V179.12ZM101.121 185.336H102.777V186.896H101.121V185.336ZM104.409 185.336H106.065V186.896H104.409V185.336ZM99.4891 186.896H101.121V188.432H99.4891V186.896ZM106.065 186.896H107.697V188.432H106.065V186.896ZM97.8571 188.432H99.4891V189.992H97.8571V188.432ZM107.697 188.432H109.329V189.992H107.697V188.432ZM112.497 179.12H114.153V189.992H112.497V185.336H109.353V183.776H112.497V179.12ZM99.3691 191.552H114.153V199.328H112.497V193.112H99.3691V191.552Z" fill="black"/>
<defs>
<linearGradient id="paint0_linear_1204_2181" x1="153.111" y1="16" x2="153.111" y2="256" gradientUnits="userSpaceOnUse">
<stop stop-color="#FFDFEE"/>
<stop offset="1" stop-color="#EEAADF" stop-opacity="0"/>
</linearGradient>
<linearGradient id="paint1_linear_1204_2181" x1="153.111" y1="22.2222" x2="153.111" y2="250.667" gradientUnits="userSpaceOnUse">
<stop stop-color="#FFF3FC"/>
<stop offset="1" stop-color="#FFBBF4" stop-opacity="0"/>
</linearGradient>
<linearGradient id="paint2_linear_1204_2181" x1="85.1111" y1="2" x2="85.1111" y2="242" gradientUnits="userSpaceOnUse">
<stop stop-color="#FFDFEE"/>
<stop offset="1" stop-color="#EEAADF" stop-opacity="0"/>
</linearGradient>
<linearGradient id="paint3_linear_1204_2181" x1="85.1108" y1="8.22217" x2="85.1108" y2="236.667" gradientUnits="userSpaceOnUse">
<stop stop-color="#FFF3FC"/>
<stop offset="1" stop-color="#FFBBF4" stop-opacity="0"/>
</linearGradient>
</defs>
</svg>
