<svg width="253" height="254" viewBox="0 0 253 254" fill="none" xmlns="http://www.w3.org/2000/svg">
<path d="M86.9652 59.3477L119.048 16.0467C120.934 13.5012 123.915 12 127.083 12H208.691C211.837 12 214.8 13.4805 216.688 15.9965L249.22 59.3323C250.519 61.0639 251.222 63.1706 251.222 65.3358V242C251.222 247.523 246.745 252 241.222 252H95C89.4772 252 85 247.523 85 242V65.301C85 63.1572 85.6889 61.0702 86.9652 59.3477Z" fill="white"/>
<path d="M86.9652 59.3477L119.048 16.0467C120.934 13.5012 123.915 12 127.083 12H208.691C211.837 12 214.8 13.4805 216.688 15.9965L249.22 59.3323C250.519 61.0639 251.222 63.1706 251.222 65.3358V242C251.222 247.523 246.745 252 241.222 252H95C89.4772 252 85 247.523 85 242V65.301C85 63.1572 85.6889 61.0702 86.9652 59.3477Z" fill="url(#paint0_linear_1184_1828)"/>
<path d="M86.9652 59.3477L119.048 16.0467C120.934 13.5012 123.915 12 127.083 12H208.691C211.837 12 214.8 13.4805 216.688 15.9965L249.22 59.3323C250.519 61.0639 251.222 63.1706 251.222 65.3358V242C251.222 247.523 246.745 252 241.222 252H95C89.4772 252 85 247.523 85 242V65.301C85 63.1572 85.6889 61.0702 86.9652 59.3477Z" stroke="#FF9CC6" stroke-width="3"/>
<path d="M92.2502 63.1829L122.007 22.3342C123.889 19.7504 126.893 18.2222 130.09 18.2222H205.715C208.89 18.2222 211.876 19.7296 213.761 22.2839L243.934 63.1671C245.204 64.8869 245.889 66.968 245.889 69.1054V236.667C245.889 242.189 241.411 246.667 235.889 246.667H100.333C94.8102 246.667 90.333 242.189 90.333 236.667V69.0709C90.333 66.9548 91.0043 64.8933 92.2502 63.1829Z" fill="url(#paint1_linear_1184_1828)" stroke="#FF9CC6" stroke-width="3"/>
<path d="M98.1453 224.491C97.4893 224.491 96.9453 224.123 96.9453 223.611C96.9453 223.131 97.4893 222.731 98.1453 222.731C98.8013 222.731 99.3453 223.131 99.3453 223.611C99.3453 224.123 98.8013 224.491 98.1453 224.491ZM98.1453 225.147C99.2333 225.147 100.113 224.475 100.113 223.611C100.113 222.763 99.2333 222.091 98.1453 222.091C97.0573 222.091 96.1773 222.763 96.1773 223.611C96.1773 224.475 97.0573 225.147 98.1453 225.147ZM101.617 209.551V208.399H103.921V207.247H105.073V208.399H107.377V209.551H105.073V210.703H103.921V209.551H101.617ZM102.769 211.855V210.703H103.921V211.855H102.769ZM102.769 207.247V206.095H103.921V207.247H102.769ZM105.073 211.855V210.703H106.225V211.855H105.073ZM105.073 207.247V206.095H106.225V207.247H105.073ZM108.625 204.214V203.062H109.777V204.214H108.625ZM105.889 199.759C105.889 201.087 106.977 202.191 108.321 202.191C109.665 202.191 110.753 201.087 110.753 199.759C110.753 198.399 109.665 197.311 108.321 197.311C106.977 197.311 105.889 198.399 105.889 199.759ZM109.937 199.759C109.937 200.639 109.217 201.375 108.321 201.375C107.425 201.375 106.705 200.639 106.705 199.759C106.705 198.847 107.425 198.127 108.321 198.127C109.217 198.127 109.937 198.847 109.937 199.759ZM108.625 193.167V192.015H109.777V193.167H108.625ZM103.969 190.12V188.968H105.121V190.12H103.969ZM108.577 190.12V188.968H109.729V190.12H108.577ZM100.577 184.769V183.617H102.881V181.313H104.033V182.465H105.185V183.617H104.033V184.769H105.185V185.921H104.033V187.073H102.881V184.769H100.577ZM105.185 187.073V185.921H106.337V187.073H105.185ZM105.185 182.465V181.313H106.337V182.465H105.185ZM102.769 179.433V178.169H104.017V179.433H102.769ZM98.1453 176.757C97.4893 176.757 96.9453 176.389 96.9453 175.877C96.9453 175.397 97.4893 174.997 98.1453 174.997C98.8013 174.997 99.3453 175.397 99.3453 175.877C99.3453 176.389 98.8013 176.757 98.1453 176.757ZM98.1453 177.413C99.2333 177.413 100.113 176.741 100.113 175.877C100.113 175.029 99.2333 174.357 98.1453 174.357C97.0573 174.357 96.1773 175.029 96.1773 175.877C96.1773 176.741 97.0573 177.413 98.1453 177.413ZM101.617 161.816V160.664H103.921V159.512H105.073V160.664H107.377V161.816H105.073V162.968H103.921V161.816H101.617ZM102.769 164.12V162.968H103.921V164.12H102.769ZM102.769 159.512V158.36H103.921V159.512H102.769ZM105.073 164.12V162.968H106.225V164.12H105.073ZM105.073 159.512V158.36H106.225V159.512H105.073ZM108.625 156.48V155.328H109.777V156.48H108.625ZM105.889 152.025C105.889 153.353 106.977 154.457 108.321 154.457C109.665 154.457 110.753 153.353 110.753 152.025C110.753 150.665 109.665 149.577 108.321 149.577C106.977 149.577 105.889 150.665 105.889 152.025ZM109.937 152.025C109.937 152.905 109.217 153.641 108.321 153.641C107.425 153.641 106.705 152.905 106.705 152.025C106.705 151.113 107.425 150.393 108.321 150.393C109.217 150.393 109.937 151.113 109.937 152.025ZM108.625 145.433V144.281H109.777V145.433H108.625ZM103.969 142.386V141.234H105.121V142.386H103.969ZM108.577 142.386V141.234H109.729V142.386H108.577ZM100.577 137.035V135.883H102.881V133.579H104.033V134.731H105.185V135.883H104.033V137.035H105.185V138.187H104.033V139.339H102.881V137.035H100.577ZM105.185 139.339V138.187H106.337V139.339H105.185ZM105.185 134.731V133.579H106.337V134.731H105.185ZM102.769 131.698V130.434H104.017V131.698H102.769ZM98.1453 129.022C97.4893 129.022 96.9453 128.654 96.9453 128.142C96.9453 127.662 97.4893 127.262 98.1453 127.262C98.8013 127.262 99.3453 127.662 99.3453 128.142C99.3453 128.654 98.8013 129.022 98.1453 129.022ZM98.1453 129.678C99.2333 129.678 100.113 129.006 100.113 128.142C100.113 127.294 99.2333 126.622 98.1453 126.622C97.0573 126.622 96.1773 127.294 96.1773 128.142C96.1773 129.006 97.0573 129.678 98.1453 129.678ZM101.617 114.082V112.93H103.921V111.778H105.073V112.93H107.377V114.082H105.073V115.234H103.921V114.082H101.617ZM102.769 116.386V115.234H103.921V116.386H102.769ZM102.769 111.778V110.626H103.921V111.778H102.769ZM105.073 116.386V115.234H106.225V116.386H105.073ZM105.073 111.778V110.626H106.225V111.778H105.073ZM108.625 108.745V107.593H109.777V108.745H108.625ZM105.889 104.29C105.889 105.618 106.977 106.722 108.321 106.722C109.665 106.722 110.753 105.618 110.753 104.29C110.753 102.93 109.665 101.842 108.321 101.842C106.977 101.842 105.889 102.93 105.889 104.29ZM109.937 104.29C109.937 105.17 109.217 105.906 108.321 105.906C107.425 105.906 106.705 105.17 106.705 104.29C106.705 103.378 107.425 102.658 108.321 102.658C109.217 102.658 109.937 103.378 109.937 104.29ZM108.625 97.6984V96.5464H109.777V97.6984H108.625ZM103.969 94.6515V93.4995H105.121V94.6515H103.969ZM108.577 94.6515V93.4995H109.729V94.6515H108.577ZM100.577 89.3006V88.1486H102.881V85.8446H104.033V86.9966H105.185V88.1486H104.033V89.3006H105.185V90.4526H104.033V91.6046H102.881V89.3006H100.577ZM105.185 91.6046V90.4526H106.337V91.6046H105.185ZM105.185 86.9966V85.8446H106.337V86.9966H105.185Z" fill="black"/>
<path d="M239.855 222.713C240.511 222.713 241.055 222.345 241.055 221.833C241.055 221.353 240.511 220.953 239.855 220.953C239.199 220.953 238.655 221.353 238.655 221.833C238.655 222.345 239.199 222.713 239.855 222.713ZM239.855 223.369C238.767 223.369 237.887 222.697 237.887 221.833C237.887 220.985 238.767 220.313 239.855 220.313C240.943 220.313 241.823 220.985 241.823 221.833C241.823 222.697 240.943 223.369 239.855 223.369ZM236.383 207.773V206.621H234.079V205.469H232.927V206.621H230.623V207.773H232.927V208.925H234.079V207.773H236.383ZM235.231 210.077V208.925H234.079V210.077H235.231ZM235.231 205.469V204.317H234.079V205.469H235.231ZM232.927 210.077V208.925H231.775V210.077H232.927ZM232.927 205.469V204.317H231.775V205.469H232.927ZM229.375 202.436V201.284H228.223V202.436H229.375ZM232.111 197.981C232.111 199.309 231.023 200.413 229.679 200.413C228.335 200.413 227.247 199.309 227.247 197.981C227.247 196.621 228.335 195.533 229.679 195.533C231.023 195.533 232.111 196.621 232.111 197.981ZM228.063 197.981C228.063 198.861 228.783 199.597 229.679 199.597C230.575 199.597 231.295 198.861 231.295 197.981C231.295 197.069 230.575 196.349 229.679 196.349C228.783 196.349 228.063 197.069 228.063 197.981ZM229.375 191.389V190.237H228.223V191.389H229.375ZM234.031 188.343V187.191H232.879V188.343H234.031ZM229.423 188.343V187.191H228.271V188.343H229.423ZM237.423 182.992V181.84H235.119V179.536H233.967V180.688H232.815V181.84H233.967V182.992H232.815V184.144H233.967V185.296H235.119V182.992H237.423ZM232.815 185.296V184.144H231.663V185.296H232.815ZM232.815 180.688V179.536H231.663V180.688H232.815ZM235.231 177.655V176.391H233.983V177.655H235.231ZM239.855 174.979C240.511 174.979 241.055 174.611 241.055 174.099C241.055 173.619 240.511 173.219 239.855 173.219C239.199 173.219 238.655 173.619 238.655 174.099C238.655 174.611 239.199 174.979 239.855 174.979ZM239.855 175.635C238.767 175.635 237.887 174.963 237.887 174.099C237.887 173.251 238.767 172.579 239.855 172.579C240.943 172.579 241.823 173.251 241.823 174.099C241.823 174.963 240.943 175.635 239.855 175.635ZM236.383 160.039V158.887H234.079V157.735H232.927V158.887H230.623V160.039H232.927V161.191H234.079V160.039H236.383ZM235.231 162.343V161.191H234.079V162.343H235.231ZM235.231 157.735V156.583H234.079V157.735H235.231ZM232.927 162.343V161.191H231.775V162.343H232.927ZM232.927 157.735V156.583H231.775V157.735H232.927ZM229.375 154.702V153.55H228.223V154.702H229.375ZM232.111 150.247C232.111 151.575 231.023 152.679 229.679 152.679C228.335 152.679 227.247 151.575 227.247 150.247C227.247 148.887 228.335 147.799 229.679 147.799C231.023 147.799 232.111 148.887 232.111 150.247ZM228.063 150.247C228.063 151.127 228.783 151.863 229.679 151.863C230.575 151.863 231.295 151.127 231.295 150.247C231.295 149.335 230.575 148.615 229.679 148.615C228.783 148.615 228.063 149.335 228.063 150.247ZM229.375 143.655V142.503H228.223V143.655H229.375ZM234.031 140.608V139.456H232.879V140.608H234.031ZM229.423 140.608V139.456H228.271V140.608H229.423ZM237.423 135.257V134.105H235.119V131.801H233.967V132.953H232.815V134.105H233.967V135.257H232.815V136.409H233.967V137.561H235.119V135.257H237.423ZM232.815 137.561V136.409H231.663V137.561H232.815ZM232.815 132.953V131.801H231.663V132.953H232.815ZM235.231 129.921V128.657H233.983V129.921H235.231ZM239.855 127.244C240.511 127.244 241.055 126.876 241.055 126.364C241.055 125.884 240.511 125.484 239.855 125.484C239.199 125.484 238.655 125.884 238.655 126.364C238.655 126.876 239.199 127.244 239.855 127.244ZM239.855 127.9C238.767 127.9 237.887 127.228 237.887 126.364C237.887 125.516 238.767 124.844 239.855 124.844C240.943 124.844 241.823 125.516 241.823 126.364C241.823 127.228 240.943 127.9 239.855 127.9ZM236.383 112.304V111.152H234.079V110H232.927V111.152H230.623V112.304H232.927V113.456H234.079V112.304H236.383ZM235.231 114.608V113.456H234.079V114.608H235.231ZM235.231 110V108.848H234.079V110H235.231ZM232.927 114.608V113.456H231.775V114.608H232.927ZM232.927 110V108.848H231.775V110H232.927ZM229.375 106.968V105.816H228.223V106.968H229.375ZM232.111 102.513C232.111 103.841 231.023 104.945 229.679 104.945C228.335 104.945 227.247 103.841 227.247 102.513C227.247 101.153 228.335 100.065 229.679 100.065C231.023 100.065 232.111 101.153 232.111 102.513ZM228.063 102.513C228.063 103.393 228.783 104.129 229.679 104.129C230.575 104.129 231.295 103.393 231.295 102.513C231.295 101.601 230.575 100.881 229.679 100.881C228.783 100.881 228.063 101.601 228.063 102.513ZM229.375 95.9207V94.7687H228.223V95.9207H229.375ZM234.031 92.8739V91.7219H232.879V92.8739H234.031ZM229.423 92.8739V91.7219H228.271V92.8739H229.423ZM237.423 87.523V86.371H235.119V84.067H233.967V85.219H232.815V86.371H233.967V87.523H232.815V88.675H233.967V89.827H235.119V87.523H237.423ZM232.815 89.827V88.675H231.663V89.827H232.815ZM232.815 85.219V84.067H231.663V85.219H232.815Z" fill="black"/>
<path d="M143.995 32.7C144.702 32.7 145.355 32.8 145.955 33C146.568 33.2 147.108 33.4733 147.575 33.82L146.915 35.14C146.648 34.94 146.355 34.7667 146.035 34.62C145.715 34.4733 145.382 34.36 145.035 34.28C144.702 34.2 144.382 34.16 144.075 34.16C143.515 34.16 143.055 34.2533 142.695 34.44C142.335 34.6267 142.062 34.9 141.875 35.26C141.702 35.6067 141.615 36.0467 141.615 36.58C141.615 37.0467 141.695 37.4933 141.855 37.92C142.028 38.3467 142.275 38.74 142.595 39.1C142.915 39.4467 143.302 39.76 143.755 40.04C144.222 40.32 144.748 40.5533 145.335 40.74V48H143.575V41.66C142.882 41.34 142.295 40.98 141.815 40.58C141.335 40.1667 140.948 39.7333 140.655 39.28C140.362 38.8267 140.148 38.3667 140.015 37.9C139.882 37.4333 139.815 36.9733 139.815 36.52C139.815 35.72 139.968 35.04 140.275 34.48C140.595 33.9067 141.068 33.4667 141.695 33.16C142.322 32.8533 143.088 32.7 143.995 32.7ZM157.166 52.44H148.866V51.16H157.166V52.44ZM157.166 49.8H148.866V48.52H157.166V49.8ZM154.966 39.38H157.726V42.18H154.966V39.38ZM165.279 39.24H166.859V40.8H165.279V39.24ZM174.419 39.38H177.179V42.18H174.419V39.38ZM186.932 52.44H178.632V51.16H186.932V52.44ZM186.932 49.8H178.632V48.52H186.932V49.8ZM186.592 32.7C187.512 32.7 188.278 32.8533 188.892 33.16C189.518 33.4667 189.985 33.9067 190.292 34.48C190.612 35.04 190.772 35.72 190.772 36.52C190.772 36.9733 190.705 37.4333 190.572 37.9C190.438 38.3667 190.225 38.8267 189.932 39.28C189.638 39.7333 189.252 40.1667 188.772 40.58C188.292 40.98 187.705 41.34 187.012 41.66V48H185.252V40.74C185.838 40.5533 186.358 40.32 186.812 40.04C187.278 39.76 187.672 39.4467 187.992 39.1C188.312 38.74 188.552 38.3467 188.712 37.92C188.885 37.4933 188.972 37.0467 188.972 36.58C188.972 36.0467 188.885 35.6067 188.712 35.26C188.538 34.9 188.265 34.6267 187.892 34.44C187.532 34.2533 187.072 34.16 186.512 34.16C186.205 34.16 185.885 34.2 185.552 34.28C185.218 34.36 184.885 34.4733 184.552 34.62C184.232 34.7667 183.938 34.94 183.672 35.14L183.012 33.82C183.478 33.4733 184.018 33.2 184.632 33C185.245 32.8 185.898 32.7 186.592 32.7ZM135.262 56.1H136.702V58.92H135.262V56.1ZM133.822 58.92H135.262V61.72H133.822V58.92ZM132.382 61.72H133.822V64.52H132.382V61.72ZM130.942 64.52H132.382V67.34H130.942V64.52ZM129.502 67.34H130.942V70.14H129.502V67.34ZM128.062 70.14H129.502V72.94H128.062V70.14ZM149.013 58.46H153.753V60.02H149.013V58.46ZM144.253 60.02H149.013V61.6H144.253V60.02ZM153.753 60.02H155.353V61.6H153.753V60.02ZM155.353 61.6H156.933V67.86H155.353V61.6ZM153.753 67.86H155.353V69.44H153.753V67.86ZM150.593 69.44H153.753V71H150.593V69.44ZM157.853 56.62H159.433V58.2H157.853V56.62ZM159.433 58.2H161.013V59.76H159.433V58.2ZM157.853 59.76H159.433V61.32H157.853V59.76ZM159.433 61.32H161.013V62.9H159.433V61.32ZM166.254 58.04H169.134V59.48H166.254V58.04ZM170.574 58.04H173.454V59.48H170.574V58.04ZM164.814 59.48H166.254V60.92H164.814V59.48ZM169.134 59.48H170.574V60.92H169.134V59.48ZM173.454 59.48H174.894V60.92H173.454V59.48ZM163.374 60.92H164.814V65.24H163.374V60.92ZM174.894 60.92H176.334V65.24H174.894V60.92ZM164.814 65.24H166.254V66.68H164.814V65.24ZM173.454 65.24H174.894V66.68H173.454V65.24ZM166.254 66.68H167.694V68.12H166.254V66.68ZM172.014 66.68H173.454V68.12H172.014V66.68ZM167.694 68.12H169.134V69.56H167.694V68.12ZM170.574 68.12H172.014V69.56H170.574V68.12ZM169.134 69.56H170.574V71H169.134V69.56ZM183.882 62.44H193.962V63.88H183.882V62.44ZM183.882 65.32H193.962V66.76H183.882V65.32ZM200.363 73.5H188.363V72.48H200.363V73.5ZM204.406 76.5H192.406V75.48H204.406V76.5ZM200.363 58.5H188.363V57.48H200.363V58.5ZM204.406 55.5H192.406V54.48H204.406V55.5ZM199.203 58.04H202.083V59.48H199.203V58.04ZM203.523 58.04H206.403V59.48H203.523V58.04ZM197.763 59.48H199.203V60.92H197.763V59.48ZM202.083 59.48H203.523V60.92H202.083V59.48ZM206.403 59.48H207.843V60.92H206.403V59.48ZM196.323 60.92H197.763V65.24H196.323V60.92ZM207.843 60.92H209.283V65.24H207.843V60.92ZM197.763 65.24H199.203V66.68H197.763V65.24ZM206.403 65.24H207.843V66.68H206.403V65.24ZM199.203 66.68H200.643V68.12H199.203V66.68ZM204.963 66.68H206.403V68.12H204.963V66.68ZM200.643 68.12H202.083V69.56H200.643V68.12ZM203.523 68.12H204.963V69.56H203.523V68.12ZM202.083 69.56H203.523V71H202.083V69.56Z" fill="black"/>
<rect x="114" y="86" width="107.556" height="144" rx="10" fill="#FFEBFC" stroke="#FF9CC6" stroke-width="3"/>
<path d="M123.282 115.315H129.509V116.147H124.179V120.359H123.282V115.315ZM124.179 120.359H129.509V121.204H124.179V120.359ZM131.212 115.315H132.109V117.837H133.006V118.682H132.109V121.204H131.212V115.315ZM124.998 122.049H131.212V122.894H124.998V122.049ZM124.101 122.894H124.998V125.416H124.101V122.894ZM131.212 122.894H132.109V125.416H131.212V122.894ZM124.998 125.416H131.212V126.261H124.998V125.416ZM137.195 115.315H138.079V118.682H137.195V115.315ZM136.298 118.682H137.195V119.527H136.298V118.682ZM138.079 118.682H138.976V119.527H138.079V118.682ZM135.414 119.527H136.298V120.372H135.414V119.527ZM138.976 119.527H139.86V120.372H138.976V119.527ZM134.53 120.372H135.414V121.204H134.53V120.372ZM139.86 120.372H140.744V121.204H139.86V120.372ZM142.655 115.315H143.539V121.204H142.655V115.315ZM135.349 122.049H136.246V125.416H143.357V126.261H135.349V122.049ZM145.964 115.315H149.513V116.147H145.964V115.315ZM145.067 116.147H145.964V123.739H145.067V116.147ZM149.513 116.147H150.41V123.739H149.513V116.147ZM145.964 123.739H149.513V124.571H145.964V123.739ZM153.192 115.328H154.076V126.274H153.192V115.328ZM158.981 115.315H159.865V116.992H164.324V115.315H165.208V121.204H158.981V115.315ZM159.865 117.837V120.359H164.324V117.837H159.865ZM166.911 115.315H167.808V117.837H168.705V118.682H167.808V121.204H166.911V115.315ZM159.8 122.049H167.808V122.894H160.697V125.416H167.808V126.261H159.8V122.049ZM171.958 115.315H178.172V116.147H171.958V115.315ZM171.061 116.147H171.958V118.682H171.061V116.147ZM178.172 116.147H179.069V118.682H178.172V116.147ZM171.958 118.682H178.172V119.527H171.958V118.682ZM170.242 120.372H179.966V121.217H170.242V120.372ZM171.061 122.049H171.958V125.416H179.069V126.261H171.061V122.049ZM184.88 115.64H188.624V124.064H191.432V125H184.88V124.064H187.688V116.576H184.88V115.64ZM193.786 115.315H201.794V116.147H194.683V118.682H201.794V119.527H193.786V115.315ZM192.967 120.372H202.691V121.217H192.967V120.372ZM194.683 122.049H200.897V122.894H194.683V122.049ZM193.786 122.894H194.683V125.416H193.786V122.894ZM200.897 122.894H201.794V125.416H200.897V122.894ZM194.683 125.416H200.897V126.261H194.683V125.416ZM204.227 115.315H210.454V121.204H204.227V115.315ZM205.111 116.147V120.359H209.57V116.147H205.111ZM212.157 115.315H213.054V117.837H213.951V118.682H213.054V121.204H212.157V115.315ZM205.046 122.049H205.943V125.416H213.054V126.261H205.046V122.049ZM125.688 130.315H131.915V131.147H126.585V135.359H125.688V130.315ZM126.585 135.359H131.915V136.204H126.585V135.359ZM133.618 130.315H134.515V132.837H135.412V133.682H134.515V136.204H133.618V130.315ZM127.404 137.049H133.618V137.894H127.404V137.049ZM126.507 137.894H127.404V140.416H126.507V137.894ZM133.618 137.894H134.515V140.416H133.618V137.894ZM127.404 140.416H133.618V141.261H127.404V140.416ZM139.601 130.315H140.485V131.16H143.15V131.992H140.485V134.527H139.601V131.992H136.936V131.16H139.601V130.315ZM138.704 134.527H139.601V135.372H138.704V134.527ZM140.485 134.527H141.382V135.372H140.485V134.527ZM136.936 135.372H138.704V136.204H136.936V135.372ZM141.382 135.372H143.15V136.204H141.382V135.372ZM144.866 130.315H145.763V136.204H144.866V133.682H143.163V132.837H144.866V130.315ZM137.755 137.049H145.763V141.261H137.755V137.049ZM138.652 137.894V140.416H144.866V137.894H138.652ZM147.295 130.315H153.522V131.16H148.192V135.372H147.295V130.315ZM148.192 135.372H153.522V136.217H148.192V135.372ZM155.225 130.315H156.135V141.261H155.225V130.315ZM149.934 136.217H150.805V137.881H153.522V138.726H147.308V137.881H149.934V136.217ZM158.486 130.315H159.383V133.682H166.494V134.527H158.486V130.315ZM157.667 135.372H167.391V136.217H157.667V135.372ZM158.486 137.049H159.383V140.416H166.494V141.261H158.486V137.049ZM169.747 130.315H177.755V133.682H170.644V136.204H177.755V137.049H169.747V132.837H176.858V131.147H169.747V130.315ZM173.309 137.049H174.193V139.571H178.652V140.403H168.928V139.571H173.309V137.049ZM181.008 130.315H189.016V131.147H185.454V136.204H184.57V131.147H181.905V136.204H181.008V130.315ZM181.905 136.204H184.57V137.049H181.905V136.204ZM185.454 136.204H189.016V137.049H185.454V136.204ZM184.57 137.049H185.454V139.571H189.913V140.403H180.189V139.571H184.57V137.049ZM192.334 130.315H196.78V131.16H192.334V130.315ZM191.45 131.16H192.334V135.372H191.45V131.16ZM196.78 131.16H197.677V135.372H196.78V131.16ZM192.334 135.372H196.78V136.217H192.334V135.372ZM199.393 130.315H200.29V141.261H199.393V130.315ZM191.463 137.894H197.677V138.739H191.463V137.894ZM202.641 130.315H203.538V131.992H209.752V130.315H210.649V136.204H202.641V130.315ZM203.538 132.837V135.359H209.752V132.837H203.538ZM201.822 137.049H211.546V137.894H207.087V141.261H206.203V137.894H201.822V137.049ZM162.961 145.315H169.175V146.147H166.51V148.682H165.626V146.147H162.961V145.315ZM164.729 148.682H165.626V149.527H164.729V148.682ZM166.51 148.682H167.407V149.527H166.51V148.682ZM163.845 149.527H164.729V150.359H163.845V149.527ZM167.407 149.527H168.291V150.359H167.407V149.527ZM162.961 150.359H163.845V151.204H162.961V150.359ZM168.291 150.359H169.175V151.204H168.291V150.359ZM170.891 145.315H171.788V151.204H170.891V148.682H169.188V147.837H170.891V145.315ZM163.78 152.049H171.788V156.261H170.891V152.894H163.78V152.049ZM173.321 145.315H174.257V153.739H173.321V145.315ZM173.321 154.675H174.257V155.611H173.321V154.675ZM129.016 160.315H132.565V161.147H129.016V160.315ZM128.119 161.147H129.016V168.739H128.119V161.147ZM132.565 161.147H133.462V168.739H132.565V161.147ZM129.016 168.739H132.565V169.571H129.016V168.739ZM136.244 160.328H137.128V171.274H136.244V160.328ZM142.852 160.315H143.749V161.992H149.963V160.315H150.86V166.204H142.852V160.315ZM143.749 162.837V165.359H149.963V162.837H143.749ZM142.033 167.049H151.757V167.894H147.298V171.261H146.414V167.894H142.033V167.049ZM153.281 160.315H159.495V161.147H156.83V163.682H155.946V161.147H153.281V160.315ZM155.049 163.682H155.946V164.527H155.049V163.682ZM156.83 163.682H157.727V164.527H156.83V163.682ZM154.165 164.527H155.049V165.359H154.165V164.527ZM157.727 164.527H158.611V165.359H157.727V164.527ZM153.281 165.359H154.165V166.204H153.281V165.359ZM158.611 165.359H159.495V166.204H158.611V165.359ZM161.211 160.315H162.108V166.204H161.211V163.682H159.508V162.837H161.211V160.315ZM154.1 167.049H162.108V171.261H161.211V167.894H154.1V167.049ZM165.356 160.315H171.57V161.147H165.356V160.315ZM164.459 161.147H165.356V163.682H164.459V161.147ZM171.57 161.147H172.467V163.682H171.57V161.147ZM165.356 163.682H171.57V164.527H165.356V163.682ZM163.64 165.372H173.364V166.217H163.64V165.372ZM164.459 167.049H172.467V169.571H165.356V170.416H172.467V171.261H164.459V168.739H171.57V167.894H164.459V167.049ZM178.278 160.315H184.505V161.147H181.84V166.204H180.956V161.147H178.278V160.315ZM180.059 166.204H180.956V167.894H180.059V166.204ZM181.84 166.204H182.724V167.894H181.84V166.204ZM179.175 167.894H180.059V168.739H179.175V167.894ZM182.724 167.894H183.621V168.739H182.724V167.894ZM178.278 168.739H179.175V169.571H178.278V168.739ZM183.621 168.739H184.505V169.571H183.621V168.739ZM186.429 160.328H187.313V171.274H186.429V160.328ZM188.853 160.315H189.75V168.739H188.853V160.315ZM189.75 168.739H194.196V169.571H189.75V168.739ZM196.978 160.328H197.862V171.274H196.978V160.328ZM200.209 160.315H208.217V166.217H207.32V161.16H200.209V160.315ZM206.436 166.217H207.32V167.062H206.436V166.217ZM203.771 167.049H204.655V169.571H209.114V170.403H199.39V169.571H203.771V167.049ZM124.308 175.315H126.973V176.16H124.308V175.315ZM123.424 176.16H124.308V176.992H123.424V176.16ZM126.973 176.16H127.87V176.992H126.973V176.16ZM122.527 176.992H123.424V179.527H122.527V176.992ZM127.87 176.992H128.754V179.527H127.87V176.992ZM123.424 179.527H124.308V180.372H123.424V179.527ZM126.973 179.527H127.87V180.372H126.973V179.527ZM124.308 180.372H126.973V181.204H124.308V180.372ZM130.652 175.315H131.536V181.204H130.652V175.315ZM125.127 182.049H126.011V184.571H125.127V182.049ZM128.689 182.049H129.573V184.571H128.689V182.049ZM124.243 184.571H125.127V185.416H124.243V184.571ZM126.011 184.571H126.908V185.416H126.011V184.571ZM127.792 184.571H128.689V185.416H127.792V184.571ZM129.573 184.571H130.457V185.416H129.573V184.571ZM123.346 185.416H124.243V186.261H123.346V185.416ZM126.908 185.416H127.792V186.261H126.908V185.416ZM130.457 185.416H131.354V186.261H130.457V185.416ZM135.664 175.315H140.11V176.147H135.664V175.315ZM134.78 176.147H135.664V176.992H134.78V176.147ZM140.11 176.147H140.994V176.992H140.11V176.147ZM133.883 176.992H134.78V180.359H133.883V176.992ZM140.994 176.992H141.891V180.359H140.994V176.992ZM134.78 180.359H135.664V181.204H134.78V180.359ZM140.11 180.359H140.994V181.204H140.11V180.359ZM135.664 181.204H140.11V182.049H135.664V181.204ZM133.064 184.558H142.788V185.403H133.064V184.558ZM144.325 175.315H150.552V181.204H144.325V175.315ZM145.209 176.147V180.359H149.668V176.147H145.209ZM152.398 175.315H153.282V181.204H152.398V179.527H150.617V178.682H152.398V177.837H150.617V176.992H152.398V175.315ZM145.144 182.049H146.041V185.416H153.152V186.261H145.144V182.049ZM158.188 175.315H164.415V176.147H159.085V180.359H158.188V175.315ZM159.085 180.359H164.415V181.204H159.085V180.359ZM166.118 175.315H167.015V177.837H167.912V178.682H167.015V181.204H166.118V175.315ZM159.904 182.049H166.118V182.894H159.904V182.049ZM159.007 182.894H159.904V185.416H159.007V182.894ZM166.118 182.894H167.015V185.416H166.118V182.894ZM159.904 185.416H166.118V186.261H159.904V185.416ZM172.101 175.315H172.985V178.682H172.101V175.315ZM171.204 178.682H172.101V179.527H171.204V178.682ZM172.985 178.682H173.882V179.527H172.985V178.682ZM170.32 179.527H171.204V180.372H170.32V179.527ZM173.882 179.527H174.766V180.372H173.882V179.527ZM169.436 180.372H170.32V181.204H169.436V180.372ZM174.766 180.372H175.65V181.204H174.766V180.372ZM177.561 175.315H178.445V181.204H177.561V175.315ZM170.255 182.049H171.152V185.416H178.263V186.261H170.255V182.049ZM180.857 175.315H185.303V176.16H180.857V175.315ZM179.973 176.16H180.857V180.372H179.973V176.16ZM185.303 176.16H186.2V180.372H185.303V176.16ZM180.857 180.372H185.303V181.217H180.857V180.372ZM187.916 175.315H188.813V186.261H187.916V175.315ZM179.986 182.894H186.2V183.739H179.986V182.894ZM198.103 175.315H198.987V179.527H198.103V175.315ZM197.206 179.527H198.103V180.372H197.206V179.527ZM198.987 179.527H199.884V180.372H198.987V179.527ZM196.322 180.372H197.206V181.217H196.322V180.372ZM199.884 180.372H200.768V181.217H199.884V180.372ZM194.541 181.217H196.322V182.062H194.541V181.217ZM200.768 181.217H202.549V182.062H200.768V181.217ZM198.103 182.049H198.987V184.571H203.446V185.403H193.722V184.571H198.103V182.049ZM204.983 175.315H211.21V181.204H204.983V175.315ZM205.867 176.147V180.359H210.326V176.147H205.867ZM212.913 175.315H213.81V177.837H214.707V178.682H213.81V181.204H212.913V175.315ZM206.699 182.049H212.913V182.894H206.699V182.049ZM205.802 182.894H206.699V185.416H205.802V182.894ZM212.913 182.894H213.81V185.416H212.913V182.894ZM206.699 185.416H212.913V186.261H206.699V185.416ZM128.483 190.315H132.032V191.147H128.483V190.315ZM127.586 191.147H128.483V198.739H127.586V191.147ZM132.032 191.147H132.929V198.739H132.032V191.147ZM128.483 198.739H132.032V199.571H128.483V198.739ZM135.711 190.328H136.595V201.274H135.711V190.328ZM144.165 190.315H145.062V191.16H147.727V192.005H145.946V192.837H143.281V192.005H141.5V191.16H144.165V190.315ZM142.384 192.837H143.281V195.372H142.384V192.837ZM145.946 192.837H146.83V195.372H145.946V192.837ZM143.281 195.372H145.946V196.217H143.281V195.372ZM149.573 190.315H150.457V196.204H149.573V194.527H147.792V193.682H149.573V192.837H147.792V191.992H149.573V190.315ZM142.319 197.049H143.216V200.416H150.327V201.261H142.319V197.049ZM154.638 190.315H155.522V193.682H154.638V190.315ZM153.741 193.682H154.638V194.527H153.741V193.682ZM155.522 193.682H156.419V194.527H155.522V193.682ZM152.857 194.527H153.741V195.372H152.857V194.527ZM156.419 194.527H157.303V195.372H156.419V194.527ZM151.973 195.372H152.857V196.204H151.973V195.372ZM157.303 195.372H158.187V196.204H157.303V195.372ZM160.098 190.315H160.982V196.204H160.098V190.315ZM152.792 197.049H160.8V199.571H153.689V200.416H160.8V201.261H152.792V198.739H159.903V197.894H152.792V197.049ZM163.408 190.315H166.957V191.147H163.408V190.315ZM162.511 191.147H163.408V198.739H162.511V191.147ZM166.957 191.147H167.854V198.739H166.957V191.147ZM163.408 198.739H166.957V199.571H163.408V198.739ZM170.636 190.328H171.52V201.274H170.636V190.328ZM176.425 190.315H182.652V191.16H177.322V193.682H176.425V190.315ZM177.322 193.682H182.652V194.527H177.322V193.682ZM184.368 190.315H185.265V196.217H184.368V190.315ZM179.103 193.682H179.987V195.372H182.652V196.217H176.438V195.372H179.103V193.682ZM177.257 197.049H178.154V198.739H184.368V197.049H185.265V201.261H177.257V197.049ZM178.154 199.571V200.416H184.368V199.571H178.154ZM186.797 190.315H187.694V198.739H186.797V190.315ZM187.694 198.739H192.14V199.571H187.694V198.739ZM194.922 190.328H195.806V201.274H194.922V190.328ZM197.334 190.315H202.677V191.147H198.231V198.739H197.334V190.315ZM201.78 197.894H202.677V198.739H201.78V197.894ZM198.231 198.739H201.78V199.571H198.231V198.739ZM204.705 190.315H205.602V195.372H207.175V196.217H205.602V201.261H204.705V190.315ZM208.709 199.064H209.645V200H208.709V199.064Z" fill="black"/>
<path d="M3.96516 49.3477L36.0482 6.04673C37.9343 3.50122 40.915 2 44.0831 2H125.691C128.837 2 131.8 3.48051 133.688 5.99652L166.22 49.3323C167.519 51.0639 168.222 53.1706 168.222 55.3358V232C168.222 237.523 163.745 242 158.222 242H12C6.47715 242 2 237.523 2 232V55.301C2 53.1572 2.68892 51.0702 3.96516 49.3477Z" fill="white"/>
<path d="M3.96516 49.3477L36.0482 6.04673C37.9343 3.50122 40.915 2 44.0831 2H125.691C128.837 2 131.8 3.48051 133.688 5.99652L166.22 49.3323C167.519 51.0639 168.222 53.1706 168.222 55.3358V232C168.222 237.523 163.745 242 158.222 242H12C6.47715 242 2 237.523 2 232V55.301C2 53.1572 2.68892 51.0702 3.96516 49.3477Z" fill="url(#paint2_linear_1184_1828)"/>
<path d="M3.96516 49.3477L36.0482 6.04673C37.9343 3.50122 40.915 2 44.0831 2H125.691C128.837 2 131.8 3.48051 133.688 5.99652L166.22 49.3323C167.519 51.0639 168.222 53.1706 168.222 55.3358V232C168.222 237.523 163.745 242 158.222 242H12C6.47715 242 2 237.523 2 232V55.301C2 53.1572 2.68892 51.0702 3.96516 49.3477Z" stroke="#FF9CC6" stroke-width="3"/>
<path d="M9.25119 53.1829L39.0078 12.3342C40.89 9.75041 43.894 8.22217 47.0906 8.22217H122.716C125.891 8.22217 128.877 9.72959 130.762 12.2839L160.935 53.1671C162.205 54.8869 162.89 56.968 162.89 59.1054V226.667C162.89 232.189 158.412 236.667 152.89 236.667H17.334C11.8111 236.667 7.33398 232.189 7.33398 226.667V59.0709C7.33398 56.9548 8.00525 54.8933 9.25119 53.1829Z" fill="url(#paint3_linear_1184_1828)" stroke="#FF9CC6" stroke-width="3"/>
<rect x="31.333" y="74.8889" width="107.556" height="144" rx="10" fill="#FFEBFC" stroke="#FF9CC6" stroke-width="3"/>
<path d="M59.2092 95.72H66.1212V111.272H71.3052V113H59.2092V111.272H64.3932V97.448H59.2092V95.72ZM75.6509 95.12H90.4349V96.656H77.3069V101.336H90.4349V102.896H75.6509V95.12ZM74.1389 104.456H92.0909V106.016H74.1389V104.456ZM77.3069 107.552H88.7789V109.112H77.3069V107.552ZM75.6509 109.112H77.3069V113.768H75.6509V109.112ZM88.7789 109.112H90.4349V113.768H88.7789V109.112ZM77.3069 113.768H88.7789V115.328H77.3069V113.768ZM94.928 95.12H106.424V105.992H94.928V95.12ZM96.56 96.656V104.432H104.792V96.656H96.56ZM109.568 95.12H111.224V99.776H112.88V101.336H111.224V105.992H109.568V95.12ZM96.44 107.552H98.096V113.768H111.224V115.328H96.44V107.552ZM57.9436 123.12H69.4396V124.656H59.5996V132.432H57.9436V123.12ZM59.5996 132.432H69.4396V133.992H59.5996V132.432ZM72.5836 123.12H74.2396V127.776H75.8956V129.336H74.2396V133.992H72.5836V123.12ZM61.1116 135.552H72.5836V137.112H61.1116V135.552ZM59.4556 137.112H61.1116V141.768H59.4556V137.112ZM72.5836 137.112H74.2396V141.768H72.5836V137.112ZM61.1116 141.768H72.5836V143.328H61.1116V141.768ZM83.6286 123.12H85.2606V124.68H90.1806V126.216H85.2606V130.896H83.6286V126.216H78.7086V124.68H83.6286V123.12ZM81.9726 130.896H83.6286V132.456H81.9726V130.896ZM85.2606 130.896H86.9166V132.456H85.2606V130.896ZM78.7086 132.456H81.9726V133.992H78.7086V132.456ZM86.9166 132.456H90.1806V133.992H86.9166V132.456ZM93.3486 123.12H95.0046V133.992H93.3486V129.336H90.2046V127.776H93.3486V123.12ZM80.2206 135.552H95.0046V143.328H80.2206V135.552ZM81.8766 137.112V141.768H93.3486V137.112H81.8766ZM97.8342 123.12H109.33V124.68H99.4902V132.456H97.8342V123.12ZM99.4902 132.456H109.33V134.016H99.4902V132.456ZM112.474 123.12H114.154V143.328H112.474V123.12ZM102.706 134.016H104.314V137.088H109.33V138.648H97.8582V137.088H102.706V134.016ZM57.7915 151.12H59.4475V157.336H72.5755V158.896H57.7915V151.12ZM56.2795 160.456H74.2315V162.016H56.2795V160.456ZM57.7915 163.552H59.4475V169.768H72.5755V171.328H57.7915V163.552ZM78.5806 151.12H93.3646V157.336H80.2366V161.992H93.3646V163.552H78.5806V155.776H91.7086V152.656H78.5806V151.12ZM85.1566 163.552H86.7886V168.208H95.0206V169.744H77.0686V168.208H85.1566V163.552ZM99.3696 151.12H114.154V152.656H107.578V161.992H105.946V152.656H101.026V161.992H99.3696V151.12ZM101.026 161.992H105.946V163.552H101.026V161.992ZM107.578 161.992H114.154V163.552H107.578V161.992ZM105.946 163.552H107.578V168.208H115.81V169.744H97.8576V168.208H105.946V163.552ZM59.5756 179.12H67.7836V180.68H59.5756V179.12ZM57.9436 180.68H59.5756V188.456H57.9436V180.68ZM67.7836 180.68H69.4396V188.456H67.7836V180.68ZM59.5756 188.456H67.7836V190.016H59.5756V188.456ZM72.6076 179.12H74.2636V199.328H72.6076V179.12ZM57.9676 193.112H69.4396V194.672H57.9676V193.112ZM78.604 179.12H80.26V182.216H91.732V179.12H93.388V189.992H78.604V179.12ZM80.26 183.776V188.432H91.732V183.776H80.26ZM77.092 191.552H95.044V193.112H86.812V199.328H85.18V193.112H77.092V191.552ZM97.8571 179.12H109.329V180.656H104.409V185.336H102.777V180.656H97.8571V179.12ZM101.121 185.336H102.777V186.896H101.121V185.336ZM104.409 185.336H106.065V186.896H104.409V185.336ZM99.4891 186.896H101.121V188.432H99.4891V186.896ZM106.065 186.896H107.697V188.432H106.065V186.896ZM97.8571 188.432H99.4891V189.992H97.8571V188.432ZM107.697 188.432H109.329V189.992H107.697V188.432ZM112.497 179.12H114.153V189.992H112.497V185.336H109.353V183.776H112.497V179.12ZM99.3691 191.552H114.153V199.328H112.497V193.112H99.3691V191.552Z" fill="black"/>
<path d="M15.1453 214.491C14.4893 214.491 13.9453 214.123 13.9453 213.611C13.9453 213.131 14.4893 212.731 15.1453 212.731C15.8013 212.731 16.3453 213.131 16.3453 213.611C16.3453 214.123 15.8013 214.491 15.1453 214.491ZM15.1453 215.147C16.2333 215.147 17.1133 214.475 17.1133 213.611C17.1133 212.763 16.2333 212.091 15.1453 212.091C14.0573 212.091 13.1773 212.763 13.1773 213.611C13.1773 214.475 14.0573 215.147 15.1453 215.147ZM18.6173 199.551V198.399H20.9213V197.247H22.0733V198.399H24.3773V199.551H22.0733V200.703H20.9213V199.551H18.6173ZM19.7693 201.855V200.703H20.9213V201.855H19.7693ZM19.7693 197.247V196.095H20.9213V197.247H19.7693ZM22.0733 201.855V200.703H23.2253V201.855H22.0733ZM22.0733 197.247V196.095H23.2253V197.247H22.0733ZM25.6253 194.214V193.062H26.7773V194.214H25.6253ZM22.8893 189.759C22.8893 191.087 23.9773 192.191 25.3213 192.191C26.6653 192.191 27.7533 191.087 27.7533 189.759C27.7533 188.399 26.6653 187.311 25.3213 187.311C23.9773 187.311 22.8893 188.399 22.8893 189.759ZM26.9373 189.759C26.9373 190.639 26.2173 191.375 25.3213 191.375C24.4253 191.375 23.7053 190.639 23.7053 189.759C23.7053 188.847 24.4253 188.127 25.3213 188.127C26.2173 188.127 26.9373 188.847 26.9373 189.759ZM25.6253 183.167V182.015H26.7773V183.167H25.6253ZM20.9693 180.12V178.968H22.1213V180.12H20.9693ZM25.5773 180.12V178.968H26.7293V180.12H25.5773ZM17.5773 174.769V173.617H19.8813V171.313H21.0333V172.465H22.1853V173.617H21.0333V174.769H22.1853V175.921H21.0333V177.073H19.8813V174.769H17.5773ZM22.1853 177.073V175.921H23.3373V177.073H22.1853ZM22.1853 172.465V171.313H23.3373V172.465H22.1853ZM19.7693 169.433V168.169H21.0173V169.433H19.7693ZM15.1453 166.757C14.4893 166.757 13.9453 166.389 13.9453 165.877C13.9453 165.397 14.4893 164.997 15.1453 164.997C15.8013 164.997 16.3453 165.397 16.3453 165.877C16.3453 166.389 15.8013 166.757 15.1453 166.757ZM15.1453 167.413C16.2333 167.413 17.1133 166.741 17.1133 165.877C17.1133 165.029 16.2333 164.357 15.1453 164.357C14.0573 164.357 13.1773 165.029 13.1773 165.877C13.1773 166.741 14.0573 167.413 15.1453 167.413ZM18.6173 151.816V150.664H20.9213L20.9213 149.512H22.0733L22.0733 150.664H24.3773V151.816H22.0733V152.968H20.9213V151.816H18.6173ZM19.7693 154.12V152.968H20.9213V154.12H19.7693ZM19.7693 149.512V148.36H20.9213V149.512H19.7693ZM22.0733 154.12V152.968H23.2253V154.12H22.0733ZM22.0733 149.512V148.36H23.2253V149.512H22.0733ZM25.6253 146.48V145.328H26.7773V146.48H25.6253ZM22.8893 142.025C22.8893 143.353 23.9773 144.457 25.3213 144.457C26.6653 144.457 27.7533 143.353 27.7533 142.025C27.7533 140.665 26.6653 139.577 25.3213 139.577C23.9773 139.577 22.8893 140.665 22.8893 142.025ZM26.9373 142.025C26.9373 142.905 26.2173 143.641 25.3213 143.641C24.4253 143.641 23.7053 142.905 23.7053 142.025C23.7053 141.113 24.4253 140.393 25.3213 140.393C26.2173 140.393 26.9373 141.113 26.9373 142.025ZM25.6253 135.433V134.281H26.7773V135.433H25.6253ZM20.9693 132.386V131.234H22.1213V132.386H20.9693ZM25.5773 132.386V131.234H26.7293V132.386H25.5773ZM17.5773 127.035V125.883H19.8813V123.579H21.0333V124.731H22.1853V125.883H21.0333V127.035H22.1853V128.187H21.0333V129.339H19.8813V127.035H17.5773ZM22.1853 129.339V128.187H23.3373V129.339H22.1853ZM22.1853 124.731V123.579H23.3373V124.731H22.1853ZM19.7693 121.698V120.434H21.0173V121.698H19.7693ZM15.1453 119.022C14.4893 119.022 13.9453 118.654 13.9453 118.142C13.9453 117.662 14.4893 117.262 15.1453 117.262C15.8013 117.262 16.3453 117.662 16.3453 118.142C16.3453 118.654 15.8013 119.022 15.1453 119.022ZM15.1453 119.678C16.2333 119.678 17.1133 119.006 17.1133 118.142C17.1133 117.294 16.2333 116.622 15.1453 116.622C14.0573 116.622 13.1773 117.294 13.1773 118.142C13.1773 119.006 14.0573 119.678 15.1453 119.678ZM18.6173 104.082V102.93H20.9213V101.778H22.0733V102.93H24.3773V104.082H22.0733V105.234H20.9213V104.082H18.6173ZM19.7693 106.386V105.234H20.9213V106.386H19.7693ZM19.7693 101.778V100.626H20.9213V101.778H19.7693ZM22.0733 106.386V105.234H23.2253V106.386H22.0733ZM22.0733 101.778V100.626H23.2253V101.778H22.0733ZM25.6253 98.7453V97.5933H26.7773V98.7453H25.6253ZM22.8893 94.2904C22.8893 95.6184 23.9773 96.7224 25.3213 96.7224C26.6653 96.7224 27.7533 95.6184 27.7533 94.2904C27.7533 92.9304 26.6653 91.8424 25.3213 91.8424C23.9773 91.8424 22.8893 92.9304 22.8893 94.2904ZM26.9373 94.2904C26.9373 95.1704 26.2173 95.9064 25.3213 95.9064C24.4253 95.9064 23.7053 95.1704 23.7053 94.2904C23.7053 93.3784 24.4253 92.6584 25.3213 92.6584C26.2173 92.6584 26.9373 93.3784 26.9373 94.2904ZM25.6253 87.6984V86.5464H26.7773V87.6984H25.6253ZM20.9693 84.6515V83.4995H22.1213V84.6515H20.9693ZM25.5773 84.6515V83.4995H26.7293V84.6515H25.5773ZM17.5773 79.3006V78.1486H19.8813V75.8446H21.0333V76.9966H22.1853V78.1486H21.0333V79.3006H22.1853V80.4526H21.0333V81.6046H19.8813V79.3006H17.5773ZM22.1853 81.6046V80.4526H23.3373V81.6046H22.1853ZM22.1853 76.9966V75.8446H23.3373V76.9966H22.1853Z" fill="black"/>
<path d="M156.854 212.713C157.51 212.713 158.054 212.345 158.054 211.833C158.054 211.353 157.51 210.953 156.854 210.953C156.198 210.953 155.654 211.353 155.654 211.833C155.654 212.345 156.198 212.713 156.854 212.713ZM156.854 213.369C155.766 213.369 154.886 212.697 154.886 211.833C154.886 210.985 155.766 210.313 156.854 210.313C157.942 210.313 158.822 210.985 158.822 211.833C158.822 212.697 157.942 213.369 156.854 213.369ZM153.382 197.773V196.621H151.078V195.469H149.926V196.621H147.622V197.773H149.926V198.925H151.078V197.773H153.382ZM152.23 200.077V198.925H151.078V200.077H152.23ZM152.23 195.469V194.317H151.078V195.469H152.23ZM149.926 200.077V198.925H148.774V200.077H149.926ZM149.926 195.469V194.317H148.774V195.469H149.926ZM146.374 192.436V191.284H145.222V192.436H146.374ZM149.11 187.981C149.11 189.309 148.022 190.413 146.678 190.413C145.334 190.413 144.246 189.309 144.246 187.981C144.246 186.621 145.334 185.533 146.678 185.533C148.022 185.533 149.11 186.621 149.11 187.981ZM145.062 187.981C145.062 188.861 145.782 189.597 146.678 189.597C147.574 189.597 148.294 188.861 148.294 187.981C148.294 187.069 147.574 186.349 146.678 186.349C145.782 186.349 145.062 187.069 145.062 187.981ZM146.374 181.389V180.237H145.222V181.389H146.374ZM151.03 178.343V177.191H149.878V178.343H151.03ZM146.422 178.343V177.191H145.27V178.343H146.422ZM154.422 172.992V171.84H152.118V169.536H150.966V170.688H149.814V171.84H150.966V172.992H149.814V174.144H150.966V175.296H152.118V172.992H154.422ZM149.814 175.296V174.144H148.662V175.296H149.814ZM149.814 170.688V169.536H148.662V170.688H149.814ZM152.23 167.655V166.391H150.982V167.655H152.23ZM156.854 164.979C157.51 164.979 158.054 164.611 158.054 164.099C158.054 163.619 157.51 163.219 156.854 163.219C156.198 163.219 155.654 163.619 155.654 164.099C155.654 164.611 156.198 164.979 156.854 164.979ZM156.854 165.635C155.766 165.635 154.886 164.963 154.886 164.099C154.886 163.251 155.766 162.579 156.854 162.579C157.942 162.579 158.822 163.251 158.822 164.099C158.822 164.963 157.942 165.635 156.854 165.635ZM153.382 150.039V148.887H151.078V147.735H149.926V148.887H147.622V150.039H149.926V151.191H151.078V150.039H153.382ZM152.23 152.343V151.191H151.078V152.343H152.23ZM152.23 147.735V146.583H151.078V147.735H152.23ZM149.926 152.343V151.191H148.774V152.343H149.926ZM149.926 147.735V146.583H148.774V147.735H149.926ZM146.374 144.702V143.55H145.222V144.702H146.374ZM149.11 140.247C149.11 141.575 148.022 142.679 146.678 142.679C145.334 142.679 144.246 141.575 144.246 140.247C144.246 138.887 145.334 137.799 146.678 137.799C148.022 137.799 149.11 138.887 149.11 140.247ZM145.062 140.247C145.062 141.127 145.782 141.863 146.678 141.863C147.574 141.863 148.294 141.127 148.294 140.247C148.294 139.335 147.574 138.615 146.678 138.615C145.782 138.615 145.062 139.335 145.062 140.247ZM146.374 133.655V132.503H145.222V133.655H146.374ZM151.03 130.608V129.456H149.878V130.608H151.03ZM146.422 130.608V129.456H145.27V130.608H146.422ZM154.422 125.257V124.105H152.118V121.801H150.966V122.953H149.814V124.105H150.966V125.257H149.814V126.409H150.966V127.561H152.118V125.257H154.422ZM149.814 127.561V126.409H148.662V127.561H149.814ZM149.814 122.953V121.801H148.662V122.953H149.814ZM152.23 119.921V118.657H150.982V119.921H152.23ZM156.854 117.244C157.51 117.244 158.054 116.876 158.054 116.364C158.054 115.884 157.51 115.484 156.854 115.484C156.198 115.484 155.654 115.884 155.654 116.364C155.654 116.876 156.198 117.244 156.854 117.244ZM156.854 117.9C155.766 117.9 154.886 117.228 154.886 116.364C154.886 115.516 155.766 114.844 156.854 114.844C157.942 114.844 158.822 115.516 158.822 116.364C158.822 117.228 157.942 117.9 156.854 117.9ZM153.382 102.304V101.152H151.078V100H149.926V101.152H147.622V102.304H149.926V103.456H151.078V102.304H153.382ZM152.23 104.608V103.456H151.078V104.608H152.23ZM152.23 100V98.8482H151.078V100H152.23ZM149.926 104.608V103.456H148.774V104.608H149.926ZM149.926 100V98.8482H148.774V100H149.926ZM146.374 96.9676V95.8156H145.222V96.9676H146.374ZM149.11 92.5127C149.11 93.8407 148.022 94.9447 146.678 94.9447C145.334 94.9447 144.246 93.8407 144.246 92.5127C144.246 91.1527 145.334 90.0647 146.678 90.0647C148.022 90.0647 149.11 91.1527 149.11 92.5127ZM145.062 92.5127C145.062 93.3927 145.782 94.1287 146.678 94.1287C147.574 94.1287 148.294 93.3927 148.294 92.5127C148.294 91.6007 147.574 90.8807 146.678 90.8807C145.782 90.8807 145.062 91.6007 145.062 92.5127ZM146.374 85.9207V84.7687H145.222V85.9207H146.374ZM151.03 82.8739V81.7219H149.878V82.8739H151.03ZM146.422 82.8739V81.7219H145.27V82.8739H146.422ZM154.422 77.523V76.371H152.118V74.067H150.966V75.219H149.814V76.371H150.966V77.523H149.814V78.675H150.966V79.827H152.118V77.523H154.422ZM149.814 79.827V78.675H148.662V79.827H149.814ZM149.814 75.219V74.067H148.662V75.219H149.814Z" fill="black"/>
<path d="M60.9951 22.7C61.7018 22.7 62.3551 22.8 62.9551 23C63.5685 23.2 64.1085 23.4733 64.5751 23.82L63.9151 25.14C63.5151 24.8333 63.0551 24.5933 62.5351 24.42C62.0285 24.2467 61.5418 24.16 61.0751 24.16C59.4351 24.16 58.6151 24.9667 58.6151 26.58C58.6151 27.5133 58.9418 28.3467 59.5951 29.08C60.2485 29.8133 61.1618 30.3667 62.3351 30.74V38H60.5751V31.66C59.6551 31.22 58.9151 30.72 58.3551 30.16C57.8085 29.5867 57.4151 28.9867 57.1751 28.36C56.9351 27.7333 56.8151 27.12 56.8151 26.52C56.8151 25.3333 57.1685 24.4 57.8751 23.72C58.5818 23.04 59.6218 22.7 60.9951 22.7ZM74.1661 39.8H65.8661V38.52H74.1661V39.8ZM74.1661 42.44H65.8661V41.16H74.1661V42.44ZM71.9661 29.38H74.7261V32.18H71.9661V29.38ZM82.2786 29.24H83.8586V30.8H82.2786V29.24ZM91.4192 29.38H94.1792V32.18H91.4192V29.38ZM103.932 39.8H95.6317V38.52H103.932V39.8ZM103.932 42.44H95.6317V41.16H103.932V42.44ZM103.592 22.7C104.965 22.7 106.005 23.04 106.712 23.72C107.418 24.4 107.772 25.3333 107.772 26.52C107.772 27.12 107.652 27.7333 107.412 28.36C107.172 28.9867 106.778 29.5867 106.232 30.16C105.685 30.72 104.945 31.22 104.012 31.66V38H102.252V30.74C103.438 30.3667 104.352 29.8133 104.992 29.08C105.645 28.3467 105.972 27.5133 105.972 26.58C105.972 24.9667 105.152 24.16 103.512 24.16C103.058 24.16 102.572 24.2467 102.052 24.42C101.532 24.5933 101.072 24.8333 100.672 25.14L100.012 23.82C100.478 23.4733 101.018 23.2 101.632 23C102.245 22.8 102.898 22.7 103.592 22.7ZM52.2618 46.1H53.7018V48.92H52.2618V46.1ZM50.8218 48.92H52.2618V51.72H50.8218V48.92ZM49.3818 51.72H50.8218V54.52H49.3818V51.72ZM47.9418 54.52H49.3818V57.34H47.9418V54.52ZM46.5018 57.34H47.9418V60.14H46.5018V57.34ZM45.0618 60.14H46.5018V62.94H45.0618V60.14ZM66.0132 48.46H70.7532V50.02H66.0132V48.46ZM61.2532 50.02H66.0132V51.6H61.2532V50.02ZM70.7532 50.02H72.3532V51.6H70.7532V50.02ZM72.3532 51.6H73.9332V57.86H72.3532V51.6ZM70.7532 57.86H72.3532V59.44H70.7532V57.86ZM67.5932 59.44H70.7532V61H67.5932V59.44ZM74.8532 46.62H76.4332V48.2H74.8532V46.62ZM76.4332 48.2H78.0132V49.76H76.4332V48.2ZM74.8532 49.76H76.4332V51.32H74.8532V49.76ZM76.4332 51.32H78.0132V52.9H76.4332V51.32ZM83.2543 48.04H86.1343V49.48H83.2543V48.04ZM87.5743 48.04H90.4543V49.48H87.5743V48.04ZM81.8143 49.48H83.2543V50.92H81.8143V49.48ZM86.1343 49.48H87.5743V50.92H86.1343V49.48ZM90.4543 49.48H91.8943V50.92H90.4543V49.48ZM80.3743 50.92H81.8143V55.24H80.3743V50.92ZM91.8943 50.92H93.3343V55.24H91.8943V50.92ZM81.8143 55.24H83.2543V56.68H81.8143V55.24ZM90.4543 55.24H91.8943V56.68H90.4543V55.24ZM83.2543 56.68H84.6943V58.12H83.2543V56.68ZM89.0143 56.68H90.4543V58.12H89.0143V56.68ZM84.6943 58.12H86.1343V59.56H84.6943V58.12ZM87.5743 58.12H89.0143V59.56H87.5743V58.12ZM86.1343 59.56H87.5743V61H86.1343V59.56ZM100.882 52.44H110.962V53.88H100.882V52.44ZM100.882 55.32H110.962V56.76H100.882V55.32ZM117.363 63.5H105.363V62.48H117.363V63.5ZM121.406 66.5H109.406V65.48H121.406V66.5ZM117.363 48.5H105.363V47.48H117.363V48.5ZM121.406 45.5H109.406V44.48H121.406V45.5ZM116.203 48.04H119.083V49.48H116.203V48.04ZM120.523 48.04H123.403V49.48H120.523V48.04ZM114.763 49.48H116.203V50.92H114.763V49.48ZM119.083 49.48H120.523V50.92H119.083V49.48ZM123.403 49.48H124.843V50.92H123.403V49.48ZM113.323 50.92H114.763V55.24H113.323V50.92ZM124.843 50.92H126.283V55.24H124.843V50.92ZM114.763 55.24H116.203V56.68H114.763V55.24ZM123.403 55.24H124.843V56.68H123.403V55.24ZM116.203 56.68H117.643V58.12H116.203V56.68ZM121.963 56.68H123.403V58.12H121.963V56.68ZM117.643 58.12H119.083V59.56H117.643V58.12ZM120.523 58.12H121.963V59.56H120.523V58.12ZM119.083 59.56H120.523V61H119.083V59.56Z" fill="black"/>
<defs>
<linearGradient id="paint0_linear_1184_1828" x1="168.111" y1="12" x2="168.111" y2="252" gradientUnits="userSpaceOnUse">
<stop stop-color="#FFDBF9"/>
<stop offset="1" stop-color="#FF49D7" stop-opacity="0"/>
</linearGradient>
<linearGradient id="paint1_linear_1184_1828" x1="168.111" y1="18.2222" x2="168.111" y2="246.667" gradientUnits="userSpaceOnUse">
<stop stop-color="#FFF3FC"/>
<stop offset="1" stop-color="#FFBBF4" stop-opacity="0"/>
</linearGradient>
<linearGradient id="paint2_linear_1184_1828" x1="85.1111" y1="2" x2="85.1111" y2="242" gradientUnits="userSpaceOnUse">
<stop stop-color="#FFDBF9"/>
<stop offset="1" stop-color="#FF49D7" stop-opacity="0"/>
</linearGradient>
<linearGradient id="paint3_linear_1184_1828" x1="85.1118" y1="8.22217" x2="85.1118" y2="236.667" gradientUnits="userSpaceOnUse">
<stop stop-color="#FFF3FC"/>
<stop offset="1" stop-color="#FFBBF4" stop-opacity="0"/>
</linearGradient>
</defs>
</svg>
