<svg width="238" height="258" viewBox="0 0 238 258" fill="none" xmlns="http://www.w3.org/2000/svg">
<path d="M71.9652 63.3477L104.048 20.0467C105.934 17.5012 108.915 16 112.083 16H193.691C196.837 16 199.8 17.4805 201.688 19.9965L234.22 63.3323C235.519 65.0639 236.222 67.1706 236.222 69.3358V246C236.222 251.523 231.745 256 226.222 256H80C74.4772 256 70 251.523 70 246V69.301C70 67.1572 70.6889 65.0702 71.9652 63.3477Z" fill="white"/>
<path d="M71.9652 63.3477L104.048 20.0467C105.934 17.5012 108.915 16 112.083 16H193.691C196.837 16 199.8 17.4805 201.688 19.9965L234.22 63.3323C235.519 65.0639 236.222 67.1706 236.222 69.3358V246C236.222 251.523 231.745 256 226.222 256H80C74.4772 256 70 251.523 70 246V69.301C70 67.1572 70.6889 65.0702 71.9652 63.3477Z" fill="url(#paint0_linear_1204_2096)"/>
<path d="M71.9652 63.3477L104.048 20.0467C105.934 17.5012 108.915 16 112.083 16H193.691C196.837 16 199.8 17.4805 201.688 19.9965L234.22 63.3323C235.519 65.0639 236.222 67.1706 236.222 69.3358V246C236.222 251.523 231.745 256 226.222 256H80C74.4772 256 70 251.523 70 246V69.301C70 67.1572 70.6889 65.0702 71.9652 63.3477Z" stroke="#AD9AE2" stroke-width="3"/>
<path d="M77.2502 67.1829L107.007 26.3342C108.889 23.7504 111.893 22.2222 115.09 22.2222H190.715C193.89 22.2222 196.876 23.7296 198.761 26.2839L228.934 67.1671C230.204 68.8869 230.889 70.968 230.889 73.1054V240.667C230.889 246.189 226.411 250.667 220.889 250.667H85.333C79.8102 250.667 75.333 246.189 75.333 240.667V73.0709C75.333 70.9548 76.0043 68.8933 77.2502 67.1829Z" fill="url(#paint1_linear_1204_2096)" stroke="#AD9AE2" stroke-width="3"/>
<path d="M126.12 32.952H126.984V33.816H126.12V32.952ZM125.256 33.816H126.12V35.544H125.256V33.816ZM126.984 33.816H127.848V35.544H126.984V33.816ZM124.392 35.544H125.256V37.272H124.392V35.544ZM127.848 35.544H128.712V37.272H127.848V35.544ZM123.528 37.272H124.392V39H123.528V37.272ZM128.712 37.272H129.576V39H128.712V37.272ZM130.992 38.136H137.04V39H130.992V38.136ZM141.049 32.952H141.913V33.816H141.049V32.952ZM140.185 33.816H141.049V35.544H140.185V33.816ZM141.913 33.816H142.777V35.544H141.913V33.816ZM139.321 35.544H140.185V37.272H139.321V35.544ZM142.777 35.544H143.641V37.272H142.777V35.544ZM138.457 37.272H139.321V39H138.457V37.272ZM143.641 37.272H144.505V39H143.641V37.272ZM120.439 44.06H121.303V44.924H120.439V44.06ZM119.575 44.924H120.439V45.788H119.575V44.924ZM118.711 45.788H119.575V51.836H118.711V45.788ZM119.575 51.836H120.439V52.7H119.575V51.836ZM120.439 52.7H121.303V53.564H120.439V52.7ZM124.447 46.1H125.311V47.828H127.039V48.692H126.175V49.556H125.311V48.692H124.447V49.556H123.583V48.692H122.719V47.828H124.447V46.1ZM122.719 49.556H123.583V50.42H122.719V49.556ZM126.175 49.556H127.039V50.42H126.175V49.556ZM131.679 47.444C131.115 47.444 130.671 47.888 130.671 48.44C130.671 49.004 131.115 49.448 131.679 49.448C132.231 49.448 132.687 49.004 132.687 48.44C132.687 47.888 132.231 47.444 131.679 47.444ZM136.731 46.088H137.595V46.952H136.731V46.088ZM138.459 46.088H139.323V46.952H138.459V46.088ZM135.867 46.952H136.731V52.136H137.595V53H135.867V46.952ZM139.323 46.952H140.187V53H138.459V52.136H139.323V46.952ZM137.595 49.544H138.459V52.136H137.595V49.544ZM143.41 47.444C142.846 47.444 142.402 47.888 142.402 48.44C142.402 49.004 142.846 49.448 143.41 49.448C143.962 49.448 144.418 49.004 144.418 48.44C144.418 47.888 143.962 47.444 143.41 47.444ZM147.598 44.06H148.462V44.924H147.598V44.06ZM148.462 44.924H149.326V45.788H148.462V44.924ZM149.326 45.788H150.19V51.836H149.326V45.788ZM148.462 51.836H149.326V52.7H148.462V51.836ZM147.598 52.7H148.462V53.564H147.598V52.7ZM114.176 66.136H120.224V67H114.176V66.136ZM123.369 58.06H124.233V58.924H123.369V58.06ZM122.505 58.924H123.369V59.788H122.505V58.924ZM121.641 59.788H122.505V65.836H121.641V59.788ZM122.505 65.836H123.369V66.7H122.505V65.836ZM123.369 66.7H124.233V67.564H123.369V66.7ZM125.649 66.136H131.697V67H125.649V66.136ZM133.114 66.136H139.162V67H133.114V66.136ZM143.41 59.476H146.266V60.412H143.41V59.476ZM140.566 60.412H143.41V61.36H140.566V60.412ZM146.266 60.412H147.214V61.36H146.266V60.412ZM147.214 61.36H148.162V65.116H147.214V61.36ZM146.266 65.116H147.214V66.064H146.266V65.116ZM144.37 66.064H146.266V67H144.37V66.064ZM153.898 58.06H154.762V59.752H153.898V58.06ZM153.034 59.752H153.898V61.432H153.034V59.752ZM152.17 61.432H153.034V63.112H152.17V61.432ZM151.306 63.112H152.17V64.804H151.306V63.112ZM150.442 64.804H151.306V66.484H150.442V64.804ZM149.578 66.484H150.442V68.164H149.578V66.484ZM156.176 58.348H163.88V59.212H156.176V58.348ZM165.293 58.348H172.997V59.212H165.293V58.348ZM174.41 58.348H182.114V59.212H174.41V58.348ZM187.848 58.06H188.712V59.752H187.848V58.06ZM186.984 59.752H187.848V61.432H186.984V59.752ZM186.12 61.432H186.984V63.112H186.12V61.432ZM185.256 63.112H186.12V64.804H185.256V63.112ZM184.392 64.804H185.256V66.484H184.392V64.804ZM183.528 66.484H184.392V68.164H183.528V66.484ZM190.125 66.136H196.173V67H190.125V66.136ZM135.715 72.36H136.579V74.088H135.715V72.36ZM136.579 74.088H137.443V75.816H136.579V74.088ZM137.443 75.816H138.307V77.544H137.443V75.816ZM138.307 77.544H139.171V79.272H138.307V77.544ZM139.171 79.272H140.035V81H139.171V79.272ZM145.766 72.06H146.63V73.752H145.766V72.06ZM144.902 73.752H145.766V75.432H144.902V73.752ZM144.038 75.432H144.902V77.112H144.038V75.432ZM143.174 77.112H144.038V78.804H143.174V77.112ZM142.31 78.804H143.174V80.484H142.31V78.804ZM141.446 80.484H142.31V82.164H141.446V80.484ZM181.555 72.06H182.419V73.752H181.555V72.06ZM180.691 73.752H181.555V75.432H180.691V73.752ZM179.827 75.432H180.691V77.112H179.827V75.432ZM178.963 77.112H179.827V78.804H178.963V77.112ZM178.099 78.804H178.963V80.484H178.099V78.804ZM177.235 80.484H178.099V82.164H177.235V80.484Z" fill="black"/>
<rect x="99.333" y="88.8889" width="107.556" height="144" rx="10" fill="#F1EBFF" stroke="#AD9AE2" stroke-width="3"/>
<path d="M111.881 118.315H118.108V119.147H112.778V123.359H111.881V118.315ZM112.778 123.359H118.108V124.204H112.778V123.359ZM119.811 118.315H120.708V120.837H121.605V121.682H120.708V124.204H119.811V118.315ZM113.597 125.049H119.811V125.894H113.597V125.049ZM112.7 125.894H113.597V128.416H112.7V125.894ZM119.811 125.894H120.708V128.416H119.811V125.894ZM113.597 128.416H119.811V129.261H113.597V128.416ZM125.794 118.315H126.678V121.682H125.794V118.315ZM124.897 121.682H125.794V122.527H124.897V121.682ZM126.678 121.682H127.575V122.527H126.678V121.682ZM124.013 122.527H124.897V123.372H124.013V122.527ZM127.575 122.527H128.459V123.372H127.575V122.527ZM123.129 123.372H124.013V124.204H123.129V123.372ZM128.459 123.372H129.343V124.204H128.459V123.372ZM131.254 118.315H132.138V124.204H131.254V118.315ZM123.948 125.049H124.845V128.416H131.956V129.261H123.948V125.049ZM134.563 118.315H138.112V119.147H134.563V118.315ZM133.666 119.147H134.563V126.739H133.666V119.147ZM138.112 119.147H139.009V126.739H138.112V119.147ZM134.563 126.739H138.112V127.571H134.563V126.739ZM141.791 118.328H142.675V129.274H141.791V118.328ZM147.58 118.315H148.464V119.992H152.923V118.315H153.807V124.204H147.58V118.315ZM148.464 120.837V123.359H152.923V120.837H148.464ZM155.51 118.315H156.407V120.837H157.304V121.682H156.407V124.204H155.51V118.315ZM148.399 125.049H156.407V125.894H149.296V128.416H156.407V129.261H148.399V125.049ZM160.557 118.315H166.771V119.147H160.557V118.315ZM159.66 119.147H160.557V121.682H159.66V119.147ZM166.771 119.147H167.668V121.682H166.771V119.147ZM160.557 121.682H166.771V122.527H160.557V121.682ZM158.841 123.372H168.565V124.217H158.841V123.372ZM159.66 125.049H160.557V128.416H167.668V129.261H159.66V125.049ZM173.479 118.315H178.822V119.147H174.376V126.739H173.479V118.315ZM177.925 125.894H178.822V126.739H177.925V125.894ZM174.376 126.739H177.925V127.571H174.376V126.739ZM180.525 118.315H181.409V123.372H182.306V118.315H183.203V129.261H182.306V124.204H181.409V129.261H180.525V118.315ZM187.405 118.315H188.302V119.16H190.967V120.005H189.186V120.837H186.521V120.005H184.74V119.16H187.405V118.315ZM185.624 120.837H186.521V123.372H185.624V120.837ZM189.186 120.837H190.07V123.372H189.186V120.837ZM186.521 123.372H189.186V124.217H186.521V123.372ZM192.67 118.315H193.567V120.837H194.464V121.682H193.567V124.204H192.67V118.315ZM185.559 125.049H193.567V129.261H192.67V125.894H185.559V125.049ZM122.837 133.315H130.845V139.217H129.948V134.16H122.837V133.315ZM129.064 139.217H129.948V140.062H129.064V139.217ZM124.618 140.049H125.502V142.558H128.18V140.049H129.064V142.558H131.742V143.403H122.018V142.558H124.618V140.049ZM139.321 133.315H140.218V134.16H142.883V135.005H141.102V135.837H138.437V135.005H136.656V134.16H139.321V133.315ZM137.54 135.837H138.437V138.372H137.54V135.837ZM141.102 135.837H141.986V138.372H141.102V135.837ZM138.437 138.372H141.102V139.217H138.437V138.372ZM144.586 133.315H145.483V135.837H146.38V136.682H145.483V139.204H144.586V133.315ZM137.475 140.049H138.372V141.739H144.586V140.049H145.483V144.261H137.475V140.049ZM138.372 142.571V143.416H144.586V142.571H138.372ZM147.917 133.315H154.144V137.514H153.26V134.147H147.917V133.315ZM152.363 137.514H153.26V138.359H152.363V137.514ZM151.479 138.359H152.363V139.204H151.479V138.359ZM155.99 133.315H156.874V139.204H155.99V137.527H154.209V136.682H155.99V135.837H154.209V134.992H155.99V133.315ZM148.736 140.049H156.744V144.261H155.847V140.894H148.736V140.049ZM162.599 133.315H163.496V134.992H169.71V133.315H170.607V139.204H162.599V133.315ZM163.496 135.837V138.359H169.71V135.837H163.496ZM161.78 140.049H171.504V140.894H167.045V144.261H166.161V140.894H161.78V140.049ZM173.028 133.315H179.242V134.147H176.577V136.682H175.693V134.147H173.028V133.315ZM174.796 136.682H175.693V137.527H174.796V136.682ZM176.577 136.682H177.474V137.527H176.577V136.682ZM173.912 137.527H174.796V138.359H173.912V137.527ZM177.474 137.527H178.358V138.359H177.474V137.527ZM173.028 138.359H173.912V139.204H173.028V138.359ZM178.358 138.359H179.242V139.204H178.358V138.359ZM180.958 133.315H181.855V139.204H180.958V136.682H179.255V135.837H180.958V133.315ZM173.847 140.049H181.855V144.261H180.958V140.894H173.847V140.049ZM183.388 133.315H184.324V141.739H183.388V133.315ZM183.388 142.675H184.324V143.611H183.388V142.675ZM113.572 148.315H117.121V149.147H113.572V148.315ZM112.675 149.147H113.572V156.739H112.675V149.147ZM117.121 149.147H118.018V156.739H117.121V149.147ZM113.572 156.739H117.121V157.571H113.572V156.739ZM120.8 148.328H121.684V159.274H120.8V148.328ZM127.408 148.315H128.305V149.992H134.519V148.315H135.416V154.204H127.408V148.315ZM128.305 150.837V153.359H134.519V150.837H128.305ZM126.589 155.049H136.313V155.894H131.854V159.261H130.97V155.894H126.589V155.049ZM137.836 148.315H144.05V149.147H141.385V151.682H140.501V149.147H137.836V148.315ZM139.604 151.682H140.501V152.527H139.604V151.682ZM141.385 151.682H142.282V152.527H141.385V151.682ZM138.72 152.527H139.604V153.359H138.72V152.527ZM142.282 152.527H143.166V153.359H142.282V152.527ZM137.836 153.359H138.72V154.204H137.836V153.359ZM143.166 153.359H144.05V154.204H143.166V153.359ZM145.766 148.315H146.663V154.204H145.766V151.682H144.063V150.837H145.766V148.315ZM138.655 155.049H146.663V159.261H145.766V155.894H138.655V155.049ZM149.912 148.315H156.126V149.147H149.912V148.315ZM149.015 149.147H149.912V151.682H149.015V149.147ZM156.126 149.147H157.023V151.682H156.126V149.147ZM149.912 151.682H156.126V152.527H149.912V151.682ZM148.196 153.372H157.92V154.217H148.196V153.372ZM149.015 155.049H157.023V157.571H149.912V158.416H157.023V159.261H149.015V156.739H156.126V155.894H149.015V155.049ZM162.834 148.315H169.061V149.147H166.396V154.204H165.512V149.147H162.834V148.315ZM164.615 154.204H165.512V155.894H164.615V154.204ZM166.396 154.204H167.28V155.894H166.396V154.204ZM163.731 155.894H164.615V156.739H163.731V155.894ZM167.28 155.894H168.177V156.739H167.28V155.894ZM162.834 156.739H163.731V157.571H162.834V156.739ZM168.177 156.739H169.061V157.571H168.177V156.739ZM170.985 148.328H171.869V159.274H170.985V148.328ZM173.409 148.315H174.306V156.739H173.409V148.315ZM174.306 156.739H178.752V157.571H174.306V156.739ZM181.534 148.328H182.418V159.274H181.534V148.328ZM184.765 148.315H192.773V154.217H191.876V149.16H184.765V148.315ZM190.992 154.217H191.876V155.062H190.992V154.217ZM188.327 155.049H189.211V157.571H193.67V158.403H183.946V157.571H188.327V155.049ZM108.863 163.315H111.528V164.16H108.863V163.315ZM107.979 164.16H108.863V164.992H107.979V164.16ZM111.528 164.16H112.425V164.992H111.528V164.16ZM107.082 164.992H107.979V167.527H107.082V164.992ZM112.425 164.992H113.309V167.527H112.425V164.992ZM107.979 167.527H108.863V168.372H107.979V167.527ZM111.528 167.527H112.425V168.372H111.528V167.527ZM108.863 168.372H111.528V169.204H108.863V168.372ZM115.207 163.315H116.091V169.204H115.207V163.315ZM109.682 170.049H110.566V172.571H109.682V170.049ZM113.244 170.049H114.128V172.571H113.244V170.049ZM108.798 172.571H109.682V173.416H108.798V172.571ZM110.566 172.571H111.463V173.416H110.566V172.571ZM112.347 172.571H113.244V173.416H112.347V172.571ZM114.128 172.571H115.012V173.416H114.128V172.571ZM107.901 173.416H108.798V174.261H107.901V173.416ZM111.463 173.416H112.347V174.261H111.463V173.416ZM115.012 173.416H115.909V174.261H115.012V173.416ZM120.219 163.315H124.665V164.147H120.219V163.315ZM119.335 164.147H120.219V164.992H119.335V164.147ZM124.665 164.147H125.549V164.992H124.665V164.147ZM118.438 164.992H119.335V168.359H118.438V164.992ZM125.549 164.992H126.446V168.359H125.549V164.992ZM119.335 168.359H120.219V169.204H119.335V168.359ZM124.665 168.359H125.549V169.204H124.665V168.359ZM120.219 169.204H124.665V170.049H120.219V169.204ZM117.619 172.558H127.343V173.403H117.619V172.558ZM128.88 163.315H135.107V169.204H128.88V163.315ZM129.764 164.147V168.359H134.223V164.147H129.764ZM136.953 163.315H137.837V169.204H136.953V167.527H135.172V166.682H136.953V165.837H135.172V164.992H136.953V163.315ZM129.699 170.049H130.596V173.416H137.707V174.261H129.699V170.049ZM142.744 163.315H148.971V164.147H143.641V168.359H142.744V163.315ZM143.641 168.359H148.971V169.204H143.641V168.359ZM150.674 163.315H151.571V165.837H152.468V166.682H151.571V169.204H150.674V163.315ZM144.46 170.049H150.674V170.894H144.46V170.049ZM143.563 170.894H144.46V173.416H143.563V170.894ZM150.674 170.894H151.571V173.416H150.674V170.894ZM144.46 173.416H150.674V174.261H144.46V173.416ZM156.656 163.315H157.54V166.682H156.656V163.315ZM155.759 166.682H156.656V167.527H155.759V166.682ZM157.54 166.682H158.437V167.527H157.54V166.682ZM154.875 167.527H155.759V168.372H154.875V167.527ZM158.437 167.527H159.321V168.372H158.437V167.527ZM153.991 168.372H154.875V169.204H153.991V168.372ZM159.321 168.372H160.205V169.204H159.321V168.372ZM162.116 163.315H163V169.204H162.116V163.315ZM154.81 170.049H155.707V173.416H162.818V174.261H154.81V170.049ZM165.413 163.315H169.859V164.16H165.413V163.315ZM164.529 164.16H165.413V168.372H164.529V164.16ZM169.859 164.16H170.756V168.372H169.859V164.16ZM165.413 168.372H169.859V169.217H165.413V168.372ZM172.472 163.315H173.369V174.261H172.472V163.315ZM164.542 170.894H170.756V171.739H164.542V170.894ZM182.659 163.315H183.543V167.527H182.659V163.315ZM181.762 167.527H182.659V168.372H181.762V167.527ZM183.543 167.527H184.44V168.372H183.543V167.527ZM180.878 168.372H181.762V169.217H180.878V168.372ZM184.44 168.372H185.324V169.217H184.44V168.372ZM179.097 169.217H180.878V170.062H179.097V169.217ZM185.324 169.217H187.105V170.062H185.324V169.217ZM182.659 170.049H183.543V172.571H188.002V173.403H178.278V172.571H182.659V170.049ZM189.538 163.315H195.765V169.204H189.538V163.315ZM190.422 164.147V168.359H194.881V164.147H190.422ZM197.468 163.315H198.365V165.837H199.262V166.682H198.365V169.204H197.468V163.315ZM191.254 170.049H197.468V170.894H191.254V170.049ZM190.357 170.894H191.254V173.416H190.357V170.894ZM197.468 170.894H198.365V173.416H197.468V170.894ZM191.254 173.416H197.468V174.261H191.254V173.416ZM113.038 178.315H116.587V179.147H113.038V178.315ZM112.141 179.147H113.038V186.739H112.141V179.147ZM116.587 179.147H117.484V186.739H116.587V179.147ZM113.038 186.739H116.587V187.571H113.038V186.739ZM120.266 178.328H121.15V189.274H120.266V178.328ZM128.721 178.315H129.618V179.16H132.283V180.005H130.502V180.837H127.837V180.005H126.056V179.16H128.721V178.315ZM126.94 180.837H127.837V183.372H126.94V180.837ZM130.502 180.837H131.386V183.372H130.502V180.837ZM127.837 183.372H130.502V184.217H127.837V183.372ZM134.129 178.315H135.013V184.204H134.129V182.527H132.348V181.682H134.129V180.837H132.348V179.992H134.129V178.315ZM126.875 185.049H127.772V188.416H134.883V189.261H126.875V185.049ZM139.194 178.315H140.078V181.682H139.194V178.315ZM138.297 181.682H139.194V182.527H138.297V181.682ZM140.078 181.682H140.975V182.527H140.078V181.682ZM137.413 182.527H138.297V183.372H137.413V182.527ZM140.975 182.527H141.859V183.372H140.975V182.527ZM136.529 183.372H137.413V184.204H136.529V183.372ZM141.859 183.372H142.743V184.204H141.859V183.372ZM144.654 178.315H145.538V184.204H144.654V178.315ZM137.348 185.049H145.356V187.571H138.245V188.416H145.356V189.261H137.348V186.739H144.459V185.894H137.348V185.049ZM147.963 178.315H151.512V179.147H147.963V178.315ZM147.066 179.147H147.963V186.739H147.066V179.147ZM151.512 179.147H152.409V186.739H151.512V179.147ZM147.963 186.739H151.512V187.571H147.963V186.739ZM155.191 178.328H156.075V189.274H155.191V178.328ZM160.98 178.315H167.207V179.16H161.877V181.682H160.98V178.315ZM161.877 181.682H167.207V182.527H161.877V181.682ZM168.923 178.315H169.82V184.217H168.923V178.315ZM163.658 181.682H164.542V183.372H167.207V184.217H160.993V183.372H163.658V181.682ZM161.812 185.049H162.709V186.739H168.923V185.049H169.82V189.261H161.812V185.049ZM162.709 187.571V188.416H168.923V187.571H162.709ZM171.352 178.315H172.249V186.739H171.352V178.315ZM172.249 186.739H176.695V187.571H172.249V186.739ZM179.477 178.328H180.361V189.274H179.477V178.328ZM181.89 178.315H187.233V179.147H182.787V186.739H181.89V178.315ZM186.336 185.894H187.233V186.739H186.336V185.894ZM182.787 186.739H186.336V187.571H182.787V186.739ZM189.261 178.315H190.158V183.372H191.731V184.217H190.158V189.261H189.261V178.315ZM193.265 187.064H194.201V188H193.265V187.064Z" fill="black"/>
<path d="M83.1453 228.491C82.4893 228.491 81.9453 228.123 81.9453 227.611C81.9453 227.131 82.4893 226.731 83.1453 226.731C83.8013 226.731 84.3453 227.131 84.3453 227.611C84.3453 228.123 83.8013 228.491 83.1453 228.491ZM83.1453 229.147C84.2333 229.147 85.1133 228.475 85.1133 227.611C85.1133 226.763 84.2333 226.091 83.1453 226.091C82.0573 226.091 81.1773 226.763 81.1773 227.611C81.1773 228.475 82.0573 229.147 83.1453 229.147ZM86.6173 213.551V212.399H88.9213V211.247H90.0733V212.399H92.3773V213.551H90.0733V214.703H88.9213V213.551H86.6173ZM87.7693 215.855V214.703H88.9213V215.855H87.7693ZM87.7693 211.247V210.095H88.9213V211.247H87.7693ZM90.0733 215.855V214.703H91.2253V215.855H90.0733ZM90.0733 211.247V210.095H91.2253V211.247H90.0733ZM93.6253 208.214V207.062H94.7773V208.214H93.6253ZM90.8893 203.759C90.8893 205.087 91.9773 206.191 93.3213 206.191C94.6653 206.191 95.7533 205.087 95.7533 203.759C95.7533 202.399 94.6653 201.311 93.3213 201.311C91.9773 201.311 90.8893 202.399 90.8893 203.759ZM94.9373 203.759C94.9373 204.639 94.2173 205.375 93.3213 205.375C92.4253 205.375 91.7053 204.639 91.7053 203.759C91.7053 202.847 92.4253 202.127 93.3213 202.127C94.2173 202.127 94.9373 202.847 94.9373 203.759ZM93.6253 197.167V196.015H94.7773V197.167H93.6253ZM88.9693 194.12V192.968H90.1213V194.12H88.9693ZM93.5773 194.12V192.968H94.7293V194.12H93.5773ZM85.5773 188.77V187.618H87.8813V185.314H89.0333V186.466H90.1853V187.618H89.0333V188.77H90.1853V189.922H89.0333V191.074H87.8813V188.77H85.5773ZM90.1853 191.074V189.922H91.3373V191.074H90.1853ZM90.1853 186.466V185.314H91.3373V186.466H90.1853ZM87.7693 183.433V182.169H89.0173V183.433H87.7693ZM83.1453 180.757C82.4893 180.757 81.9453 180.389 81.9453 179.877C81.9453 179.397 82.4893 178.997 83.1453 178.997C83.8013 178.997 84.3453 179.397 84.3453 179.877C84.3453 180.389 83.8013 180.757 83.1453 180.757ZM83.1453 181.413C84.2333 181.413 85.1133 180.741 85.1133 179.877C85.1133 179.029 84.2333 178.357 83.1453 178.357C82.0573 178.357 81.1773 179.029 81.1773 179.877C81.1773 180.741 82.0573 181.413 83.1453 181.413ZM86.6173 165.816V164.664H88.9213V163.512H90.0733V164.664H92.3773V165.816H90.0733V166.968H88.9213V165.816H86.6173ZM87.7693 168.12V166.968H88.9213V168.12H87.7693ZM87.7693 163.512V162.36H88.9213V163.512H87.7693ZM90.0733 168.12V166.968H91.2253V168.12H90.0733ZM90.0733 163.512V162.36H91.2253V163.512H90.0733ZM93.6253 160.48V159.328H94.7773V160.48H93.6253ZM90.8893 156.025C90.8893 157.353 91.9773 158.457 93.3213 158.457C94.6653 158.457 95.7533 157.353 95.7533 156.025C95.7533 154.665 94.6653 153.577 93.3213 153.577C91.9773 153.577 90.8893 154.665 90.8893 156.025ZM94.9373 156.025C94.9373 156.905 94.2173 157.641 93.3213 157.641C92.4253 157.641 91.7053 156.905 91.7053 156.025C91.7053 155.113 92.4253 154.393 93.3213 154.393C94.2173 154.393 94.9373 155.113 94.9373 156.025ZM93.6253 149.433V148.281H94.7773V149.433H93.6253ZM88.9693 146.386V145.234H90.1213V146.386H88.9693ZM93.5773 146.386V145.234H94.7293V146.386H93.5773ZM85.5773 141.035V139.883H87.8813V137.579H89.0333V138.731H90.1853V139.883H89.0333V141.035H90.1853V142.187H89.0333V143.339H87.8813V141.035H85.5773ZM90.1853 143.339V142.187H91.3373V143.339H90.1853ZM90.1853 138.731V137.579H91.3373V138.731H90.1853ZM87.7693 135.699V134.435H89.0173V135.699H87.7693ZM83.1453 133.022C82.4893 133.022 81.9453 132.654 81.9453 132.142C81.9453 131.662 82.4893 131.262 83.1453 131.262C83.8013 131.262 84.3453 131.662 84.3453 132.142C84.3453 132.654 83.8013 133.022 83.1453 133.022ZM83.1453 133.678C84.2333 133.678 85.1133 133.006 85.1133 132.142C85.1133 131.294 84.2333 130.622 83.1453 130.622C82.0573 130.622 81.1773 131.294 81.1773 132.142C81.1773 133.006 82.0573 133.678 83.1453 133.678ZM86.6173 118.082V116.93H88.9213V115.778H90.0733V116.93H92.3773V118.082H90.0733V119.234H88.9213V118.082H86.6173ZM87.7693 120.386V119.234H88.9213V120.386H87.7693ZM87.7693 115.778V114.626H88.9213V115.778H87.7693ZM90.0733 120.386V119.234H91.2253V120.386H90.0733ZM90.0733 115.778V114.626H91.2253V115.778H90.0733ZM93.6253 112.745V111.593H94.7773V112.745H93.6253ZM90.8893 108.291C90.8893 109.619 91.9773 110.723 93.3213 110.723C94.6653 110.723 95.7533 109.619 95.7533 108.291C95.7533 106.931 94.6653 105.843 93.3213 105.843C91.9773 105.843 90.8893 106.931 90.8893 108.291ZM94.9373 108.291C94.9373 109.171 94.2173 109.907 93.3213 109.907C92.4253 109.907 91.7053 109.171 91.7053 108.291C91.7053 107.379 92.4253 106.659 93.3213 106.659C94.2173 106.659 94.9373 107.379 94.9373 108.291ZM93.6253 101.699V100.547H94.7773V101.699H93.6253ZM88.9693 98.6516V97.4996H90.1213V98.6516H88.9693ZM93.5773 98.6516V97.4996H94.7293V98.6516H93.5773ZM85.5773 93.3008V92.1488H87.8813V89.8448H89.0333V90.9968H90.1853V92.1488H89.0333V93.3008H90.1853V94.4528H89.0333V95.6048H87.8813V93.3008H85.5773ZM90.1853 95.6048V94.4528H91.3373V95.6048H90.1853ZM90.1853 90.9968V89.8448H91.3373V90.9968H90.1853Z" fill="black"/>
<path d="M224.855 226.713C225.511 226.713 226.055 226.345 226.055 225.833C226.055 225.353 225.511 224.953 224.855 224.953C224.199 224.953 223.655 225.353 223.655 225.833C223.655 226.345 224.199 226.713 224.855 226.713ZM224.855 227.369C223.767 227.369 222.887 226.697 222.887 225.833C222.887 224.985 223.767 224.313 224.855 224.313C225.943 224.313 226.823 224.985 226.823 225.833C226.823 226.697 225.943 227.369 224.855 227.369ZM221.383 211.773V210.621H219.079V209.469H217.927V210.621H215.623V211.773H217.927V212.925H219.079V211.773H221.383ZM220.231 214.077V212.925H219.079V214.077H220.231ZM220.231 209.469V208.317H219.079V209.469H220.231ZM217.927 214.077V212.925H216.775V214.077H217.927ZM217.927 209.469V208.317H216.775V209.469H217.927ZM214.375 206.436V205.284H213.223V206.436H214.375ZM217.111 201.981C217.111 203.309 216.023 204.413 214.679 204.413C213.335 204.413 212.247 203.309 212.247 201.981C212.247 200.621 213.335 199.533 214.679 199.533C216.023 199.533 217.111 200.621 217.111 201.981ZM213.063 201.981C213.063 202.861 213.783 203.597 214.679 203.597C215.575 203.597 216.295 202.861 216.295 201.981C216.295 201.069 215.575 200.349 214.679 200.349C213.783 200.349 213.063 201.069 213.063 201.981ZM214.375 195.389V194.237H213.223V195.389H214.375ZM219.031 192.342V191.19H217.879V192.342H219.031ZM214.423 192.342V191.19H213.271V192.342H214.423ZM222.423 186.992V185.84H220.119V183.536H218.967V184.688H217.815V185.84H218.967V186.992H217.815V188.144H218.967V189.296H220.119V186.992H222.423ZM217.815 189.296V188.144H216.663V189.296H217.815ZM217.815 184.688V183.536H216.663V184.688H217.815ZM220.231 181.655V180.391H218.983V181.655H220.231ZM224.855 178.979C225.511 178.979 226.055 178.611 226.055 178.099C226.055 177.619 225.511 177.219 224.855 177.219C224.199 177.219 223.655 177.619 223.655 178.099C223.655 178.611 224.199 178.979 224.855 178.979ZM224.855 179.635C223.767 179.635 222.887 178.963 222.887 178.099C222.887 177.251 223.767 176.579 224.855 176.579C225.943 176.579 226.823 177.251 226.823 178.099C226.823 178.963 225.943 179.635 224.855 179.635ZM221.383 164.038V162.886H219.079V161.734H217.927V162.886H215.623V164.038H217.927V165.19H219.079V164.038H221.383ZM220.231 166.342V165.19H219.079V166.342H220.231ZM220.231 161.734V160.582H219.079V161.734H220.231ZM217.927 166.342V165.19H216.775V166.342H217.927ZM217.927 161.734V160.582H216.775V161.734H217.927ZM214.375 158.702V157.55H213.223V158.702H214.375ZM217.111 154.247C217.111 155.575 216.023 156.679 214.679 156.679C213.335 156.679 212.247 155.575 212.247 154.247C212.247 152.887 213.335 151.799 214.679 151.799C216.023 151.799 217.111 152.887 217.111 154.247ZM213.063 154.247C213.063 155.127 213.783 155.863 214.679 155.863C215.575 155.863 216.295 155.127 216.295 154.247C216.295 153.335 215.575 152.615 214.679 152.615C213.783 152.615 213.063 153.335 213.063 154.247ZM214.375 147.655V146.503H213.223V147.655H214.375ZM219.031 144.608V143.456H217.879V144.608H219.031ZM214.423 144.608V143.456H213.271V144.608H214.423ZM222.423 139.257V138.105H220.119V135.801H218.967V136.953H217.815V138.105H218.967V139.257H217.815V140.409H218.967V141.561H220.119V139.257H222.423ZM217.815 141.561V140.409H216.663V141.561H217.815ZM217.815 136.953V135.801H216.663V136.953H217.815ZM220.231 133.921V132.657H218.983V133.921H220.231ZM224.855 131.244C225.511 131.244 226.055 130.876 226.055 130.364C226.055 129.884 225.511 129.484 224.855 129.484C224.199 129.484 223.655 129.884 223.655 130.364C223.655 130.876 224.199 131.244 224.855 131.244ZM224.855 131.9C223.767 131.9 222.887 131.228 222.887 130.364C222.887 129.516 223.767 128.844 224.855 128.844C225.943 128.844 226.823 129.516 226.823 130.364C226.823 131.228 225.943 131.9 224.855 131.9ZM221.383 116.304V115.152H219.079V114H217.927V115.152H215.623V116.304H217.927V117.456H219.079V116.304H221.383ZM220.231 118.608V117.456H219.079V118.608H220.231ZM220.231 114V112.848H219.079V114H220.231ZM217.927 118.608V117.456H216.775V118.608H217.927ZM217.927 114V112.848H216.775V114H217.927ZM214.375 110.967V109.815H213.223V110.967H214.375ZM217.111 106.513C217.111 107.841 216.023 108.945 214.679 108.945C213.335 108.945 212.247 107.841 212.247 106.513C212.247 105.153 213.335 104.065 214.679 104.065C216.023 104.065 217.111 105.153 217.111 106.513ZM213.063 106.513C213.063 107.393 213.783 108.129 214.679 108.129C215.575 108.129 216.295 107.393 216.295 106.513C216.295 105.601 215.575 104.881 214.679 104.881C213.783 104.881 213.063 105.601 213.063 106.513ZM214.375 99.9206V98.7686H213.223V99.9206H214.375ZM219.031 96.8737V95.7217H217.879V96.8737H219.031ZM214.423 96.8737V95.7217H213.271V96.8737H214.423ZM222.423 91.5229V90.3709H220.119V88.0669H218.967V89.2189H217.815V90.3709H218.967V91.5229H217.815V92.6749H218.967V93.8269H220.119V91.5229H222.423ZM217.815 93.8269V92.6749H216.663V93.8269H217.815ZM217.815 89.2189V88.0669H216.663V89.2189H217.815Z" fill="black"/>
<path d="M3.96516 49.3477L36.0482 6.04673C37.9343 3.50122 40.915 2 44.0831 2H125.691C128.837 2 131.8 3.48051 133.688 5.99652L166.22 49.3323C167.519 51.0639 168.222 53.1706 168.222 55.3358V232C168.222 237.523 163.745 242 158.222 242H12C6.47715 242 2 237.523 2 232V55.301C2 53.1572 2.68892 51.0702 3.96516 49.3477Z" fill="white"/>
<path d="M3.96516 49.3477L36.0482 6.04673C37.9343 3.50122 40.915 2 44.0831 2H125.691C128.837 2 131.8 3.48051 133.688 5.99652L166.22 49.3323C167.519 51.0639 168.222 53.1706 168.222 55.3358V232C168.222 237.523 163.745 242 158.222 242H12C6.47715 242 2 237.523 2 232V55.301C2 53.1572 2.68892 51.0702 3.96516 49.3477Z" fill="url(#paint2_linear_1204_2096)"/>
<path d="M3.96516 49.3477L36.0482 6.04673C37.9343 3.50122 40.915 2 44.0831 2H125.691C128.837 2 131.8 3.48051 133.688 5.99652L166.22 49.3323C167.519 51.0639 168.222 53.1706 168.222 55.3358V232C168.222 237.523 163.745 242 158.222 242H12C6.47715 242 2 237.523 2 232V55.301C2 53.1572 2.68892 51.0702 3.96516 49.3477Z" stroke="#AD9AE2" stroke-width="3"/>
<path d="M9.25021 53.1829L39.0068 12.3342C40.889 9.75041 43.893 8.22217 47.0896 8.22217H122.715C125.89 8.22217 128.876 9.72959 130.761 12.2839L160.934 53.1671C162.204 54.8869 162.889 56.968 162.889 59.1054V226.667C162.889 232.189 158.411 236.667 152.889 236.667H17.333C11.8102 236.667 7.33301 232.189 7.33301 226.667V59.0709C7.33301 56.9548 8.00427 54.8933 9.25021 53.1829Z" fill="url(#paint3_linear_1204_2096)" stroke="#AD9AE2" stroke-width="3"/>
<path d="M58.1196 18.952H58.9836V19.816H58.1196V18.952ZM57.2556 19.816H58.1196V21.544H57.2556V19.816ZM58.9836 19.816H59.8476V21.544H58.9836V19.816ZM56.3916 21.544H57.2556V23.272H56.3916V21.544ZM59.8476 21.544H60.7116V23.272H59.8476V21.544ZM55.5276 23.272H56.3916V25H55.5276V23.272ZM60.7116 23.272H61.5756V25H60.7116V23.272ZM62.9924 24.136H69.0404V25H62.9924V24.136ZM73.0493 18.952H73.9133V19.816H73.0493V18.952ZM72.1853 19.816H73.0493V21.544H72.1853V19.816ZM73.9133 19.816H74.7773V21.544H73.9133V19.816ZM71.3213 21.544H72.1853V23.272H71.3213V21.544ZM74.7773 21.544H75.6413V23.272H74.7773V21.544ZM70.4573 23.272H71.3213V25H70.4573V23.272ZM75.6413 23.272H76.5053V25H75.6413V23.272ZM52.4392 30.06H53.3032V30.924H52.4392V30.06ZM51.5752 30.924H52.4392V31.788H51.5752V30.924ZM50.7112 31.788H51.5752V37.836H50.7112V31.788ZM51.5752 37.836H52.4392V38.7H51.5752V37.836ZM52.4392 38.7H53.3032V39.564H52.4392V38.7ZM56.447 32.1H57.311V33.828H59.039V34.692H58.175V35.556H57.311V34.692H56.447V35.556H55.583V34.692H54.719V33.828H56.447V32.1ZM54.719 35.556H55.583V36.42H54.719V35.556ZM58.175 35.556H59.039V36.42H58.175V35.556ZM63.6794 33.444C63.1154 33.444 62.6714 33.888 62.6714 34.44C62.6714 35.004 63.1154 35.448 63.6794 35.448C64.2314 35.448 64.6874 35.004 64.6874 34.44C64.6874 33.888 64.2314 33.444 63.6794 33.444ZM68.7314 32.088H69.5954V32.952H68.7314V32.088ZM70.4594 32.088H71.3234V32.952H70.4594V32.088ZM67.8674 32.952H68.7314V38.136H69.5954V39H67.8674V32.952ZM71.3234 32.952H72.1874V39H70.4594V38.136H71.3234V32.952ZM69.5954 35.544H70.4594V38.136H69.5954V35.544ZM75.4099 33.444C74.8459 33.444 74.4019 33.888 74.4019 34.44C74.4019 35.004 74.8459 35.448 75.4099 35.448C75.9619 35.448 76.4179 35.004 76.4179 34.44C76.4179 33.888 75.9619 33.444 75.4099 33.444ZM79.5979 30.06H80.4619V30.924H79.5979V30.06ZM80.4619 30.924H81.3259V31.788H80.4619V30.924ZM81.3259 31.788H82.1899V37.836H81.3259V31.788ZM80.4619 37.836H81.3259V38.7H80.4619V37.836ZM79.5979 38.7H80.4619V39.564H79.5979V38.7ZM46.176 52.136H52.224V53H46.176V52.136ZM55.3688 44.06H56.2328V44.924H55.3688V44.06ZM54.5048 44.924H55.3688V45.788H54.5048V44.924ZM53.6408 45.788H54.5048V51.836H53.6408V45.788ZM54.5048 51.836H55.3688V52.7H54.5048V51.836ZM55.3688 52.7H56.2328V53.564H55.3688V52.7ZM57.6487 52.136H63.6967V53H57.6487V52.136ZM65.1135 52.136H71.1615V53H65.1135V52.136ZM75.4103 45.476H78.2663V46.412H75.4103V45.476ZM72.5663 46.412H75.4103V47.36H72.5663V46.412ZM78.2663 46.412H79.2143V47.36H78.2663V46.412ZM79.2143 47.36H80.1623V51.116H79.2143V47.36ZM78.2663 51.116H79.2143V52.064H78.2663V51.116ZM76.3703 52.064H78.2663V53H76.3703V52.064ZM85.8983 44.06H86.7623V45.752H85.8983V44.06ZM85.0343 45.752H85.8983V47.432H85.0343V45.752ZM84.1703 47.432H85.0343V49.112H84.1703V47.432ZM83.3063 49.112H84.1703V50.804H83.3063V49.112ZM82.4423 50.804H83.3063V52.484H82.4423V50.804ZM81.5783 52.484H82.4423V54.164H81.5783V52.484ZM88.176 44.348H95.88V45.212H88.176V44.348ZM97.2932 44.348H104.997V45.212H97.2932V44.348ZM106.41 44.348H114.114V45.212H106.41V44.348ZM119.848 44.06H120.712V45.752H119.848V44.06ZM118.984 45.752H119.848V47.432H118.984V45.752ZM118.12 47.432H118.984V49.112H118.12V47.432ZM117.256 49.112H118.12V50.804H117.256V49.112ZM116.392 50.804H117.256V52.484H116.392V50.804ZM115.528 52.484H116.392V54.164H115.528V52.484ZM122.125 52.136H128.173V53H122.125V52.136ZM67.7151 58.36H68.5791V60.088H67.7151V58.36ZM68.5791 60.088H69.4431V61.816H68.5791V60.088ZM69.4431 61.816H70.3071V63.544H69.4431V61.816ZM70.3071 63.544H71.1711V65.272H70.3071V63.544ZM71.1711 65.272H72.0351V67H71.1711V65.272ZM77.7655 58.06H78.6295V59.752H77.7655V58.06ZM76.9015 59.752H77.7655V61.432H76.9015V59.752ZM76.0375 61.432H76.9015V63.112H76.0375V61.432ZM75.1735 63.112H76.0375V64.804H75.1735V63.112ZM74.3095 64.804H75.1735V66.484H74.3095V64.804ZM73.4455 66.484H74.3095V68.164H73.4455V66.484ZM113.555 58.06H114.419V59.752H113.555V58.06ZM112.691 59.752H113.555V61.432H112.691V59.752ZM111.827 61.432H112.691V63.112H111.827V61.432ZM110.963 63.112H111.827V64.804H110.963V63.112ZM110.099 64.804H110.963V66.484H110.099V64.804ZM109.235 66.484H110.099V68.164H109.235V66.484Z" fill="black"/>
<rect x="31.333" y="74.8889" width="107.556" height="144" rx="10" fill="#F1EBFF" stroke="#AD9AE2" stroke-width="3"/>
<path d="M56.2795 108.12H66.1435V109.656H57.9355V123.672H56.2795V108.12ZM64.4875 122.112H66.1435V123.672H64.4875V122.112ZM57.9355 123.672H64.4875V125.208H57.9355V123.672ZM69.2875 108.12H70.9195V117.456H72.5755V108.12H74.2315V128.328H72.5755V118.992H70.9195V128.328H69.2875V108.12ZM81.9886 108.12H83.6446V109.68H88.5646V111.24H85.2766V112.776H80.3566V111.24H77.0686V109.68H81.9886V108.12ZM78.7006 112.776H80.3566V117.456H78.7006V112.776ZM85.2766 112.776H86.9086V117.456H85.2766V112.776ZM80.3566 117.456H85.2766V119.016H80.3566V117.456ZM91.7086 108.12H93.3646V112.776H95.0206V114.336H93.3646V118.992H91.7086V108.12ZM78.5806 120.552H93.3646V128.328H91.7086V122.112H78.5806V120.552ZM99.3696 108.12H114.154V119.016H112.498V109.68H99.3696V108.12ZM110.866 119.016H112.498V120.576H110.866V119.016ZM102.658 120.552H104.29V125.184H109.234V120.552H110.866V125.184H115.81V126.744H97.8576V125.184H102.658V120.552ZM72.3089 136.12H73.9649V137.68H78.8849V139.24H75.5969V140.776H70.6769V139.24H67.3889V137.68H72.3089V136.12ZM69.0209 140.776H70.6769V145.456H69.0209V140.776ZM75.5969 140.776H77.2289V145.456H75.5969V140.776ZM70.6769 145.456H75.5969V147.016H70.6769V145.456ZM82.0289 136.12H83.6849V140.776H85.3409V142.336H83.6849V146.992H82.0289V136.12ZM68.9009 148.552H70.5569V151.672H82.0289V148.552H83.6849V156.328H68.9009V148.552ZM70.5569 153.208V154.768H82.0289V153.208H70.5569ZM88.178 136.12H99.674V143.872H98.042V137.656H88.178V136.12ZM96.386 143.872H98.042V145.432H96.386V143.872ZM94.754 145.432H96.386V146.992H94.754V145.432ZM103.082 136.12H104.714V146.992H103.082V143.896H99.794V142.336H103.082V140.776H99.794V139.216H103.082V136.12ZM89.69 148.552H104.474V156.328H102.818V150.112H89.69V148.552ZM69.0298 164.12H70.6858V167.216H82.1578V164.12H83.8138V174.992H69.0298V164.12ZM70.6858 168.776V173.432H82.1578V168.776H70.6858ZM67.5178 176.552H85.4698V178.112H77.2378V184.328H75.6058V178.112H67.5178V176.552ZM88.2829 164.12H99.7549V165.656H94.8349V170.336H93.2029V165.656H88.2829V164.12ZM91.5469 170.336H93.2029V171.896H91.5469V170.336ZM94.8349 170.336H96.4909V171.896H94.8349V170.336ZM89.9149 171.896H91.5469V173.432H89.9149V171.896ZM96.4909 171.896H98.1229V173.432H96.4909V171.896ZM88.2829 173.432H89.9149V174.992H88.2829V173.432ZM98.1229 173.432H99.7549V174.992H98.1229V173.432ZM102.923 164.12H104.579V174.992H102.923V170.336H99.7789V168.776H102.923V164.12ZM89.7949 176.552H104.579V184.328H102.923V178.112H89.7949V176.552Z" fill="black"/>
<path d="M15.1453 214.491C14.4893 214.491 13.9453 214.123 13.9453 213.611C13.9453 213.131 14.4893 212.731 15.1453 212.731C15.8013 212.731 16.3453 213.131 16.3453 213.611C16.3453 214.123 15.8013 214.491 15.1453 214.491ZM15.1453 215.147C16.2333 215.147 17.1133 214.475 17.1133 213.611C17.1133 212.763 16.2333 212.091 15.1453 212.091C14.0573 212.091 13.1773 212.763 13.1773 213.611C13.1773 214.475 14.0573 215.147 15.1453 215.147ZM18.6173 199.551V198.399H20.9213V197.247H22.0733V198.399H24.3773V199.551H22.0733V200.703H20.9213V199.551H18.6173ZM19.7693 201.855V200.703H20.9213V201.855H19.7693ZM19.7693 197.247V196.095H20.9213V197.247H19.7693ZM22.0733 201.855V200.703H23.2253V201.855H22.0733ZM22.0733 197.247V196.095H23.2253V197.247H22.0733ZM25.6253 194.214V193.062H26.7773V194.214H25.6253ZM22.8893 189.759C22.8893 191.087 23.9773 192.191 25.3213 192.191C26.6653 192.191 27.7533 191.087 27.7533 189.759C27.7533 188.399 26.6653 187.311 25.3213 187.311C23.9773 187.311 22.8893 188.399 22.8893 189.759ZM26.9373 189.759C26.9373 190.639 26.2173 191.375 25.3213 191.375C24.4253 191.375 23.7053 190.639 23.7053 189.759C23.7053 188.847 24.4253 188.127 25.3213 188.127C26.2173 188.127 26.9373 188.847 26.9373 189.759ZM25.6253 183.167V182.015H26.7773V183.167H25.6253ZM20.9693 180.12V178.968H22.1213V180.12H20.9693ZM25.5773 180.12V178.968H26.7293V180.12H25.5773ZM17.5773 174.77V173.618H19.8813V171.314H21.0333V172.466H22.1853V173.618H21.0333V174.77H22.1853V175.922H21.0333V177.074H19.8813V174.77H17.5773ZM22.1853 177.074V175.922H23.3373V177.074H22.1853ZM22.1853 172.466V171.314H23.3373V172.466H22.1853ZM19.7693 169.433V168.169H21.0173V169.433H19.7693ZM15.1453 166.757C14.4893 166.757 13.9453 166.389 13.9453 165.877C13.9453 165.397 14.4893 164.997 15.1453 164.997C15.8013 164.997 16.3453 165.397 16.3453 165.877C16.3453 166.389 15.8013 166.757 15.1453 166.757ZM15.1453 167.413C16.2333 167.413 17.1133 166.741 17.1133 165.877C17.1133 165.029 16.2333 164.357 15.1453 164.357C14.0573 164.357 13.1773 165.029 13.1773 165.877C13.1773 166.741 14.0573 167.413 15.1453 167.413ZM18.6173 151.816V150.664H20.9213L20.9213 149.512H22.0733L22.0733 150.664H24.3773V151.816H22.0733V152.968H20.9213V151.816H18.6173ZM19.7693 154.12V152.968H20.9213V154.12H19.7693ZM19.7693 149.512V148.36H20.9213V149.512H19.7693ZM22.0733 154.12V152.968H23.2253V154.12H22.0733ZM22.0733 149.512V148.36H23.2253V149.512H22.0733ZM25.6253 146.48V145.328H26.7773V146.48H25.6253ZM22.8893 142.025C22.8893 143.353 23.9773 144.457 25.3213 144.457C26.6653 144.457 27.7533 143.353 27.7533 142.025C27.7533 140.665 26.6653 139.577 25.3213 139.577C23.9773 139.577 22.8893 140.665 22.8893 142.025ZM26.9373 142.025C26.9373 142.905 26.2173 143.641 25.3213 143.641C24.4253 143.641 23.7053 142.905 23.7053 142.025C23.7053 141.113 24.4253 140.393 25.3213 140.393C26.2173 140.393 26.9373 141.113 26.9373 142.025ZM25.6253 135.433V134.281H26.7773V135.433H25.6253ZM20.9693 132.386V131.234H22.1213V132.386H20.9693ZM25.5773 132.386V131.234H26.7293V132.386H25.5773ZM17.5773 127.035V125.883H19.8813V123.579H21.0333V124.731H22.1853V125.883H21.0333V127.035H22.1853V128.187H21.0333V129.339H19.8813V127.035H17.5773ZM22.1853 129.339V128.187H23.3373V129.339H22.1853ZM22.1853 124.731V123.579H23.3373V124.731H22.1853ZM19.7693 121.699V120.435H21.0173V121.699H19.7693ZM15.1453 119.022C14.4893 119.022 13.9453 118.654 13.9453 118.142C13.9453 117.662 14.4893 117.262 15.1453 117.262C15.8013 117.262 16.3453 117.662 16.3453 118.142C16.3453 118.654 15.8013 119.022 15.1453 119.022ZM15.1453 119.678C16.2333 119.678 17.1133 119.006 17.1133 118.142C17.1133 117.294 16.2333 116.622 15.1453 116.622C14.0573 116.622 13.1773 117.294 13.1773 118.142C13.1773 119.006 14.0573 119.678 15.1453 119.678ZM18.6173 104.082V102.93H20.9213V101.778H22.0733V102.93H24.3773V104.082H22.0733V105.234H20.9213V104.082H18.6173ZM19.7693 106.386V105.234H20.9213V106.386H19.7693ZM19.7693 101.778V100.626H20.9213V101.778H19.7693ZM22.0733 106.386V105.234H23.2253V106.386H22.0733ZM22.0733 101.778V100.626H23.2253V101.778H22.0733ZM25.6253 98.7454V97.5934H26.7773V98.7454H25.6253ZM22.8893 94.2905C22.8893 95.6185 23.9773 96.7225 25.3213 96.7225C26.6653 96.7225 27.7533 95.6185 27.7533 94.2905C27.7533 92.9305 26.6653 91.8425 25.3213 91.8425C23.9773 91.8425 22.8893 92.9305 22.8893 94.2905ZM26.9373 94.2905C26.9373 95.1705 26.2173 95.9065 25.3213 95.9065C24.4253 95.9065 23.7053 95.1705 23.7053 94.2905C23.7053 93.3785 24.4253 92.6585 25.3213 92.6585C26.2173 92.6585 26.9373 93.3785 26.9373 94.2905ZM25.6253 87.6985V86.5465H26.7773V87.6985H25.6253ZM20.9693 84.6516V83.4996H22.1213V84.6516H20.9693ZM25.5773 84.6516V83.4996H26.7293V84.6516H25.5773ZM17.5773 79.3008V78.1488H19.8813V75.8448H21.0333V76.9968H22.1853V78.1488H21.0333V79.3008H22.1853V80.4528H21.0333V81.6048H19.8813V79.3008H17.5773ZM22.1853 81.6048V80.4528H23.3373V81.6048H22.1853ZM22.1853 76.9968V75.8448H23.3373V76.9968H22.1853Z" fill="black"/>
<path d="M156.855 212.713C157.511 212.713 158.055 212.345 158.055 211.833C158.055 211.353 157.511 210.953 156.855 210.953C156.199 210.953 155.655 211.353 155.655 211.833C155.655 212.345 156.199 212.713 156.855 212.713ZM156.855 213.369C155.767 213.369 154.887 212.697 154.887 211.833C154.887 210.985 155.767 210.313 156.855 210.313C157.943 210.313 158.823 210.985 158.823 211.833C158.823 212.697 157.943 213.369 156.855 213.369ZM153.383 197.773V196.621H151.079V195.469H149.927V196.621H147.623V197.773H149.927V198.925H151.079V197.773H153.383ZM152.231 200.077V198.925H151.079V200.077H152.231ZM152.231 195.469V194.317H151.079V195.469H152.231ZM149.927 200.077V198.925H148.775V200.077H149.927ZM149.927 195.469V194.317H148.775V195.469H149.927ZM146.375 192.436V191.284H145.223V192.436H146.375ZM149.111 187.981C149.111 189.309 148.023 190.413 146.679 190.413C145.335 190.413 144.247 189.309 144.247 187.981C144.247 186.621 145.335 185.533 146.679 185.533C148.023 185.533 149.111 186.621 149.111 187.981ZM145.063 187.981C145.063 188.861 145.783 189.597 146.679 189.597C147.575 189.597 148.295 188.861 148.295 187.981C148.295 187.069 147.575 186.349 146.679 186.349C145.783 186.349 145.063 187.069 145.063 187.981ZM146.375 181.389V180.237H145.223V181.389H146.375ZM151.031 178.342V177.19H149.879V178.342H151.031ZM146.423 178.342V177.19H145.271V178.342H146.423ZM154.423 172.992V171.84H152.119V169.536H150.967V170.688H149.815V171.84H150.967V172.992H149.815V174.144H150.967V175.296H152.119V172.992H154.423ZM149.815 175.296V174.144H148.663V175.296H149.815ZM149.815 170.688V169.536H148.663V170.688H149.815ZM152.231 167.655V166.391H150.983V167.655H152.231ZM156.855 164.979C157.511 164.979 158.055 164.611 158.055 164.099C158.055 163.619 157.511 163.219 156.855 163.219C156.199 163.219 155.655 163.619 155.655 164.099C155.655 164.611 156.199 164.979 156.855 164.979ZM156.855 165.635C155.767 165.635 154.887 164.963 154.887 164.099C154.887 163.251 155.767 162.579 156.855 162.579C157.943 162.579 158.823 163.251 158.823 164.099C158.823 164.963 157.943 165.635 156.855 165.635ZM153.383 150.038V148.886H151.079V147.734H149.927V148.886H147.623V150.038H149.927V151.19H151.079V150.038H153.383ZM152.231 152.342V151.19H151.079V152.342H152.231ZM152.231 147.734V146.582H151.079V147.734H152.231ZM149.927 152.342V151.19H148.775V152.342H149.927ZM149.927 147.734V146.582H148.775V147.734H149.927ZM146.375 144.702V143.55H145.223V144.702H146.375ZM149.111 140.247C149.111 141.575 148.023 142.679 146.679 142.679C145.335 142.679 144.247 141.575 144.247 140.247C144.247 138.887 145.335 137.799 146.679 137.799C148.023 137.799 149.111 138.887 149.111 140.247ZM145.063 140.247C145.063 141.127 145.783 141.863 146.679 141.863C147.575 141.863 148.295 141.127 148.295 140.247C148.295 139.335 147.575 138.615 146.679 138.615C145.783 138.615 145.063 139.335 145.063 140.247ZM146.375 133.655V132.503H145.223V133.655H146.375ZM151.031 130.608V129.456H149.879V130.608H151.031ZM146.423 130.608V129.456H145.271V130.608H146.423ZM154.423 125.257V124.105H152.119V121.801H150.967V122.953H149.815V124.105H150.967V125.257H149.815V126.409H150.967V127.561H152.119V125.257H154.423ZM149.815 127.561V126.409H148.663V127.561H149.815ZM149.815 122.953V121.801H148.663V122.953H149.815ZM152.231 119.921V118.657H150.983V119.921H152.231ZM156.855 117.244C157.511 117.244 158.055 116.876 158.055 116.364C158.055 115.884 157.511 115.484 156.855 115.484C156.199 115.484 155.655 115.884 155.655 116.364C155.655 116.876 156.199 117.244 156.855 117.244ZM156.855 117.9C155.767 117.9 154.887 117.228 154.887 116.364C154.887 115.516 155.767 114.844 156.855 114.844C157.943 114.844 158.823 115.516 158.823 116.364C158.823 117.228 157.943 117.9 156.855 117.9ZM153.383 102.304V101.152H151.079V100H149.927V101.152H147.623V102.304H149.927V103.456H151.079V102.304H153.383ZM152.231 104.608V103.456H151.079V104.608H152.231ZM152.231 100V98.8481H151.079V100H152.231ZM149.927 104.608V103.456H148.775V104.608H149.927ZM149.927 100V98.8481H148.775V100H149.927ZM146.375 96.9675V95.8155H145.223V96.9675H146.375ZM149.111 92.5126C149.111 93.8406 148.023 94.9446 146.679 94.9446C145.335 94.9446 144.247 93.8406 144.247 92.5126C144.247 91.1526 145.335 90.0646 146.679 90.0646C148.023 90.0646 149.111 91.1526 149.111 92.5126ZM145.063 92.5126C145.063 93.3926 145.783 94.1286 146.679 94.1286C147.575 94.1286 148.295 93.3926 148.295 92.5126C148.295 91.6006 147.575 90.8806 146.679 90.8806C145.783 90.8806 145.063 91.6006 145.063 92.5126ZM146.375 85.9206V84.7686H145.223V85.9206H146.375ZM151.031 82.8737V81.7217H149.879V82.8737H151.031ZM146.423 82.8737V81.7217H145.271V82.8737H146.423ZM154.423 77.5229V76.3709H152.119V74.0669H150.967V75.2189H149.815V76.3709H150.967V77.5229H149.815V78.6749H150.967V79.8269H152.119V77.5229H154.423ZM149.815 79.8269V78.6749H148.663V79.8269H149.815ZM149.815 75.2189V74.0669H148.663V75.2189H149.815Z" fill="black"/>
<defs>
<linearGradient id="paint0_linear_1204_2096" x1="153.111" y1="16" x2="153.111" y2="256" gradientUnits="userSpaceOnUse">
<stop stop-color="#EBDBFF"/>
<stop offset="1" stop-color="#976FD9" stop-opacity="0"/>
</linearGradient>
<linearGradient id="paint1_linear_1204_2096" x1="153.111" y1="22.2222" x2="153.111" y2="250.667" gradientUnits="userSpaceOnUse">
<stop stop-color="#F5F0FF"/>
<stop offset="1" stop-color="#D9BBFF" stop-opacity="0"/>
</linearGradient>
<linearGradient id="paint2_linear_1204_2096" x1="85.1111" y1="2" x2="85.1111" y2="242" gradientUnits="userSpaceOnUse">
<stop stop-color="#EBDBFF"/>
<stop offset="1" stop-color="#976FD9" stop-opacity="0"/>
</linearGradient>
<linearGradient id="paint3_linear_1204_2096" x1="85.1108" y1="8.22217" x2="85.1108" y2="236.667" gradientUnits="userSpaceOnUse">
<stop stop-color="#F5F0FF"/>
<stop offset="1" stop-color="#D9BBFF" stop-opacity="0"/>
</linearGradient>
</defs>
</svg>
