<svg width="253" height="254" viewBox="0 0 253 254" fill="none" xmlns="http://www.w3.org/2000/svg">
<path d="M86.9652 59.3477L119.048 16.0467C120.934 13.5012 123.915 12 127.083 12H208.691C211.837 12 214.8 13.4805 216.688 15.9965L249.22 59.3323C250.519 61.0639 251.222 63.1706 251.222 65.3358V242C251.222 247.523 246.745 252 241.222 252H95C89.4772 252 85 247.523 85 242V65.301C85 63.1572 85.6889 61.0702 86.9652 59.3477Z" fill="white"/>
<path d="M86.9652 59.3477L119.048 16.0467C120.934 13.5012 123.915 12 127.083 12H208.691C211.837 12 214.8 13.4805 216.688 15.9965L249.22 59.3323C250.519 61.0639 251.222 63.1706 251.222 65.3358V242C251.222 247.523 246.745 252 241.222 252H95C89.4772 252 85 247.523 85 242V65.301C85 63.1572 85.6889 61.0702 86.9652 59.3477Z" fill="url(#paint0_linear_1184_1827)"/>
<path d="M86.9652 59.3477L119.048 16.0467C120.934 13.5012 123.915 12 127.083 12H208.691C211.837 12 214.8 13.4805 216.688 15.9965L249.22 59.3323C250.519 61.0639 251.222 63.1706 251.222 65.3358V242C251.222 247.523 246.745 252 241.222 252H95C89.4772 252 85 247.523 85 242V65.301C85 63.1572 85.6889 61.0702 86.9652 59.3477Z" stroke="#BD6ADA" stroke-width="3"/>
<path d="M92.2502 63.1829L122.007 22.3342C123.889 19.7504 126.893 18.2222 130.09 18.2222H205.715C208.89 18.2222 211.876 19.7296 213.761 22.2839L243.934 63.1671C245.204 64.8869 245.889 66.968 245.889 69.1054V236.667C245.889 242.189 241.411 246.667 235.889 246.667H100.333C94.8102 246.667 90.333 242.189 90.333 236.667V69.0709C90.333 66.9548 91.0043 64.8933 92.2502 63.1829Z" fill="url(#paint1_linear_1184_1827)" stroke="#BD6ADA" stroke-width="3"/>
<path d="M141.12 28.952H141.984V29.816H141.12V28.952ZM140.256 29.816H141.12V31.544H140.256V29.816ZM141.984 29.816H142.848V31.544H141.984V29.816ZM139.392 31.544H140.256V33.272H139.392V31.544ZM142.848 31.544H143.712V33.272H142.848V31.544ZM138.528 33.272H139.392V35H138.528V33.272ZM143.712 33.272H144.576V35H143.712V33.272ZM145.992 34.136H152.04V35H145.992V34.136ZM156.049 28.952H156.913V29.816H156.049V28.952ZM155.185 29.816H156.049V31.544H155.185V29.816ZM156.913 29.816H157.777V31.544H156.913V29.816ZM154.321 31.544H155.185V33.272H154.321V31.544ZM157.777 31.544H158.641V33.272H157.777V31.544ZM153.457 33.272H154.321V35H153.457V33.272ZM158.641 33.272H159.505V35H158.641V33.272ZM135.439 40.06H136.303V40.924H135.439V40.06ZM134.575 40.924H135.439V41.788H134.575V40.924ZM133.711 41.788H134.575V47.836H133.711V41.788ZM134.575 47.836H135.439V48.7H134.575V47.836ZM135.439 48.7H136.303V49.564H135.439V48.7ZM139.447 42.1H140.311V43.828H142.039V44.692H141.175V45.556H140.311V44.692H139.447V45.556H138.583V44.692H137.719V43.828H139.447V42.1ZM137.719 45.556H138.583V46.42H137.719V45.556ZM141.175 45.556H142.039V46.42H141.175V45.556ZM146.679 43.444C146.115 43.444 145.671 43.888 145.671 44.44C145.671 45.004 146.115 45.448 146.679 45.448C147.231 45.448 147.687 45.004 147.687 44.44C147.687 43.888 147.231 43.444 146.679 43.444ZM151.731 42.088H152.595V42.952H151.731V42.088ZM153.459 42.088H154.323V42.952H153.459V42.088ZM150.867 42.952H151.731V48.136H152.595V49H150.867V42.952ZM154.323 42.952H155.187V49H153.459V48.136H154.323V42.952ZM152.595 45.544H153.459V48.136H152.595V45.544ZM158.41 43.444C157.846 43.444 157.402 43.888 157.402 44.44C157.402 45.004 157.846 45.448 158.41 45.448C158.962 45.448 159.418 45.004 159.418 44.44C159.418 43.888 158.962 43.444 158.41 43.444ZM162.598 40.06H163.462V40.924H162.598V40.06ZM163.462 40.924H164.326V41.788H163.462V40.924ZM164.326 41.788H165.19V47.836H164.326V41.788ZM163.462 47.836H164.326V48.7H163.462V47.836ZM162.598 48.7H163.462V49.564H162.598V48.7ZM129.176 62.136H135.224V63H129.176V62.136ZM138.369 54.06H139.233V54.924H138.369V54.06ZM137.505 54.924H138.369V55.788H137.505V54.924ZM136.641 55.788H137.505V61.836H136.641V55.788ZM137.505 61.836H138.369V62.7H137.505V61.836ZM138.369 62.7H139.233V63.564H138.369V62.7ZM140.649 62.136H146.697V63H140.649V62.136ZM148.114 62.136H154.162V63H148.114V62.136ZM158.41 55.476H161.266V56.412H158.41V55.476ZM155.566 56.412H158.41V57.36H155.566V56.412ZM161.266 56.412H162.214V57.36H161.266V56.412ZM162.214 57.36H163.162V61.116H162.214V57.36ZM161.266 61.116H162.214V62.064H161.266V61.116ZM159.37 62.064H161.266V63H159.37V62.064ZM168.898 54.06H169.762V55.752H168.898V54.06ZM168.034 55.752H168.898V57.432H168.034V55.752ZM167.17 57.432H168.034V59.112H167.17V57.432ZM166.306 59.112H167.17V60.804H166.306V59.112ZM165.442 60.804H166.306V62.484H165.442V60.804ZM164.578 62.484H165.442V64.164H164.578V62.484ZM171.176 54.348H178.88V55.212H171.176V54.348ZM180.293 54.348H187.997V55.212H180.293V54.348ZM189.41 54.348H197.114V55.212H189.41V54.348ZM202.848 54.06H203.712V55.752H202.848V54.06ZM201.984 55.752H202.848V57.432H201.984V55.752ZM201.12 57.432H201.984V59.112H201.12V57.432ZM200.256 59.112H201.12V60.804H200.256V59.112ZM199.392 60.804H200.256V62.484H199.392V60.804ZM198.528 62.484H199.392V64.164H198.528V62.484ZM205.125 62.136H211.173V63H205.125V62.136ZM150.715 68.36H151.579V70.088H150.715V68.36ZM151.579 70.088H152.443V71.816H151.579V70.088ZM152.443 71.816H153.307V73.544H152.443V71.816ZM153.307 73.544H154.171V75.272H153.307V73.544ZM154.171 75.272H155.035V77H154.171V75.272ZM160.766 68.06H161.63V69.752H160.766V68.06ZM159.902 69.752H160.766V71.432H159.902V69.752ZM159.038 71.432H159.902V73.112H159.038V71.432ZM158.174 73.112H159.038V74.804H158.174V73.112ZM157.31 74.804H158.174V76.484H157.31V74.804ZM156.446 76.484H157.31V78.164H156.446V76.484ZM196.555 68.06H197.419V69.752H196.555V68.06ZM195.691 69.752H196.555V71.432H195.691V69.752ZM194.827 71.432H195.691V73.112H194.827V71.432ZM193.963 73.112H194.827V74.804H193.963V73.112ZM193.099 74.804H193.963V76.484H193.099V74.804ZM192.235 76.484H193.099V78.164H192.235V76.484Z" fill="black"/>
<rect x="114.333" y="84.8889" width="107.556" height="144" rx="10" fill="#FBEBFF" stroke="#BD6ADA" stroke-width="3"/>
<path d="M126.881 114.315H133.108V115.147H127.778V119.359H126.881V114.315ZM127.778 119.359H133.108V120.204H127.778V119.359ZM134.811 114.315H135.708V116.837H136.605V117.682H135.708V120.204H134.811V114.315ZM128.597 121.049H134.811V121.894H128.597V121.049ZM127.7 121.894H128.597V124.416H127.7V121.894ZM134.811 121.894H135.708V124.416H134.811V121.894ZM128.597 124.416H134.811V125.261H128.597V124.416ZM140.794 114.315H141.678V117.682H140.794V114.315ZM139.897 117.682H140.794V118.527H139.897V117.682ZM141.678 117.682H142.575V118.527H141.678V117.682ZM139.013 118.527H139.897V119.372H139.013V118.527ZM142.575 118.527H143.459V119.372H142.575V118.527ZM138.129 119.372H139.013V120.204H138.129V119.372ZM143.459 119.372H144.343V120.204H143.459V119.372ZM146.254 114.315H147.138V120.204H146.254V114.315ZM138.948 121.049H139.845V124.416H146.956V125.261H138.948V121.049ZM149.563 114.315H153.112V115.147H149.563V114.315ZM148.666 115.147H149.563V122.739H148.666V115.147ZM153.112 115.147H154.009V122.739H153.112V115.147ZM149.563 122.739H153.112V123.571H149.563V122.739ZM156.791 114.328H157.675V125.274H156.791V114.328ZM162.58 114.315H163.464V115.992H167.923V114.315H168.807V120.204H162.58V114.315ZM163.464 116.837V119.359H167.923V116.837H163.464ZM170.51 114.315H171.407V116.837H172.304V117.682H171.407V120.204H170.51V114.315ZM163.399 121.049H171.407V121.894H164.296V124.416H171.407V125.261H163.399V121.049ZM175.557 114.315H181.771V115.147H175.557V114.315ZM174.66 115.147H175.557V117.682H174.66V115.147ZM181.771 115.147H182.668V117.682H181.771V115.147ZM175.557 117.682H181.771V118.527H175.557V117.682ZM173.841 119.372H183.565V120.217H173.841V119.372ZM174.66 121.049H175.557V124.416H182.668V125.261H174.66V121.049ZM188.479 114.315H193.822V115.147H189.376V122.739H188.479V114.315ZM192.925 121.894H193.822V122.739H192.925V121.894ZM189.376 122.739H192.925V123.571H189.376V122.739ZM195.525 114.315H196.409V119.372H197.306V114.315H198.203V125.261H197.306V120.204H196.409V125.261H195.525V114.315ZM202.405 114.315H203.302V115.16H205.967V116.005H204.186V116.837H201.521V116.005H199.74V115.16H202.405V114.315ZM200.624 116.837H201.521V119.372H200.624V116.837ZM204.186 116.837H205.07V119.372H204.186V116.837ZM201.521 119.372H204.186V120.217H201.521V119.372ZM207.67 114.315H208.567V116.837H209.464V117.682H208.567V120.204H207.67V114.315ZM200.559 121.049H208.567V125.261H207.67V121.894H200.559V121.049ZM137.837 129.315H145.845V135.217H144.948V130.16H137.837V129.315ZM144.064 135.217H144.948V136.062H144.064V135.217ZM139.618 136.049H140.502V138.558H143.18V136.049H144.064V138.558H146.742V139.403H137.018V138.558H139.618V136.049ZM154.321 129.315H155.218V130.16H157.883V131.005H156.102V131.837H153.437V131.005H151.656V130.16H154.321V129.315ZM152.54 131.837H153.437V134.372H152.54V131.837ZM156.102 131.837H156.986V134.372H156.102V131.837ZM153.437 134.372H156.102V135.217H153.437V134.372ZM159.586 129.315H160.483V131.837H161.38V132.682H160.483V135.204H159.586V129.315ZM152.475 136.049H153.372V137.739H159.586V136.049H160.483V140.261H152.475V136.049ZM153.372 138.571V139.416H159.586V138.571H153.372ZM162.917 129.315H169.144V133.514H168.26V130.147H162.917V129.315ZM167.363 133.514H168.26V134.359H167.363V133.514ZM166.479 134.359H167.363V135.204H166.479V134.359ZM170.99 129.315H171.874V135.204H170.99V133.527H169.209V132.682H170.99V131.837H169.209V130.992H170.99V129.315ZM163.736 136.049H171.744V140.261H170.847V136.894H163.736V136.049ZM177.599 129.315H178.496V130.992H184.71V129.315H185.607V135.204H177.599V129.315ZM178.496 131.837V134.359H184.71V131.837H178.496ZM176.78 136.049H186.504V136.894H182.045V140.261H181.161V136.894H176.78V136.049ZM188.028 129.315H194.242V130.147H191.577V132.682H190.693V130.147H188.028V129.315ZM189.796 132.682H190.693V133.527H189.796V132.682ZM191.577 132.682H192.474V133.527H191.577V132.682ZM188.912 133.527H189.796V134.359H188.912V133.527ZM192.474 133.527H193.358V134.359H192.474V133.527ZM188.028 134.359H188.912V135.204H188.028V134.359ZM193.358 134.359H194.242V135.204H193.358V134.359ZM195.958 129.315H196.855V135.204H195.958V132.682H194.255V131.837H195.958V129.315ZM188.847 136.049H196.855V140.261H195.958V136.894H188.847V136.049ZM198.388 129.315H199.324V137.739H198.388V129.315ZM198.388 138.675H199.324V139.611H198.388V138.675ZM128.572 144.315H132.121V145.147H128.572V144.315ZM127.675 145.147H128.572V152.739H127.675V145.147ZM132.121 145.147H133.018V152.739H132.121V145.147ZM128.572 152.739H132.121V153.571H128.572V152.739ZM135.8 144.328H136.684V155.274H135.8V144.328ZM142.408 144.315H143.305V145.992H149.519V144.315H150.416V150.204H142.408V144.315ZM143.305 146.837V149.359H149.519V146.837H143.305ZM141.589 151.049H151.313V151.894H146.854V155.261H145.97V151.894H141.589V151.049ZM152.836 144.315H159.05V145.147H156.385V147.682H155.501V145.147H152.836V144.315ZM154.604 147.682H155.501V148.527H154.604V147.682ZM156.385 147.682H157.282V148.527H156.385V147.682ZM153.72 148.527H154.604V149.359H153.72V148.527ZM157.282 148.527H158.166V149.359H157.282V148.527ZM152.836 149.359H153.72V150.204H152.836V149.359ZM158.166 149.359H159.05V150.204H158.166V149.359ZM160.766 144.315H161.663V150.204H160.766V147.682H159.063V146.837H160.766V144.315ZM153.655 151.049H161.663V155.261H160.766V151.894H153.655V151.049ZM164.912 144.315H171.126V145.147H164.912V144.315ZM164.015 145.147H164.912V147.682H164.015V145.147ZM171.126 145.147H172.023V147.682H171.126V145.147ZM164.912 147.682H171.126V148.527H164.912V147.682ZM163.196 149.372H172.92V150.217H163.196V149.372ZM164.015 151.049H172.023V153.571H164.912V154.416H172.023V155.261H164.015V152.739H171.126V151.894H164.015V151.049ZM177.834 144.315H184.061V145.147H181.396V150.204H180.512V145.147H177.834V144.315ZM179.615 150.204H180.512V151.894H179.615V150.204ZM181.396 150.204H182.28V151.894H181.396V150.204ZM178.731 151.894H179.615V152.739H178.731V151.894ZM182.28 151.894H183.177V152.739H182.28V151.894ZM177.834 152.739H178.731V153.571H177.834V152.739ZM183.177 152.739H184.061V153.571H183.177V152.739ZM185.985 144.328H186.869V155.274H185.985V144.328ZM188.409 144.315H189.306V152.739H188.409V144.315ZM189.306 152.739H193.752V153.571H189.306V152.739ZM196.534 144.328H197.418V155.274H196.534V144.328ZM199.765 144.315H207.773V150.217H206.876V145.16H199.765V144.315ZM205.992 150.217H206.876V151.062H205.992V150.217ZM203.327 151.049H204.211V153.571H208.67V154.403H198.946V153.571H203.327V151.049ZM123.863 159.315H126.528V160.16H123.863V159.315ZM122.979 160.16H123.863V160.992H122.979V160.16ZM126.528 160.16H127.425V160.992H126.528V160.16ZM122.082 160.992H122.979V163.527H122.082V160.992ZM127.425 160.992H128.309V163.527H127.425V160.992ZM122.979 163.527H123.863V164.372H122.979V163.527ZM126.528 163.527H127.425V164.372H126.528V163.527ZM123.863 164.372H126.528V165.204H123.863V164.372ZM130.207 159.315H131.091V165.204H130.207V159.315ZM124.682 166.049H125.566V168.571H124.682V166.049ZM128.244 166.049H129.128V168.571H128.244V166.049ZM123.798 168.571H124.682V169.416H123.798V168.571ZM125.566 168.571H126.463V169.416H125.566V168.571ZM127.347 168.571H128.244V169.416H127.347V168.571ZM129.128 168.571H130.012V169.416H129.128V168.571ZM122.901 169.416H123.798V170.261H122.901V169.416ZM126.463 169.416H127.347V170.261H126.463V169.416ZM130.012 169.416H130.909V170.261H130.012V169.416ZM135.219 159.315H139.665V160.147H135.219V159.315ZM134.335 160.147H135.219V160.992H134.335V160.147ZM139.665 160.147H140.549V160.992H139.665V160.147ZM133.438 160.992H134.335V164.359H133.438V160.992ZM140.549 160.992H141.446V164.359H140.549V160.992ZM134.335 164.359H135.219V165.204H134.335V164.359ZM139.665 164.359H140.549V165.204H139.665V164.359ZM135.219 165.204H139.665V166.049H135.219V165.204ZM132.619 168.558H142.343V169.403H132.619V168.558ZM143.88 159.315H150.107V165.204H143.88V159.315ZM144.764 160.147V164.359H149.223V160.147H144.764ZM151.953 159.315H152.837V165.204H151.953V163.527H150.172V162.682H151.953V161.837H150.172V160.992H151.953V159.315ZM144.699 166.049H145.596V169.416H152.707V170.261H144.699V166.049ZM157.744 159.315H163.971V160.147H158.641V164.359H157.744V159.315ZM158.641 164.359H163.971V165.204H158.641V164.359ZM165.674 159.315H166.571V161.837H167.468V162.682H166.571V165.204H165.674V159.315ZM159.46 166.049H165.674V166.894H159.46V166.049ZM158.563 166.894H159.46V169.416H158.563V166.894ZM165.674 166.894H166.571V169.416H165.674V166.894ZM159.46 169.416H165.674V170.261H159.46V169.416ZM171.656 159.315H172.54V162.682H171.656V159.315ZM170.759 162.682H171.656V163.527H170.759V162.682ZM172.54 162.682H173.437V163.527H172.54V162.682ZM169.875 163.527H170.759V164.372H169.875V163.527ZM173.437 163.527H174.321V164.372H173.437V163.527ZM168.991 164.372H169.875V165.204H168.991V164.372ZM174.321 164.372H175.205V165.204H174.321V164.372ZM177.116 159.315H178V165.204H177.116V159.315ZM169.81 166.049H170.707V169.416H177.818V170.261H169.81V166.049ZM180.413 159.315H184.859V160.16H180.413V159.315ZM179.529 160.16H180.413V164.372H179.529V160.16ZM184.859 160.16H185.756V164.372H184.859V160.16ZM180.413 164.372H184.859V165.217H180.413V164.372ZM187.472 159.315H188.369V170.261H187.472V159.315ZM179.542 166.894H185.756V167.739H179.542V166.894ZM197.659 159.315H198.543V163.527H197.659V159.315ZM196.762 163.527H197.659V164.372H196.762V163.527ZM198.543 163.527H199.44V164.372H198.543V163.527ZM195.878 164.372H196.762V165.217H195.878V164.372ZM199.44 164.372H200.324V165.217H199.44V164.372ZM194.097 165.217H195.878V166.062H194.097V165.217ZM200.324 165.217H202.105V166.062H200.324V165.217ZM197.659 166.049H198.543V168.571H203.002V169.403H193.278V168.571H197.659V166.049ZM204.538 159.315H210.765V165.204H204.538V159.315ZM205.422 160.147V164.359H209.881V160.147H205.422ZM212.468 159.315H213.365V161.837H214.262V162.682H213.365V165.204H212.468V159.315ZM206.254 166.049H212.468V166.894H206.254V166.049ZM205.357 166.894H206.254V169.416H205.357V166.894ZM212.468 166.894H213.365V169.416H212.468V166.894ZM206.254 169.416H212.468V170.261H206.254V169.416ZM128.038 174.315H131.587V175.147H128.038V174.315ZM127.141 175.147H128.038V182.739H127.141V175.147ZM131.587 175.147H132.484V182.739H131.587V175.147ZM128.038 182.739H131.587V183.571H128.038V182.739ZM135.266 174.328H136.15V185.274H135.266V174.328ZM143.721 174.315H144.618V175.16H147.283V176.005H145.502V176.837H142.837V176.005H141.056V175.16H143.721V174.315ZM141.94 176.837H142.837V179.372H141.94V176.837ZM145.502 176.837H146.386V179.372H145.502V176.837ZM142.837 179.372H145.502V180.217H142.837V179.372ZM149.129 174.315H150.013V180.204H149.129V178.527H147.348V177.682H149.129V176.837H147.348V175.992H149.129V174.315ZM141.875 181.049H142.772V184.416H149.883V185.261H141.875V181.049ZM154.194 174.315H155.078V177.682H154.194V174.315ZM153.297 177.682H154.194V178.527H153.297V177.682ZM155.078 177.682H155.975V178.527H155.078V177.682ZM152.413 178.527H153.297V179.372H152.413V178.527ZM155.975 178.527H156.859V179.372H155.975V178.527ZM151.529 179.372H152.413V180.204H151.529V179.372ZM156.859 179.372H157.743V180.204H156.859V179.372ZM159.654 174.315H160.538V180.204H159.654V174.315ZM152.348 181.049H160.356V183.571H153.245V184.416H160.356V185.261H152.348V182.739H159.459V181.894H152.348V181.049ZM162.963 174.315H166.512V175.147H162.963V174.315ZM162.066 175.147H162.963V182.739H162.066V175.147ZM166.512 175.147H167.409V182.739H166.512V175.147ZM162.963 182.739H166.512V183.571H162.963V182.739ZM170.191 174.328H171.075V185.274H170.191V174.328ZM175.98 174.315H182.207V175.16H176.877V177.682H175.98V174.315ZM176.877 177.682H182.207V178.527H176.877V177.682ZM183.923 174.315H184.82V180.217H183.923V174.315ZM178.658 177.682H179.542V179.372H182.207V180.217H175.993V179.372H178.658V177.682ZM176.812 181.049H177.709V182.739H183.923V181.049H184.82V185.261H176.812V181.049ZM177.709 183.571V184.416H183.923V183.571H177.709ZM186.352 174.315H187.249V182.739H186.352V174.315ZM187.249 182.739H191.695V183.571H187.249V182.739ZM194.477 174.328H195.361V185.274H194.477V174.328ZM196.89 174.315H202.233V175.147H197.787V182.739H196.89V174.315ZM201.336 181.894H202.233V182.739H201.336V181.894ZM197.787 182.739H201.336V183.571H197.787V182.739ZM204.261 174.315H205.158V179.372H206.731V180.217H205.158V185.261H204.261V174.315ZM208.265 183.064H209.201V184H208.265V183.064Z" fill="black"/>
<path d="M98.1453 224.491C97.4893 224.491 96.9453 224.123 96.9453 223.611C96.9453 223.131 97.4893 222.731 98.1453 222.731C98.8013 222.731 99.3453 223.131 99.3453 223.611C99.3453 224.123 98.8013 224.491 98.1453 224.491ZM98.1453 225.147C99.2333 225.147 100.113 224.475 100.113 223.611C100.113 222.763 99.2333 222.091 98.1453 222.091C97.0573 222.091 96.1773 222.763 96.1773 223.611C96.1773 224.475 97.0573 225.147 98.1453 225.147ZM101.617 209.551V208.399H103.921V207.247H105.073V208.399H107.377V209.551H105.073V210.703H103.921V209.551H101.617ZM102.769 211.855V210.703H103.921V211.855H102.769ZM102.769 207.247V206.095H103.921V207.247H102.769ZM105.073 211.855V210.703H106.225V211.855H105.073ZM105.073 207.247V206.095H106.225V207.247H105.073ZM108.625 204.214V203.062H109.777V204.214H108.625ZM105.889 199.759C105.889 201.087 106.977 202.191 108.321 202.191C109.665 202.191 110.753 201.087 110.753 199.759C110.753 198.399 109.665 197.311 108.321 197.311C106.977 197.311 105.889 198.399 105.889 199.759ZM109.937 199.759C109.937 200.639 109.217 201.375 108.321 201.375C107.425 201.375 106.705 200.639 106.705 199.759C106.705 198.847 107.425 198.127 108.321 198.127C109.217 198.127 109.937 198.847 109.937 199.759ZM108.625 193.167V192.015H109.777V193.167H108.625ZM103.969 190.12V188.968H105.121V190.12H103.969ZM108.577 190.12V188.968H109.729V190.12H108.577ZM100.577 184.77V183.618H102.881V181.314H104.033V182.466H105.185V183.618H104.033V184.77H105.185V185.922H104.033V187.074H102.881V184.77H100.577ZM105.185 187.074V185.922H106.337V187.074H105.185ZM105.185 182.466V181.314H106.337V182.466H105.185ZM102.769 179.433V178.169H104.017V179.433H102.769ZM98.1453 176.757C97.4893 176.757 96.9453 176.389 96.9453 175.877C96.9453 175.397 97.4893 174.997 98.1453 174.997C98.8013 174.997 99.3453 175.397 99.3453 175.877C99.3453 176.389 98.8013 176.757 98.1453 176.757ZM98.1453 177.413C99.2333 177.413 100.113 176.741 100.113 175.877C100.113 175.029 99.2333 174.357 98.1453 174.357C97.0573 174.357 96.1773 175.029 96.1773 175.877C96.1773 176.741 97.0573 177.413 98.1453 177.413ZM101.617 161.816V160.664H103.921V159.512H105.073V160.664H107.377V161.816H105.073V162.968H103.921V161.816H101.617ZM102.769 164.12V162.968H103.921V164.12H102.769ZM102.769 159.512V158.36H103.921V159.512H102.769ZM105.073 164.12V162.968H106.225V164.12H105.073ZM105.073 159.512V158.36H106.225V159.512H105.073ZM108.625 156.48V155.328H109.777V156.48H108.625ZM105.889 152.025C105.889 153.353 106.977 154.457 108.321 154.457C109.665 154.457 110.753 153.353 110.753 152.025C110.753 150.665 109.665 149.577 108.321 149.577C106.977 149.577 105.889 150.665 105.889 152.025ZM109.937 152.025C109.937 152.905 109.217 153.641 108.321 153.641C107.425 153.641 106.705 152.905 106.705 152.025C106.705 151.113 107.425 150.393 108.321 150.393C109.217 150.393 109.937 151.113 109.937 152.025ZM108.625 145.433V144.281H109.777V145.433H108.625ZM103.969 142.386V141.234H105.121V142.386H103.969ZM108.577 142.386V141.234H109.729V142.386H108.577ZM100.577 137.035V135.883H102.881V133.579H104.033V134.731H105.185V135.883H104.033V137.035H105.185V138.187H104.033V139.339H102.881V137.035H100.577ZM105.185 139.339V138.187H106.337V139.339H105.185ZM105.185 134.731V133.579H106.337V134.731H105.185ZM102.769 131.699V130.435H104.017V131.699H102.769ZM98.1453 129.022C97.4893 129.022 96.9453 128.654 96.9453 128.142C96.9453 127.662 97.4893 127.262 98.1453 127.262C98.8013 127.262 99.3453 127.662 99.3453 128.142C99.3453 128.654 98.8013 129.022 98.1453 129.022ZM98.1453 129.678C99.2333 129.678 100.113 129.006 100.113 128.142C100.113 127.294 99.2333 126.622 98.1453 126.622C97.0573 126.622 96.1773 127.294 96.1773 128.142C96.1773 129.006 97.0573 129.678 98.1453 129.678ZM101.617 114.082V112.93H103.921V111.778H105.073V112.93H107.377V114.082H105.073V115.234H103.921V114.082H101.617ZM102.769 116.386V115.234H103.921V116.386H102.769ZM102.769 111.778V110.626H103.921V111.778H102.769ZM105.073 116.386V115.234H106.225V116.386H105.073ZM105.073 111.778V110.626H106.225V111.778H105.073ZM108.625 108.745V107.593H109.777V108.745H108.625ZM105.889 104.291C105.889 105.619 106.977 106.723 108.321 106.723C109.665 106.723 110.753 105.619 110.753 104.291C110.753 102.931 109.665 101.843 108.321 101.843C106.977 101.843 105.889 102.931 105.889 104.291ZM109.937 104.291C109.937 105.171 109.217 105.907 108.321 105.907C107.425 105.907 106.705 105.171 106.705 104.291C106.705 103.379 107.425 102.659 108.321 102.659C109.217 102.659 109.937 103.379 109.937 104.291ZM108.625 97.6985V96.5465H109.777V97.6985H108.625ZM103.969 94.6516V93.4996H105.121V94.6516H103.969ZM108.577 94.6516V93.4996H109.729V94.6516H108.577ZM100.577 89.3008V88.1488H102.881V85.8448H104.033V86.9968H105.185V88.1488H104.033V89.3008H105.185V90.4528H104.033V91.6048H102.881V89.3008H100.577ZM105.185 91.6048V90.4528H106.337V91.6048H105.185ZM105.185 86.9968V85.8448H106.337V86.9968H105.185Z" fill="black"/>
<path d="M239.855 222.713C240.511 222.713 241.055 222.345 241.055 221.833C241.055 221.353 240.511 220.953 239.855 220.953C239.199 220.953 238.655 221.353 238.655 221.833C238.655 222.345 239.199 222.713 239.855 222.713ZM239.855 223.369C238.767 223.369 237.887 222.697 237.887 221.833C237.887 220.985 238.767 220.313 239.855 220.313C240.943 220.313 241.823 220.985 241.823 221.833C241.823 222.697 240.943 223.369 239.855 223.369ZM236.383 207.773V206.621H234.079V205.469H232.927V206.621H230.623V207.773H232.927V208.925H234.079V207.773H236.383ZM235.231 210.077V208.925H234.079V210.077H235.231ZM235.231 205.469V204.317H234.079V205.469H235.231ZM232.927 210.077V208.925H231.775V210.077H232.927ZM232.927 205.469V204.317H231.775V205.469H232.927ZM229.375 202.436V201.284H228.223V202.436H229.375ZM232.111 197.981C232.111 199.309 231.023 200.413 229.679 200.413C228.335 200.413 227.247 199.309 227.247 197.981C227.247 196.621 228.335 195.533 229.679 195.533C231.023 195.533 232.111 196.621 232.111 197.981ZM228.063 197.981C228.063 198.861 228.783 199.597 229.679 199.597C230.575 199.597 231.295 198.861 231.295 197.981C231.295 197.069 230.575 196.349 229.679 196.349C228.783 196.349 228.063 197.069 228.063 197.981ZM229.375 191.389V190.237H228.223V191.389H229.375ZM234.031 188.342V187.19H232.879V188.342H234.031ZM229.423 188.342V187.19H228.271V188.342H229.423ZM237.423 182.992V181.84H235.119V179.536H233.967V180.688H232.815V181.84H233.967V182.992H232.815V184.144H233.967V185.296H235.119V182.992H237.423ZM232.815 185.296V184.144H231.663V185.296H232.815ZM232.815 180.688V179.536H231.663V180.688H232.815ZM235.231 177.655V176.391H233.983V177.655H235.231ZM239.855 174.979C240.511 174.979 241.055 174.611 241.055 174.099C241.055 173.619 240.511 173.219 239.855 173.219C239.199 173.219 238.655 173.619 238.655 174.099C238.655 174.611 239.199 174.979 239.855 174.979ZM239.855 175.635C238.767 175.635 237.887 174.963 237.887 174.099C237.887 173.251 238.767 172.579 239.855 172.579C240.943 172.579 241.823 173.251 241.823 174.099C241.823 174.963 240.943 175.635 239.855 175.635ZM236.383 160.038V158.886H234.079V157.734H232.927V158.886H230.623V160.038H232.927V161.19H234.079V160.038H236.383ZM235.231 162.342V161.19H234.079V162.342H235.231ZM235.231 157.734V156.582H234.079V157.734H235.231ZM232.927 162.342V161.19H231.775V162.342H232.927ZM232.927 157.734V156.582H231.775V157.734H232.927ZM229.375 154.702V153.55H228.223V154.702H229.375ZM232.111 150.247C232.111 151.575 231.023 152.679 229.679 152.679C228.335 152.679 227.247 151.575 227.247 150.247C227.247 148.887 228.335 147.799 229.679 147.799C231.023 147.799 232.111 148.887 232.111 150.247ZM228.063 150.247C228.063 151.127 228.783 151.863 229.679 151.863C230.575 151.863 231.295 151.127 231.295 150.247C231.295 149.335 230.575 148.615 229.679 148.615C228.783 148.615 228.063 149.335 228.063 150.247ZM229.375 143.655V142.503H228.223V143.655H229.375ZM234.031 140.608V139.456H232.879V140.608H234.031ZM229.423 140.608V139.456H228.271V140.608H229.423ZM237.423 135.257V134.105H235.119V131.801H233.967V132.953H232.815V134.105H233.967V135.257H232.815V136.409H233.967V137.561H235.119V135.257H237.423ZM232.815 137.561V136.409H231.663V137.561H232.815ZM232.815 132.953V131.801H231.663V132.953H232.815ZM235.231 129.921V128.657H233.983V129.921H235.231ZM239.855 127.244C240.511 127.244 241.055 126.876 241.055 126.364C241.055 125.884 240.511 125.484 239.855 125.484C239.199 125.484 238.655 125.884 238.655 126.364C238.655 126.876 239.199 127.244 239.855 127.244ZM239.855 127.9C238.767 127.9 237.887 127.228 237.887 126.364C237.887 125.516 238.767 124.844 239.855 124.844C240.943 124.844 241.823 125.516 241.823 126.364C241.823 127.228 240.943 127.9 239.855 127.9ZM236.383 112.304V111.152H234.079V110H232.927V111.152H230.623V112.304H232.927V113.456H234.079V112.304H236.383ZM235.231 114.608V113.456H234.079V114.608H235.231ZM235.231 110V108.848H234.079V110H235.231ZM232.927 114.608V113.456H231.775V114.608H232.927ZM232.927 110V108.848H231.775V110H232.927ZM229.375 106.967V105.815H228.223V106.967H229.375ZM232.111 102.513C232.111 103.841 231.023 104.945 229.679 104.945C228.335 104.945 227.247 103.841 227.247 102.513C227.247 101.153 228.335 100.065 229.679 100.065C231.023 100.065 232.111 101.153 232.111 102.513ZM228.063 102.513C228.063 103.393 228.783 104.129 229.679 104.129C230.575 104.129 231.295 103.393 231.295 102.513C231.295 101.601 230.575 100.881 229.679 100.881C228.783 100.881 228.063 101.601 228.063 102.513ZM229.375 95.9206V94.7686H228.223V95.9206H229.375ZM234.031 92.8737V91.7217H232.879V92.8737H234.031ZM229.423 92.8737V91.7217H228.271V92.8737H229.423ZM237.423 87.5229V86.3709H235.119V84.0669H233.967V85.2189H232.815V86.3709H233.967V87.5229H232.815V88.6749H233.967V89.8269H235.119V87.5229H237.423ZM232.815 89.8269V88.6749H231.663V89.8269H232.815ZM232.815 85.2189V84.0669H231.663V85.2189H232.815Z" fill="black"/>
<path d="M3.96516 49.3477L36.0482 6.04673C37.9343 3.50122 40.915 2 44.0831 2H125.691C128.837 2 131.8 3.48051 133.688 5.99652L166.22 49.3323C167.519 51.0639 168.222 53.1706 168.222 55.3358V232C168.222 237.523 163.745 242 158.222 242H12C6.47715 242 2 237.523 2 232V55.301C2 53.1572 2.68892 51.0702 3.96516 49.3477Z" fill="white"/>
<path d="M3.96516 49.3477L36.0482 6.04673C37.9343 3.50122 40.915 2 44.0831 2H125.691C128.837 2 131.8 3.48051 133.688 5.99652L166.22 49.3323C167.519 51.0639 168.222 53.1706 168.222 55.3358V232C168.222 237.523 163.745 242 158.222 242H12C6.47715 242 2 237.523 2 232V55.301C2 53.1572 2.68892 51.0702 3.96516 49.3477Z" fill="url(#paint2_linear_1184_1827)"/>
<path d="M3.96516 49.3477L36.0482 6.04673C37.9343 3.50122 40.915 2 44.0831 2H125.691C128.837 2 131.8 3.48051 133.688 5.99652L166.22 49.3323C167.519 51.0639 168.222 53.1706 168.222 55.3358V232C168.222 237.523 163.745 242 158.222 242H12C6.47715 242 2 237.523 2 232V55.301C2 53.1572 2.68892 51.0702 3.96516 49.3477Z" stroke="#BD6ADA" stroke-width="3"/>
<path d="M9.25021 53.1829L39.0068 12.3342C40.889 9.75041 43.893 8.22217 47.0897 8.22217H122.715C125.89 8.22217 128.876 9.72959 130.761 12.2839L160.934 53.1671C162.204 54.8869 162.889 56.968 162.889 59.1054V226.667C162.889 232.189 158.411 236.667 152.889 236.667H17.333C11.8102 236.667 7.33301 232.189 7.33301 226.667V59.0709C7.33301 56.9548 8.00427 54.8933 9.25021 53.1829Z" fill="url(#paint3_linear_1184_1827)" stroke="#BD6ADA" stroke-width="3"/>
<path d="M58.1196 18.952H58.9836V19.816H58.1196V18.952ZM57.2556 19.816H58.1196V21.544H57.2556V19.816ZM58.9836 19.816H59.8476V21.544H58.9836V19.816ZM56.3916 21.544H57.2556V23.272H56.3916V21.544ZM59.8476 21.544H60.7116V23.272H59.8476V21.544ZM55.5276 23.272H56.3916V25H55.5276V23.272ZM60.7116 23.272H61.5756V25H60.7116V23.272ZM62.9924 24.136H69.0404V25H62.9924V24.136ZM73.0493 18.952H73.9133V19.816H73.0493V18.952ZM72.1853 19.816H73.0493V21.544H72.1853V19.816ZM73.9133 19.816H74.7773V21.544H73.9133V19.816ZM71.3213 21.544H72.1853V23.272H71.3213V21.544ZM74.7773 21.544H75.6413V23.272H74.7773V21.544ZM70.4573 23.272H71.3213V25H70.4573V23.272ZM75.6413 23.272H76.5053V25H75.6413V23.272ZM52.4392 30.06H53.3032V30.924H52.4392V30.06ZM51.5752 30.924H52.4392V31.788H51.5752V30.924ZM50.7112 31.788H51.5752V37.836H50.7112V31.788ZM51.5752 37.836H52.4392V38.7H51.5752V37.836ZM52.4392 38.7H53.3032V39.564H52.4392V38.7ZM56.447 32.1H57.311V33.828H59.039V34.692H58.175V35.556H57.311V34.692H56.447V35.556H55.583V34.692H54.719V33.828H56.447V32.1ZM54.719 35.556H55.583V36.42H54.719V35.556ZM58.175 35.556H59.039V36.42H58.175V35.556ZM63.6794 33.444C63.1154 33.444 62.6714 33.888 62.6714 34.44C62.6714 35.004 63.1154 35.448 63.6794 35.448C64.2314 35.448 64.6874 35.004 64.6874 34.44C64.6874 33.888 64.2314 33.444 63.6794 33.444ZM68.7314 32.088H69.5954V32.952H68.7314V32.088ZM70.4594 32.088H71.3234V32.952H70.4594V32.088ZM67.8674 32.952H68.7314V38.136H69.5954V39H67.8674V32.952ZM71.3234 32.952H72.1874V39H70.4594V38.136H71.3234V32.952ZM69.5954 35.544H70.4594V38.136H69.5954V35.544ZM75.4099 33.444C74.8459 33.444 74.4019 33.888 74.4019 34.44C74.4019 35.004 74.8459 35.448 75.4099 35.448C75.9619 35.448 76.4179 35.004 76.4179 34.44C76.4179 33.888 75.9619 33.444 75.4099 33.444ZM79.5979 30.06H80.4619V30.924H79.5979V30.06ZM80.4619 30.924H81.3259V31.788H80.4619V30.924ZM81.3259 31.788H82.1899V37.836H81.3259V31.788ZM80.4619 37.836H81.3259V38.7H80.4619V37.836ZM79.5979 38.7H80.4619V39.564H79.5979V38.7ZM46.176 52.136H52.224V53H46.176V52.136ZM55.3688 44.06H56.2328V44.924H55.3688V44.06ZM54.5048 44.924H55.3688V45.788H54.5048V44.924ZM53.6408 45.788H54.5048V51.836H53.6408V45.788ZM54.5048 51.836H55.3688V52.7H54.5048V51.836ZM55.3688 52.7H56.2328V53.564H55.3688V52.7ZM57.6487 52.136H63.6967V53H57.6487V52.136ZM65.1135 52.136H71.1615V53H65.1135V52.136ZM75.4103 45.476H78.2663V46.412H75.4103V45.476ZM72.5663 46.412H75.4103V47.36H72.5663V46.412ZM78.2663 46.412H79.2143V47.36H78.2663V46.412ZM79.2143 47.36H80.1623V51.116H79.2143V47.36ZM78.2663 51.116H79.2143V52.064H78.2663V51.116ZM76.3703 52.064H78.2663V53H76.3703V52.064ZM85.8983 44.06H86.7623V45.752H85.8983V44.06ZM85.0343 45.752H85.8983V47.432H85.0343V45.752ZM84.1703 47.432H85.0343V49.112H84.1703V47.432ZM83.3063 49.112H84.1703V50.804H83.3063V49.112ZM82.4423 50.804H83.3063V52.484H82.4423V50.804ZM81.5783 52.484H82.4423V54.164H81.5783V52.484ZM88.176 44.348H95.88V45.212H88.176V44.348ZM97.2932 44.348H104.997V45.212H97.2932V44.348ZM106.41 44.348H114.114V45.212H106.41V44.348ZM119.848 44.06H120.712V45.752H119.848V44.06ZM118.984 45.752H119.848V47.432H118.984V45.752ZM118.12 47.432H118.984V49.112H118.12V47.432ZM117.256 49.112H118.12V50.804H117.256V49.112ZM116.392 50.804H117.256V52.484H116.392V50.804ZM115.528 52.484H116.392V54.164H115.528V52.484ZM122.125 52.136H128.173V53H122.125V52.136ZM67.7151 58.36H68.5791V60.088H67.7151V58.36ZM68.5791 60.088H69.4431V61.816H68.5791V60.088ZM69.4431 61.816H70.3071V63.544H69.4431V61.816ZM70.3071 63.544H71.1711V65.272H70.3071V63.544ZM71.1711 65.272H72.0351V67H71.1711V65.272ZM77.7655 58.06H78.6295V59.752H77.7655V58.06ZM76.9015 59.752H77.7655V61.432H76.9015V59.752ZM76.0375 61.432H76.9015V63.112H76.0375V61.432ZM75.1735 63.112H76.0375V64.804H75.1735V63.112ZM74.3095 64.804H75.1735V66.484H74.3095V64.804ZM73.4455 66.484H74.3095V68.164H73.4455V66.484ZM113.555 58.06H114.419V59.752H113.555V58.06ZM112.691 59.752H113.555V61.432H112.691V59.752ZM111.827 61.432H112.691V63.112H111.827V61.432ZM110.963 63.112H111.827V64.804H110.963V63.112ZM110.099 64.804H110.963V66.484H110.099V64.804ZM109.235 66.484H110.099V68.164H109.235V66.484Z" fill="black"/>
<rect x="31.334" y="74.8889" width="107.556" height="144" rx="10" fill="#FBEBFF" stroke="#BD6ADA" stroke-width="3"/>
<path d="M56.2795 108.12H66.1435V109.656H57.9355V123.672H56.2795V108.12ZM64.4875 122.112H66.1435V123.672H64.4875V122.112ZM57.9355 123.672H64.4875V125.208H57.9355V123.672ZM69.2875 108.12H70.9195V117.456H72.5755V108.12H74.2315V128.328H72.5755V118.992H70.9195V128.328H69.2875V108.12ZM81.9886 108.12H83.6446V109.68H88.5646V111.24H85.2766V112.776H80.3566V111.24H77.0686V109.68H81.9886V108.12ZM78.7006 112.776H80.3566V117.456H78.7006V112.776ZM85.2766 112.776H86.9086V117.456H85.2766V112.776ZM80.3566 117.456H85.2766V119.016H80.3566V117.456ZM91.7086 108.12H93.3646V112.776H95.0206V114.336H93.3646V118.992H91.7086V108.12ZM78.5806 120.552H93.3646V128.328H91.7086V122.112H78.5806V120.552ZM99.3696 108.12H114.154V119.016H112.498V109.68H99.3696V108.12ZM110.866 119.016H112.498V120.576H110.866V119.016ZM102.658 120.552H104.29V125.184H109.234V120.552H110.866V125.184H115.81V126.744H97.8576V125.184H102.658V120.552ZM72.3089 136.12H73.9649V137.68H78.8849V139.24H75.5969V140.776H70.6769V139.24H67.3889V137.68H72.3089V136.12ZM69.0209 140.776H70.6769V145.456H69.0209V140.776ZM75.5969 140.776H77.2289V145.456H75.5969V140.776ZM70.6769 145.456H75.5969V147.016H70.6769V145.456ZM82.0289 136.12H83.6849V140.776H85.3409V142.336H83.6849V146.992H82.0289V136.12ZM68.9009 148.552H70.5569V151.672H82.0289V148.552H83.6849V156.328H68.9009V148.552ZM70.5569 153.208V154.768H82.0289V153.208H70.5569ZM88.178 136.12H99.674V143.872H98.042V137.656H88.178V136.12ZM96.386 143.872H98.042V145.432H96.386V143.872ZM94.754 145.432H96.386V146.992H94.754V145.432ZM103.082 136.12H104.714V146.992H103.082V143.896H99.794V142.336H103.082V140.776H99.794V139.216H103.082V136.12ZM89.69 148.552H104.474V156.328H102.818V150.112H89.69V148.552ZM69.0298 164.12H70.6858V167.216H82.1578V164.12H83.8138V174.992H69.0298V164.12ZM70.6858 168.776V173.432H82.1578V168.776H70.6858ZM67.5178 176.552H85.4698V178.112H77.2378V184.328H75.6058V178.112H67.5178V176.552ZM88.2829 164.12H99.7549V165.656H94.8349V170.336H93.2029V165.656H88.2829V164.12ZM91.5469 170.336H93.2029V171.896H91.5469V170.336ZM94.8349 170.336H96.4909V171.896H94.8349V170.336ZM89.9149 171.896H91.5469V173.432H89.9149V171.896ZM96.4909 171.896H98.1229V173.432H96.4909V171.896ZM88.2829 173.432H89.9149V174.992H88.2829V173.432ZM98.1229 173.432H99.7549V174.992H98.1229V173.432ZM102.923 164.12H104.579V174.992H102.923V170.336H99.7789V168.776H102.923V164.12ZM89.7949 176.552H104.579V184.328H102.923V178.112H89.7949V176.552Z" fill="black"/>
<path d="M15.1453 214.491C14.4893 214.491 13.9453 214.123 13.9453 213.611C13.9453 213.131 14.4893 212.731 15.1453 212.731C15.8013 212.731 16.3453 213.131 16.3453 213.611C16.3453 214.123 15.8013 214.491 15.1453 214.491ZM15.1453 215.147C16.2333 215.147 17.1133 214.475 17.1133 213.611C17.1133 212.763 16.2333 212.091 15.1453 212.091C14.0573 212.091 13.1773 212.763 13.1773 213.611C13.1773 214.475 14.0573 215.147 15.1453 215.147ZM18.6173 199.551V198.399H20.9213V197.247H22.0733V198.399H24.3773V199.551H22.0733V200.703H20.9213V199.551H18.6173ZM19.7693 201.855V200.703H20.9213V201.855H19.7693ZM19.7693 197.247V196.095H20.9213V197.247H19.7693ZM22.0733 201.855V200.703H23.2253V201.855H22.0733ZM22.0733 197.247V196.095H23.2253V197.247H22.0733ZM25.6253 194.214V193.062H26.7773V194.214H25.6253ZM22.8893 189.759C22.8893 191.087 23.9773 192.191 25.3213 192.191C26.6653 192.191 27.7533 191.087 27.7533 189.759C27.7533 188.399 26.6653 187.311 25.3213 187.311C23.9773 187.311 22.8893 188.399 22.8893 189.759ZM26.9373 189.759C26.9373 190.639 26.2173 191.375 25.3213 191.375C24.4253 191.375 23.7053 190.639 23.7053 189.759C23.7053 188.847 24.4253 188.127 25.3213 188.127C26.2173 188.127 26.9373 188.847 26.9373 189.759ZM25.6253 183.167V182.015H26.7773V183.167H25.6253ZM20.9693 180.12V178.968H22.1213V180.12H20.9693ZM25.5773 180.12V178.968H26.7293V180.12H25.5773ZM17.5773 174.77V173.618H19.8813V171.314H21.0333V172.466H22.1853V173.618H21.0333V174.77H22.1853V175.922H21.0333V177.074H19.8813V174.77H17.5773ZM22.1853 177.074V175.922H23.3373V177.074H22.1853ZM22.1853 172.466V171.314H23.3373V172.466H22.1853ZM19.7693 169.433V168.169H21.0173V169.433H19.7693ZM15.1453 166.757C14.4893 166.757 13.9453 166.389 13.9453 165.877C13.9453 165.397 14.4893 164.997 15.1453 164.997C15.8013 164.997 16.3453 165.397 16.3453 165.877C16.3453 166.389 15.8013 166.757 15.1453 166.757ZM15.1453 167.413C16.2333 167.413 17.1133 166.741 17.1133 165.877C17.1133 165.029 16.2333 164.357 15.1453 164.357C14.0573 164.357 13.1773 165.029 13.1773 165.877C13.1773 166.741 14.0573 167.413 15.1453 167.413ZM18.6173 151.816V150.664H20.9213L20.9213 149.512H22.0733L22.0733 150.664H24.3773V151.816H22.0733V152.968H20.9213V151.816H18.6173ZM19.7693 154.12V152.968H20.9213V154.12H19.7693ZM19.7693 149.512V148.36H20.9213V149.512H19.7693ZM22.0733 154.12V152.968H23.2253V154.12H22.0733ZM22.0733 149.512V148.36H23.2253V149.512H22.0733ZM25.6253 146.48V145.328H26.7773V146.48H25.6253ZM22.8893 142.025C22.8893 143.353 23.9773 144.457 25.3213 144.457C26.6653 144.457 27.7533 143.353 27.7533 142.025C27.7533 140.665 26.6653 139.577 25.3213 139.577C23.9773 139.577 22.8893 140.665 22.8893 142.025ZM26.9373 142.025C26.9373 142.905 26.2173 143.641 25.3213 143.641C24.4253 143.641 23.7053 142.905 23.7053 142.025C23.7053 141.113 24.4253 140.393 25.3213 140.393C26.2173 140.393 26.9373 141.113 26.9373 142.025ZM25.6253 135.433V134.281H26.7773V135.433H25.6253ZM20.9693 132.386V131.234H22.1213V132.386H20.9693ZM25.5773 132.386V131.234H26.7293V132.386H25.5773ZM17.5773 127.035V125.883H19.8813V123.579H21.0333V124.731H22.1853V125.883H21.0333V127.035H22.1853V128.187H21.0333V129.339H19.8813V127.035H17.5773ZM22.1853 129.339V128.187H23.3373V129.339H22.1853ZM22.1853 124.731V123.579H23.3373V124.731H22.1853ZM19.7693 121.699V120.435H21.0173V121.699H19.7693ZM15.1453 119.022C14.4893 119.022 13.9453 118.654 13.9453 118.142C13.9453 117.662 14.4893 117.262 15.1453 117.262C15.8013 117.262 16.3453 117.662 16.3453 118.142C16.3453 118.654 15.8013 119.022 15.1453 119.022ZM15.1453 119.678C16.2333 119.678 17.1133 119.006 17.1133 118.142C17.1133 117.294 16.2333 116.622 15.1453 116.622C14.0573 116.622 13.1773 117.294 13.1773 118.142C13.1773 119.006 14.0573 119.678 15.1453 119.678ZM18.6173 104.082V102.93H20.9213V101.778H22.0733V102.93H24.3773V104.082H22.0733V105.234H20.9213V104.082H18.6173ZM19.7693 106.386V105.234H20.9213V106.386H19.7693ZM19.7693 101.778V100.626H20.9213V101.778H19.7693ZM22.0733 106.386V105.234H23.2253V106.386H22.0733ZM22.0733 101.778V100.626H23.2253V101.778H22.0733ZM25.6253 98.7454V97.5934H26.7773V98.7454H25.6253ZM22.8893 94.2905C22.8893 95.6185 23.9773 96.7225 25.3213 96.7225C26.6653 96.7225 27.7533 95.6185 27.7533 94.2905C27.7533 92.9305 26.6653 91.8425 25.3213 91.8425C23.9773 91.8425 22.8893 92.9305 22.8893 94.2905ZM26.9373 94.2905C26.9373 95.1705 26.2173 95.9065 25.3213 95.9065C24.4253 95.9065 23.7053 95.1705 23.7053 94.2905C23.7053 93.3785 24.4253 92.6585 25.3213 92.6585C26.2173 92.6585 26.9373 93.3785 26.9373 94.2905ZM25.6253 87.6985V86.5465H26.7773V87.6985H25.6253ZM20.9693 84.6516V83.4996H22.1213V84.6516H20.9693ZM25.5773 84.6516V83.4996H26.7293V84.6516H25.5773ZM17.5773 79.3008V78.1488H19.8813V75.8448H21.0333V76.9968H22.1853V78.1488H21.0333V79.3008H22.1853V80.4528H21.0333V81.6048H19.8813V79.3008H17.5773ZM22.1853 81.6048V80.4528H23.3373V81.6048H22.1853ZM22.1853 76.9968V75.8448H23.3373V76.9968H22.1853Z" fill="black"/>
<path d="M156.855 212.713C157.511 212.713 158.055 212.345 158.055 211.833C158.055 211.353 157.511 210.953 156.855 210.953C156.199 210.953 155.655 211.353 155.655 211.833C155.655 212.345 156.199 212.713 156.855 212.713ZM156.855 213.369C155.767 213.369 154.887 212.697 154.887 211.833C154.887 210.985 155.767 210.313 156.855 210.313C157.943 210.313 158.823 210.985 158.823 211.833C158.823 212.697 157.943 213.369 156.855 213.369ZM153.383 197.773V196.621H151.079V195.469H149.927V196.621H147.623V197.773H149.927V198.925H151.079V197.773H153.383ZM152.231 200.077V198.925H151.079V200.077H152.231ZM152.231 195.469V194.317H151.079V195.469H152.231ZM149.927 200.077V198.925H148.775V200.077H149.927ZM149.927 195.469V194.317H148.775V195.469H149.927ZM146.375 192.436V191.284H145.223V192.436H146.375ZM149.111 187.981C149.111 189.309 148.023 190.413 146.679 190.413C145.335 190.413 144.247 189.309 144.247 187.981C144.247 186.621 145.335 185.533 146.679 185.533C148.023 185.533 149.111 186.621 149.111 187.981ZM145.063 187.981C145.063 188.861 145.783 189.597 146.679 189.597C147.575 189.597 148.295 188.861 148.295 187.981C148.295 187.069 147.575 186.349 146.679 186.349C145.783 186.349 145.063 187.069 145.063 187.981ZM146.375 181.389V180.237H145.223V181.389H146.375ZM151.031 178.343V177.191H149.879V178.343H151.031ZM146.423 178.343V177.191H145.271V178.343H146.423ZM154.423 172.992V171.84H152.119V169.536H150.967V170.688H149.815V171.84H150.967V172.992H149.815V174.144H150.967V175.296H152.119V172.992H154.423ZM149.815 175.296V174.144H148.663V175.296H149.815ZM149.815 170.688V169.536H148.663V170.688H149.815ZM152.231 167.655V166.391H150.983V167.655H152.231ZM156.855 164.979C157.511 164.979 158.055 164.611 158.055 164.099C158.055 163.619 157.511 163.219 156.855 163.219C156.199 163.219 155.655 163.619 155.655 164.099C155.655 164.611 156.199 164.979 156.855 164.979ZM156.855 165.635C155.767 165.635 154.887 164.963 154.887 164.099C154.887 163.251 155.767 162.579 156.855 162.579C157.943 162.579 158.823 163.251 158.823 164.099C158.823 164.963 157.943 165.635 156.855 165.635ZM153.383 150.039V148.887H151.079V147.735H149.927V148.887H147.623V150.039H149.927V151.191H151.079V150.039H153.383ZM152.231 152.343V151.191H151.079V152.343H152.231ZM152.231 147.735V146.583H151.079V147.735H152.231ZM149.927 152.343V151.191H148.775V152.343H149.927ZM149.927 147.735V146.583H148.775V147.735H149.927ZM146.375 144.702V143.55H145.223V144.702H146.375ZM149.111 140.247C149.111 141.575 148.023 142.679 146.679 142.679C145.335 142.679 144.247 141.575 144.247 140.247C144.247 138.887 145.335 137.799 146.679 137.799C148.023 137.799 149.111 138.887 149.111 140.247ZM145.063 140.247C145.063 141.127 145.783 141.863 146.679 141.863C147.575 141.863 148.295 141.127 148.295 140.247C148.295 139.335 147.575 138.615 146.679 138.615C145.783 138.615 145.063 139.335 145.063 140.247ZM146.375 133.655V132.503H145.223V133.655H146.375ZM151.031 130.608V129.456H149.879V130.608H151.031ZM146.423 130.608V129.456H145.271V130.608H146.423ZM154.423 125.257V124.105H152.119V121.801H150.967V122.953H149.815V124.105H150.967V125.257H149.815V126.409H150.967V127.561H152.119V125.257H154.423ZM149.815 127.561V126.409H148.663V127.561H149.815ZM149.815 122.953V121.801H148.663V122.953H149.815ZM152.231 119.921V118.657H150.983V119.921H152.231ZM156.855 117.244C157.511 117.244 158.055 116.876 158.055 116.364C158.055 115.884 157.511 115.484 156.855 115.484C156.199 115.484 155.655 115.884 155.655 116.364C155.655 116.876 156.199 117.244 156.855 117.244ZM156.855 117.9C155.767 117.9 154.887 117.228 154.887 116.364C154.887 115.516 155.767 114.844 156.855 114.844C157.943 114.844 158.823 115.516 158.823 116.364C158.823 117.228 157.943 117.9 156.855 117.9ZM153.383 102.304V101.152H151.079V100H149.927V101.152H147.623V102.304H149.927V103.456H151.079V102.304H153.383ZM152.231 104.608V103.456H151.079V104.608H152.231ZM152.231 100V98.8482H151.079V100H152.231ZM149.927 104.608V103.456H148.775V104.608H149.927ZM149.927 100V98.8482H148.775V100H149.927ZM146.375 96.9676V95.8156H145.223V96.9676H146.375ZM149.111 92.5127C149.111 93.8407 148.023 94.9447 146.679 94.9447C145.335 94.9447 144.247 93.8407 144.247 92.5127C144.247 91.1527 145.335 90.0647 146.679 90.0647C148.023 90.0647 149.111 91.1527 149.111 92.5127ZM145.063 92.5127C145.063 93.3927 145.783 94.1287 146.679 94.1287C147.575 94.1287 148.295 93.3927 148.295 92.5127C148.295 91.6007 147.575 90.8807 146.679 90.8807C145.783 90.8807 145.063 91.6007 145.063 92.5127ZM146.375 85.9207V84.7687H145.223V85.9207H146.375ZM151.031 82.8739V81.7219H149.879V82.8739H151.031ZM146.423 82.8739V81.7219H145.271V82.8739H146.423ZM154.423 77.523V76.371H152.119V74.067H150.967V75.219H149.815V76.371H150.967V77.523H149.815V78.675H150.967V79.827H152.119V77.523H154.423ZM149.815 79.827V78.675H148.663V79.827H149.815ZM149.815 75.219V74.067H148.663V75.219H149.815Z" fill="black"/>
<defs>
<linearGradient id="paint0_linear_1184_1827" x1="168.111" y1="12" x2="168.111" y2="252" gradientUnits="userSpaceOnUse">
<stop stop-color="#EBDBFF"/>
<stop offset="1" stop-color="#962BEB" stop-opacity="0"/>
</linearGradient>
<linearGradient id="paint1_linear_1184_1827" x1="168.111" y1="18.2222" x2="168.111" y2="246.667" gradientUnits="userSpaceOnUse">
<stop stop-color="#FFF3FC"/>
<stop offset="1" stop-color="#FFBBF4" stop-opacity="0"/>
</linearGradient>
<linearGradient id="paint2_linear_1184_1827" x1="85.1111" y1="2" x2="85.1111" y2="242" gradientUnits="userSpaceOnUse">
<stop stop-color="#EBDBFF"/>
<stop offset="1" stop-color="#962BEB" stop-opacity="0"/>
</linearGradient>
<linearGradient id="paint3_linear_1184_1827" x1="85.1108" y1="8.22217" x2="85.1108" y2="236.667" gradientUnits="userSpaceOnUse">
<stop stop-color="#FFF3FC"/>
<stop offset="1" stop-color="#FFBBF4" stop-opacity="0"/>
</linearGradient>
</defs>
</svg>
