<svg width="238" height="258" viewBox="0 0 238 258" fill="none" xmlns="http://www.w3.org/2000/svg">
<path d="M71.9652 63.3477L104.048 20.0467C105.934 17.5012 108.915 16 112.083 16H193.691C196.837 16 199.8 17.4805 201.688 19.9965L234.22 63.3323C235.519 65.0639 236.222 67.1706 236.222 69.3358V246C236.222 251.523 231.745 256 226.222 256H80C74.4772 256 70 251.523 70 246V69.301C70 67.1572 70.6889 65.0702 71.9652 63.3477Z" fill="white"/>
<path d="M71.9652 63.3477L104.048 20.0467C105.934 17.5012 108.915 16 112.083 16H193.691C196.837 16 199.8 17.4805 201.688 19.9965L234.22 63.3323C235.519 65.0639 236.222 67.1706 236.222 69.3358V246C236.222 251.523 231.745 256 226.222 256H80C74.4772 256 70 251.523 70 246V69.301C70 67.1572 70.6889 65.0702 71.9652 63.3477Z" fill="url(#paint0_linear_1204_2113)"/>
<path d="M71.9652 63.3477L104.048 20.0467C105.934 17.5012 108.915 16 112.083 16H193.691C196.837 16 199.8 17.4805 201.688 19.9965L234.22 63.3323C235.519 65.0639 236.222 67.1706 236.222 69.3358V246C236.222 251.523 231.745 256 226.222 256H80C74.4772 256 70 251.523 70 246V69.301C70 67.1572 70.6889 65.0702 71.9652 63.3477Z" stroke="#A3C3E0" stroke-width="3"/>
<path d="M77.2502 67.1829L107.007 26.3342C108.889 23.7504 111.893 22.2222 115.09 22.2222H190.715C193.89 22.2222 196.876 23.7296 198.761 26.2839L228.934 67.1671C230.204 68.8869 230.889 70.968 230.889 73.1054V240.667C230.889 246.189 226.411 250.667 220.889 250.667H85.333C79.8102 250.667 75.333 246.189 75.333 240.667V73.0709C75.333 70.9548 76.0043 68.8933 77.2502 67.1829Z" fill="url(#paint1_linear_1204_2113)" stroke="#A3C3E0" stroke-width="3"/>
<rect x="99.333" y="88.8889" width="107.556" height="144" rx="10" fill="#E2EEFF" stroke="#A3C3E0" stroke-width="3"/>
<path d="M83.1453 228.491C82.4893 228.491 81.9453 228.123 81.9453 227.611C81.9453 227.131 82.4893 226.731 83.1453 226.731C83.8013 226.731 84.3453 227.131 84.3453 227.611C84.3453 228.123 83.8013 228.491 83.1453 228.491ZM83.1453 229.147C84.2333 229.147 85.1133 228.475 85.1133 227.611C85.1133 226.763 84.2333 226.091 83.1453 226.091C82.0573 226.091 81.1773 226.763 81.1773 227.611C81.1773 228.475 82.0573 229.147 83.1453 229.147ZM86.6173 213.551V212.399H88.9213V211.247H90.0733V212.399H92.3773V213.551H90.0733V214.703H88.9213V213.551H86.6173ZM87.7693 215.855V214.703H88.9213V215.855H87.7693ZM87.7693 211.247V210.095H88.9213V211.247H87.7693ZM90.0733 215.855V214.703H91.2253V215.855H90.0733ZM90.0733 211.247V210.095H91.2253V211.247H90.0733ZM93.6253 208.214V207.062H94.7773V208.214H93.6253ZM90.8893 203.759C90.8893 205.087 91.9773 206.191 93.3213 206.191C94.6653 206.191 95.7533 205.087 95.7533 203.759C95.7533 202.399 94.6653 201.311 93.3213 201.311C91.9773 201.311 90.8893 202.399 90.8893 203.759ZM94.9373 203.759C94.9373 204.639 94.2173 205.375 93.3213 205.375C92.4253 205.375 91.7053 204.639 91.7053 203.759C91.7053 202.847 92.4253 202.127 93.3213 202.127C94.2173 202.127 94.9373 202.847 94.9373 203.759ZM93.6253 197.167V196.015H94.7773V197.167H93.6253ZM88.9693 194.12V192.968H90.1213V194.12H88.9693ZM93.5773 194.12V192.968H94.7293V194.12H93.5773ZM85.5773 188.77V187.618H87.8813V185.314H89.0333V186.466H90.1853V187.618H89.0333V188.77H90.1853V189.922H89.0333V191.074H87.8813V188.77H85.5773ZM90.1853 191.074V189.922H91.3373V191.074H90.1853ZM90.1853 186.466V185.314H91.3373V186.466H90.1853ZM87.7693 183.433V182.169H89.0173V183.433H87.7693ZM83.1453 180.757C82.4893 180.757 81.9453 180.389 81.9453 179.877C81.9453 179.397 82.4893 178.997 83.1453 178.997C83.8013 178.997 84.3453 179.397 84.3453 179.877C84.3453 180.389 83.8013 180.757 83.1453 180.757ZM83.1453 181.413C84.2333 181.413 85.1133 180.741 85.1133 179.877C85.1133 179.029 84.2333 178.357 83.1453 178.357C82.0573 178.357 81.1773 179.029 81.1773 179.877C81.1773 180.741 82.0573 181.413 83.1453 181.413ZM86.6173 165.816V164.664H88.9213V163.512H90.0733V164.664H92.3773V165.816H90.0733V166.968H88.9213V165.816H86.6173ZM87.7693 168.12V166.968H88.9213V168.12H87.7693ZM87.7693 163.512V162.36H88.9213V163.512H87.7693ZM90.0733 168.12V166.968H91.2253V168.12H90.0733ZM90.0733 163.512V162.36H91.2253V163.512H90.0733ZM93.6253 160.48V159.328H94.7773V160.48H93.6253ZM90.8893 156.025C90.8893 157.353 91.9773 158.457 93.3213 158.457C94.6653 158.457 95.7533 157.353 95.7533 156.025C95.7533 154.665 94.6653 153.577 93.3213 153.577C91.9773 153.577 90.8893 154.665 90.8893 156.025ZM94.9373 156.025C94.9373 156.905 94.2173 157.641 93.3213 157.641C92.4253 157.641 91.7053 156.905 91.7053 156.025C91.7053 155.113 92.4253 154.393 93.3213 154.393C94.2173 154.393 94.9373 155.113 94.9373 156.025ZM93.6253 149.433V148.281H94.7773V149.433H93.6253ZM88.9693 146.386V145.234H90.1213V146.386H88.9693ZM93.5773 146.386V145.234H94.7293V146.386H93.5773ZM85.5773 141.035V139.883H87.8813V137.579H89.0333V138.731H90.1853V139.883H89.0333V141.035H90.1853V142.187H89.0333V143.339H87.8813V141.035H85.5773ZM90.1853 143.339V142.187H91.3373V143.339H90.1853ZM90.1853 138.731V137.579H91.3373V138.731H90.1853ZM87.7693 135.699V134.435H89.0173V135.699H87.7693ZM83.1453 133.022C82.4893 133.022 81.9453 132.654 81.9453 132.142C81.9453 131.662 82.4893 131.262 83.1453 131.262C83.8013 131.262 84.3453 131.662 84.3453 132.142C84.3453 132.654 83.8013 133.022 83.1453 133.022ZM83.1453 133.678C84.2333 133.678 85.1133 133.006 85.1133 132.142C85.1133 131.294 84.2333 130.622 83.1453 130.622C82.0573 130.622 81.1773 131.294 81.1773 132.142C81.1773 133.006 82.0573 133.678 83.1453 133.678ZM86.6173 118.082V116.93H88.9213V115.778H90.0733V116.93H92.3773V118.082H90.0733V119.234H88.9213V118.082H86.6173ZM87.7693 120.386V119.234H88.9213V120.386H87.7693ZM87.7693 115.778V114.626H88.9213V115.778H87.7693ZM90.0733 120.386V119.234H91.2253V120.386H90.0733ZM90.0733 115.778V114.626H91.2253V115.778H90.0733ZM93.6253 112.745V111.593H94.7773V112.745H93.6253ZM90.8893 108.291C90.8893 109.619 91.9773 110.723 93.3213 110.723C94.6653 110.723 95.7533 109.619 95.7533 108.291C95.7533 106.931 94.6653 105.843 93.3213 105.843C91.9773 105.843 90.8893 106.931 90.8893 108.291ZM94.9373 108.291C94.9373 109.171 94.2173 109.907 93.3213 109.907C92.4253 109.907 91.7053 109.171 91.7053 108.291C91.7053 107.379 92.4253 106.659 93.3213 106.659C94.2173 106.659 94.9373 107.379 94.9373 108.291ZM93.6253 101.699V100.547H94.7773V101.699H93.6253ZM88.9693 98.6516V97.4996H90.1213V98.6516H88.9693ZM93.5773 98.6516V97.4996H94.7293V98.6516H93.5773ZM85.5773 93.3008V92.1488H87.8813V89.8448H89.0333V90.9968H90.1853V92.1488H89.0333V93.3008H90.1853V94.4528H89.0333V95.6048H87.8813V93.3008H85.5773ZM90.1853 95.6048V94.4528H91.3373V95.6048H90.1853ZM90.1853 90.9968V89.8448H91.3373V90.9968H90.1853Z" fill="black"/>
<path d="M224.855 226.713C225.511 226.713 226.055 226.345 226.055 225.833C226.055 225.353 225.511 224.953 224.855 224.953C224.199 224.953 223.655 225.353 223.655 225.833C223.655 226.345 224.199 226.713 224.855 226.713ZM224.855 227.369C223.767 227.369 222.887 226.697 222.887 225.833C222.887 224.985 223.767 224.313 224.855 224.313C225.943 224.313 226.823 224.985 226.823 225.833C226.823 226.697 225.943 227.369 224.855 227.369ZM221.383 211.773V210.621H219.079V209.469H217.927V210.621H215.623V211.773H217.927V212.925H219.079V211.773H221.383ZM220.231 214.077V212.925H219.079V214.077H220.231ZM220.231 209.469V208.317H219.079V209.469H220.231ZM217.927 214.077V212.925H216.775V214.077H217.927ZM217.927 209.469V208.317H216.775V209.469H217.927ZM214.375 206.436V205.284H213.223V206.436H214.375ZM217.111 201.981C217.111 203.309 216.023 204.413 214.679 204.413C213.335 204.413 212.247 203.309 212.247 201.981C212.247 200.621 213.335 199.533 214.679 199.533C216.023 199.533 217.111 200.621 217.111 201.981ZM213.063 201.981C213.063 202.861 213.783 203.597 214.679 203.597C215.575 203.597 216.295 202.861 216.295 201.981C216.295 201.069 215.575 200.349 214.679 200.349C213.783 200.349 213.063 201.069 213.063 201.981ZM214.375 195.389V194.237H213.223V195.389H214.375ZM219.031 192.343V191.191H217.879V192.343H219.031ZM214.423 192.343V191.191H213.271V192.343H214.423ZM222.423 186.992V185.84H220.119V183.536H218.967V184.688H217.815V185.84H218.967V186.992H217.815V188.144H218.967V189.296H220.119V186.992H222.423ZM217.815 189.296V188.144H216.663V189.296H217.815ZM217.815 184.688V183.536H216.663V184.688H217.815ZM220.231 181.655V180.391H218.983V181.655H220.231ZM224.855 178.979C225.511 178.979 226.055 178.611 226.055 178.099C226.055 177.619 225.511 177.219 224.855 177.219C224.199 177.219 223.655 177.619 223.655 178.099C223.655 178.611 224.199 178.979 224.855 178.979ZM224.855 179.635C223.767 179.635 222.887 178.963 222.887 178.099C222.887 177.251 223.767 176.579 224.855 176.579C225.943 176.579 226.823 177.251 226.823 178.099C226.823 178.963 225.943 179.635 224.855 179.635ZM221.383 164.039V162.887H219.079V161.735H217.927V162.887H215.623V164.039H217.927V165.191H219.079V164.039H221.383ZM220.231 166.343V165.191H219.079V166.343H220.231ZM220.231 161.735V160.583H219.079V161.735H220.231ZM217.927 166.343V165.191H216.775V166.343H217.927ZM217.927 161.735V160.583H216.775V161.735H217.927ZM214.375 158.702V157.55H213.223V158.702H214.375ZM217.111 154.247C217.111 155.575 216.023 156.679 214.679 156.679C213.335 156.679 212.247 155.575 212.247 154.247C212.247 152.887 213.335 151.799 214.679 151.799C216.023 151.799 217.111 152.887 217.111 154.247ZM213.063 154.247C213.063 155.127 213.783 155.863 214.679 155.863C215.575 155.863 216.295 155.127 216.295 154.247C216.295 153.335 215.575 152.615 214.679 152.615C213.783 152.615 213.063 153.335 213.063 154.247ZM214.375 147.655V146.503H213.223V147.655H214.375ZM219.031 144.608V143.456H217.879V144.608H219.031ZM214.423 144.608V143.456H213.271V144.608H214.423ZM222.423 139.257V138.105H220.119V135.801H218.967V136.953H217.815V138.105H218.967V139.257H217.815V140.409H218.967V141.561H220.119V139.257H222.423ZM217.815 141.561V140.409H216.663V141.561H217.815ZM217.815 136.953V135.801H216.663V136.953H217.815ZM220.231 133.921V132.657H218.983V133.921H220.231ZM224.855 131.244C225.511 131.244 226.055 130.876 226.055 130.364C226.055 129.884 225.511 129.484 224.855 129.484C224.199 129.484 223.655 129.884 223.655 130.364C223.655 130.876 224.199 131.244 224.855 131.244ZM224.855 131.9C223.767 131.9 222.887 131.228 222.887 130.364C222.887 129.516 223.767 128.844 224.855 128.844C225.943 128.844 226.823 129.516 226.823 130.364C226.823 131.228 225.943 131.9 224.855 131.9ZM221.383 116.304V115.152H219.079V114H217.927V115.152H215.623V116.304H217.927V117.456H219.079V116.304H221.383ZM220.231 118.608V117.456H219.079V118.608H220.231ZM220.231 114V112.848H219.079V114H220.231ZM217.927 118.608V117.456H216.775V118.608H217.927ZM217.927 114V112.848H216.775V114H217.927ZM214.375 110.968V109.816H213.223V110.968H214.375ZM217.111 106.513C217.111 107.841 216.023 108.945 214.679 108.945C213.335 108.945 212.247 107.841 212.247 106.513C212.247 105.153 213.335 104.065 214.679 104.065C216.023 104.065 217.111 105.153 217.111 106.513ZM213.063 106.513C213.063 107.393 213.783 108.129 214.679 108.129C215.575 108.129 216.295 107.393 216.295 106.513C216.295 105.601 215.575 104.881 214.679 104.881C213.783 104.881 213.063 105.601 213.063 106.513ZM214.375 99.9207V98.7687H213.223V99.9207H214.375ZM219.031 96.8739V95.7219H217.879V96.8739H219.031ZM214.423 96.8739V95.7219H213.271V96.8739H214.423ZM222.423 91.523V90.371H220.119V88.067H218.967V89.219H217.815V90.371H218.967V91.523H217.815V92.675H218.967V93.827H220.119V91.523H222.423ZM217.815 93.827V92.675H216.663V93.827H217.815ZM217.815 89.219V88.067H216.663V89.219H217.815Z" fill="black"/>
<path d="M113.163 120.315H119.39V121.147H114.06V125.359H113.163V120.315ZM114.06 125.359H119.39V126.204H114.06V125.359ZM121.093 120.315H121.99V122.837H122.887V123.682H121.99V126.204H121.093V120.315ZM114.879 127.049H121.093V127.894H114.879V127.049ZM113.982 127.894H114.879V130.416H113.982V127.894ZM121.093 127.894H121.99V130.416H121.093V127.894ZM114.879 130.416H121.093V131.261H114.879V130.416ZM127.076 120.315H127.96V123.682H127.076V120.315ZM126.179 123.682H127.076V124.527H126.179V123.682ZM127.96 123.682H128.857V124.527H127.96V123.682ZM125.295 124.527H126.179V125.372H125.295V124.527ZM128.857 124.527H129.741V125.372H128.857V124.527ZM124.411 125.372H125.295V126.204H124.411V125.372ZM129.741 125.372H130.625V126.204H129.741V125.372ZM132.536 120.315H133.42V126.204H132.536V120.315ZM125.23 127.049H126.127V130.416H133.238V131.261H125.23V127.049ZM135.846 120.315H139.395V121.147H135.846V120.315ZM134.949 121.147H135.846V128.739H134.949V121.147ZM139.395 121.147H140.292V128.739H139.395V121.147ZM135.846 128.739H139.395V129.571H135.846V128.739ZM143.074 120.328H143.958V131.274H143.074V120.328ZM148.863 120.315H149.747V121.992H154.206V120.315H155.09V126.204H148.863V120.315ZM149.747 122.837V125.359H154.206V122.837H149.747ZM156.793 120.315H157.69V122.837H158.587V123.682H157.69V126.204H156.793V120.315ZM149.682 127.049H157.69V127.894H150.579V130.416H157.69V131.261H149.682V127.049ZM161.839 120.315H168.053V121.147H161.839V120.315ZM160.942 121.147H161.839V123.682H160.942V121.147ZM168.053 121.147H168.95V123.682H168.053V121.147ZM161.839 123.682H168.053V124.527H161.839V123.682ZM160.123 125.372H169.847V126.217H160.123V125.372ZM160.942 127.049H161.839V130.416H168.95V131.261H160.942V127.049ZM175.58 120.315H183.588V126.204H175.58V120.315ZM176.477 121.147V125.359H182.691V121.147H176.477ZM174.761 127.049H184.485V127.894H180.026V131.261H179.142V127.894H174.761V127.049ZM186.009 120.315H186.893V121.992H191.352V120.315H192.236V126.204H186.009V120.315ZM186.893 122.837V125.359H191.352V122.837H186.893ZM194.082 120.315H194.966V126.204H194.082V124.527H192.301V123.682H194.082V122.837H192.301V121.992H194.082V120.315ZM187.725 127.049H193.939V127.894H187.725V127.049ZM186.828 127.894H187.725V130.416H186.828V127.894ZM193.939 127.894H194.836V130.416H193.939V127.894ZM187.725 130.416H193.939V131.261H187.725V130.416ZM109.38 135.315H115.594V136.147H112.929V138.682H112.045V136.147H109.38V135.315ZM111.148 138.682H112.045V139.527H111.148V138.682ZM112.929 138.682H113.826V139.527H112.929V138.682ZM110.264 139.527H111.148V140.359H110.264V139.527ZM113.826 139.527H114.71V140.359H113.826V139.527ZM109.38 140.359H110.264V141.204H109.38V140.359ZM114.71 140.359H115.594V141.204H114.71V140.359ZM117.31 135.315H118.207V137.837H119.104V138.682H118.207V141.204H117.31V135.315ZM111.096 142.049H117.31V142.894H111.096V142.049ZM110.199 142.894H111.096V145.416H110.199V142.894ZM117.31 142.894H118.207V145.416H117.31V142.894ZM111.096 145.416H117.31V146.261H111.096V145.416ZM125.022 135.315H125.906V138.682H125.022V135.315ZM124.125 138.682H125.022V139.527H124.125V138.682ZM125.906 138.682H126.803V139.527H125.906V138.682ZM123.241 139.527H124.125V140.359H123.241V139.527ZM126.803 139.527H127.687V140.359H126.803V139.527ZM121.46 140.359H123.241V141.204H121.46V140.359ZM127.687 140.359H129.468V141.204H127.687V140.359ZM120.641 142.049H130.365V142.894H125.906V146.261H125.022V142.894H120.641V142.049ZM134.58 135.315H135.464V136.147H138.129V136.992H131.902V136.147H134.58V135.315ZM133.683 137.837H136.348V138.682H133.683V137.837ZM132.799 138.682H133.683V143.739H132.799V138.682ZM136.348 138.682H137.245V143.739H136.348V138.682ZM133.683 143.739H136.348V144.571H133.683V143.739ZM139.299 135.315H140.196V140.372H141.769V141.217H140.196V146.261H139.299V135.315ZM144.121 135.315H145.018V138.682H152.129V139.527H144.121V135.315ZM143.302 140.372H153.026V141.217H143.302V140.372ZM144.121 142.049H145.018V145.416H152.129V146.261H144.121V142.049ZM154.563 135.315H160.79V139.514H159.906V136.147H154.563V135.315ZM159.009 139.514H159.906V140.359H159.009V139.514ZM158.125 140.359H159.009V141.204H158.125V140.359ZM162.493 135.315H163.39V141.204H162.493V138.682H160.79V137.837H162.493V135.315ZM155.382 142.049H156.279V145.416H163.39V146.261H155.382V142.049ZM164.922 135.315H171.149V139.514H170.265V136.147H164.922V135.315ZM169.368 139.514H170.265V140.359H169.368V139.514ZM168.484 140.359H169.368V141.204H168.484V140.359ZM172.852 135.315H173.749V137.837H174.646V138.682H173.749V141.204H172.852V135.315ZM166.638 142.049H172.852V142.894H166.638V142.049ZM165.741 142.894H166.638V145.416H165.741V142.894ZM172.852 142.894H173.749V145.416H172.852V142.894ZM166.638 145.416H172.852V146.261H166.638V145.416ZM177.002 135.315H177.899V136.992H184.113V135.315H185.01V141.204H177.002V135.315ZM177.899 137.837V140.359H184.113V137.837H177.899ZM176.183 142.049H185.907V142.894H181.448V146.261H180.564V142.894H176.183V142.049ZM187.431 135.315H193.645V136.147H190.98V138.682H190.096V136.147H187.431V135.315ZM189.199 138.682H190.096V139.527H189.199V138.682ZM190.98 138.682H191.877V139.527H190.98V138.682ZM188.315 139.527H189.199V140.359H188.315V139.527ZM191.877 139.527H192.761V140.359H191.877V139.527ZM187.431 140.359H188.315V141.204H187.431V140.359ZM192.761 140.359H193.645V141.204H192.761V140.359ZM195.361 135.315H196.258V141.204H195.361V138.682H193.658V137.837H195.361V135.315ZM188.25 142.049H196.258V146.261H195.361V142.894H188.25V142.049ZM197.79 135.315H198.726V143.739H197.79V135.315ZM197.79 144.675H198.726V145.611H197.79V144.675ZM114.46 150.315H118.009V151.147H114.46V150.315ZM113.563 151.147H114.46V158.739H113.563V151.147ZM118.009 151.147H118.906V158.739H118.009V151.147ZM114.46 158.739H118.009V159.571H114.46V158.739ZM121.688 150.328H122.572V161.274H121.688V150.328ZM128.296 150.315H129.193V151.992H135.407V150.315H136.304V156.204H128.296V150.315ZM129.193 152.837V155.359H135.407V152.837H129.193ZM127.477 157.049H137.201V157.894H132.742V161.261H131.858V157.894H127.477V157.049ZM138.725 150.315H144.939V151.147H142.274V153.682H141.39V151.147H138.725V150.315ZM140.493 153.682H141.39V154.527H140.493V153.682ZM142.274 153.682H143.171V154.527H142.274V153.682ZM139.609 154.527H140.493V155.359H139.609V154.527ZM143.171 154.527H144.055V155.359H143.171V154.527ZM138.725 155.359H139.609V156.204H138.725V155.359ZM144.055 155.359H144.939V156.204H144.055V155.359ZM146.655 150.315H147.552V156.204H146.655V153.682H144.952V152.837H146.655V150.315ZM139.544 157.049H147.552V161.261H146.655V157.894H139.544V157.049ZM150.801 150.315H157.015V151.147H150.801V150.315ZM149.904 151.147H150.801V153.682H149.904V151.147ZM157.015 151.147H157.912V153.682H157.015V151.147ZM150.801 153.682H157.015V154.527H150.801V153.682ZM149.085 155.372H158.809V156.217H149.085V155.372ZM149.904 157.049H157.912V159.571H150.801V160.416H157.912V161.261H149.904V158.739H157.015V157.894H149.904V157.049ZM163.723 150.315H169.95V151.147H167.285V156.204H166.401V151.147H163.723V150.315ZM165.504 156.204H166.401V157.894H165.504V156.204ZM167.285 156.204H168.169V157.894H167.285V156.204ZM164.62 157.894H165.504V158.739H164.62V157.894ZM168.169 157.894H169.066V158.739H168.169V157.894ZM163.723 158.739H164.62V159.571H163.723V158.739ZM169.066 158.739H169.95V159.571H169.066V158.739ZM171.874 150.328H172.758V161.274H171.874V150.328ZM174.298 150.315H175.195V158.739H174.298V150.315ZM175.195 158.739H179.641V159.571H175.195V158.739ZM182.423 150.328H183.307V161.274H182.423V150.328ZM185.654 150.315H193.662V156.217H192.765V151.16H185.654V150.315ZM191.881 156.217H192.765V157.062H191.881V156.217ZM189.216 157.049H190.1V159.571H194.559V160.403H184.835V159.571H189.216V157.049ZM109.752 165.315H112.417V166.16H109.752V165.315ZM108.868 166.16H109.752V166.992H108.868V166.16ZM112.417 166.16H113.314V166.992H112.417V166.16ZM107.971 166.992H108.868V169.527H107.971V166.992ZM113.314 166.992H114.198V169.527H113.314V166.992ZM108.868 169.527H109.752V170.372H108.868V169.527ZM112.417 169.527H113.314V170.372H112.417V169.527ZM109.752 170.372H112.417V171.204H109.752V170.372ZM116.096 165.315H116.98V171.204H116.096V165.315ZM110.571 172.049H111.455V174.571H110.571V172.049ZM114.133 172.049H115.017V174.571H114.133V172.049ZM109.687 174.571H110.571V175.416H109.687V174.571ZM111.455 174.571H112.352V175.416H111.455V174.571ZM113.236 174.571H114.133V175.416H113.236V174.571ZM115.017 174.571H115.901V175.416H115.017V174.571ZM108.79 175.416H109.687V176.261H108.79V175.416ZM112.352 175.416H113.236V176.261H112.352V175.416ZM115.901 175.416H116.798V176.261H115.901V175.416ZM121.108 165.315H125.554V166.147H121.108V165.315ZM120.224 166.147H121.108V166.992H120.224V166.147ZM125.554 166.147H126.438V166.992H125.554V166.147ZM119.327 166.992H120.224V170.359H119.327V166.992ZM126.438 166.992H127.335V170.359H126.438V166.992ZM120.224 170.359H121.108V171.204H120.224V170.359ZM125.554 170.359H126.438V171.204H125.554V170.359ZM121.108 171.204H125.554V172.049H121.108V171.204ZM118.508 174.558H128.232V175.403H118.508V174.558ZM129.769 165.315H135.996V171.204H129.769V165.315ZM130.653 166.147V170.359H135.112V166.147H130.653ZM137.842 165.315H138.726V171.204H137.842V169.527H136.061V168.682H137.842V167.837H136.061V166.992H137.842V165.315ZM130.588 172.049H131.485V175.416H138.596V176.261H130.588V172.049ZM143.632 165.315H149.859V166.147H144.529V170.359H143.632V165.315ZM144.529 170.359H149.859V171.204H144.529V170.359ZM151.562 165.315H152.459V167.837H153.356V168.682H152.459V171.204H151.562V165.315ZM145.348 172.049H151.562V172.894H145.348V172.049ZM144.451 172.894H145.348V175.416H144.451V172.894ZM151.562 172.894H152.459V175.416H151.562V172.894ZM145.348 175.416H151.562V176.261H145.348V175.416ZM157.545 165.315H158.429V168.682H157.545V165.315ZM156.648 168.682H157.545V169.527H156.648V168.682ZM158.429 168.682H159.326V169.527H158.429V168.682ZM155.764 169.527H156.648V170.372H155.764V169.527ZM159.326 169.527H160.21V170.372H159.326V169.527ZM154.88 170.372H155.764V171.204H154.88V170.372ZM160.21 170.372H161.094V171.204H160.21V170.372ZM163.005 165.315H163.889V171.204H163.005V165.315ZM155.699 172.049H156.596V175.416H163.707V176.261H155.699V172.049ZM166.301 165.315H170.747V166.16H166.301V165.315ZM165.417 166.16H166.301V170.372H165.417V166.16ZM170.747 166.16H171.644V170.372H170.747V166.16ZM166.301 170.372H170.747V171.217H166.301V170.372ZM173.36 165.315H174.257V176.261H173.36V165.315ZM165.43 172.894H171.644V173.739H165.43V172.894ZM183.547 165.315H184.431V169.527H183.547V165.315ZM182.65 169.527H183.547V170.372H182.65V169.527ZM184.431 169.527H185.328V170.372H184.431V169.527ZM181.766 170.372H182.65V171.217H181.766V170.372ZM185.328 170.372H186.212V171.217H185.328V170.372ZM179.985 171.217H181.766V172.062H179.985V171.217ZM186.212 171.217H187.993V172.062H186.212V171.217ZM183.547 172.049H184.431V174.571H188.89V175.403H179.166V174.571H183.547V172.049ZM190.427 165.315H196.654V171.204H190.427V165.315ZM191.311 166.147V170.359H195.77V166.147H191.311ZM198.357 165.315H199.254V167.837H200.151V168.682H199.254V171.204H198.357V165.315ZM192.143 172.049H198.357V172.894H192.143V172.049ZM191.246 172.894H192.143V175.416H191.246V172.894ZM198.357 172.894H199.254V175.416H198.357V172.894ZM192.143 175.416H198.357V176.261H192.143V175.416ZM113.927 180.315H117.476V181.147H113.927V180.315ZM113.03 181.147H113.927V188.739H113.03V181.147ZM117.476 181.147H118.373V188.739H117.476V181.147ZM113.927 188.739H117.476V189.571H113.927V188.739ZM121.155 180.328H122.039V191.274H121.155V180.328ZM129.609 180.315H130.506V181.16H133.171V182.005H131.39V182.837H128.725V182.005H126.944V181.16H129.609V180.315ZM127.828 182.837H128.725V185.372H127.828V182.837ZM131.39 182.837H132.274V185.372H131.39V182.837ZM128.725 185.372H131.39V186.217H128.725V185.372ZM135.017 180.315H135.901V186.204H135.017V184.527H133.236V183.682H135.017V182.837H133.236V181.992H135.017V180.315ZM127.763 187.049H128.66V190.416H135.771V191.261H127.763V187.049ZM140.083 180.315H140.967V183.682H140.083V180.315ZM139.186 183.682H140.083V184.527H139.186V183.682ZM140.967 183.682H141.864V184.527H140.967V183.682ZM138.302 184.527H139.186V185.372H138.302V184.527ZM141.864 184.527H142.748V185.372H141.864V184.527ZM137.418 185.372H138.302V186.204H137.418V185.372ZM142.748 185.372H143.632V186.204H142.748V185.372ZM145.543 180.315H146.427V186.204H145.543V180.315ZM138.237 187.049H146.245V189.571H139.134V190.416H146.245V191.261H138.237V188.739H145.348V187.894H138.237V187.049ZM148.852 180.315H152.401V181.147H148.852V180.315ZM147.955 181.147H148.852V188.739H147.955V181.147ZM152.401 181.147H153.298V188.739H152.401V181.147ZM148.852 188.739H152.401V189.571H148.852V188.739ZM156.08 180.328H156.964V191.274H156.08V180.328ZM161.869 180.315H168.096V181.16H162.766V183.682H161.869V180.315ZM162.766 183.682H168.096V184.527H162.766V183.682ZM169.812 180.315H170.709V186.217H169.812V180.315ZM164.547 183.682H165.431V185.372H168.096V186.217H161.882V185.372H164.547V183.682ZM162.701 187.049H163.598V188.739H169.812V187.049H170.709V191.261H162.701V187.049ZM163.598 189.571V190.416H169.812V189.571H163.598ZM172.241 180.315H173.138V188.739H172.241V180.315ZM173.138 188.739H177.584V189.571H173.138V188.739ZM180.366 180.328H181.25V191.274H180.366V180.328ZM182.778 180.315H188.121V181.147H183.675V188.739H182.778V180.315ZM187.224 187.894H188.121V188.739H187.224V187.894ZM183.675 188.739H187.224V189.571H183.675V188.739ZM190.149 180.315H191.046V185.372H192.619V186.217H191.046V191.261H190.149V180.315ZM194.153 189.064H195.089V190H194.153V189.064Z" fill="black"/>
<path d="M142.174 30.096H144.766V30.96H142.174V30.096ZM140.446 30.96H142.174V31.824H140.446V30.96ZM144.766 30.96H146.494V31.824H144.766V30.96ZM139.582 31.824H140.446V32.688H139.582V31.824ZM146.494 31.824H147.358V32.688H146.494V31.824ZM148.77 38.136H154.818V39H148.77V38.136ZM156.235 38.136H162.283V39H156.235V38.136ZM166.291 30.096H168.883V30.96H166.291V30.096ZM164.563 30.96H166.291V31.824H164.563V30.96ZM168.883 30.96H170.611V31.824H168.883V30.96ZM163.699 31.824H164.563V32.688H163.699V31.824ZM170.611 31.824H171.475V32.688H170.611V31.824ZM131.256 44.06H132.12V44.924H131.256V44.06ZM130.392 44.924H131.256V45.788H130.392V44.924ZM129.528 45.788H130.392V51.836H129.528V45.788ZM130.392 51.836H131.256V52.7H130.392V51.836ZM131.256 52.7H132.12V53.564H131.256V52.7ZM140.265 47.828C140.201 47.932 140.109 48.064 139.989 48.224C139.869 48.384 139.729 48.552 139.569 48.728C139.417 48.904 139.261 49.072 139.101 49.232C138.949 49.384 138.805 49.516 138.669 49.628H138.069V49.484C138.181 49.332 138.301 49.152 138.429 48.944C138.557 48.736 138.681 48.524 138.801 48.308C138.929 48.084 139.033 47.884 139.113 47.708H140.265V47.828ZM138.153 47.828C138.089 47.932 137.997 48.064 137.877 48.224C137.757 48.384 137.617 48.552 137.457 48.728C137.305 48.904 137.149 49.072 136.989 49.232C136.837 49.384 136.693 49.516 136.557 49.628H135.957V49.484C136.069 49.332 136.189 49.152 136.317 48.944C136.445 48.736 136.569 48.524 136.689 48.308C136.809 48.084 136.913 47.884 137.001 47.708H138.153V47.828ZM145.238 47.624C145.238 47.92 145.194 48.192 145.106 48.44C145.018 48.68 144.89 48.888 144.722 49.064C144.554 49.24 144.342 49.376 144.086 49.472C143.838 49.56 143.55 49.604 143.222 49.604C142.886 49.604 142.59 49.556 142.334 49.46C142.086 49.364 141.878 49.232 141.71 49.064C141.542 48.888 141.414 48.68 141.326 48.44C141.246 48.192 141.206 47.92 141.206 47.624H141.938C141.938 47.928 141.982 48.192 142.07 48.416C142.166 48.632 142.306 48.8 142.49 48.92C142.682 49.04 142.926 49.1 143.222 49.1C143.518 49.1 143.762 49.04 143.954 48.92C144.146 48.8 144.286 48.632 144.374 48.416C144.462 48.192 144.506 47.928 144.506 47.624H145.238ZM148.812 53.06L148.933 52.076C149.413 52.076 149.865 52.032 150.289 51.944C150.713 51.848 151.101 51.724 151.453 51.572C151.813 51.412 152.121 51.232 152.377 51.032C152.633 50.824 152.829 50.612 152.965 50.396C153.109 50.172 153.181 49.952 153.181 49.736C153.181 49.632 153.145 49.528 153.073 49.424C153.001 49.312 152.877 49.22 152.701 49.148C152.533 49.076 152.305 49.04 152.017 49.04C151.841 49.04 151.645 49.064 151.429 49.112C151.213 49.16 151.005 49.228 150.805 49.316C150.613 49.396 150.453 49.488 150.325 49.592C150.541 49.768 150.741 49.94 150.925 50.108C151.117 50.276 151.313 50.46 151.513 50.66C151.713 50.852 151.929 51.072 152.161 51.32C152.345 51.456 152.549 51.572 152.773 51.668C153.005 51.764 153.253 51.844 153.517 51.908C153.789 51.964 154.065 52.008 154.345 52.04C154.625 52.064 154.905 52.076 155.185 52.076C155.353 52.076 155.473 52.124 155.545 52.22C155.625 52.308 155.665 52.416 155.665 52.544C155.665 52.672 155.609 52.792 155.497 52.904C155.385 53.008 155.241 53.06 155.065 53.06C154.625 53.06 154.173 53.02 153.709 52.94C153.253 52.852 152.825 52.724 152.425 52.556C152.025 52.38 151.685 52.16 151.405 51.896C151.269 51.72 151.117 51.544 150.949 51.368C150.781 51.192 150.597 51.016 150.396 50.84C150.205 50.656 149.997 50.484 149.773 50.324C149.725 50.284 149.677 50.212 149.629 50.108C149.581 50.004 149.541 49.896 149.509 49.784C149.477 49.672 149.461 49.588 149.461 49.532C149.461 49.412 149.537 49.268 149.689 49.1C149.841 48.932 150.045 48.772 150.301 48.62C150.557 48.46 150.849 48.328 151.177 48.224C151.505 48.12 151.845 48.068 152.197 48.068C152.653 48.068 153.021 48.136 153.301 48.272C153.589 48.408 153.797 48.584 153.925 48.8C154.061 49.008 154.129 49.232 154.129 49.472C154.129 49.824 154.041 50.176 153.865 50.528C153.689 50.872 153.437 51.196 153.109 51.5C152.781 51.804 152.397 52.076 151.957 52.316C151.517 52.548 151.029 52.732 150.493 52.868C149.965 52.996 149.405 53.06 148.812 53.06ZM162.676 47.624C162.676 47.92 162.632 48.192 162.544 48.44C162.456 48.68 162.328 48.888 162.16 49.064C161.992 49.24 161.78 49.376 161.524 49.472C161.276 49.56 160.988 49.604 160.66 49.604C160.324 49.604 160.028 49.556 159.771 49.46C159.524 49.364 159.316 49.232 159.148 49.064C158.98 48.888 158.852 48.68 158.764 48.44C158.684 48.192 158.644 47.92 158.644 47.624H159.376C159.376 47.928 159.42 48.192 159.508 48.416C159.604 48.632 159.744 48.8 159.928 48.92C160.12 49.04 160.364 49.1 160.66 49.1C160.956 49.1 161.2 49.04 161.392 48.92C161.584 48.8 161.724 48.632 161.812 48.416C161.9 48.192 161.944 47.928 161.944 47.624H162.676ZM167.921 47.828C167.857 47.932 167.765 48.064 167.645 48.224C167.525 48.384 167.385 48.552 167.225 48.728C167.073 48.904 166.917 49.072 166.757 49.232C166.605 49.384 166.461 49.516 166.325 49.628H165.725V49.484C165.837 49.332 165.957 49.152 166.085 48.944C166.213 48.736 166.337 48.524 166.457 48.308C166.585 48.084 166.689 47.884 166.769 47.708H167.921V47.828ZM165.809 47.828C165.745 47.932 165.653 48.064 165.533 48.224C165.413 48.384 165.273 48.552 165.113 48.728C164.961 48.904 164.805 49.072 164.645 49.232C164.493 49.384 164.349 49.516 164.213 49.628H163.613V49.484C163.725 49.332 163.845 49.152 163.973 48.944C164.101 48.736 164.225 48.524 164.345 48.308C164.465 48.084 164.569 47.884 164.657 47.708H165.809V47.828ZM172.699 44.06H173.563V44.924H172.699V44.06ZM173.563 44.924H174.427V45.788H173.563V44.924ZM174.427 45.788H175.291V51.836H174.427V45.788ZM173.563 51.836H174.427V52.7H173.563V51.836ZM172.699 52.7H173.563V53.564H172.699V52.7ZM142.127 58.06H142.991V59.752H142.127V58.06ZM141.263 59.752H142.127V61.432H141.263V59.752ZM140.399 61.432H141.263V63.112H140.399V61.432ZM139.535 63.112H140.399V64.804H139.535V63.112ZM138.671 64.804H139.535V66.484H138.671V64.804ZM137.807 66.484H138.671V68.164H137.807V66.484ZM149.832 58.096H152.424V58.96H149.832V58.096ZM148.104 58.96H149.832V59.824H148.104V58.96ZM152.424 58.96H154.152V59.824H152.424V58.96ZM147.24 59.824H148.104V60.688H147.24V59.824ZM154.152 59.824H155.016V60.688H154.152V59.824ZM159.596 60.04L158.744 60.688C160.256 61.96 162.248 64.168 163.292 65.74L164.192 65.032C163.112 63.544 160.976 61.228 159.596 60.04ZM128.946 71.292C128.862 72.888 128.862 78.66 123.966 81.156C124.242 81.36 124.542 81.636 124.698 81.864C129.666 79.164 129.846 73.176 129.942 71.292H128.946ZM129.906 71.532L129.042 71.616C129.126 72.72 129.462 79.428 134.55 81.864C134.694 81.612 134.97 81.312 135.234 81.108C130.29 78.84 129.942 72.468 129.906 71.532ZM136.746 80.136H142.794V81H136.746V80.136ZM144.211 80.136H150.259V81H144.211V80.136ZM151.676 80.136H157.724V81H151.676V80.136ZM161.973 73.476H164.829V74.412H161.973V73.476ZM159.129 74.412H161.973V75.36H159.129V74.412ZM164.829 74.412H165.777V75.36H164.829V74.412ZM165.777 75.36H166.725V79.116H165.777V75.36ZM164.829 79.116H165.777V80.064H164.829V79.116ZM162.933 80.064H164.829V81H162.933V80.064ZM168.141 80.136H174.189V81H168.141V80.136ZM178.438 73.476H181.294V74.412H178.438V73.476ZM175.594 74.412H178.438V75.36H175.594V74.412ZM181.294 74.412H182.242V75.36H181.294V74.412ZM182.242 75.36H183.19V79.116H182.242V75.36ZM181.294 79.116H182.242V80.064H181.294V79.116ZM179.398 80.064H181.294V81H179.398V80.064Z" fill="black"/>
<path d="M3.96516 49.3477L36.0482 6.04673C37.9343 3.50122 40.915 2 44.0831 2H125.691C128.837 2 131.8 3.48051 133.688 5.99652L166.22 49.3323C167.519 51.0639 168.222 53.1706 168.222 55.3358V232C168.222 237.523 163.745 242 158.222 242H12C6.47715 242 2 237.523 2 232V55.301C2 53.1572 2.68892 51.0702 3.96516 49.3477Z" fill="white"/>
<path d="M3.96516 49.3477L36.0482 6.04673C37.9343 3.50122 40.915 2 44.0831 2H125.691C128.837 2 131.8 3.48051 133.688 5.99652L166.22 49.3323C167.519 51.0639 168.222 53.1706 168.222 55.3358V232C168.222 237.523 163.745 242 158.222 242H12C6.47715 242 2 237.523 2 232V55.301C2 53.1572 2.68892 51.0702 3.96516 49.3477Z" fill="url(#paint2_linear_1204_2113)"/>
<path d="M3.96516 49.3477L36.0482 6.04673C37.9343 3.50122 40.915 2 44.0831 2H125.691C128.837 2 131.8 3.48051 133.688 5.99652L166.22 49.3323C167.519 51.0639 168.222 53.1706 168.222 55.3358V232C168.222 237.523 163.745 242 158.222 242H12C6.47715 242 2 237.523 2 232V55.301C2 53.1572 2.68892 51.0702 3.96516 49.3477Z" stroke="#A3C3E0" stroke-width="3"/>
<path d="M9.25021 53.1829L39.0068 12.3342C40.889 9.75041 43.893 8.22217 47.0897 8.22217H122.715C125.89 8.22217 128.876 9.72959 130.761 12.2839L160.934 53.1671C162.204 54.8869 162.889 56.968 162.889 59.1054V226.667C162.889 232.189 158.411 236.667 152.889 236.667H17.333C11.8102 236.667 7.33301 232.189 7.33301 226.667V59.0709C7.33301 56.9548 8.00427 54.8933 9.25021 53.1829Z" fill="url(#paint3_linear_1204_2113)" stroke="#A3C3E0" stroke-width="3"/>
<rect x="31.333" y="74.8889" width="107.556" height="144" rx="10" fill="#E2EEFF" stroke="#A3C3E0" stroke-width="3"/>
<path d="M58.5298 93.12H73.3138V103.992H58.5298V93.12ZM60.1858 94.656V102.432H71.6578V94.656H60.1858ZM57.0178 105.552H74.9698V107.112H66.7378V113.328H65.1058V107.112H57.0178V105.552ZM77.7829 93.12H79.4149V96.216H87.6469V93.12H89.2789V103.992H77.7829V93.12ZM79.4149 97.776V102.432H87.6469V97.776H79.4149ZM92.6869 93.12H94.3189V103.992H92.6869V100.896H89.3989V99.336H92.6869V97.776H89.3989V96.216H92.6869V93.12ZM80.9509 105.552H92.4229V107.112H80.9509V105.552ZM79.2949 107.112H80.9509V111.768H79.2949V107.112ZM92.4229 107.112H94.0789V111.768H92.4229V107.112ZM80.9509 111.768H92.4229V113.328H80.9509V111.768ZM97.1188 93.12H108.591V94.656H103.671V99.336H102.039V94.656H97.1188V93.12ZM100.383 99.336H102.039V100.896H100.383V99.336ZM103.671 99.336H105.327V100.896H103.671V99.336ZM98.7508 100.896H100.383V102.432H98.7508V100.896ZM105.327 100.896H106.959V102.432H105.327V100.896ZM97.1188 102.432H98.7508V103.992H97.1188V102.432ZM106.959 102.432H108.591V103.992H106.959V102.432ZM111.759 93.12H113.415V97.776H115.071V99.336H113.415V103.992H111.759V93.12ZM100.287 105.552H111.759V107.112H100.287V105.552ZM98.6308 107.112H100.287V111.768H98.6308V107.112ZM111.759 107.112H113.415V111.768H111.759V107.112ZM100.287 111.768H111.759V113.328H100.287V111.768ZM64.2386 121.12H65.8706V127.336H64.2386V121.12ZM62.5826 127.336H64.2386V128.896H62.5826V127.336ZM65.8706 127.336H67.5266V128.896H65.8706V127.336ZM60.9506 128.896H62.5826V130.432H60.9506V128.896ZM67.5266 128.896H69.1586V130.432H67.5266V128.896ZM57.6626 130.432H60.9506V131.992H57.6626V130.432ZM69.1586 130.432H72.4466V131.992H69.1586V130.432ZM56.1506 133.552H74.1026V135.112H65.8706V141.328H64.2386V135.112H56.1506V133.552ZM81.8837 121.12H83.5157V122.656H88.4357V124.216H76.9397V122.656H81.8837V121.12ZM80.2277 125.776H85.1477V127.336H80.2277V125.776ZM78.5957 127.336H80.2277V136.672H78.5957V127.336ZM85.1477 127.336H86.8037V136.672H85.1477V127.336ZM80.2277 136.672H85.1477V138.208H80.2277V136.672ZM90.5957 121.12H92.2517V130.456H95.1557V132.016H92.2517V141.328H90.5957V121.12ZM99.4985 121.12H101.155V127.336H114.283V128.896H99.4985V121.12ZM97.9865 130.456H115.939V132.016H97.9865V130.456ZM99.4985 133.552H101.155V139.768H114.283V141.328H99.4985V133.552ZM57.1115 149.12H68.6075V156.872H66.9755V150.656H57.1115V149.12ZM65.3195 156.872H66.9755V158.432H65.3195V156.872ZM63.6875 158.432H65.3195V159.992H63.6875V158.432ZM71.7515 149.12H73.4075V159.992H71.7515V155.336H68.6075V153.776H71.7515V149.12ZM58.6235 161.552H60.2795V167.768H73.4075V169.328H58.6235V161.552ZM76.2365 149.12H87.7325V156.872H86.1005V150.656H76.2365V149.12ZM84.4445 156.872H86.1005V158.432H84.4445V156.872ZM82.8125 158.432H84.4445V159.992H82.8125V158.432ZM90.8765 149.12H92.5325V153.776H94.1885V155.336H92.5325V159.992H90.8765V149.12ZM79.4045 161.552H90.8765V163.112H79.4045V161.552ZM77.7485 163.112H79.4045V167.768H77.7485V163.112ZM90.8765 163.112H92.5325V167.768H90.8765V163.112ZM79.4045 167.768H90.8765V169.328H79.4045V167.768ZM98.5376 149.12H100.194V152.216H111.666V149.12H113.322V159.992H98.5376V149.12ZM100.194 153.776V158.432H111.666V153.776H100.194ZM97.0256 161.552H114.978V163.112H106.746V169.328H105.114V163.112H97.0256V161.552ZM77.8883 177.12H89.3603V178.656H84.4403V183.336H82.8083V178.656H77.8883V177.12ZM81.1523 183.336H82.8083V184.896H81.1523V183.336ZM84.4403 183.336H86.0963V184.896H84.4403V183.336ZM79.5203 184.896H81.1523V186.432H79.5203V184.896ZM86.0963 184.896H87.7283V186.432H86.0963V184.896ZM77.8883 186.432H79.5203V187.992H77.8883V186.432ZM87.7283 186.432H89.3603V187.992H87.7283V186.432ZM92.5283 177.12H94.1843V187.992H92.5283V183.336H89.3843V181.776H92.5283V177.12ZM79.4003 189.552H94.1843V197.328H92.5283V191.112H79.4003V189.552Z" fill="black"/>
<path d="M15.1453 214.491C14.4893 214.491 13.9453 214.123 13.9453 213.611C13.9453 213.131 14.4893 212.731 15.1453 212.731C15.8013 212.731 16.3453 213.131 16.3453 213.611C16.3453 214.123 15.8013 214.491 15.1453 214.491ZM15.1453 215.147C16.2333 215.147 17.1133 214.475 17.1133 213.611C17.1133 212.763 16.2333 212.091 15.1453 212.091C14.0573 212.091 13.1773 212.763 13.1773 213.611C13.1773 214.475 14.0573 215.147 15.1453 215.147ZM18.6173 199.551V198.399H20.9213V197.247H22.0733V198.399H24.3773V199.551H22.0733V200.703H20.9213V199.551H18.6173ZM19.7693 201.855V200.703H20.9213V201.855H19.7693ZM19.7693 197.247V196.095H20.9213V197.247H19.7693ZM22.0733 201.855V200.703H23.2253V201.855H22.0733ZM22.0733 197.247V196.095H23.2253V197.247H22.0733ZM25.6253 194.214V193.062H26.7773V194.214H25.6253ZM22.8893 189.759C22.8893 191.087 23.9773 192.191 25.3213 192.191C26.6653 192.191 27.7533 191.087 27.7533 189.759C27.7533 188.399 26.6653 187.311 25.3213 187.311C23.9773 187.311 22.8893 188.399 22.8893 189.759ZM26.9373 189.759C26.9373 190.639 26.2173 191.375 25.3213 191.375C24.4253 191.375 23.7053 190.639 23.7053 189.759C23.7053 188.847 24.4253 188.127 25.3213 188.127C26.2173 188.127 26.9373 188.847 26.9373 189.759ZM25.6253 183.167V182.015H26.7773V183.167H25.6253ZM20.9693 180.12V178.968H22.1213V180.12H20.9693ZM25.5773 180.12V178.968H26.7293V180.12H25.5773ZM17.5773 174.77V173.618H19.8813V171.314H21.0333V172.466H22.1853V173.618H21.0333V174.77H22.1853V175.922H21.0333V177.074H19.8813V174.77H17.5773ZM22.1853 177.074V175.922H23.3373V177.074H22.1853ZM22.1853 172.466V171.314H23.3373V172.466H22.1853ZM19.7693 169.433V168.169H21.0173V169.433H19.7693ZM15.1453 166.757C14.4893 166.757 13.9453 166.389 13.9453 165.877C13.9453 165.397 14.4893 164.997 15.1453 164.997C15.8013 164.997 16.3453 165.397 16.3453 165.877C16.3453 166.389 15.8013 166.757 15.1453 166.757ZM15.1453 167.413C16.2333 167.413 17.1133 166.741 17.1133 165.877C17.1133 165.029 16.2333 164.357 15.1453 164.357C14.0573 164.357 13.1773 165.029 13.1773 165.877C13.1773 166.741 14.0573 167.413 15.1453 167.413ZM18.6173 151.816V150.664H20.9213L20.9213 149.512H22.0733L22.0733 150.664H24.3773V151.816H22.0733V152.968H20.9213V151.816H18.6173ZM19.7693 154.12V152.968H20.9213V154.12H19.7693ZM19.7693 149.512V148.36H20.9213V149.512H19.7693ZM22.0733 154.12V152.968H23.2253V154.12H22.0733ZM22.0733 149.512V148.36H23.2253V149.512H22.0733ZM25.6253 146.48V145.328H26.7773V146.48H25.6253ZM22.8893 142.025C22.8893 143.353 23.9773 144.457 25.3213 144.457C26.6653 144.457 27.7533 143.353 27.7533 142.025C27.7533 140.665 26.6653 139.577 25.3213 139.577C23.9773 139.577 22.8893 140.665 22.8893 142.025ZM26.9373 142.025C26.9373 142.905 26.2173 143.641 25.3213 143.641C24.4253 143.641 23.7053 142.905 23.7053 142.025C23.7053 141.113 24.4253 140.393 25.3213 140.393C26.2173 140.393 26.9373 141.113 26.9373 142.025ZM25.6253 135.433V134.281H26.7773V135.433H25.6253ZM20.9693 132.386V131.234H22.1213V132.386H20.9693ZM25.5773 132.386V131.234H26.7293V132.386H25.5773ZM17.5773 127.035V125.883H19.8813V123.579H21.0333V124.731H22.1853V125.883H21.0333V127.035H22.1853V128.187H21.0333V129.339H19.8813V127.035H17.5773ZM22.1853 129.339V128.187H23.3373V129.339H22.1853ZM22.1853 124.731V123.579H23.3373V124.731H22.1853ZM19.7693 121.699V120.435H21.0173V121.699H19.7693ZM15.1453 119.022C14.4893 119.022 13.9453 118.654 13.9453 118.142C13.9453 117.662 14.4893 117.262 15.1453 117.262C15.8013 117.262 16.3453 117.662 16.3453 118.142C16.3453 118.654 15.8013 119.022 15.1453 119.022ZM15.1453 119.678C16.2333 119.678 17.1133 119.006 17.1133 118.142C17.1133 117.294 16.2333 116.622 15.1453 116.622C14.0573 116.622 13.1773 117.294 13.1773 118.142C13.1773 119.006 14.0573 119.678 15.1453 119.678ZM18.6173 104.082V102.93H20.9213V101.778H22.0733V102.93H24.3773V104.082H22.0733V105.234H20.9213V104.082H18.6173ZM19.7693 106.386V105.234H20.9213V106.386H19.7693ZM19.7693 101.778V100.626H20.9213V101.778H19.7693ZM22.0733 106.386V105.234H23.2253V106.386H22.0733ZM22.0733 101.778V100.626H23.2253V101.778H22.0733ZM25.6253 98.7454V97.5934H26.7773V98.7454H25.6253ZM22.8893 94.2905C22.8893 95.6185 23.9773 96.7225 25.3213 96.7225C26.6653 96.7225 27.7533 95.6185 27.7533 94.2905C27.7533 92.9305 26.6653 91.8425 25.3213 91.8425C23.9773 91.8425 22.8893 92.9305 22.8893 94.2905ZM26.9373 94.2905C26.9373 95.1705 26.2173 95.9065 25.3213 95.9065C24.4253 95.9065 23.7053 95.1705 23.7053 94.2905C23.7053 93.3785 24.4253 92.6585 25.3213 92.6585C26.2173 92.6585 26.9373 93.3785 26.9373 94.2905ZM25.6253 87.6985V86.5465H26.7773V87.6985H25.6253ZM20.9693 84.6516V83.4996H22.1213V84.6516H20.9693ZM25.5773 84.6516V83.4996H26.7293V84.6516H25.5773ZM17.5773 79.3008V78.1488H19.8813V75.8448H21.0333V76.9968H22.1853V78.1488H21.0333V79.3008H22.1853V80.4528H21.0333V81.6048H19.8813V79.3008H17.5773ZM22.1853 81.6048V80.4528H23.3373V81.6048H22.1853ZM22.1853 76.9968V75.8448H23.3373V76.9968H22.1853Z" fill="black"/>
<path d="M156.855 212.713C157.511 212.713 158.055 212.345 158.055 211.833C158.055 211.353 157.511 210.953 156.855 210.953C156.199 210.953 155.655 211.353 155.655 211.833C155.655 212.345 156.199 212.713 156.855 212.713ZM156.855 213.369C155.767 213.369 154.887 212.697 154.887 211.833C154.887 210.985 155.767 210.313 156.855 210.313C157.943 210.313 158.823 210.985 158.823 211.833C158.823 212.697 157.943 213.369 156.855 213.369ZM153.383 197.773V196.621H151.079V195.469H149.927V196.621H147.623V197.773H149.927V198.925H151.079V197.773H153.383ZM152.231 200.077V198.925H151.079V200.077H152.231ZM152.231 195.469V194.317H151.079V195.469H152.231ZM149.927 200.077V198.925H148.775V200.077H149.927ZM149.927 195.469V194.317H148.775V195.469H149.927ZM146.375 192.436V191.284H145.223V192.436H146.375ZM149.111 187.981C149.111 189.309 148.023 190.413 146.679 190.413C145.335 190.413 144.247 189.309 144.247 187.981C144.247 186.621 145.335 185.533 146.679 185.533C148.023 185.533 149.111 186.621 149.111 187.981ZM145.063 187.981C145.063 188.861 145.783 189.597 146.679 189.597C147.575 189.597 148.295 188.861 148.295 187.981C148.295 187.069 147.575 186.349 146.679 186.349C145.783 186.349 145.063 187.069 145.063 187.981ZM146.375 181.389V180.237H145.223V181.389H146.375ZM151.031 178.343V177.191H149.879V178.343H151.031ZM146.423 178.343V177.191H145.271V178.343H146.423ZM154.423 172.992V171.84H152.119V169.536H150.967V170.688H149.815V171.84H150.967V172.992H149.815V174.144H150.967V175.296H152.119V172.992H154.423ZM149.815 175.296V174.144H148.663V175.296H149.815ZM149.815 170.688V169.536H148.663V170.688H149.815ZM152.231 167.655V166.391H150.983V167.655H152.231ZM156.855 164.979C157.511 164.979 158.055 164.611 158.055 164.099C158.055 163.619 157.511 163.219 156.855 163.219C156.199 163.219 155.655 163.619 155.655 164.099C155.655 164.611 156.199 164.979 156.855 164.979ZM156.855 165.635C155.767 165.635 154.887 164.963 154.887 164.099C154.887 163.251 155.767 162.579 156.855 162.579C157.943 162.579 158.823 163.251 158.823 164.099C158.823 164.963 157.943 165.635 156.855 165.635ZM153.383 150.039V148.887H151.079V147.735H149.927V148.887H147.623V150.039H149.927V151.191H151.079V150.039H153.383ZM152.231 152.343V151.191H151.079V152.343H152.231ZM152.231 147.735V146.583H151.079V147.735H152.231ZM149.927 152.343V151.191H148.775V152.343H149.927ZM149.927 147.735V146.583H148.775V147.735H149.927ZM146.375 144.702V143.55H145.223V144.702H146.375ZM149.111 140.247C149.111 141.575 148.023 142.679 146.679 142.679C145.335 142.679 144.247 141.575 144.247 140.247C144.247 138.887 145.335 137.799 146.679 137.799C148.023 137.799 149.111 138.887 149.111 140.247ZM145.063 140.247C145.063 141.127 145.783 141.863 146.679 141.863C147.575 141.863 148.295 141.127 148.295 140.247C148.295 139.335 147.575 138.615 146.679 138.615C145.783 138.615 145.063 139.335 145.063 140.247ZM146.375 133.655V132.503H145.223V133.655H146.375ZM151.031 130.608V129.456H149.879V130.608H151.031ZM146.423 130.608V129.456H145.271V130.608H146.423ZM154.423 125.257V124.105H152.119V121.801H150.967V122.953H149.815V124.105H150.967V125.257H149.815V126.409H150.967V127.561H152.119V125.257H154.423ZM149.815 127.561V126.409H148.663V127.561H149.815ZM149.815 122.953V121.801H148.663V122.953H149.815ZM152.231 119.921V118.657H150.983V119.921H152.231ZM156.855 117.244C157.511 117.244 158.055 116.876 158.055 116.364C158.055 115.884 157.511 115.484 156.855 115.484C156.199 115.484 155.655 115.884 155.655 116.364C155.655 116.876 156.199 117.244 156.855 117.244ZM156.855 117.9C155.767 117.9 154.887 117.228 154.887 116.364C154.887 115.516 155.767 114.844 156.855 114.844C157.943 114.844 158.823 115.516 158.823 116.364C158.823 117.228 157.943 117.9 156.855 117.9ZM153.383 102.304V101.152H151.079V100H149.927V101.152H147.623V102.304H149.927V103.456H151.079V102.304H153.383ZM152.231 104.608V103.456H151.079V104.608H152.231ZM152.231 100V98.8482H151.079V100H152.231ZM149.927 104.608V103.456H148.775V104.608H149.927ZM149.927 100V98.8482H148.775V100H149.927ZM146.375 96.9676V95.8156H145.223V96.9676H146.375ZM149.111 92.5127C149.111 93.8407 148.023 94.9447 146.679 94.9447C145.335 94.9447 144.247 93.8407 144.247 92.5127C144.247 91.1527 145.335 90.0647 146.679 90.0647C148.023 90.0647 149.111 91.1527 149.111 92.5127ZM145.063 92.5127C145.063 93.3927 145.783 94.1287 146.679 94.1287C147.575 94.1287 148.295 93.3927 148.295 92.5127C148.295 91.6007 147.575 90.8807 146.679 90.8807C145.783 90.8807 145.063 91.6007 145.063 92.5127ZM146.375 85.9207V84.7687H145.223V85.9207H146.375ZM151.031 82.8739V81.7219H149.879V82.8739H151.031ZM146.423 82.8739V81.7219H145.271V82.8739H146.423ZM154.423 77.523V76.371H152.119V74.067H150.967V75.219H149.815V76.371H150.967V77.523H149.815V78.675H150.967V79.827H152.119V77.523H154.423ZM149.815 79.827V78.675H148.663V79.827H149.815ZM149.815 75.219V74.067H148.663V75.219H149.815Z" fill="black"/>
<path d="M74.1743 16.096H76.7663V16.96H74.1743V16.096ZM72.4463 16.96H74.1743V17.824H72.4463V16.96ZM76.7663 16.96H78.4943V17.824H76.7663V16.96ZM71.5823 17.824H72.4463V18.688H71.5823V17.824ZM78.4943 17.824H79.3583V18.688H78.4943V17.824ZM80.7698 24.136H86.8178V25H80.7698V24.136ZM88.2346 24.136H94.2826V25H88.2346V24.136ZM98.2914 16.096H100.883V16.96H98.2914V16.096ZM96.5634 16.96H98.2914V17.824H96.5634V16.96ZM100.883 16.96H102.611V17.824H100.883V16.96ZM95.6994 17.824H96.5634V18.688H95.6994V17.824ZM102.611 17.824H103.475V18.688H102.611V17.824ZM63.2556 30.06H64.1196V30.924H63.2556V30.06ZM62.3916 30.924H63.2556V31.788H62.3916V30.924ZM61.5276 31.788H62.3916V37.836H61.5276V31.788ZM62.3916 37.836H63.2556V38.7H62.3916V37.836ZM63.2556 38.7H64.1196V39.564H63.2556V38.7ZM72.2646 33.828C72.1846 33.964 72.0526 34.148 71.8686 34.38C71.6846 34.612 71.4846 34.844 71.2686 35.076C71.0526 35.3 70.8526 35.484 70.6686 35.628H70.0686V35.484C70.1806 35.332 70.3006 35.152 70.4286 34.944C70.5566 34.736 70.6806 34.524 70.8006 34.308C70.9286 34.084 71.0326 33.884 71.1126 33.708H72.2646V33.828ZM70.1526 33.828C70.0726 33.964 69.9406 34.148 69.7566 34.38C69.5726 34.612 69.3726 34.844 69.1566 35.076C68.9406 35.3 68.7406 35.484 68.5566 35.628H67.9566V35.484C68.1246 35.252 68.3086 34.968 68.5086 34.632C68.7086 34.288 68.8726 33.98 69.0006 33.708H70.1526V33.828ZM77.238 33.624C77.238 34.216 77.066 34.696 76.722 35.064C76.378 35.424 75.878 35.604 75.222 35.604C74.542 35.604 74.034 35.424 73.698 35.064C73.37 34.696 73.206 34.216 73.206 33.624H73.938C73.938 34.08 74.042 34.44 74.25 34.704C74.458 34.968 74.782 35.1 75.222 35.1C75.67 35.1 75.994 34.968 76.194 34.704C76.402 34.44 76.506 34.08 76.506 33.624H77.238ZM80.8125 39.06L80.9325 38.076C81.4125 38.076 81.8645 38.032 82.2885 37.944C82.7125 37.848 83.1005 37.724 83.4525 37.572C83.8125 37.412 84.1205 37.232 84.3765 37.032C84.6325 36.824 84.8285 36.612 84.9645 36.396C85.1085 36.172 85.1805 35.952 85.1805 35.736C85.1805 35.632 85.1445 35.528 85.0725 35.424C85.0005 35.312 84.8765 35.22 84.7005 35.148C84.5325 35.076 84.3045 35.04 84.0165 35.04C83.8405 35.04 83.6445 35.064 83.4285 35.112C83.2125 35.16 83.0045 35.228 82.8045 35.316C82.6125 35.396 82.4525 35.488 82.3245 35.592C82.5405 35.768 82.7405 35.94 82.9245 36.108C83.1165 36.276 83.3125 36.46 83.5125 36.66C83.7125 36.852 83.9285 37.072 84.1605 37.32C84.3445 37.456 84.5485 37.572 84.7725 37.668C85.0045 37.764 85.2525 37.844 85.5165 37.908C85.7885 37.964 86.0645 38.008 86.3445 38.04C86.6245 38.064 86.9045 38.076 87.1845 38.076C87.3525 38.076 87.4725 38.124 87.5445 38.22C87.6245 38.308 87.6645 38.416 87.6645 38.544C87.6645 38.672 87.6085 38.792 87.4965 38.904C87.3845 39.008 87.2405 39.06 87.0645 39.06C86.6245 39.06 86.1725 39.02 85.7085 38.94C85.2525 38.852 84.8245 38.724 84.4245 38.556C84.0245 38.38 83.6845 38.16 83.4045 37.896C83.2685 37.72 83.1165 37.544 82.9485 37.368C82.7805 37.192 82.5965 37.016 82.3965 36.84C82.2045 36.656 81.9965 36.484 81.7725 36.324C81.7245 36.284 81.6765 36.212 81.6285 36.108C81.5805 36.004 81.5405 35.896 81.5085 35.784C81.4765 35.672 81.4605 35.588 81.4605 35.532C81.4605 35.412 81.5365 35.268 81.6885 35.1C81.8405 34.932 82.0445 34.772 82.3005 34.62C82.5565 34.46 82.8485 34.328 83.1765 34.224C83.5045 34.12 83.8445 34.068 84.1965 34.068C84.6525 34.068 85.0205 34.136 85.3005 34.272C85.5885 34.408 85.7965 34.584 85.9245 34.8C86.0605 35.008 86.1285 35.232 86.1285 35.472C86.1285 35.824 86.0405 36.176 85.8645 36.528C85.6885 36.872 85.4365 37.196 85.1085 37.5C84.7805 37.804 84.3965 38.076 83.9565 38.316C83.5165 38.548 83.0285 38.732 82.4925 38.868C81.9645 38.996 81.4045 39.06 80.8125 39.06ZM94.6755 33.624C94.6755 34.216 94.5035 34.696 94.1595 35.064C93.8155 35.424 93.3155 35.604 92.6595 35.604C91.9795 35.604 91.4715 35.424 91.1355 35.064C90.8075 34.696 90.6435 34.216 90.6435 33.624H91.3755C91.3755 34.08 91.4795 34.44 91.6875 34.704C91.8955 34.968 92.2195 35.1 92.6595 35.1C93.1075 35.1 93.4315 34.968 93.6315 34.704C93.8395 34.44 93.9435 34.08 93.9435 33.624H94.6755ZM99.9208 33.828C99.8408 33.964 99.7088 34.148 99.5248 34.38C99.3408 34.612 99.1408 34.844 98.9248 35.076C98.7088 35.3 98.5088 35.484 98.3248 35.628H97.7248V35.484C97.8368 35.332 97.9568 35.152 98.0848 34.944C98.2128 34.736 98.3368 34.524 98.4568 34.308C98.5848 34.084 98.6888 33.884 98.7688 33.708H99.9208V33.828ZM97.8088 33.828C97.7288 33.964 97.5968 34.148 97.4128 34.38C97.2288 34.612 97.0288 34.844 96.8128 35.076C96.5968 35.3 96.3968 35.484 96.2128 35.628H95.6128V35.484C95.7808 35.252 95.9648 34.968 96.1648 34.632C96.3648 34.288 96.5288 33.98 96.6568 33.708H97.8088V33.828ZM104.699 30.06H105.563V30.924H104.699V30.06ZM105.563 30.924H106.427V31.788H105.563V30.924ZM106.427 31.788H107.291V37.836H106.427V31.788ZM105.563 37.836H106.427V38.7H105.563V37.836ZM104.699 38.7H105.563V39.564H104.699V38.7ZM74.1269 44.06H74.9909V45.752H74.1269V44.06ZM73.2629 45.752H74.1269V47.432H73.2629V45.752ZM72.3989 47.432H73.2629V49.112H72.3989V47.432ZM71.5349 49.112H72.3989V50.804H71.5349V49.112ZM70.6709 50.804H71.5349V52.484H70.6709V50.804ZM69.8069 52.484H70.6709V54.164H69.8069V52.484ZM81.8325 44.096H84.4245V44.96H81.8325V44.096ZM80.1045 44.96H81.8325V45.824H80.1045V44.96ZM84.4245 44.96H86.1525V45.824H84.4245V44.96ZM79.2405 45.824H80.1045V46.688H79.2405V45.824ZM86.1525 45.824H87.0165V46.688H86.1525V45.824ZM91.596 46.04L90.744 46.688C92.256 47.96 94.248 50.168 95.292 51.74L96.192 51.032C95.112 49.544 92.976 47.228 91.596 46.04ZM60.9463 57.292C60.8623 58.888 60.8623 64.66 55.9663 67.156C56.2423 67.36 56.5423 67.636 56.6983 67.864C61.6663 65.164 61.8463 59.176 61.9423 57.292H60.9463ZM61.9063 57.532L61.0423 57.616C61.1263 58.72 61.4623 65.428 66.5503 67.864C66.6943 67.612 66.9703 67.312 67.2343 67.108C62.2903 64.84 61.9423 58.468 61.9063 57.532ZM68.7463 66.136H74.7943V67H68.7463V66.136ZM76.2112 66.136H82.2592V67H76.2112V66.136ZM83.676 66.136H89.724V67H83.676V66.136ZM93.9728 59.476H96.8288V60.412H93.9728V59.476ZM91.1288 60.412H93.9728V61.36H91.1288V60.412ZM96.8288 60.412H97.7768V61.36H96.8288V60.412ZM97.7768 61.36H98.7248V65.116H97.7768V61.36ZM96.8288 65.116H97.7768V66.064H96.8288V65.116ZM94.9328 66.064H96.8288V67H94.9328V66.064ZM100.141 66.136H106.189V67H100.141V66.136ZM110.438 59.476H113.294V60.412H110.438V59.476ZM107.594 60.412H110.438V61.36H107.594V60.412ZM113.294 60.412H114.242V61.36H113.294V60.412ZM114.242 61.36H115.19V65.116H114.242V61.36ZM113.294 65.116H114.242V66.064H113.294V65.116ZM111.398 66.064H113.294V67H111.398V66.064Z" fill="black"/>
<defs>
<linearGradient id="paint0_linear_1204_2113" x1="153.111" y1="16" x2="153.111" y2="256" gradientUnits="userSpaceOnUse">
<stop stop-color="#DDEBFB"/>
<stop offset="1" stop-color="#6AB8FF" stop-opacity="0"/>
</linearGradient>
<linearGradient id="paint1_linear_1204_2113" x1="153.111" y1="22.2222" x2="153.111" y2="250.667" gradientUnits="userSpaceOnUse">
<stop stop-color="#F3F5FF"/>
<stop offset="1" stop-color="#BBD2FF" stop-opacity="0"/>
</linearGradient>
<linearGradient id="paint2_linear_1204_2113" x1="85.1111" y1="2" x2="85.1111" y2="242" gradientUnits="userSpaceOnUse">
<stop stop-color="#DDEBFB"/>
<stop offset="1" stop-color="#6AB8FF" stop-opacity="0"/>
</linearGradient>
<linearGradient id="paint3_linear_1204_2113" x1="85.1108" y1="8.22217" x2="85.1108" y2="236.667" gradientUnits="userSpaceOnUse">
<stop stop-color="#F3F5FF"/>
<stop offset="1" stop-color="#BBD2FF" stop-opacity="0"/>
</linearGradient>
</defs>
</svg>
