<svg width="253" height="254" viewBox="0 0 253 254" fill="none" xmlns="http://www.w3.org/2000/svg">
<path d="M86.9652 59.3477L119.048 16.0467C120.934 13.5012 123.915 12 127.083 12H208.691C211.837 12 214.8 13.4805 216.688 15.9965L249.22 59.3323C250.519 61.0639 251.222 63.1706 251.222 65.3358V242C251.222 247.523 246.745 252 241.222 252H95C89.4772 252 85 247.523 85 242V65.301C85 63.1572 85.6889 61.0702 86.9652 59.3477Z" fill="white"/>
<path d="M86.9652 59.3477L119.048 16.0467C120.934 13.5012 123.915 12 127.083 12H208.691C211.837 12 214.8 13.4805 216.688 15.9965L249.22 59.3323C250.519 61.0639 251.222 63.1706 251.222 65.3358V242C251.222 247.523 246.745 252 241.222 252H95C89.4772 252 85 247.523 85 242V65.301C85 63.1572 85.6889 61.0702 86.9652 59.3477Z" fill="url(#paint0_linear_1184_1826)"/>
<path d="M86.9652 59.3477L119.048 16.0467C120.934 13.5012 123.915 12 127.083 12H208.691C211.837 12 214.8 13.4805 216.688 15.9965L249.22 59.3323C250.519 61.0639 251.222 63.1706 251.222 65.3358V242C251.222 247.523 246.745 252 241.222 252H95C89.4772 252 85 247.523 85 242V65.301C85 63.1572 85.6889 61.0702 86.9652 59.3477Z" stroke="#5A749A" stroke-width="3"/>
<path d="M92.2502 63.1829L122.007 22.3342C123.889 19.7504 126.893 18.2222 130.09 18.2222H205.715C208.89 18.2222 211.876 19.7296 213.761 22.2839L243.934 63.1671C245.204 64.8869 245.889 66.968 245.889 69.1054V236.667C245.889 242.189 241.411 246.667 235.889 246.667H100.333C94.8102 246.667 90.333 242.189 90.333 236.667V69.0709C90.333 66.9548 91.0043 64.8933 92.2502 63.1829Z" fill="url(#paint1_linear_1184_1826)" stroke="#5A749A" stroke-width="3"/>
<rect x="114.333" y="84.8889" width="107.556" height="144" rx="10" fill="#EBEBFF" stroke="#5A749A" stroke-width="3"/>
<path d="M98.1453 224.491C97.4893 224.491 96.9453 224.123 96.9453 223.611C96.9453 223.131 97.4893 222.731 98.1453 222.731C98.8013 222.731 99.3453 223.131 99.3453 223.611C99.3453 224.123 98.8013 224.491 98.1453 224.491ZM98.1453 225.147C99.2333 225.147 100.113 224.475 100.113 223.611C100.113 222.763 99.2333 222.091 98.1453 222.091C97.0573 222.091 96.1773 222.763 96.1773 223.611C96.1773 224.475 97.0573 225.147 98.1453 225.147ZM101.617 209.551V208.399H103.921V207.247H105.073V208.399H107.377V209.551H105.073V210.703H103.921V209.551H101.617ZM102.769 211.855V210.703H103.921V211.855H102.769ZM102.769 207.247V206.095H103.921V207.247H102.769ZM105.073 211.855V210.703H106.225V211.855H105.073ZM105.073 207.247V206.095H106.225V207.247H105.073ZM108.625 204.214V203.062H109.777V204.214H108.625ZM105.889 199.759C105.889 201.087 106.977 202.191 108.321 202.191C109.665 202.191 110.753 201.087 110.753 199.759C110.753 198.399 109.665 197.311 108.321 197.311C106.977 197.311 105.889 198.399 105.889 199.759ZM109.937 199.759C109.937 200.639 109.217 201.375 108.321 201.375C107.425 201.375 106.705 200.639 106.705 199.759C106.705 198.847 107.425 198.127 108.321 198.127C109.217 198.127 109.937 198.847 109.937 199.759ZM108.625 193.167V192.015H109.777V193.167H108.625ZM103.969 190.12V188.968H105.121V190.12H103.969ZM108.577 190.12V188.968H109.729V190.12H108.577ZM100.577 184.77V183.618H102.881V181.314H104.033V182.466H105.185V183.618H104.033V184.77H105.185V185.922H104.033V187.074H102.881V184.77H100.577ZM105.185 187.074V185.922H106.337V187.074H105.185ZM105.185 182.466V181.314H106.337V182.466H105.185ZM102.769 179.433V178.169H104.017V179.433H102.769ZM98.1453 176.757C97.4893 176.757 96.9453 176.389 96.9453 175.877C96.9453 175.397 97.4893 174.997 98.1453 174.997C98.8013 174.997 99.3453 175.397 99.3453 175.877C99.3453 176.389 98.8013 176.757 98.1453 176.757ZM98.1453 177.413C99.2333 177.413 100.113 176.741 100.113 175.877C100.113 175.029 99.2333 174.357 98.1453 174.357C97.0573 174.357 96.1773 175.029 96.1773 175.877C96.1773 176.741 97.0573 177.413 98.1453 177.413ZM101.617 161.816V160.664H103.921V159.512H105.073V160.664H107.377V161.816H105.073V162.968H103.921V161.816H101.617ZM102.769 164.12V162.968H103.921V164.12H102.769ZM102.769 159.512V158.36H103.921V159.512H102.769ZM105.073 164.12V162.968H106.225V164.12H105.073ZM105.073 159.512V158.36H106.225V159.512H105.073ZM108.625 156.48V155.328H109.777V156.48H108.625ZM105.889 152.025C105.889 153.353 106.977 154.457 108.321 154.457C109.665 154.457 110.753 153.353 110.753 152.025C110.753 150.665 109.665 149.577 108.321 149.577C106.977 149.577 105.889 150.665 105.889 152.025ZM109.937 152.025C109.937 152.905 109.217 153.641 108.321 153.641C107.425 153.641 106.705 152.905 106.705 152.025C106.705 151.113 107.425 150.393 108.321 150.393C109.217 150.393 109.937 151.113 109.937 152.025ZM108.625 145.433V144.281H109.777V145.433H108.625ZM103.969 142.386V141.234H105.121V142.386H103.969ZM108.577 142.386V141.234H109.729V142.386H108.577ZM100.577 137.035V135.883H102.881V133.579H104.033V134.731H105.185V135.883H104.033V137.035H105.185V138.187H104.033V139.339H102.881V137.035H100.577ZM105.185 139.339V138.187H106.337V139.339H105.185ZM105.185 134.731V133.579H106.337V134.731H105.185ZM102.769 131.699V130.435H104.017V131.699H102.769ZM98.1453 129.022C97.4893 129.022 96.9453 128.654 96.9453 128.142C96.9453 127.662 97.4893 127.262 98.1453 127.262C98.8013 127.262 99.3453 127.662 99.3453 128.142C99.3453 128.654 98.8013 129.022 98.1453 129.022ZM98.1453 129.678C99.2333 129.678 100.113 129.006 100.113 128.142C100.113 127.294 99.2333 126.622 98.1453 126.622C97.0573 126.622 96.1773 127.294 96.1773 128.142C96.1773 129.006 97.0573 129.678 98.1453 129.678ZM101.617 114.082V112.93H103.921V111.778H105.073V112.93H107.377V114.082H105.073V115.234H103.921V114.082H101.617ZM102.769 116.386V115.234H103.921V116.386H102.769ZM102.769 111.778V110.626H103.921V111.778H102.769ZM105.073 116.386V115.234H106.225V116.386H105.073ZM105.073 111.778V110.626H106.225V111.778H105.073ZM108.625 108.745V107.593H109.777V108.745H108.625ZM105.889 104.291C105.889 105.619 106.977 106.723 108.321 106.723C109.665 106.723 110.753 105.619 110.753 104.291C110.753 102.931 109.665 101.843 108.321 101.843C106.977 101.843 105.889 102.931 105.889 104.291ZM109.937 104.291C109.937 105.171 109.217 105.907 108.321 105.907C107.425 105.907 106.705 105.171 106.705 104.291C106.705 103.379 107.425 102.659 108.321 102.659C109.217 102.659 109.937 103.379 109.937 104.291ZM108.625 97.6985V96.5465H109.777V97.6985H108.625ZM103.969 94.6516V93.4996H105.121V94.6516H103.969ZM108.577 94.6516V93.4996H109.729V94.6516H108.577ZM100.577 89.3008V88.1488H102.881V85.8448H104.033V86.9968H105.185V88.1488H104.033V89.3008H105.185V90.4528H104.033V91.6048H102.881V89.3008H100.577ZM105.185 91.6048V90.4528H106.337V91.6048H105.185ZM105.185 86.9968V85.8448H106.337V86.9968H105.185Z" fill="black"/>
<path d="M239.855 222.713C240.511 222.713 241.055 222.345 241.055 221.833C241.055 221.353 240.511 220.953 239.855 220.953C239.199 220.953 238.655 221.353 238.655 221.833C238.655 222.345 239.199 222.713 239.855 222.713ZM239.855 223.369C238.767 223.369 237.887 222.697 237.887 221.833C237.887 220.985 238.767 220.313 239.855 220.313C240.943 220.313 241.823 220.985 241.823 221.833C241.823 222.697 240.943 223.369 239.855 223.369ZM236.383 207.773V206.621H234.079V205.469H232.927V206.621H230.623V207.773H232.927V208.925H234.079V207.773H236.383ZM235.231 210.077V208.925H234.079V210.077H235.231ZM235.231 205.469V204.317H234.079V205.469H235.231ZM232.927 210.077V208.925H231.775V210.077H232.927ZM232.927 205.469V204.317H231.775V205.469H232.927ZM229.375 202.436V201.284H228.223V202.436H229.375ZM232.111 197.981C232.111 199.309 231.023 200.413 229.679 200.413C228.335 200.413 227.247 199.309 227.247 197.981C227.247 196.621 228.335 195.533 229.679 195.533C231.023 195.533 232.111 196.621 232.111 197.981ZM228.063 197.981C228.063 198.861 228.783 199.597 229.679 199.597C230.575 199.597 231.295 198.861 231.295 197.981C231.295 197.069 230.575 196.349 229.679 196.349C228.783 196.349 228.063 197.069 228.063 197.981ZM229.375 191.389V190.237H228.223V191.389H229.375ZM234.031 188.343V187.191H232.879V188.343H234.031ZM229.423 188.343V187.191H228.271V188.343H229.423ZM237.423 182.992V181.84H235.119V179.536H233.967V180.688H232.815V181.84H233.967V182.992H232.815V184.144H233.967V185.296H235.119V182.992H237.423ZM232.815 185.296V184.144H231.663V185.296H232.815ZM232.815 180.688V179.536H231.663V180.688H232.815ZM235.231 177.655V176.391H233.983V177.655H235.231ZM239.855 174.979C240.511 174.979 241.055 174.611 241.055 174.099C241.055 173.619 240.511 173.219 239.855 173.219C239.199 173.219 238.655 173.619 238.655 174.099C238.655 174.611 239.199 174.979 239.855 174.979ZM239.855 175.635C238.767 175.635 237.887 174.963 237.887 174.099C237.887 173.251 238.767 172.579 239.855 172.579C240.943 172.579 241.823 173.251 241.823 174.099C241.823 174.963 240.943 175.635 239.855 175.635ZM236.383 160.039V158.887H234.079V157.735H232.927V158.887H230.623V160.039H232.927V161.191H234.079V160.039H236.383ZM235.231 162.343V161.191H234.079V162.343H235.231ZM235.231 157.735V156.583H234.079V157.735H235.231ZM232.927 162.343V161.191H231.775V162.343H232.927ZM232.927 157.735V156.583H231.775V157.735H232.927ZM229.375 154.702V153.55H228.223V154.702H229.375ZM232.111 150.247C232.111 151.575 231.023 152.679 229.679 152.679C228.335 152.679 227.247 151.575 227.247 150.247C227.247 148.887 228.335 147.799 229.679 147.799C231.023 147.799 232.111 148.887 232.111 150.247ZM228.063 150.247C228.063 151.127 228.783 151.863 229.679 151.863C230.575 151.863 231.295 151.127 231.295 150.247C231.295 149.335 230.575 148.615 229.679 148.615C228.783 148.615 228.063 149.335 228.063 150.247ZM229.375 143.655V142.503H228.223V143.655H229.375ZM234.031 140.608V139.456H232.879V140.608H234.031ZM229.423 140.608V139.456H228.271V140.608H229.423ZM237.423 135.257V134.105H235.119V131.801H233.967V132.953H232.815V134.105H233.967V135.257H232.815V136.409H233.967V137.561H235.119V135.257H237.423ZM232.815 137.561V136.409H231.663V137.561H232.815ZM232.815 132.953V131.801H231.663V132.953H232.815ZM235.231 129.921V128.657H233.983V129.921H235.231ZM239.855 127.244C240.511 127.244 241.055 126.876 241.055 126.364C241.055 125.884 240.511 125.484 239.855 125.484C239.199 125.484 238.655 125.884 238.655 126.364C238.655 126.876 239.199 127.244 239.855 127.244ZM239.855 127.9C238.767 127.9 237.887 127.228 237.887 126.364C237.887 125.516 238.767 124.844 239.855 124.844C240.943 124.844 241.823 125.516 241.823 126.364C241.823 127.228 240.943 127.9 239.855 127.9ZM236.383 112.304V111.152H234.079V110H232.927V111.152H230.623V112.304H232.927V113.456H234.079V112.304H236.383ZM235.231 114.608V113.456H234.079V114.608H235.231ZM235.231 110V108.848H234.079V110H235.231ZM232.927 114.608V113.456H231.775V114.608H232.927ZM232.927 110V108.848H231.775V110H232.927ZM229.375 106.968V105.816H228.223V106.968H229.375ZM232.111 102.513C232.111 103.841 231.023 104.945 229.679 104.945C228.335 104.945 227.247 103.841 227.247 102.513C227.247 101.153 228.335 100.065 229.679 100.065C231.023 100.065 232.111 101.153 232.111 102.513ZM228.063 102.513C228.063 103.393 228.783 104.129 229.679 104.129C230.575 104.129 231.295 103.393 231.295 102.513C231.295 101.601 230.575 100.881 229.679 100.881C228.783 100.881 228.063 101.601 228.063 102.513ZM229.375 95.9207V94.7687H228.223V95.9207H229.375ZM234.031 92.8739V91.7219H232.879V92.8739H234.031ZM229.423 92.8739V91.7219H228.271V92.8739H229.423ZM237.423 87.523V86.371H235.119V84.067H233.967V85.219H232.815V86.371H233.967V87.523H232.815V88.675H233.967V89.827H235.119V87.523H237.423ZM232.815 89.827V88.675H231.663V89.827H232.815ZM232.815 85.219V84.067H231.663V85.219H232.815Z" fill="black"/>
<path d="M128.163 116.315H134.39V117.147H129.06V121.359H128.163V116.315ZM129.06 121.359H134.39V122.204H129.06V121.359ZM136.093 116.315H136.99V118.837H137.887V119.682H136.99V122.204H136.093V116.315ZM129.879 123.049H136.093V123.894H129.879V123.049ZM128.982 123.894H129.879V126.416H128.982V123.894ZM136.093 123.894H136.99V126.416H136.093V123.894ZM129.879 126.416H136.093V127.261H129.879V126.416ZM142.076 116.315H142.96V119.682H142.076V116.315ZM141.179 119.682H142.076V120.527H141.179V119.682ZM142.96 119.682H143.857V120.527H142.96V119.682ZM140.295 120.527H141.179V121.372H140.295V120.527ZM143.857 120.527H144.741V121.372H143.857V120.527ZM139.411 121.372H140.295V122.204H139.411V121.372ZM144.741 121.372H145.625V122.204H144.741V121.372ZM147.536 116.315H148.42V122.204H147.536V116.315ZM140.23 123.049H141.127V126.416H148.238V127.261H140.23V123.049ZM150.846 116.315H154.395V117.147H150.846V116.315ZM149.949 117.147H150.846V124.739H149.949V117.147ZM154.395 117.147H155.292V124.739H154.395V117.147ZM150.846 124.739H154.395V125.571H150.846V124.739ZM158.074 116.328H158.958V127.274H158.074V116.328ZM163.863 116.315H164.747V117.992H169.206V116.315H170.09V122.204H163.863V116.315ZM164.747 118.837V121.359H169.206V118.837H164.747ZM171.793 116.315H172.69V118.837H173.587V119.682H172.69V122.204H171.793V116.315ZM164.682 123.049H172.69V123.894H165.579V126.416H172.69V127.261H164.682V123.049ZM176.839 116.315H183.053V117.147H176.839V116.315ZM175.942 117.147H176.839V119.682H175.942V117.147ZM183.053 117.147H183.95V119.682H183.053V117.147ZM176.839 119.682H183.053V120.527H176.839V119.682ZM175.123 121.372H184.847V122.217H175.123V121.372ZM175.942 123.049H176.839V126.416H183.95V127.261H175.942V123.049ZM190.58 116.315H198.588V122.204H190.58V116.315ZM191.477 117.147V121.359H197.691V117.147H191.477ZM189.761 123.049H199.485V123.894H195.026V127.261H194.142V123.894H189.761V123.049ZM201.009 116.315H201.893V117.992H206.352V116.315H207.236V122.204H201.009V116.315ZM201.893 118.837V121.359H206.352V118.837H201.893ZM209.082 116.315H209.966V122.204H209.082V120.527H207.301V119.682H209.082V118.837H207.301V117.992H209.082V116.315ZM202.725 123.049H208.939V123.894H202.725V123.049ZM201.828 123.894H202.725V126.416H201.828V123.894ZM208.939 123.894H209.836V126.416H208.939V123.894ZM202.725 126.416H208.939V127.261H202.725V126.416ZM124.38 131.315H130.594V132.147H127.929V134.682H127.045V132.147H124.38V131.315ZM126.148 134.682H127.045V135.527H126.148V134.682ZM127.929 134.682H128.826V135.527H127.929V134.682ZM125.264 135.527H126.148V136.359H125.264V135.527ZM128.826 135.527H129.71V136.359H128.826V135.527ZM124.38 136.359H125.264V137.204H124.38V136.359ZM129.71 136.359H130.594V137.204H129.71V136.359ZM132.31 131.315H133.207V133.837H134.104V134.682H133.207V137.204H132.31V131.315ZM126.096 138.049H132.31V138.894H126.096V138.049ZM125.199 138.894H126.096V141.416H125.199V138.894ZM132.31 138.894H133.207V141.416H132.31V138.894ZM126.096 141.416H132.31V142.261H126.096V141.416ZM140.022 131.315H140.906V134.682H140.022V131.315ZM139.125 134.682H140.022V135.527H139.125V134.682ZM140.906 134.682H141.803V135.527H140.906V134.682ZM138.241 135.527H139.125V136.359H138.241V135.527ZM141.803 135.527H142.687V136.359H141.803V135.527ZM136.46 136.359H138.241V137.204H136.46V136.359ZM142.687 136.359H144.468V137.204H142.687V136.359ZM135.641 138.049H145.365V138.894H140.906V142.261H140.022V138.894H135.641V138.049ZM149.58 131.315H150.464V132.147H153.129V132.992H146.902V132.147H149.58V131.315ZM148.683 133.837H151.348V134.682H148.683V133.837ZM147.799 134.682H148.683V139.739H147.799V134.682ZM151.348 134.682H152.245V139.739H151.348V134.682ZM148.683 139.739H151.348V140.571H148.683V139.739ZM154.299 131.315H155.196V136.372H156.769V137.217H155.196V142.261H154.299V131.315ZM159.121 131.315H160.018V134.682H167.129V135.527H159.121V131.315ZM158.302 136.372H168.026V137.217H158.302V136.372ZM159.121 138.049H160.018V141.416H167.129V142.261H159.121V138.049ZM169.563 131.315H175.79V135.514H174.906V132.147H169.563V131.315ZM174.009 135.514H174.906V136.359H174.009V135.514ZM173.125 136.359H174.009V137.204H173.125V136.359ZM177.493 131.315H178.39V137.204H177.493V134.682H175.79V133.837H177.493V131.315ZM170.382 138.049H171.279V141.416H178.39V142.261H170.382V138.049ZM179.922 131.315H186.149V135.514H185.265V132.147H179.922V131.315ZM184.368 135.514H185.265V136.359H184.368V135.514ZM183.484 136.359H184.368V137.204H183.484V136.359ZM187.852 131.315H188.749V133.837H189.646V134.682H188.749V137.204H187.852V131.315ZM181.638 138.049H187.852V138.894H181.638V138.049ZM180.741 138.894H181.638V141.416H180.741V138.894ZM187.852 138.894H188.749V141.416H187.852V138.894ZM181.638 141.416H187.852V142.261H181.638V141.416ZM192.002 131.315H192.899V132.992H199.113V131.315H200.01V137.204H192.002V131.315ZM192.899 133.837V136.359H199.113V133.837H192.899ZM191.183 138.049H200.907V138.894H196.448V142.261H195.564V138.894H191.183V138.049ZM202.431 131.315H208.645V132.147H205.98V134.682H205.096V132.147H202.431V131.315ZM204.199 134.682H205.096V135.527H204.199V134.682ZM205.98 134.682H206.877V135.527H205.98V134.682ZM203.315 135.527H204.199V136.359H203.315V135.527ZM206.877 135.527H207.761V136.359H206.877V135.527ZM202.431 136.359H203.315V137.204H202.431V136.359ZM207.761 136.359H208.645V137.204H207.761V136.359ZM210.361 131.315H211.258V137.204H210.361V134.682H208.658V133.837H210.361V131.315ZM203.25 138.049H211.258V142.261H210.361V138.894H203.25V138.049ZM212.79 131.315H213.726V139.739H212.79V131.315ZM212.79 140.675H213.726V141.611H212.79V140.675ZM129.46 146.315H133.009V147.147H129.46V146.315ZM128.563 147.147H129.46V154.739H128.563V147.147ZM133.009 147.147H133.906V154.739H133.009V147.147ZM129.46 154.739H133.009V155.571H129.46V154.739ZM136.688 146.328H137.572V157.274H136.688V146.328ZM143.296 146.315H144.193V147.992H150.407V146.315H151.304V152.204H143.296V146.315ZM144.193 148.837V151.359H150.407V148.837H144.193ZM142.477 153.049H152.201V153.894H147.742V157.261H146.858V153.894H142.477V153.049ZM153.725 146.315H159.939V147.147H157.274V149.682H156.39V147.147H153.725V146.315ZM155.493 149.682H156.39V150.527H155.493V149.682ZM157.274 149.682H158.171V150.527H157.274V149.682ZM154.609 150.527H155.493V151.359H154.609V150.527ZM158.171 150.527H159.055V151.359H158.171V150.527ZM153.725 151.359H154.609V152.204H153.725V151.359ZM159.055 151.359H159.939V152.204H159.055V151.359ZM161.655 146.315H162.552V152.204H161.655V149.682H159.952V148.837H161.655V146.315ZM154.544 153.049H162.552V157.261H161.655V153.894H154.544V153.049ZM165.801 146.315H172.015V147.147H165.801V146.315ZM164.904 147.147H165.801V149.682H164.904V147.147ZM172.015 147.147H172.912V149.682H172.015V147.147ZM165.801 149.682H172.015V150.527H165.801V149.682ZM164.085 151.372H173.809V152.217H164.085V151.372ZM164.904 153.049H172.912V155.571H165.801V156.416H172.912V157.261H164.904V154.739H172.015V153.894H164.904V153.049ZM178.723 146.315H184.95V147.147H182.285V152.204H181.401V147.147H178.723V146.315ZM180.504 152.204H181.401V153.894H180.504V152.204ZM182.285 152.204H183.169V153.894H182.285V152.204ZM179.62 153.894H180.504V154.739H179.62V153.894ZM183.169 153.894H184.066V154.739H183.169V153.894ZM178.723 154.739H179.62V155.571H178.723V154.739ZM184.066 154.739H184.95V155.571H184.066V154.739ZM186.874 146.328H187.758V157.274H186.874V146.328ZM189.298 146.315H190.195V154.739H189.298V146.315ZM190.195 154.739H194.641V155.571H190.195V154.739ZM197.423 146.328H198.307V157.274H197.423V146.328ZM200.654 146.315H208.662V152.217H207.765V147.16H200.654V146.315ZM206.881 152.217H207.765V153.062H206.881V152.217ZM204.216 153.049H205.1V155.571H209.559V156.403H199.835V155.571H204.216V153.049ZM124.752 161.315H127.417V162.16H124.752V161.315ZM123.868 162.16H124.752V162.992H123.868V162.16ZM127.417 162.16H128.314V162.992H127.417V162.16ZM122.971 162.992H123.868V165.527H122.971V162.992ZM128.314 162.992H129.198V165.527H128.314V162.992ZM123.868 165.527H124.752V166.372H123.868V165.527ZM127.417 165.527H128.314V166.372H127.417V165.527ZM124.752 166.372H127.417V167.204H124.752V166.372ZM131.096 161.315H131.98V167.204H131.096V161.315ZM125.571 168.049H126.455V170.571H125.571V168.049ZM129.133 168.049H130.017V170.571H129.133V168.049ZM124.687 170.571H125.571V171.416H124.687V170.571ZM126.455 170.571H127.352V171.416H126.455V170.571ZM128.236 170.571H129.133V171.416H128.236V170.571ZM130.017 170.571H130.901V171.416H130.017V170.571ZM123.79 171.416H124.687V172.261H123.79V171.416ZM127.352 171.416H128.236V172.261H127.352V171.416ZM130.901 171.416H131.798V172.261H130.901V171.416ZM136.108 161.315H140.554V162.147H136.108V161.315ZM135.224 162.147H136.108V162.992H135.224V162.147ZM140.554 162.147H141.438V162.992H140.554V162.147ZM134.327 162.992H135.224V166.359H134.327V162.992ZM141.438 162.992H142.335V166.359H141.438V162.992ZM135.224 166.359H136.108V167.204H135.224V166.359ZM140.554 166.359H141.438V167.204H140.554V166.359ZM136.108 167.204H140.554V168.049H136.108V167.204ZM133.508 170.558H143.232V171.403H133.508V170.558ZM144.769 161.315H150.996V167.204H144.769V161.315ZM145.653 162.147V166.359H150.112V162.147H145.653ZM152.842 161.315H153.726V167.204H152.842V165.527H151.061V164.682H152.842V163.837H151.061V162.992H152.842V161.315ZM145.588 168.049H146.485V171.416H153.596V172.261H145.588V168.049ZM158.632 161.315H164.859V162.147H159.529V166.359H158.632V161.315ZM159.529 166.359H164.859V167.204H159.529V166.359ZM166.562 161.315H167.459V163.837H168.356V164.682H167.459V167.204H166.562V161.315ZM160.348 168.049H166.562V168.894H160.348V168.049ZM159.451 168.894H160.348V171.416H159.451V168.894ZM166.562 168.894H167.459V171.416H166.562V168.894ZM160.348 171.416H166.562V172.261H160.348V171.416ZM172.545 161.315H173.429V164.682H172.545V161.315ZM171.648 164.682H172.545V165.527H171.648V164.682ZM173.429 164.682H174.326V165.527H173.429V164.682ZM170.764 165.527H171.648V166.372H170.764V165.527ZM174.326 165.527H175.21V166.372H174.326V165.527ZM169.88 166.372H170.764V167.204H169.88V166.372ZM175.21 166.372H176.094V167.204H175.21V166.372ZM178.005 161.315H178.889V167.204H178.005V161.315ZM170.699 168.049H171.596V171.416H178.707V172.261H170.699V168.049ZM181.301 161.315H185.747V162.16H181.301V161.315ZM180.417 162.16H181.301V166.372H180.417V162.16ZM185.747 162.16H186.644V166.372H185.747V162.16ZM181.301 166.372H185.747V167.217H181.301V166.372ZM188.36 161.315H189.257V172.261H188.36V161.315ZM180.43 168.894H186.644V169.739H180.43V168.894ZM198.547 161.315H199.431V165.527H198.547V161.315ZM197.65 165.527H198.547V166.372H197.65V165.527ZM199.431 165.527H200.328V166.372H199.431V165.527ZM196.766 166.372H197.65V167.217H196.766V166.372ZM200.328 166.372H201.212V167.217H200.328V166.372ZM194.985 167.217H196.766V168.062H194.985V167.217ZM201.212 167.217H202.993V168.062H201.212V167.217ZM198.547 168.049H199.431V170.571H203.89V171.403H194.166V170.571H198.547V168.049ZM205.427 161.315H211.654V167.204H205.427V161.315ZM206.311 162.147V166.359H210.77V162.147H206.311ZM213.357 161.315H214.254V163.837H215.151V164.682H214.254V167.204H213.357V161.315ZM207.143 168.049H213.357V168.894H207.143V168.049ZM206.246 168.894H207.143V171.416H206.246V168.894ZM213.357 168.894H214.254V171.416H213.357V168.894ZM207.143 171.416H213.357V172.261H207.143V171.416ZM128.927 176.315H132.476V177.147H128.927V176.315ZM128.03 177.147H128.927V184.739H128.03V177.147ZM132.476 177.147H133.373V184.739H132.476V177.147ZM128.927 184.739H132.476V185.571H128.927V184.739ZM136.155 176.328H137.039V187.274H136.155V176.328ZM144.609 176.315H145.506V177.16H148.171V178.005H146.39V178.837H143.725V178.005H141.944V177.16H144.609V176.315ZM142.828 178.837H143.725V181.372H142.828V178.837ZM146.39 178.837H147.274V181.372H146.39V178.837ZM143.725 181.372H146.39V182.217H143.725V181.372ZM150.017 176.315H150.901V182.204H150.017V180.527H148.236V179.682H150.017V178.837H148.236V177.992H150.017V176.315ZM142.763 183.049H143.66V186.416H150.771V187.261H142.763V183.049ZM155.083 176.315H155.967V179.682H155.083V176.315ZM154.186 179.682H155.083V180.527H154.186V179.682ZM155.967 179.682H156.864V180.527H155.967V179.682ZM153.302 180.527H154.186V181.372H153.302V180.527ZM156.864 180.527H157.748V181.372H156.864V180.527ZM152.418 181.372H153.302V182.204H152.418V181.372ZM157.748 181.372H158.632V182.204H157.748V181.372ZM160.543 176.315H161.427V182.204H160.543V176.315ZM153.237 183.049H161.245V185.571H154.134V186.416H161.245V187.261H153.237V184.739H160.348V183.894H153.237V183.049ZM163.852 176.315H167.401V177.147H163.852V176.315ZM162.955 177.147H163.852V184.739H162.955V177.147ZM167.401 177.147H168.298V184.739H167.401V177.147ZM163.852 184.739H167.401V185.571H163.852V184.739ZM171.08 176.328H171.964V187.274H171.08V176.328ZM176.869 176.315H183.096V177.16H177.766V179.682H176.869V176.315ZM177.766 179.682H183.096V180.527H177.766V179.682ZM184.812 176.315H185.709V182.217H184.812V176.315ZM179.547 179.682H180.431V181.372H183.096V182.217H176.882V181.372H179.547V179.682ZM177.701 183.049H178.598V184.739H184.812V183.049H185.709V187.261H177.701V183.049ZM178.598 185.571V186.416H184.812V185.571H178.598ZM187.241 176.315H188.138V184.739H187.241V176.315ZM188.138 184.739H192.584V185.571H188.138V184.739ZM195.366 176.328H196.25V187.274H195.366V176.328ZM197.778 176.315H203.121V177.147H198.675V184.739H197.778V176.315ZM202.224 183.894H203.121V184.739H202.224V183.894ZM198.675 184.739H202.224V185.571H198.675V184.739ZM205.149 176.315H206.046V181.372H207.619V182.217H206.046V187.261H205.149V176.315ZM209.153 185.064H210.089V186H209.153V185.064Z" fill="black"/>
<path d="M157.174 26.096H159.766V26.96H157.174V26.096ZM155.446 26.96H157.174V27.824H155.446V26.96ZM159.766 26.96H161.494V27.824H159.766V26.96ZM154.582 27.824H155.446V28.688H154.582V27.824ZM161.494 27.824H162.358V28.688H161.494V27.824ZM163.77 34.136H169.818V35H163.77V34.136ZM171.235 34.136H177.283V35H171.235V34.136ZM181.291 26.096H183.883V26.96H181.291V26.096ZM179.563 26.96H181.291V27.824H179.563V26.96ZM183.883 26.96H185.611V27.824H183.883V26.96ZM178.699 27.824H179.563V28.688H178.699V27.824ZM185.611 27.824H186.475V28.688H185.611V27.824ZM146.256 40.06H147.12V40.924H146.256V40.06ZM145.392 40.924H146.256V41.788H145.392V40.924ZM144.528 41.788H145.392V47.836H144.528V41.788ZM145.392 47.836H146.256V48.7H145.392V47.836ZM146.256 48.7H147.12V49.564H146.256V48.7ZM155.265 43.828C155.185 43.964 155.053 44.148 154.869 44.38C154.685 44.612 154.485 44.844 154.269 45.076C154.053 45.3 153.853 45.484 153.669 45.628H153.069V45.484C153.181 45.332 153.301 45.152 153.429 44.944C153.557 44.736 153.681 44.524 153.801 44.308C153.929 44.084 154.033 43.884 154.113 43.708H155.265V43.828ZM153.153 43.828C153.073 43.964 152.941 44.148 152.757 44.38C152.573 44.612 152.373 44.844 152.157 45.076C151.941 45.3 151.741 45.484 151.557 45.628H150.957V45.484C151.125 45.252 151.309 44.968 151.509 44.632C151.709 44.288 151.873 43.98 152.001 43.708H153.153V43.828ZM160.238 43.624C160.238 44.216 160.066 44.696 159.722 45.064C159.378 45.424 158.878 45.604 158.222 45.604C157.542 45.604 157.034 45.424 156.698 45.064C156.37 44.696 156.206 44.216 156.206 43.624H156.938C156.938 44.08 157.042 44.44 157.25 44.704C157.458 44.968 157.782 45.1 158.222 45.1C158.67 45.1 158.994 44.968 159.194 44.704C159.402 44.44 159.506 44.08 159.506 43.624H160.238ZM163.812 49.06L163.933 48.076C164.413 48.076 164.865 48.032 165.289 47.944C165.713 47.848 166.101 47.724 166.453 47.572C166.813 47.412 167.121 47.232 167.377 47.032C167.633 46.824 167.829 46.612 167.965 46.396C168.109 46.172 168.181 45.952 168.181 45.736C168.181 45.632 168.145 45.528 168.073 45.424C168.001 45.312 167.877 45.22 167.701 45.148C167.533 45.076 167.305 45.04 167.017 45.04C166.841 45.04 166.645 45.064 166.429 45.112C166.213 45.16 166.005 45.228 165.805 45.316C165.613 45.396 165.453 45.488 165.325 45.592C165.541 45.768 165.741 45.94 165.925 46.108C166.117 46.276 166.313 46.46 166.513 46.66C166.713 46.852 166.929 47.072 167.161 47.32C167.345 47.456 167.549 47.572 167.773 47.668C168.005 47.764 168.253 47.844 168.517 47.908C168.789 47.964 169.065 48.008 169.345 48.04C169.625 48.064 169.905 48.076 170.185 48.076C170.353 48.076 170.473 48.124 170.545 48.22C170.625 48.308 170.665 48.416 170.665 48.544C170.665 48.672 170.609 48.792 170.497 48.904C170.385 49.008 170.241 49.06 170.065 49.06C169.625 49.06 169.173 49.02 168.709 48.94C168.253 48.852 167.825 48.724 167.425 48.556C167.025 48.38 166.685 48.16 166.405 47.896C166.269 47.72 166.117 47.544 165.949 47.368C165.781 47.192 165.597 47.016 165.396 46.84C165.205 46.656 164.997 46.484 164.773 46.324C164.725 46.284 164.677 46.212 164.629 46.108C164.581 46.004 164.541 45.896 164.509 45.784C164.477 45.672 164.461 45.588 164.461 45.532C164.461 45.412 164.537 45.268 164.689 45.1C164.841 44.932 165.045 44.772 165.301 44.62C165.557 44.46 165.849 44.328 166.177 44.224C166.505 44.12 166.845 44.068 167.197 44.068C167.653 44.068 168.021 44.136 168.301 44.272C168.589 44.408 168.797 44.584 168.925 44.8C169.061 45.008 169.129 45.232 169.129 45.472C169.129 45.824 169.041 46.176 168.865 46.528C168.689 46.872 168.437 47.196 168.109 47.5C167.781 47.804 167.397 48.076 166.957 48.316C166.517 48.548 166.029 48.732 165.493 48.868C164.965 48.996 164.405 49.06 163.812 49.06ZM177.676 43.624C177.676 44.216 177.504 44.696 177.16 45.064C176.816 45.424 176.316 45.604 175.66 45.604C174.98 45.604 174.472 45.424 174.136 45.064C173.808 44.696 173.644 44.216 173.644 43.624H174.376C174.376 44.08 174.48 44.44 174.688 44.704C174.896 44.968 175.22 45.1 175.66 45.1C176.108 45.1 176.432 44.968 176.632 44.704C176.84 44.44 176.944 44.08 176.944 43.624H177.676ZM182.921 43.828C182.841 43.964 182.709 44.148 182.525 44.38C182.341 44.612 182.141 44.844 181.925 45.076C181.709 45.3 181.509 45.484 181.325 45.628H180.725V45.484C180.837 45.332 180.957 45.152 181.085 44.944C181.213 44.736 181.337 44.524 181.457 44.308C181.585 44.084 181.689 43.884 181.769 43.708H182.921V43.828ZM180.809 43.828C180.729 43.964 180.597 44.148 180.413 44.38C180.229 44.612 180.029 44.844 179.813 45.076C179.597 45.3 179.397 45.484 179.213 45.628H178.613V45.484C178.781 45.252 178.965 44.968 179.165 44.632C179.365 44.288 179.529 43.98 179.657 43.708H180.809V43.828ZM187.699 40.06H188.563V40.924H187.699V40.06ZM188.563 40.924H189.427V41.788H188.563V40.924ZM189.427 41.788H190.291V47.836H189.427V41.788ZM188.563 47.836H189.427V48.7H188.563V47.836ZM187.699 48.7H188.563V49.564H187.699V48.7ZM157.127 54.06H157.991V55.752H157.127V54.06ZM156.263 55.752H157.127V57.432H156.263V55.752ZM155.399 57.432H156.263V59.112H155.399V57.432ZM154.535 59.112H155.399V60.804H154.535V59.112ZM153.671 60.804H154.535V62.484H153.671V60.804ZM152.807 62.484H153.671V64.164H152.807V62.484ZM164.832 54.096H167.424V54.96H164.832V54.096ZM163.104 54.96H164.832V55.824H163.104V54.96ZM167.424 54.96H169.152V55.824H167.424V54.96ZM162.24 55.824H163.104V56.688H162.24V55.824ZM169.152 55.824H170.016V56.688H169.152V55.824ZM174.596 56.04L173.744 56.688C175.256 57.96 177.248 60.168 178.292 61.74L179.192 61.032C178.112 59.544 175.976 57.228 174.596 56.04ZM143.946 67.292C143.862 68.888 143.862 74.66 138.966 77.156C139.242 77.36 139.542 77.636 139.698 77.864C144.666 75.164 144.846 69.176 144.942 67.292H143.946ZM144.906 67.532L144.042 67.616C144.126 68.72 144.462 75.428 149.55 77.864C149.694 77.612 149.97 77.312 150.234 77.108C145.29 74.84 144.942 68.468 144.906 67.532ZM151.746 76.136H157.794V77H151.746V76.136ZM159.211 76.136H165.259V77H159.211V76.136ZM166.676 76.136H172.724V77H166.676V76.136ZM176.973 69.476H179.829V70.412H176.973V69.476ZM174.129 70.412H176.973V71.36H174.129V70.412ZM179.829 70.412H180.777V71.36H179.829V70.412ZM180.777 71.36H181.725V75.116H180.777V71.36ZM179.829 75.116H180.777V76.064H179.829V75.116ZM177.933 76.064H179.829V77H177.933V76.064ZM183.141 76.136H189.189V77H183.141V76.136ZM193.438 69.476H196.294V70.412H193.438V69.476ZM190.594 70.412H193.438V71.36H190.594V70.412ZM196.294 70.412H197.242V71.36H196.294V70.412ZM197.242 71.36H198.19V75.116H197.242V71.36ZM196.294 75.116H197.242V76.064H196.294V75.116ZM194.398 76.064H196.294V77H194.398V76.064Z" fill="black"/>
<path d="M3.96516 49.3477L36.0482 6.04673C37.9343 3.50122 40.915 2 44.0831 2H125.691C128.837 2 131.8 3.48051 133.688 5.99652L166.22 49.3323C167.519 51.0639 168.222 53.1706 168.222 55.3358V232C168.222 237.523 163.745 242 158.222 242H12C6.47715 242 2 237.523 2 232V55.301C2 53.1572 2.68892 51.0702 3.96516 49.3477Z" fill="white"/>
<path d="M3.96516 49.3477L36.0482 6.04673C37.9343 3.50122 40.915 2 44.0831 2H125.691C128.837 2 131.8 3.48051 133.688 5.99652L166.22 49.3323C167.519 51.0639 168.222 53.1706 168.222 55.3358V232C168.222 237.523 163.745 242 158.222 242H12C6.47715 242 2 237.523 2 232V55.301C2 53.1572 2.68892 51.0702 3.96516 49.3477Z" fill="url(#paint2_linear_1184_1826)"/>
<path d="M3.96516 49.3477L36.0482 6.04673C37.9343 3.50122 40.915 2 44.0831 2H125.691C128.837 2 131.8 3.48051 133.688 5.99652L166.22 49.3323C167.519 51.0639 168.222 53.1706 168.222 55.3358V232C168.222 237.523 163.745 242 158.222 242H12C6.47715 242 2 237.523 2 232V55.301C2 53.1572 2.68892 51.0702 3.96516 49.3477Z" stroke="#5A749A" stroke-width="3"/>
<path d="M9.25119 53.183L39.0078 12.3343C40.89 9.75053 43.894 8.22229 47.0906 8.22229H122.716C125.891 8.22229 128.877 9.72971 130.762 12.284L160.935 53.1673C162.205 54.887 162.89 56.9681 162.89 59.1055V226.667C162.89 232.19 158.412 236.667 152.89 236.667H17.334C11.8111 236.667 7.33398 232.19 7.33398 226.667V59.071C7.33398 56.9549 8.00525 54.8934 9.25119 53.183Z" fill="url(#paint3_linear_1184_1826)" stroke="#5A749A" stroke-width="3"/>
<rect x="31.334" y="74.8889" width="107.556" height="144" rx="10" fill="#EBEBFF" stroke="#5A749A" stroke-width="3"/>
<path d="M58.5298 93.12H73.3138V103.992H58.5298V93.12ZM60.1858 94.656V102.432H71.6578V94.656H60.1858ZM57.0178 105.552H74.9698V107.112H66.7378V113.328H65.1058V107.112H57.0178V105.552ZM77.7829 93.12H79.4149V96.216H87.6469V93.12H89.2789V103.992H77.7829V93.12ZM79.4149 97.776V102.432H87.6469V97.776H79.4149ZM92.6869 93.12H94.3189V103.992H92.6869V100.896H89.3989V99.336H92.6869V97.776H89.3989V96.216H92.6869V93.12ZM80.9509 105.552H92.4229V107.112H80.9509V105.552ZM79.2949 107.112H80.9509V111.768H79.2949V107.112ZM92.4229 107.112H94.0789V111.768H92.4229V107.112ZM80.9509 111.768H92.4229V113.328H80.9509V111.768ZM97.1188 93.12H108.591V94.656H103.671V99.336H102.039V94.656H97.1188V93.12ZM100.383 99.336H102.039V100.896H100.383V99.336ZM103.671 99.336H105.327V100.896H103.671V99.336ZM98.7508 100.896H100.383V102.432H98.7508V100.896ZM105.327 100.896H106.959V102.432H105.327V100.896ZM97.1188 102.432H98.7508V103.992H97.1188V102.432ZM106.959 102.432H108.591V103.992H106.959V102.432ZM111.759 93.12H113.415V97.776H115.071V99.336H113.415V103.992H111.759V93.12ZM100.287 105.552H111.759V107.112H100.287V105.552ZM98.6308 107.112H100.287V111.768H98.6308V107.112ZM111.759 107.112H113.415V111.768H111.759V107.112ZM100.287 111.768H111.759V113.328H100.287V111.768ZM64.2386 121.12H65.8706V127.336H64.2386V121.12ZM62.5826 127.336H64.2386V128.896H62.5826V127.336ZM65.8706 127.336H67.5266V128.896H65.8706V127.336ZM60.9506 128.896H62.5826V130.432H60.9506V128.896ZM67.5266 128.896H69.1586V130.432H67.5266V128.896ZM57.6626 130.432H60.9506V131.992H57.6626V130.432ZM69.1586 130.432H72.4466V131.992H69.1586V130.432ZM56.1506 133.552H74.1026V135.112H65.8706V141.328H64.2386V135.112H56.1506V133.552ZM81.8837 121.12H83.5157V122.656H88.4357V124.216H76.9397V122.656H81.8837V121.12ZM80.2277 125.776H85.1477V127.336H80.2277V125.776ZM78.5957 127.336H80.2277V136.672H78.5957V127.336ZM85.1477 127.336H86.8037V136.672H85.1477V127.336ZM80.2277 136.672H85.1477V138.208H80.2277V136.672ZM90.5957 121.12H92.2517V130.456H95.1557V132.016H92.2517V141.328H90.5957V121.12ZM99.4985 121.12H101.155V127.336H114.283V128.896H99.4985V121.12ZM97.9865 130.456H115.939V132.016H97.9865V130.456ZM99.4985 133.552H101.155V139.768H114.283V141.328H99.4985V133.552ZM57.1115 149.12H68.6075V156.872H66.9755V150.656H57.1115V149.12ZM65.3195 156.872H66.9755V158.432H65.3195V156.872ZM63.6875 158.432H65.3195V159.992H63.6875V158.432ZM71.7515 149.12H73.4075V159.992H71.7515V155.336H68.6075V153.776H71.7515V149.12ZM58.6235 161.552H60.2795V167.768H73.4075V169.328H58.6235V161.552ZM76.2365 149.12H87.7325V156.872H86.1005V150.656H76.2365V149.12ZM84.4445 156.872H86.1005V158.432H84.4445V156.872ZM82.8125 158.432H84.4445V159.992H82.8125V158.432ZM90.8765 149.12H92.5325V153.776H94.1885V155.336H92.5325V159.992H90.8765V149.12ZM79.4045 161.552H90.8765V163.112H79.4045V161.552ZM77.7485 163.112H79.4045V167.768H77.7485V163.112ZM90.8765 163.112H92.5325V167.768H90.8765V163.112ZM79.4045 167.768H90.8765V169.328H79.4045V167.768ZM98.5376 149.12H100.194V152.216H111.666V149.12H113.322V159.992H98.5376V149.12ZM100.194 153.776V158.432H111.666V153.776H100.194ZM97.0256 161.552H114.978V163.112H106.746V169.328H105.114V163.112H97.0256V161.552ZM77.8883 177.12H89.3603V178.656H84.4403V183.336H82.8083V178.656H77.8883V177.12ZM81.1523 183.336H82.8083V184.896H81.1523V183.336ZM84.4403 183.336H86.0963V184.896H84.4403V183.336ZM79.5203 184.896H81.1523V186.432H79.5203V184.896ZM86.0963 184.896H87.7283V186.432H86.0963V184.896ZM77.8883 186.432H79.5203V187.992H77.8883V186.432ZM87.7283 186.432H89.3603V187.992H87.7283V186.432ZM92.5283 177.12H94.1843V187.992H92.5283V183.336H89.3843V181.776H92.5283V177.12ZM79.4003 189.552H94.1843V197.328H92.5283V191.112H79.4003V189.552Z" fill="black"/>
<path d="M15.1463 214.491C14.4903 214.491 13.9463 214.123 13.9463 213.611C13.9463 213.131 14.4903 212.731 15.1463 212.731C15.8023 212.731 16.3463 213.131 16.3463 213.611C16.3463 214.123 15.8023 214.491 15.1463 214.491ZM15.1463 215.147C16.2343 215.147 17.1143 214.475 17.1143 213.611C17.1143 212.763 16.2343 212.091 15.1463 212.091C14.0583 212.091 13.1783 212.763 13.1783 213.611C13.1783 214.475 14.0583 215.147 15.1463 215.147ZM18.6183 199.551V198.399H20.9223V197.247H22.0743V198.399H24.3783V199.551H22.0743V200.703H20.9223V199.551H18.6183ZM19.7703 201.855V200.703H20.9223V201.855H19.7703ZM19.7703 197.247V196.095H20.9223V197.247H19.7703ZM22.0743 201.855V200.703H23.2263V201.855H22.0743ZM22.0743 197.247V196.095H23.2263V197.247H22.0743ZM25.6263 194.214V193.062H26.7783V194.214H25.6263ZM22.8903 189.759C22.8903 191.087 23.9783 192.191 25.3223 192.191C26.6663 192.191 27.7543 191.087 27.7543 189.759C27.7543 188.399 26.6663 187.311 25.3223 187.311C23.9783 187.311 22.8903 188.399 22.8903 189.759ZM26.9383 189.759C26.9383 190.639 26.2183 191.375 25.3223 191.375C24.4263 191.375 23.7063 190.639 23.7063 189.759C23.7063 188.847 24.4263 188.127 25.3223 188.127C26.2183 188.127 26.9383 188.847 26.9383 189.759ZM25.6263 183.167V182.015H26.7783V183.167H25.6263ZM20.9703 180.12V178.968H22.1223V180.12H20.9703ZM25.5783 180.12V178.968H26.7303V180.12H25.5783ZM17.5783 174.77V173.618H19.8823V171.314H21.0343V172.466H22.1863V173.618H21.0343V174.77H22.1863V175.922H21.0343V177.074H19.8823V174.77H17.5783ZM22.1863 177.074V175.922H23.3383V177.074H22.1863ZM22.1863 172.466V171.314H23.3383V172.466H22.1863ZM19.7703 169.433V168.169H21.0183V169.433H19.7703ZM15.1463 166.757C14.4903 166.757 13.9463 166.389 13.9463 165.877C13.9463 165.397 14.4903 164.997 15.1463 164.997C15.8023 164.997 16.3463 165.397 16.3463 165.877C16.3463 166.389 15.8023 166.757 15.1463 166.757ZM15.1463 167.413C16.2343 167.413 17.1143 166.741 17.1143 165.877C17.1143 165.029 16.2343 164.357 15.1463 164.357C14.0583 164.357 13.1783 165.029 13.1783 165.877C13.1783 166.741 14.0583 167.413 15.1463 167.413ZM18.6183 151.816V150.664H20.9223L20.9223 149.512H22.0743L22.0743 150.664H24.3783V151.816H22.0743V152.968H20.9223V151.816H18.6183ZM19.7703 154.12V152.968H20.9223V154.12H19.7703ZM19.7703 149.512V148.36H20.9223V149.512H19.7703ZM22.0743 154.12V152.968H23.2263V154.12H22.0743ZM22.0743 149.512V148.36H23.2263V149.512H22.0743ZM25.6263 146.48V145.328H26.7783V146.48H25.6263ZM22.8903 142.025C22.8903 143.353 23.9783 144.457 25.3223 144.457C26.6663 144.457 27.7543 143.353 27.7543 142.025C27.7543 140.665 26.6663 139.577 25.3223 139.577C23.9783 139.577 22.8903 140.665 22.8903 142.025ZM26.9383 142.025C26.9383 142.905 26.2183 143.641 25.3223 143.641C24.4263 143.641 23.7063 142.905 23.7063 142.025C23.7063 141.113 24.4263 140.393 25.3223 140.393C26.2183 140.393 26.9383 141.113 26.9383 142.025ZM25.6263 135.433V134.281H26.7783V135.433H25.6263ZM20.9703 132.386V131.234H22.1223V132.386H20.9703ZM25.5783 132.386V131.234H26.7303V132.386H25.5783ZM17.5783 127.035V125.883H19.8823V123.579H21.0343V124.731H22.1863V125.883H21.0343V127.035H22.1863V128.187H21.0343V129.339H19.8823V127.035H17.5783ZM22.1863 129.339V128.187H23.3383V129.339H22.1863ZM22.1863 124.731V123.579H23.3383V124.731H22.1863ZM19.7703 121.699V120.435H21.0183V121.699H19.7703ZM15.1463 119.022C14.4903 119.022 13.9463 118.654 13.9463 118.142C13.9463 117.662 14.4903 117.262 15.1463 117.262C15.8023 117.262 16.3463 117.662 16.3463 118.142C16.3463 118.654 15.8023 119.022 15.1463 119.022ZM15.1463 119.678C16.2343 119.678 17.1143 119.006 17.1143 118.142C17.1143 117.294 16.2343 116.622 15.1463 116.622C14.0583 116.622 13.1783 117.294 13.1783 118.142C13.1783 119.006 14.0583 119.678 15.1463 119.678ZM18.6183 104.082V102.93H20.9223V101.778H22.0743V102.93H24.3783V104.082H22.0743V105.234H20.9223V104.082H18.6183ZM19.7703 106.386V105.234H20.9223V106.386H19.7703ZM19.7703 101.778V100.626H20.9223V101.778H19.7703ZM22.0743 106.386V105.234H23.2263V106.386H22.0743ZM22.0743 101.778V100.626H23.2263V101.778H22.0743ZM25.6263 98.7454V97.5934H26.7783V98.7454H25.6263ZM22.8903 94.2905C22.8903 95.6185 23.9783 96.7225 25.3223 96.7225C26.6663 96.7225 27.7543 95.6185 27.7543 94.2905C27.7543 92.9305 26.6663 91.8425 25.3223 91.8425C23.9783 91.8425 22.8903 92.9305 22.8903 94.2905ZM26.9383 94.2905C26.9383 95.1705 26.2183 95.9065 25.3223 95.9065C24.4263 95.9065 23.7063 95.1705 23.7063 94.2905C23.7063 93.3785 24.4263 92.6585 25.3223 92.6585C26.2183 92.6585 26.9383 93.3785 26.9383 94.2905ZM25.6263 87.6985V86.5465H26.7783V87.6985H25.6263ZM20.9703 84.6516V83.4996H22.1223V84.6516H20.9703ZM25.5783 84.6516V83.4996H26.7303V84.6516H25.5783ZM17.5783 79.3008V78.1488H19.8823V75.8448H21.0343V76.9968H22.1863V78.1488H21.0343V79.3008H22.1863V80.4528H21.0343V81.6048H19.8823V79.3008H17.5783ZM22.1863 81.6048V80.4528H23.3383V81.6048H22.1863ZM22.1863 76.9968V75.8448H23.3383V76.9968H22.1863Z" fill="black"/>
<path d="M156.854 212.713C157.51 212.713 158.054 212.345 158.054 211.833C158.054 211.353 157.51 210.953 156.854 210.953C156.198 210.953 155.654 211.353 155.654 211.833C155.654 212.345 156.198 212.713 156.854 212.713ZM156.854 213.369C155.766 213.369 154.886 212.697 154.886 211.833C154.886 210.985 155.766 210.313 156.854 210.313C157.942 210.313 158.822 210.985 158.822 211.833C158.822 212.697 157.942 213.369 156.854 213.369ZM153.382 197.773V196.621H151.078V195.469H149.926V196.621H147.622V197.773H149.926V198.925H151.078V197.773H153.382ZM152.23 200.077V198.925H151.078V200.077H152.23ZM152.23 195.469V194.317H151.078V195.469H152.23ZM149.926 200.077V198.925H148.774V200.077H149.926ZM149.926 195.469V194.317H148.774V195.469H149.926ZM146.374 192.436V191.284H145.222V192.436H146.374ZM149.11 187.981C149.11 189.309 148.022 190.413 146.678 190.413C145.334 190.413 144.246 189.309 144.246 187.981C144.246 186.621 145.334 185.533 146.678 185.533C148.022 185.533 149.11 186.621 149.11 187.981ZM145.062 187.981C145.062 188.861 145.782 189.597 146.678 189.597C147.574 189.597 148.294 188.861 148.294 187.981C148.294 187.069 147.574 186.349 146.678 186.349C145.782 186.349 145.062 187.069 145.062 187.981ZM146.374 181.389V180.237H145.222V181.389H146.374ZM151.03 178.342V177.19H149.878V178.342H151.03ZM146.422 178.342V177.19H145.27V178.342H146.422ZM154.422 172.992V171.84H152.118V169.536H150.966V170.688H149.814V171.84H150.966V172.992H149.814V174.144H150.966V175.296H152.118V172.992H154.422ZM149.814 175.296V174.144H148.662V175.296H149.814ZM149.814 170.688V169.536H148.662V170.688H149.814ZM152.23 167.655V166.391H150.982V167.655H152.23ZM156.854 164.979C157.51 164.979 158.054 164.611 158.054 164.099C158.054 163.619 157.51 163.219 156.854 163.219C156.198 163.219 155.654 163.619 155.654 164.099C155.654 164.611 156.198 164.979 156.854 164.979ZM156.854 165.635C155.766 165.635 154.886 164.963 154.886 164.099C154.886 163.251 155.766 162.579 156.854 162.579C157.942 162.579 158.822 163.251 158.822 164.099C158.822 164.963 157.942 165.635 156.854 165.635ZM153.382 150.038V148.886H151.078V147.734H149.926V148.886H147.622V150.038H149.926V151.19H151.078V150.038H153.382ZM152.23 152.342V151.19H151.078V152.342H152.23ZM152.23 147.734V146.582H151.078V147.734H152.23ZM149.926 152.342V151.19H148.774V152.342H149.926ZM149.926 147.734V146.582H148.774V147.734H149.926ZM146.374 144.702V143.55H145.222V144.702H146.374ZM149.11 140.247C149.11 141.575 148.022 142.679 146.678 142.679C145.334 142.679 144.246 141.575 144.246 140.247C144.246 138.887 145.334 137.799 146.678 137.799C148.022 137.799 149.11 138.887 149.11 140.247ZM145.062 140.247C145.062 141.127 145.782 141.863 146.678 141.863C147.574 141.863 148.294 141.127 148.294 140.247C148.294 139.335 147.574 138.615 146.678 138.615C145.782 138.615 145.062 139.335 145.062 140.247ZM146.374 133.655V132.503H145.222V133.655H146.374ZM151.03 130.608V129.456H149.878V130.608H151.03ZM146.422 130.608V129.456H145.27V130.608H146.422ZM154.422 125.257V124.105H152.118V121.801H150.966V122.953H149.814V124.105H150.966V125.257H149.814V126.409H150.966V127.561H152.118V125.257H154.422ZM149.814 127.561V126.409H148.662V127.561H149.814ZM149.814 122.953V121.801H148.662V122.953H149.814ZM152.23 119.921V118.657H150.982V119.921H152.23ZM156.854 117.244C157.51 117.244 158.054 116.876 158.054 116.364C158.054 115.884 157.51 115.484 156.854 115.484C156.198 115.484 155.654 115.884 155.654 116.364C155.654 116.876 156.198 117.244 156.854 117.244ZM156.854 117.9C155.766 117.9 154.886 117.228 154.886 116.364C154.886 115.516 155.766 114.844 156.854 114.844C157.942 114.844 158.822 115.516 158.822 116.364C158.822 117.228 157.942 117.9 156.854 117.9ZM153.382 102.304V101.152H151.078V100H149.926V101.152H147.622V102.304H149.926V103.456H151.078V102.304H153.382ZM152.23 104.608V103.456H151.078V104.608H152.23ZM152.23 100V98.8481H151.078V100H152.23ZM149.926 104.608V103.456H148.774V104.608H149.926ZM149.926 100V98.8481H148.774V100H149.926ZM146.374 96.9675V95.8155H145.222V96.9675H146.374ZM149.11 92.5126C149.11 93.8406 148.022 94.9446 146.678 94.9446C145.334 94.9446 144.246 93.8406 144.246 92.5126C144.246 91.1526 145.334 90.0646 146.678 90.0646C148.022 90.0646 149.11 91.1526 149.11 92.5126ZM145.062 92.5126C145.062 93.3926 145.782 94.1286 146.678 94.1286C147.574 94.1286 148.294 93.3926 148.294 92.5126C148.294 91.6006 147.574 90.8806 146.678 90.8806C145.782 90.8806 145.062 91.6006 145.062 92.5126ZM146.374 85.9206V84.7686H145.222V85.9206H146.374ZM151.03 82.8737V81.7217H149.878V82.8737H151.03ZM146.422 82.8737V81.7217H145.27V82.8737H146.422ZM154.422 77.5229V76.3709H152.118V74.0669H150.966V75.2189H149.814V76.3709H150.966V77.5229H149.814V78.6749H150.966V79.8269H152.118V77.5229H154.422ZM149.814 79.8269V78.6749H148.662V79.8269H149.814ZM149.814 75.2189V74.0669H148.662V75.2189H149.814Z" fill="black"/>
<path d="M74.1743 16.096H76.7663V16.96H74.1743V16.096ZM72.4463 16.96H74.1743V17.824H72.4463V16.96ZM76.7663 16.96H78.4943V17.824H76.7663V16.96ZM71.5823 17.824H72.4463V18.688H71.5823V17.824ZM78.4943 17.824H79.3583V18.688H78.4943V17.824ZM80.7698 24.136H86.8178V25H80.7698V24.136ZM88.2346 24.136H94.2826V25H88.2346V24.136ZM98.2914 16.096H100.883V16.96H98.2914V16.096ZM96.5634 16.96H98.2914V17.824H96.5634V16.96ZM100.883 16.96H102.611V17.824H100.883V16.96ZM95.6994 17.824H96.5634V18.688H95.6994V17.824ZM102.611 17.824H103.475V18.688H102.611V17.824ZM63.2556 30.06H64.1196V30.924H63.2556V30.06ZM62.3916 30.924H63.2556V31.788H62.3916V30.924ZM61.5276 31.788H62.3916V37.836H61.5276V31.788ZM62.3916 37.836H63.2556V38.7H62.3916V37.836ZM63.2556 38.7H64.1196V39.564H63.2556V38.7ZM72.2646 33.828C72.1846 33.964 72.0526 34.148 71.8686 34.38C71.6846 34.612 71.4846 34.844 71.2686 35.076C71.0526 35.3 70.8526 35.484 70.6686 35.628H70.0686V35.484C70.1806 35.332 70.3006 35.152 70.4286 34.944C70.5566 34.736 70.6806 34.524 70.8006 34.308C70.9286 34.084 71.0326 33.884 71.1126 33.708H72.2646V33.828ZM70.1526 33.828C70.0726 33.964 69.9406 34.148 69.7566 34.38C69.5726 34.612 69.3726 34.844 69.1566 35.076C68.9406 35.3 68.7406 35.484 68.5566 35.628H67.9566V35.484C68.1246 35.252 68.3086 34.968 68.5086 34.632C68.7086 34.288 68.8726 33.98 69.0006 33.708H70.1526V33.828ZM77.238 33.624C77.238 34.216 77.066 34.696 76.722 35.064C76.378 35.424 75.878 35.604 75.222 35.604C74.542 35.604 74.034 35.424 73.698 35.064C73.37 34.696 73.206 34.216 73.206 33.624H73.938C73.938 34.08 74.042 34.44 74.25 34.704C74.458 34.968 74.782 35.1 75.222 35.1C75.67 35.1 75.994 34.968 76.194 34.704C76.402 34.44 76.506 34.08 76.506 33.624H77.238ZM80.8125 39.06L80.9325 38.076C81.4125 38.076 81.8645 38.032 82.2885 37.944C82.7125 37.848 83.1005 37.724 83.4525 37.572C83.8125 37.412 84.1205 37.232 84.3765 37.032C84.6325 36.824 84.8285 36.612 84.9645 36.396C85.1085 36.172 85.1805 35.952 85.1805 35.736C85.1805 35.632 85.1445 35.528 85.0725 35.424C85.0005 35.312 84.8765 35.22 84.7005 35.148C84.5325 35.076 84.3045 35.04 84.0165 35.04C83.8405 35.04 83.6445 35.064 83.4285 35.112C83.2125 35.16 83.0045 35.228 82.8045 35.316C82.6125 35.396 82.4525 35.488 82.3245 35.592C82.5405 35.768 82.7405 35.94 82.9245 36.108C83.1165 36.276 83.3125 36.46 83.5125 36.66C83.7125 36.852 83.9285 37.072 84.1605 37.32C84.3445 37.456 84.5485 37.572 84.7725 37.668C85.0045 37.764 85.2525 37.844 85.5165 37.908C85.7885 37.964 86.0645 38.008 86.3445 38.04C86.6245 38.064 86.9045 38.076 87.1845 38.076C87.3525 38.076 87.4725 38.124 87.5445 38.22C87.6245 38.308 87.6645 38.416 87.6645 38.544C87.6645 38.672 87.6085 38.792 87.4965 38.904C87.3845 39.008 87.2405 39.06 87.0645 39.06C86.6245 39.06 86.1725 39.02 85.7085 38.94C85.2525 38.852 84.8245 38.724 84.4245 38.556C84.0245 38.38 83.6845 38.16 83.4045 37.896C83.2685 37.72 83.1165 37.544 82.9485 37.368C82.7805 37.192 82.5965 37.016 82.3965 36.84C82.2045 36.656 81.9965 36.484 81.7725 36.324C81.7245 36.284 81.6765 36.212 81.6285 36.108C81.5805 36.004 81.5405 35.896 81.5085 35.784C81.4765 35.672 81.4605 35.588 81.4605 35.532C81.4605 35.412 81.5365 35.268 81.6885 35.1C81.8405 34.932 82.0445 34.772 82.3005 34.62C82.5565 34.46 82.8485 34.328 83.1765 34.224C83.5045 34.12 83.8445 34.068 84.1965 34.068C84.6525 34.068 85.0205 34.136 85.3005 34.272C85.5885 34.408 85.7965 34.584 85.9245 34.8C86.0605 35.008 86.1285 35.232 86.1285 35.472C86.1285 35.824 86.0405 36.176 85.8645 36.528C85.6885 36.872 85.4365 37.196 85.1085 37.5C84.7805 37.804 84.3965 38.076 83.9565 38.316C83.5165 38.548 83.0285 38.732 82.4925 38.868C81.9645 38.996 81.4045 39.06 80.8125 39.06ZM94.6755 33.624C94.6755 34.216 94.5035 34.696 94.1595 35.064C93.8155 35.424 93.3155 35.604 92.6595 35.604C91.9795 35.604 91.4715 35.424 91.1355 35.064C90.8075 34.696 90.6435 34.216 90.6435 33.624H91.3755C91.3755 34.08 91.4795 34.44 91.6875 34.704C91.8955 34.968 92.2195 35.1 92.6595 35.1C93.1075 35.1 93.4315 34.968 93.6315 34.704C93.8395 34.44 93.9435 34.08 93.9435 33.624H94.6755ZM99.9208 33.828C99.8408 33.964 99.7088 34.148 99.5248 34.38C99.3408 34.612 99.1408 34.844 98.9248 35.076C98.7088 35.3 98.5088 35.484 98.3248 35.628H97.7248V35.484C97.8368 35.332 97.9568 35.152 98.0848 34.944C98.2128 34.736 98.3368 34.524 98.4568 34.308C98.5848 34.084 98.6888 33.884 98.7688 33.708H99.9208V33.828ZM97.8088 33.828C97.7288 33.964 97.5968 34.148 97.4128 34.38C97.2288 34.612 97.0288 34.844 96.8128 35.076C96.5968 35.3 96.3968 35.484 96.2128 35.628H95.6128V35.484C95.7808 35.252 95.9648 34.968 96.1648 34.632C96.3648 34.288 96.5288 33.98 96.6568 33.708H97.8088V33.828ZM104.699 30.06H105.563V30.924H104.699V30.06ZM105.563 30.924H106.427V31.788H105.563V30.924ZM106.427 31.788H107.291V37.836H106.427V31.788ZM105.563 37.836H106.427V38.7H105.563V37.836ZM104.699 38.7H105.563V39.564H104.699V38.7ZM74.1269 44.06H74.9909V45.752H74.1269V44.06ZM73.2629 45.752H74.1269V47.432H73.2629V45.752ZM72.3989 47.432H73.2629V49.112H72.3989V47.432ZM71.5349 49.112H72.3989V50.804H71.5349V49.112ZM70.6709 50.804H71.5349V52.484H70.6709V50.804ZM69.8069 52.484H70.6709V54.164H69.8069V52.484ZM81.8325 44.096H84.4245V44.96H81.8325V44.096ZM80.1045 44.96H81.8325V45.824H80.1045V44.96ZM84.4245 44.96H86.1525V45.824H84.4245V44.96ZM79.2405 45.824H80.1045V46.688H79.2405V45.824ZM86.1525 45.824H87.0165V46.688H86.1525V45.824ZM91.596 46.04L90.744 46.688C92.256 47.96 94.248 50.168 95.292 51.74L96.192 51.032C95.112 49.544 92.976 47.228 91.596 46.04ZM60.9463 57.292C60.8623 58.888 60.8623 64.66 55.9663 67.156C56.2423 67.36 56.5423 67.636 56.6983 67.864C61.6663 65.164 61.8463 59.176 61.9423 57.292H60.9463ZM61.9063 57.532L61.0423 57.616C61.1263 58.72 61.4623 65.428 66.5503 67.864C66.6943 67.612 66.9703 67.312 67.2343 67.108C62.2903 64.84 61.9423 58.468 61.9063 57.532ZM68.7463 66.136H74.7943V67H68.7463V66.136ZM76.2112 66.136H82.2592V67H76.2112V66.136ZM83.676 66.136H89.724V67H83.676V66.136ZM93.9728 59.476H96.8288V60.412H93.9728V59.476ZM91.1288 60.412H93.9728V61.36H91.1288V60.412ZM96.8288 60.412H97.7768V61.36H96.8288V60.412ZM97.7768 61.36H98.7248V65.116H97.7768V61.36ZM96.8288 65.116H97.7768V66.064H96.8288V65.116ZM94.9328 66.064H96.8288V67H94.9328V66.064ZM100.141 66.136H106.189V67H100.141V66.136ZM110.438 59.476H113.294V60.412H110.438V59.476ZM107.594 60.412H110.438V61.36H107.594V60.412ZM113.294 60.412H114.242V61.36H113.294V60.412ZM114.242 61.36H115.19V65.116H114.242V61.36ZM113.294 65.116H114.242V66.064H113.294V65.116ZM111.398 66.064H113.294V67H111.398V66.064Z" fill="black"/>
<defs>
<linearGradient id="paint0_linear_1184_1826" x1="168.111" y1="12" x2="168.111" y2="252" gradientUnits="userSpaceOnUse">
<stop stop-color="#DCDBFF"/>
<stop offset="1" stop-color="#2F2BEB" stop-opacity="0"/>
</linearGradient>
<linearGradient id="paint1_linear_1184_1826" x1="168.111" y1="18.2222" x2="168.111" y2="246.667" gradientUnits="userSpaceOnUse">
<stop stop-color="#F3F5FF"/>
<stop offset="1" stop-color="#BBC2FF" stop-opacity="0"/>
</linearGradient>
<linearGradient id="paint2_linear_1184_1826" x1="85.1111" y1="2" x2="85.1111" y2="242" gradientUnits="userSpaceOnUse">
<stop stop-color="#DCDBFF"/>
<stop offset="1" stop-color="#2F2BEB" stop-opacity="0"/>
</linearGradient>
<linearGradient id="paint3_linear_1184_1826" x1="85.1118" y1="8.22229" x2="85.1118" y2="236.667" gradientUnits="userSpaceOnUse">
<stop stop-color="#F3F5FF"/>
<stop offset="1" stop-color="#BBC2FF" stop-opacity="0"/>
</linearGradient>
</defs>
</svg>
