<svg width="238" height="258" viewBox="0 0 238 258" fill="none" xmlns="http://www.w3.org/2000/svg">
<path d="M71.9652 63.3477L104.048 20.0467C105.934 17.5012 108.915 16 112.083 16H193.691C196.837 16 199.8 17.4805 201.688 19.9965L234.22 63.3323C235.519 65.0639 236.222 67.1706 236.222 69.3358V246C236.222 251.523 231.745 256 226.222 256H80C74.4772 256 70 251.523 70 246V69.301C70 67.1572 70.6889 65.0702 71.9652 63.3477Z" fill="white"/>
<path d="M71.9652 63.3477L104.048 20.0467C105.934 17.5012 108.915 16 112.083 16H193.691C196.837 16 199.8 17.4805 201.688 19.9965L234.22 63.3323C235.519 65.0639 236.222 67.1706 236.222 69.3358V246C236.222 251.523 231.745 256 226.222 256H80C74.4772 256 70 251.523 70 246V69.301C70 67.1572 70.6889 65.0702 71.9652 63.3477Z" fill="url(#paint0_linear_1204_2130)"/>
<path d="M71.9652 63.3477L104.048 20.0467C105.934 17.5012 108.915 16 112.083 16H193.691C196.837 16 199.8 17.4805 201.688 19.9965L234.22 63.3323C235.519 65.0639 236.222 67.1706 236.222 69.3358V246C236.222 251.523 231.745 256 226.222 256H80C74.4772 256 70 251.523 70 246V69.301C70 67.1572 70.6889 65.0702 71.9652 63.3477Z" stroke="#AFDB94" stroke-width="3"/>
<path d="M77.2502 67.1829L107.007 26.3342C108.889 23.7504 111.893 22.2222 115.09 22.2222H190.715C193.89 22.2222 196.876 23.7296 198.761 26.2839L228.934 67.1671C230.204 68.8869 230.889 70.968 230.889 73.1054V240.667C230.889 246.189 226.411 250.667 220.889 250.667H85.333C79.8102 250.667 75.333 246.189 75.333 240.667V73.0709C75.333 70.9548 76.0043 68.8933 77.2502 67.1829Z" fill="url(#paint1_linear_1204_2130)" stroke="#AFDB94" stroke-width="3"/>
<rect x="99.333" y="88.8889" width="107.556" height="144" rx="10" fill="#F0F7EA" stroke="#AFDB94" stroke-width="3"/>
<path d="M83.1453 228.491C82.4893 228.491 81.9453 228.123 81.9453 227.611C81.9453 227.131 82.4893 226.731 83.1453 226.731C83.8013 226.731 84.3453 227.131 84.3453 227.611C84.3453 228.123 83.8013 228.491 83.1453 228.491ZM83.1453 229.147C84.2333 229.147 85.1133 228.475 85.1133 227.611C85.1133 226.763 84.2333 226.091 83.1453 226.091C82.0573 226.091 81.1773 226.763 81.1773 227.611C81.1773 228.475 82.0573 229.147 83.1453 229.147ZM86.6173 213.551V212.399H88.9213V211.247H90.0733V212.399H92.3773V213.551H90.0733V214.703H88.9213V213.551H86.6173ZM87.7693 215.855V214.703H88.9213V215.855H87.7693ZM87.7693 211.247V210.095H88.9213V211.247H87.7693ZM90.0733 215.855V214.703H91.2253V215.855H90.0733ZM90.0733 211.247V210.095H91.2253V211.247H90.0733ZM93.6253 208.214V207.062H94.7773V208.214H93.6253ZM90.8893 203.759C90.8893 205.087 91.9773 206.191 93.3213 206.191C94.6653 206.191 95.7533 205.087 95.7533 203.759C95.7533 202.399 94.6653 201.311 93.3213 201.311C91.9773 201.311 90.8893 202.399 90.8893 203.759ZM94.9373 203.759C94.9373 204.639 94.2173 205.375 93.3213 205.375C92.4253 205.375 91.7053 204.639 91.7053 203.759C91.7053 202.847 92.4253 202.127 93.3213 202.127C94.2173 202.127 94.9373 202.847 94.9373 203.759ZM93.6253 197.167V196.015H94.7773V197.167H93.6253ZM88.9693 194.12V192.968H90.1213V194.12H88.9693ZM93.5773 194.12V192.968H94.7293V194.12H93.5773ZM85.5773 188.77V187.618H87.8813V185.314H89.0333V186.466H90.1853V187.618H89.0333V188.77H90.1853V189.922H89.0333V191.074H87.8813V188.77H85.5773ZM90.1853 191.074V189.922H91.3373V191.074H90.1853ZM90.1853 186.466V185.314H91.3373V186.466H90.1853ZM87.7693 183.433V182.169H89.0173V183.433H87.7693ZM83.1453 180.757C82.4893 180.757 81.9453 180.389 81.9453 179.877C81.9453 179.397 82.4893 178.997 83.1453 178.997C83.8013 178.997 84.3453 179.397 84.3453 179.877C84.3453 180.389 83.8013 180.757 83.1453 180.757ZM83.1453 181.413C84.2333 181.413 85.1133 180.741 85.1133 179.877C85.1133 179.029 84.2333 178.357 83.1453 178.357C82.0573 178.357 81.1773 179.029 81.1773 179.877C81.1773 180.741 82.0573 181.413 83.1453 181.413ZM86.6173 165.816V164.664H88.9213V163.512H90.0733V164.664H92.3773V165.816H90.0733V166.968H88.9213V165.816H86.6173ZM87.7693 168.12V166.968H88.9213V168.12H87.7693ZM87.7693 163.512V162.36H88.9213V163.512H87.7693ZM90.0733 168.12V166.968H91.2253V168.12H90.0733ZM90.0733 163.512V162.36H91.2253V163.512H90.0733ZM93.6253 160.48V159.328H94.7773V160.48H93.6253ZM90.8893 156.025C90.8893 157.353 91.9773 158.457 93.3213 158.457C94.6653 158.457 95.7533 157.353 95.7533 156.025C95.7533 154.665 94.6653 153.577 93.3213 153.577C91.9773 153.577 90.8893 154.665 90.8893 156.025ZM94.9373 156.025C94.9373 156.905 94.2173 157.641 93.3213 157.641C92.4253 157.641 91.7053 156.905 91.7053 156.025C91.7053 155.113 92.4253 154.393 93.3213 154.393C94.2173 154.393 94.9373 155.113 94.9373 156.025ZM93.6253 149.433V148.281H94.7773V149.433H93.6253ZM88.9693 146.386V145.234H90.1213V146.386H88.9693ZM93.5773 146.386V145.234H94.7293V146.386H93.5773ZM85.5773 141.035V139.883H87.8813V137.579H89.0333V138.731H90.1853V139.883H89.0333V141.035H90.1853V142.187H89.0333V143.339H87.8813V141.035H85.5773ZM90.1853 143.339V142.187H91.3373V143.339H90.1853ZM90.1853 138.731V137.579H91.3373V138.731H90.1853ZM87.7693 135.699V134.435H89.0173V135.699H87.7693ZM83.1453 133.022C82.4893 133.022 81.9453 132.654 81.9453 132.142C81.9453 131.662 82.4893 131.262 83.1453 131.262C83.8013 131.262 84.3453 131.662 84.3453 132.142C84.3453 132.654 83.8013 133.022 83.1453 133.022ZM83.1453 133.678C84.2333 133.678 85.1133 133.006 85.1133 132.142C85.1133 131.294 84.2333 130.622 83.1453 130.622C82.0573 130.622 81.1773 131.294 81.1773 132.142C81.1773 133.006 82.0573 133.678 83.1453 133.678ZM86.6173 118.082V116.93H88.9213V115.778H90.0733V116.93H92.3773V118.082H90.0733V119.234H88.9213V118.082H86.6173ZM87.7693 120.386V119.234H88.9213V120.386H87.7693ZM87.7693 115.778V114.626H88.9213V115.778H87.7693ZM90.0733 120.386V119.234H91.2253V120.386H90.0733ZM90.0733 115.778V114.626H91.2253V115.778H90.0733ZM93.6253 112.745V111.593H94.7773V112.745H93.6253ZM90.8893 108.291C90.8893 109.619 91.9773 110.723 93.3213 110.723C94.6653 110.723 95.7533 109.619 95.7533 108.291C95.7533 106.931 94.6653 105.843 93.3213 105.843C91.9773 105.843 90.8893 106.931 90.8893 108.291ZM94.9373 108.291C94.9373 109.171 94.2173 109.907 93.3213 109.907C92.4253 109.907 91.7053 109.171 91.7053 108.291C91.7053 107.379 92.4253 106.659 93.3213 106.659C94.2173 106.659 94.9373 107.379 94.9373 108.291ZM93.6253 101.699V100.547H94.7773V101.699H93.6253ZM88.9693 98.6516V97.4996H90.1213V98.6516H88.9693ZM93.5773 98.6516V97.4996H94.7293V98.6516H93.5773ZM85.5773 93.3008V92.1488H87.8813V89.8448H89.0333V90.9968H90.1853V92.1488H89.0333V93.3008H90.1853V94.4528H89.0333V95.6048H87.8813V93.3008H85.5773ZM90.1853 95.6048V94.4528H91.3373V95.6048H90.1853ZM90.1853 90.9968V89.8448H91.3373V90.9968H90.1853Z" fill="black"/>
<path d="M224.855 226.713C225.511 226.713 226.055 226.345 226.055 225.833C226.055 225.353 225.511 224.953 224.855 224.953C224.199 224.953 223.655 225.353 223.655 225.833C223.655 226.345 224.199 226.713 224.855 226.713ZM224.855 227.369C223.767 227.369 222.887 226.697 222.887 225.833C222.887 224.985 223.767 224.313 224.855 224.313C225.943 224.313 226.823 224.985 226.823 225.833C226.823 226.697 225.943 227.369 224.855 227.369ZM221.383 211.773V210.621H219.079V209.469H217.927V210.621H215.623V211.773H217.927V212.925H219.079V211.773H221.383ZM220.231 214.077V212.925H219.079V214.077H220.231ZM220.231 209.469V208.317H219.079V209.469H220.231ZM217.927 214.077V212.925H216.775V214.077H217.927ZM217.927 209.469V208.317H216.775V209.469H217.927ZM214.375 206.436V205.284H213.223V206.436H214.375ZM217.111 201.981C217.111 203.309 216.023 204.413 214.679 204.413C213.335 204.413 212.247 203.309 212.247 201.981C212.247 200.621 213.335 199.533 214.679 199.533C216.023 199.533 217.111 200.621 217.111 201.981ZM213.063 201.981C213.063 202.861 213.783 203.597 214.679 203.597C215.575 203.597 216.295 202.861 216.295 201.981C216.295 201.069 215.575 200.349 214.679 200.349C213.783 200.349 213.063 201.069 213.063 201.981ZM214.375 195.389V194.237H213.223V195.389H214.375ZM219.031 192.343V191.191H217.879V192.343H219.031ZM214.423 192.343V191.191H213.271V192.343H214.423ZM222.423 186.992V185.84H220.119V183.536H218.967V184.688H217.815V185.84H218.967V186.992H217.815V188.144H218.967V189.296H220.119V186.992H222.423ZM217.815 189.296V188.144H216.663V189.296H217.815ZM217.815 184.688V183.536H216.663V184.688H217.815ZM220.231 181.655V180.391H218.983V181.655H220.231ZM224.855 178.979C225.511 178.979 226.055 178.611 226.055 178.099C226.055 177.619 225.511 177.219 224.855 177.219C224.199 177.219 223.655 177.619 223.655 178.099C223.655 178.611 224.199 178.979 224.855 178.979ZM224.855 179.635C223.767 179.635 222.887 178.963 222.887 178.099C222.887 177.251 223.767 176.579 224.855 176.579C225.943 176.579 226.823 177.251 226.823 178.099C226.823 178.963 225.943 179.635 224.855 179.635ZM221.383 164.039V162.887H219.079V161.735H217.927V162.887H215.623V164.039H217.927V165.191H219.079V164.039H221.383ZM220.231 166.343V165.191H219.079V166.343H220.231ZM220.231 161.735V160.583H219.079V161.735H220.231ZM217.927 166.343V165.191H216.775V166.343H217.927ZM217.927 161.735V160.583H216.775V161.735H217.927ZM214.375 158.702V157.55H213.223V158.702H214.375ZM217.111 154.247C217.111 155.575 216.023 156.679 214.679 156.679C213.335 156.679 212.247 155.575 212.247 154.247C212.247 152.887 213.335 151.799 214.679 151.799C216.023 151.799 217.111 152.887 217.111 154.247ZM213.063 154.247C213.063 155.127 213.783 155.863 214.679 155.863C215.575 155.863 216.295 155.127 216.295 154.247C216.295 153.335 215.575 152.615 214.679 152.615C213.783 152.615 213.063 153.335 213.063 154.247ZM214.375 147.655V146.503H213.223V147.655H214.375ZM219.031 144.608V143.456H217.879V144.608H219.031ZM214.423 144.608V143.456H213.271V144.608H214.423ZM222.423 139.257V138.105H220.119V135.801H218.967V136.953H217.815V138.105H218.967V139.257H217.815V140.409H218.967V141.561H220.119V139.257H222.423ZM217.815 141.561V140.409H216.663V141.561H217.815ZM217.815 136.953V135.801H216.663V136.953H217.815ZM220.231 133.921V132.657H218.983V133.921H220.231ZM224.855 131.244C225.511 131.244 226.055 130.876 226.055 130.364C226.055 129.884 225.511 129.484 224.855 129.484C224.199 129.484 223.655 129.884 223.655 130.364C223.655 130.876 224.199 131.244 224.855 131.244ZM224.855 131.9C223.767 131.9 222.887 131.228 222.887 130.364C222.887 129.516 223.767 128.844 224.855 128.844C225.943 128.844 226.823 129.516 226.823 130.364C226.823 131.228 225.943 131.9 224.855 131.9ZM221.383 116.304V115.152H219.079V114H217.927V115.152H215.623V116.304H217.927V117.456H219.079V116.304H221.383ZM220.231 118.608V117.456H219.079V118.608H220.231ZM220.231 114V112.848H219.079V114H220.231ZM217.927 118.608V117.456H216.775V118.608H217.927ZM217.927 114V112.848H216.775V114H217.927ZM214.375 110.968V109.816H213.223V110.968H214.375ZM217.111 106.513C217.111 107.841 216.023 108.945 214.679 108.945C213.335 108.945 212.247 107.841 212.247 106.513C212.247 105.153 213.335 104.065 214.679 104.065C216.023 104.065 217.111 105.153 217.111 106.513ZM213.063 106.513C213.063 107.393 213.783 108.129 214.679 108.129C215.575 108.129 216.295 107.393 216.295 106.513C216.295 105.601 215.575 104.881 214.679 104.881C213.783 104.881 213.063 105.601 213.063 106.513ZM214.375 99.9207V98.7687H213.223V99.9207H214.375ZM219.031 96.8739V95.7219H217.879V96.8739H219.031ZM214.423 96.8739V95.7219H213.271V96.8739H214.423ZM222.423 91.523V90.371H220.119V88.067H218.967V89.219H217.815V90.371H218.967V91.523H217.815V92.675H218.967V93.827H220.119V91.523H222.423ZM217.815 93.827V92.675H216.663V93.827H217.815ZM217.815 89.219V88.067H216.663V89.219H217.815Z" fill="black"/>
<path d="M113.221 120.315H119.448V121.147H114.118V125.359H113.221V120.315ZM114.118 125.359H119.448V126.204H114.118V125.359ZM121.151 120.315H122.048V122.837H122.945V123.682H122.048V126.204H121.151V120.315ZM114.937 127.049H121.151V127.894H114.937V127.049ZM114.04 127.894H114.937V130.416H114.04V127.894ZM121.151 127.894H122.048V130.416H121.151V127.894ZM114.937 130.416H121.151V131.261H114.937V130.416ZM127.133 120.315H128.017V123.682H127.133V120.315ZM126.236 123.682H127.133V124.527H126.236V123.682ZM128.017 123.682H128.914V124.527H128.017V123.682ZM125.352 124.527H126.236V125.372H125.352V124.527ZM128.914 124.527H129.798V125.372H128.914V124.527ZM124.468 125.372H125.352V126.204H124.468V125.372ZM129.798 125.372H130.682V126.204H129.798V125.372ZM132.593 120.315H133.477V126.204H132.593V120.315ZM125.287 127.049H126.184V130.416H133.295V131.261H125.287V127.049ZM135.903 120.315H139.452V121.147H135.903V120.315ZM135.006 121.147H135.903V128.739H135.006V121.147ZM139.452 121.147H140.349V128.739H139.452V121.147ZM135.903 128.739H139.452V129.571H135.903V128.739ZM143.131 120.328H144.015V131.274H143.131V120.328ZM148.92 120.315H149.804V121.992H154.263V120.315H155.147V126.204H148.92V120.315ZM149.804 122.837V125.359H154.263V122.837H149.804ZM156.85 120.315H157.747V122.837H158.644V123.682H157.747V126.204H156.85V120.315ZM149.739 127.049H157.747V127.894H150.636V130.416H157.747V131.261H149.739V127.049ZM161.897 120.315H168.111V121.147H161.897V120.315ZM161 121.147H161.897V123.682H161V121.147ZM168.111 121.147H169.008V123.682H168.111V121.147ZM161.897 123.682H168.111V124.527H161.897V123.682ZM160.181 125.372H169.905V126.217H160.181V125.372ZM161 127.049H161.897V130.416H169.008V131.261H161V127.049ZM177.47 120.315H178.367V122.005H181.032V122.837H178.367V124.527H177.47V122.837H174.805V122.005H177.47V120.315ZM176.586 124.527H177.47V125.372H176.586V124.527ZM178.367 124.527H179.251V125.372H178.367V124.527ZM174.805 125.372H176.586V126.217H174.805V125.372ZM179.251 125.372H181.032V126.217H179.251V125.372ZM182.735 120.315H183.645V131.261H182.735V120.315ZM177.444 126.217H178.315V127.881H181.032V128.726H174.818V127.881H177.444V126.217ZM186.075 120.315H189.624V121.147H186.075V120.315ZM185.178 121.147H186.075V128.739H185.178V121.147ZM189.624 121.147H190.521V128.739H189.624V121.147ZM186.075 128.739H189.624V129.571H186.075V128.739ZM192.224 120.315H193.108V125.372H194.005V120.315H194.902V131.261H194.005V126.204H193.108V131.261H192.224V120.315ZM121.485 135.315H129.493V136.147H127.712V141.204H129.493V142.049H121.485V141.204H123.266V136.147H121.485V135.315ZM124.15 136.147V141.204H126.828V136.147H124.15ZM125.047 142.049H125.931V144.571H130.39V145.403H120.666V144.571H125.047V142.049ZM131.927 135.315H137.27V143.739H136.373V139.527H131.927V138.682H136.373V136.147H131.927V135.315ZM135.489 143.739H136.373V144.571H135.489V143.739ZM139.298 135.315H140.195V140.372H141.768V141.217H140.195V146.261H139.298V135.315ZM143.302 135.315H149.529V136.147H144.199V140.359H143.302V135.315ZM144.199 140.359H149.529V141.204H144.199V140.359ZM151.232 135.315H152.129V137.837H153.026V138.682H152.129V141.204H151.232V135.315ZM145.018 142.049H151.232V142.894H145.018V142.049ZM144.121 142.894H145.018V145.416H144.121V142.894ZM151.232 142.894H152.129V145.416H151.232V142.894ZM145.018 145.416H151.232V146.261H145.018V145.416ZM157.215 135.315H158.099V136.16H160.764V136.992H158.099V139.527H157.215V136.992H154.55V136.16H157.215V135.315ZM156.318 139.527H157.215V140.372H156.318V139.527ZM158.099 139.527H158.996V140.372H158.099V139.527ZM154.55 140.372H156.318V141.204H154.55V140.372ZM158.996 140.372H160.764V141.204H158.996V140.372ZM162.48 135.315H163.377V141.204H162.48V138.682H160.777V137.837H162.48V135.315ZM155.369 142.049H163.377V146.261H155.369V142.049ZM156.266 142.894V145.416H162.48V142.894H156.266ZM165.729 135.315H166.626V136.992H172.84V135.315H173.737V141.204H165.729V135.315ZM166.626 137.837V140.359H172.84V137.837H166.626ZM164.91 142.049H174.634V142.894H170.175V146.261H169.291V142.894H164.91V142.049ZM176.157 135.315H182.371V136.147H179.706V138.682H178.822V136.147H176.157V135.315ZM177.925 138.682H178.822V139.527H177.925V138.682ZM179.706 138.682H180.603V139.527H179.706V138.682ZM177.041 139.527H177.925V140.359H177.041V139.527ZM180.603 139.527H181.487V140.359H180.603V139.527ZM176.157 140.359H177.041V141.204H176.157V140.359ZM181.487 140.359H182.371V141.204H181.487V140.359ZM184.087 135.315H184.984V141.204H184.087V138.682H182.384V137.837H184.087V135.315ZM176.976 142.049H184.984V146.261H184.087V142.894H176.976V142.049ZM186.517 135.315H187.453V143.739H186.517V135.315ZM186.517 144.675H187.453V145.611H186.517V144.675ZM114.46 150.315H118.009V151.147H114.46V150.315ZM113.563 151.147H114.46V158.739H113.563V151.147ZM118.009 151.147H118.906V158.739H118.009V151.147ZM114.46 158.739H118.009V159.571H114.46V158.739ZM121.688 150.328H122.572V161.274H121.688V150.328ZM128.296 150.315H129.193V151.992H135.407V150.315H136.304V156.204H128.296V150.315ZM129.193 152.837V155.359H135.407V152.837H129.193ZM127.477 157.049H137.201V157.894H132.742V161.261H131.858V157.894H127.477V157.049ZM138.725 150.315H144.939V151.147H142.274V153.682H141.39V151.147H138.725V150.315ZM140.493 153.682H141.39V154.527H140.493V153.682ZM142.274 153.682H143.171V154.527H142.274V153.682ZM139.609 154.527H140.493V155.359H139.609V154.527ZM143.171 154.527H144.055V155.359H143.171V154.527ZM138.725 155.359H139.609V156.204H138.725V155.359ZM144.055 155.359H144.939V156.204H144.055V155.359ZM146.655 150.315H147.552V156.204H146.655V153.682H144.952V152.837H146.655V150.315ZM139.544 157.049H147.552V161.261H146.655V157.894H139.544V157.049ZM150.801 150.315H157.015V151.147H150.801V150.315ZM149.904 151.147H150.801V153.682H149.904V151.147ZM157.015 151.147H157.912V153.682H157.015V151.147ZM150.801 153.682H157.015V154.527H150.801V153.682ZM149.085 155.372H158.809V156.217H149.085V155.372ZM149.904 157.049H157.912V159.571H150.801V160.416H157.912V161.261H149.904V158.739H157.015V157.894H149.904V157.049ZM163.723 150.315H169.95V151.147H167.285V156.204H166.401V151.147H163.723V150.315ZM165.504 156.204H166.401V157.894H165.504V156.204ZM167.285 156.204H168.169V157.894H167.285V156.204ZM164.62 157.894H165.504V158.739H164.62V157.894ZM168.169 157.894H169.066V158.739H168.169V157.894ZM163.723 158.739H164.62V159.571H163.723V158.739ZM169.066 158.739H169.95V159.571H169.066V158.739ZM171.874 150.328H172.758V161.274H171.874V150.328ZM174.298 150.315H175.195V158.739H174.298V150.315ZM175.195 158.739H179.641V159.571H175.195V158.739ZM182.423 150.328H183.307V161.274H182.423V150.328ZM185.654 150.315H193.662V156.217H192.765V151.16H185.654V150.315ZM191.881 156.217H192.765V157.062H191.881V156.217ZM189.216 157.049H190.1V159.571H194.559V160.403H184.835V159.571H189.216V157.049ZM109.752 165.315H112.417V166.16H109.752V165.315ZM108.868 166.16H109.752V166.992H108.868V166.16ZM112.417 166.16H113.314V166.992H112.417V166.16ZM107.971 166.992H108.868V169.527H107.971V166.992ZM113.314 166.992H114.198V169.527H113.314V166.992ZM108.868 169.527H109.752V170.372H108.868V169.527ZM112.417 169.527H113.314V170.372H112.417V169.527ZM109.752 170.372H112.417V171.204H109.752V170.372ZM116.096 165.315H116.98V171.204H116.096V165.315ZM110.571 172.049H111.455V174.571H110.571V172.049ZM114.133 172.049H115.017V174.571H114.133V172.049ZM109.687 174.571H110.571V175.416H109.687V174.571ZM111.455 174.571H112.352V175.416H111.455V174.571ZM113.236 174.571H114.133V175.416H113.236V174.571ZM115.017 174.571H115.901V175.416H115.017V174.571ZM108.79 175.416H109.687V176.261H108.79V175.416ZM112.352 175.416H113.236V176.261H112.352V175.416ZM115.901 175.416H116.798V176.261H115.901V175.416ZM121.108 165.315H125.554V166.147H121.108V165.315ZM120.224 166.147H121.108V166.992H120.224V166.147ZM125.554 166.147H126.438V166.992H125.554V166.147ZM119.327 166.992H120.224V170.359H119.327V166.992ZM126.438 166.992H127.335V170.359H126.438V166.992ZM120.224 170.359H121.108V171.204H120.224V170.359ZM125.554 170.359H126.438V171.204H125.554V170.359ZM121.108 171.204H125.554V172.049H121.108V171.204ZM118.508 174.558H128.232V175.403H118.508V174.558ZM129.769 165.315H135.996V171.204H129.769V165.315ZM130.653 166.147V170.359H135.112V166.147H130.653ZM137.842 165.315H138.726V171.204H137.842V169.527H136.061V168.682H137.842V167.837H136.061V166.992H137.842V165.315ZM130.588 172.049H131.485V175.416H138.596V176.261H130.588V172.049ZM143.632 165.315H149.859V166.147H144.529V170.359H143.632V165.315ZM144.529 170.359H149.859V171.204H144.529V170.359ZM151.562 165.315H152.459V167.837H153.356V168.682H152.459V171.204H151.562V165.315ZM145.348 172.049H151.562V172.894H145.348V172.049ZM144.451 172.894H145.348V175.416H144.451V172.894ZM151.562 172.894H152.459V175.416H151.562V172.894ZM145.348 175.416H151.562V176.261H145.348V175.416ZM157.545 165.315H158.429V168.682H157.545V165.315ZM156.648 168.682H157.545V169.527H156.648V168.682ZM158.429 168.682H159.326V169.527H158.429V168.682ZM155.764 169.527H156.648V170.372H155.764V169.527ZM159.326 169.527H160.21V170.372H159.326V169.527ZM154.88 170.372H155.764V171.204H154.88V170.372ZM160.21 170.372H161.094V171.204H160.21V170.372ZM163.005 165.315H163.889V171.204H163.005V165.315ZM155.699 172.049H156.596V175.416H163.707V176.261H155.699V172.049ZM166.301 165.315H170.747V166.16H166.301V165.315ZM165.417 166.16H166.301V170.372H165.417V166.16ZM170.747 166.16H171.644V170.372H170.747V166.16ZM166.301 170.372H170.747V171.217H166.301V170.372ZM173.36 165.315H174.257V176.261H173.36V165.315ZM165.43 172.894H171.644V173.739H165.43V172.894ZM183.547 165.315H184.431V169.527H183.547V165.315ZM182.65 169.527H183.547V170.372H182.65V169.527ZM184.431 169.527H185.328V170.372H184.431V169.527ZM181.766 170.372H182.65V171.217H181.766V170.372ZM185.328 170.372H186.212V171.217H185.328V170.372ZM179.985 171.217H181.766V172.062H179.985V171.217ZM186.212 171.217H187.993V172.062H186.212V171.217ZM183.547 172.049H184.431V174.571H188.89V175.403H179.166V174.571H183.547V172.049ZM190.427 165.315H196.654V171.204H190.427V165.315ZM191.311 166.147V170.359H195.77V166.147H191.311ZM198.357 165.315H199.254V167.837H200.151V168.682H199.254V171.204H198.357V165.315ZM192.143 172.049H198.357V172.894H192.143V172.049ZM191.246 172.894H192.143V175.416H191.246V172.894ZM198.357 172.894H199.254V175.416H198.357V172.894ZM192.143 175.416H198.357V176.261H192.143V175.416ZM113.927 180.315H117.476V181.147H113.927V180.315ZM113.03 181.147H113.927V188.739H113.03V181.147ZM117.476 181.147H118.373V188.739H117.476V181.147ZM113.927 188.739H117.476V189.571H113.927V188.739ZM121.155 180.328H122.039V191.274H121.155V180.328ZM129.609 180.315H130.506V181.16H133.171V182.005H131.39V182.837H128.725V182.005H126.944V181.16H129.609V180.315ZM127.828 182.837H128.725V185.372H127.828V182.837ZM131.39 182.837H132.274V185.372H131.39V182.837ZM128.725 185.372H131.39V186.217H128.725V185.372ZM135.017 180.315H135.901V186.204H135.017V184.527H133.236V183.682H135.017V182.837H133.236V181.992H135.017V180.315ZM127.763 187.049H128.66V190.416H135.771V191.261H127.763V187.049ZM140.083 180.315H140.967V183.682H140.083V180.315ZM139.186 183.682H140.083V184.527H139.186V183.682ZM140.967 183.682H141.864V184.527H140.967V183.682ZM138.302 184.527H139.186V185.372H138.302V184.527ZM141.864 184.527H142.748V185.372H141.864V184.527ZM137.418 185.372H138.302V186.204H137.418V185.372ZM142.748 185.372H143.632V186.204H142.748V185.372ZM145.543 180.315H146.427V186.204H145.543V180.315ZM138.237 187.049H146.245V189.571H139.134V190.416H146.245V191.261H138.237V188.739H145.348V187.894H138.237V187.049ZM148.852 180.315H152.401V181.147H148.852V180.315ZM147.955 181.147H148.852V188.739H147.955V181.147ZM152.401 181.147H153.298V188.739H152.401V181.147ZM148.852 188.739H152.401V189.571H148.852V188.739ZM156.08 180.328H156.964V191.274H156.08V180.328ZM161.869 180.315H168.096V181.16H162.766V183.682H161.869V180.315ZM162.766 183.682H168.096V184.527H162.766V183.682ZM169.812 180.315H170.709V186.217H169.812V180.315ZM164.547 183.682H165.431V185.372H168.096V186.217H161.882V185.372H164.547V183.682ZM162.701 187.049H163.598V188.739H169.812V187.049H170.709V191.261H162.701V187.049ZM163.598 189.571V190.416H169.812V189.571H163.598ZM172.241 180.315H173.138V188.739H172.241V180.315ZM173.138 188.739H177.584V189.571H173.138V188.739ZM180.366 180.328H181.25V191.274H180.366V180.328ZM182.778 180.315H188.121V181.147H183.675V188.739H182.778V180.315ZM187.224 187.894H188.121V188.739H187.224V187.894ZM183.675 188.739H187.224V189.571H183.675V188.739ZM190.149 180.315H191.046V185.372H192.619V186.217H191.046V191.261H190.149V180.315ZM194.153 189.064H195.089V190H194.153V189.064Z" fill="black"/>
<path d="M139.183 29.928H140.479V31.224H139.183V29.928ZM137.887 31.224H139.183V33.816H137.887V31.224ZM140.479 31.224H141.775V33.816H140.479V31.224ZM136.591 33.816H137.887V36.408H136.591V33.816ZM141.775 33.816H143.071V36.408H141.775V33.816ZM135.295 36.408H136.591V39H135.295V36.408ZM143.071 36.408H144.367V39H143.071V36.408ZM147.573 37.506H148.653V39.666H147.573V37.506ZM146.493 39.666H147.573V40.746H146.493V39.666ZM151.862 37.506H152.942V39.666H151.862V37.506ZM150.782 39.666H151.862V40.746H150.782V39.666ZM156.151 37.506H157.231V39.666H156.151V37.506ZM155.071 39.666H156.151V40.746H155.071V39.666ZM163.248 29.928H164.544V31.224H163.248V29.928ZM161.952 31.224H163.248V33.816H161.952V31.224ZM164.544 31.224H165.84V33.816H164.544V31.224ZM160.656 33.816H161.952V36.408H160.656V33.816ZM165.84 33.816H167.136V36.408H165.84V33.816ZM159.36 36.408H160.656V39H159.36V36.408ZM167.136 36.408H168.432V39H167.136V36.408ZM131.436 46.59H132.732V47.886H131.436V46.59ZM130.14 47.886H131.436V49.182H130.14V47.886ZM128.844 49.182H130.14V58.254H128.844V49.182ZM130.14 58.254H131.436V59.55H130.14V58.254ZM131.436 59.55H132.732V60.846H131.436V59.55ZM146.187 61.62H138.717V60.468H146.187V61.62ZM146.187 63.996H138.717V62.844H146.187V63.996ZM144.207 52.242H146.691V54.762H144.207V52.242ZM153.489 52.116H154.911V53.52H153.489V52.116ZM161.715 52.242H164.199V54.762H161.715V52.242ZM172.976 61.62H165.506V60.468H172.976V61.62ZM172.976 63.996H165.506V62.844H172.976V63.996ZM170.996 46.59H172.292V47.886H170.996V46.59ZM172.292 47.886H173.588V49.182H172.292V47.886ZM173.588 49.182H174.884V58.254H173.588V49.182ZM172.292 58.254H173.588V59.55H172.292V58.254ZM170.996 59.55H172.292V60.846H170.996V59.55ZM131.949 67.59H133.245V70.128H131.949V67.59ZM130.653 70.128H131.949V72.648H130.653V70.128ZM129.357 72.648H130.653V75.168H129.357V72.648ZM128.061 75.168H129.357V77.706H128.061V75.168ZM126.765 77.706H128.061V80.226H126.765V77.706ZM125.469 80.226H126.765V82.746H125.469V80.226ZM158.353 69.714H162.619V71.118H158.353V69.714ZM154.069 71.118H158.353V72.54H154.069V71.118ZM162.619 71.118H164.059V72.54H162.619V71.118ZM164.059 72.54H165.481V78.174H164.059V72.54ZM162.619 78.174H164.059V79.596H162.619V78.174ZM159.775 79.596H162.619V81H159.775V79.596ZM166.309 68.058H167.731V69.48H166.309V68.058ZM167.731 69.48H169.153V70.884H167.731V69.48ZM166.309 70.884H167.731V72.288H166.309V70.884ZM167.731 72.288H169.153V73.71H167.731V72.288ZM173.87 69.336H176.462V70.632H173.87V69.336ZM177.758 69.336H180.35V70.632H177.758V69.336ZM172.574 70.632H173.87V71.928H172.574V70.632ZM176.462 70.632H177.758V71.928H176.462V70.632ZM180.35 70.632H181.646V71.928H180.35V70.632ZM171.278 71.928H172.574V75.816H171.278V71.928ZM181.646 71.928H182.942V75.816H181.646V71.928ZM172.574 75.816H173.87V77.112H172.574V75.816ZM180.35 75.816H181.646V77.112H180.35V75.816ZM173.87 77.112H175.166V78.408H173.87V77.112ZM179.054 77.112H180.35V78.408H179.054V77.112ZM175.166 78.408H176.462V79.704H175.166V78.408ZM177.758 78.408H179.054V79.704H177.758V78.408ZM176.462 79.704H177.758V81H176.462V79.704Z" fill="black"/>
<path d="M3.96516 49.3477L36.0482 6.04673C37.9343 3.50122 40.915 2 44.0831 2H125.691C128.837 2 131.8 3.48051 133.688 5.99652L166.22 49.3323C167.519 51.0639 168.222 53.1706 168.222 55.3358V232C168.222 237.523 163.745 242 158.222 242H12C6.47715 242 2 237.523 2 232V55.301C2 53.1572 2.68892 51.0702 3.96516 49.3477Z" fill="white"/>
<path d="M3.96516 49.3477L36.0482 6.04673C37.9343 3.50122 40.915 2 44.0831 2H125.691C128.837 2 131.8 3.48051 133.688 5.99652L166.22 49.3323C167.519 51.0639 168.222 53.1706 168.222 55.3358V232C168.222 237.523 163.745 242 158.222 242H12C6.47715 242 2 237.523 2 232V55.301C2 53.1572 2.68892 51.0702 3.96516 49.3477Z" fill="url(#paint2_linear_1204_2130)"/>
<path d="M3.96516 49.3477L36.0482 6.04673C37.9343 3.50122 40.915 2 44.0831 2H125.691C128.837 2 131.8 3.48051 133.688 5.99652L166.22 49.3323C167.519 51.0639 168.222 53.1706 168.222 55.3358V232C168.222 237.523 163.745 242 158.222 242H12C6.47715 242 2 237.523 2 232V55.301C2 53.1572 2.68892 51.0702 3.96516 49.3477Z" stroke="#AFDB94" stroke-width="3"/>
<path d="M9.25021 53.1829L39.0068 12.3342C40.889 9.75041 43.893 8.22217 47.0897 8.22217H122.715C125.89 8.22217 128.876 9.72959 130.761 12.2839L160.934 53.1671C162.204 54.8869 162.889 56.968 162.889 59.1054V226.667C162.889 232.189 158.411 236.667 152.889 236.667H17.333C11.8102 236.667 7.33301 232.189 7.33301 226.667V59.0709C7.33301 56.9548 8.00427 54.8933 9.25021 53.1829Z" fill="url(#paint3_linear_1204_2130)" stroke="#AFDB94" stroke-width="3"/>
<rect x="31.333" y="74.8889" width="107.556" height="144" rx="10" fill="#F0F7EA" stroke="#AFDB94" stroke-width="3"/>
<path d="M15.1453 214.491C14.4893 214.491 13.9453 214.123 13.9453 213.611C13.9453 213.131 14.4893 212.731 15.1453 212.731C15.8013 212.731 16.3453 213.131 16.3453 213.611C16.3453 214.123 15.8013 214.491 15.1453 214.491ZM15.1453 215.147C16.2333 215.147 17.1133 214.475 17.1133 213.611C17.1133 212.763 16.2333 212.091 15.1453 212.091C14.0573 212.091 13.1773 212.763 13.1773 213.611C13.1773 214.475 14.0573 215.147 15.1453 215.147ZM18.6173 199.551V198.399H20.9213V197.247H22.0733V198.399H24.3773V199.551H22.0733V200.703H20.9213V199.551H18.6173ZM19.7693 201.855V200.703H20.9213V201.855H19.7693ZM19.7693 197.247V196.095H20.9213V197.247H19.7693ZM22.0733 201.855V200.703H23.2253V201.855H22.0733ZM22.0733 197.247V196.095H23.2253V197.247H22.0733ZM25.6253 194.214V193.062H26.7773V194.214H25.6253ZM22.8893 189.759C22.8893 191.087 23.9773 192.191 25.3213 192.191C26.6653 192.191 27.7533 191.087 27.7533 189.759C27.7533 188.399 26.6653 187.311 25.3213 187.311C23.9773 187.311 22.8893 188.399 22.8893 189.759ZM26.9373 189.759C26.9373 190.639 26.2173 191.375 25.3213 191.375C24.4253 191.375 23.7053 190.639 23.7053 189.759C23.7053 188.847 24.4253 188.127 25.3213 188.127C26.2173 188.127 26.9373 188.847 26.9373 189.759ZM25.6253 183.167V182.015H26.7773V183.167H25.6253ZM20.9693 180.12V178.968H22.1213V180.12H20.9693ZM25.5773 180.12V178.968H26.7293V180.12H25.5773ZM17.5773 174.77V173.618H19.8813V171.314H21.0333V172.466H22.1853V173.618H21.0333V174.77H22.1853V175.922H21.0333V177.074H19.8813V174.77H17.5773ZM22.1853 177.074V175.922H23.3373V177.074H22.1853ZM22.1853 172.466V171.314H23.3373V172.466H22.1853ZM19.7693 169.433V168.169H21.0173V169.433H19.7693ZM15.1453 166.757C14.4893 166.757 13.9453 166.389 13.9453 165.877C13.9453 165.397 14.4893 164.997 15.1453 164.997C15.8013 164.997 16.3453 165.397 16.3453 165.877C16.3453 166.389 15.8013 166.757 15.1453 166.757ZM15.1453 167.413C16.2333 167.413 17.1133 166.741 17.1133 165.877C17.1133 165.029 16.2333 164.357 15.1453 164.357C14.0573 164.357 13.1773 165.029 13.1773 165.877C13.1773 166.741 14.0573 167.413 15.1453 167.413ZM18.6173 151.816V150.664H20.9213L20.9213 149.512H22.0733L22.0733 150.664H24.3773V151.816H22.0733V152.968H20.9213V151.816H18.6173ZM19.7693 154.12V152.968H20.9213V154.12H19.7693ZM19.7693 149.512V148.36H20.9213V149.512H19.7693ZM22.0733 154.12V152.968H23.2253V154.12H22.0733ZM22.0733 149.512V148.36H23.2253V149.512H22.0733ZM25.6253 146.48V145.328H26.7773V146.48H25.6253ZM22.8893 142.025C22.8893 143.353 23.9773 144.457 25.3213 144.457C26.6653 144.457 27.7533 143.353 27.7533 142.025C27.7533 140.665 26.6653 139.577 25.3213 139.577C23.9773 139.577 22.8893 140.665 22.8893 142.025ZM26.9373 142.025C26.9373 142.905 26.2173 143.641 25.3213 143.641C24.4253 143.641 23.7053 142.905 23.7053 142.025C23.7053 141.113 24.4253 140.393 25.3213 140.393C26.2173 140.393 26.9373 141.113 26.9373 142.025ZM25.6253 135.433V134.281H26.7773V135.433H25.6253ZM20.9693 132.386V131.234H22.1213V132.386H20.9693ZM25.5773 132.386V131.234H26.7293V132.386H25.5773ZM17.5773 127.035V125.883H19.8813V123.579H21.0333V124.731H22.1853V125.883H21.0333V127.035H22.1853V128.187H21.0333V129.339H19.8813V127.035H17.5773ZM22.1853 129.339V128.187H23.3373V129.339H22.1853ZM22.1853 124.731V123.579H23.3373V124.731H22.1853ZM19.7693 121.699V120.435H21.0173V121.699H19.7693ZM15.1453 119.022C14.4893 119.022 13.9453 118.654 13.9453 118.142C13.9453 117.662 14.4893 117.262 15.1453 117.262C15.8013 117.262 16.3453 117.662 16.3453 118.142C16.3453 118.654 15.8013 119.022 15.1453 119.022ZM15.1453 119.678C16.2333 119.678 17.1133 119.006 17.1133 118.142C17.1133 117.294 16.2333 116.622 15.1453 116.622C14.0573 116.622 13.1773 117.294 13.1773 118.142C13.1773 119.006 14.0573 119.678 15.1453 119.678ZM18.6173 104.082V102.93H20.9213V101.778H22.0733V102.93H24.3773V104.082H22.0733V105.234H20.9213V104.082H18.6173ZM19.7693 106.386V105.234H20.9213V106.386H19.7693ZM19.7693 101.778V100.626H20.9213V101.778H19.7693ZM22.0733 106.386V105.234H23.2253V106.386H22.0733ZM22.0733 101.778V100.626H23.2253V101.778H22.0733ZM25.6253 98.7454V97.5934H26.7773V98.7454H25.6253ZM22.8893 94.2905C22.8893 95.6185 23.9773 96.7225 25.3213 96.7225C26.6653 96.7225 27.7533 95.6185 27.7533 94.2905C27.7533 92.9305 26.6653 91.8425 25.3213 91.8425C23.9773 91.8425 22.8893 92.9305 22.8893 94.2905ZM26.9373 94.2905C26.9373 95.1705 26.2173 95.9065 25.3213 95.9065C24.4253 95.9065 23.7053 95.1705 23.7053 94.2905C23.7053 93.3785 24.4253 92.6585 25.3213 92.6585C26.2173 92.6585 26.9373 93.3785 26.9373 94.2905ZM25.6253 87.6985V86.5465H26.7773V87.6985H25.6253ZM20.9693 84.6516V83.4996H22.1213V84.6516H20.9693ZM25.5773 84.6516V83.4996H26.7293V84.6516H25.5773ZM17.5773 79.3008V78.1488H19.8813V75.8448H21.0333V76.9968H22.1853V78.1488H21.0333V79.3008H22.1853V80.4528H21.0333V81.6048H19.8813V79.3008H17.5773ZM22.1853 81.6048V80.4528H23.3373V81.6048H22.1853ZM22.1853 76.9968V75.8448H23.3373V76.9968H22.1853Z" fill="black"/>
<path d="M156.855 212.713C157.511 212.713 158.055 212.345 158.055 211.833C158.055 211.353 157.511 210.953 156.855 210.953C156.199 210.953 155.655 211.353 155.655 211.833C155.655 212.345 156.199 212.713 156.855 212.713ZM156.855 213.369C155.767 213.369 154.887 212.697 154.887 211.833C154.887 210.985 155.767 210.313 156.855 210.313C157.943 210.313 158.823 210.985 158.823 211.833C158.823 212.697 157.943 213.369 156.855 213.369ZM153.383 197.773V196.621H151.079V195.469H149.927V196.621H147.623V197.773H149.927V198.925H151.079V197.773H153.383ZM152.231 200.077V198.925H151.079V200.077H152.231ZM152.231 195.469V194.317H151.079V195.469H152.231ZM149.927 200.077V198.925H148.775V200.077H149.927ZM149.927 195.469V194.317H148.775V195.469H149.927ZM146.375 192.436V191.284H145.223V192.436H146.375ZM149.111 187.981C149.111 189.309 148.023 190.413 146.679 190.413C145.335 190.413 144.247 189.309 144.247 187.981C144.247 186.621 145.335 185.533 146.679 185.533C148.023 185.533 149.111 186.621 149.111 187.981ZM145.063 187.981C145.063 188.861 145.783 189.597 146.679 189.597C147.575 189.597 148.295 188.861 148.295 187.981C148.295 187.069 147.575 186.349 146.679 186.349C145.783 186.349 145.063 187.069 145.063 187.981ZM146.375 181.389V180.237H145.223V181.389H146.375ZM151.031 178.343V177.191H149.879V178.343H151.031ZM146.423 178.343V177.191H145.271V178.343H146.423ZM154.423 172.992V171.84H152.119V169.536H150.967V170.688H149.815V171.84H150.967V172.992H149.815V174.144H150.967V175.296H152.119V172.992H154.423ZM149.815 175.296V174.144H148.663V175.296H149.815ZM149.815 170.688V169.536H148.663V170.688H149.815ZM152.231 167.655V166.391H150.983V167.655H152.231ZM156.855 164.979C157.511 164.979 158.055 164.611 158.055 164.099C158.055 163.619 157.511 163.219 156.855 163.219C156.199 163.219 155.655 163.619 155.655 164.099C155.655 164.611 156.199 164.979 156.855 164.979ZM156.855 165.635C155.767 165.635 154.887 164.963 154.887 164.099C154.887 163.251 155.767 162.579 156.855 162.579C157.943 162.579 158.823 163.251 158.823 164.099C158.823 164.963 157.943 165.635 156.855 165.635ZM153.383 150.039V148.887H151.079V147.735H149.927V148.887H147.623V150.039H149.927V151.191H151.079V150.039H153.383ZM152.231 152.343V151.191H151.079V152.343H152.231ZM152.231 147.735V146.583H151.079V147.735H152.231ZM149.927 152.343V151.191H148.775V152.343H149.927ZM149.927 147.735V146.583H148.775V147.735H149.927ZM146.375 144.702V143.55H145.223V144.702H146.375ZM149.111 140.247C149.111 141.575 148.023 142.679 146.679 142.679C145.335 142.679 144.247 141.575 144.247 140.247C144.247 138.887 145.335 137.799 146.679 137.799C148.023 137.799 149.111 138.887 149.111 140.247ZM145.063 140.247C145.063 141.127 145.783 141.863 146.679 141.863C147.575 141.863 148.295 141.127 148.295 140.247C148.295 139.335 147.575 138.615 146.679 138.615C145.783 138.615 145.063 139.335 145.063 140.247ZM146.375 133.655V132.503H145.223V133.655H146.375ZM151.031 130.608V129.456H149.879V130.608H151.031ZM146.423 130.608V129.456H145.271V130.608H146.423ZM154.423 125.257V124.105H152.119V121.801H150.967V122.953H149.815V124.105H150.967V125.257H149.815V126.409H150.967V127.561H152.119V125.257H154.423ZM149.815 127.561V126.409H148.663V127.561H149.815ZM149.815 122.953V121.801H148.663V122.953H149.815ZM152.231 119.921V118.657H150.983V119.921H152.231ZM156.855 117.244C157.511 117.244 158.055 116.876 158.055 116.364C158.055 115.884 157.511 115.484 156.855 115.484C156.199 115.484 155.655 115.884 155.655 116.364C155.655 116.876 156.199 117.244 156.855 117.244ZM156.855 117.9C155.767 117.9 154.887 117.228 154.887 116.364C154.887 115.516 155.767 114.844 156.855 114.844C157.943 114.844 158.823 115.516 158.823 116.364C158.823 117.228 157.943 117.9 156.855 117.9ZM153.383 102.304V101.152H151.079V100H149.927V101.152H147.623V102.304H149.927V103.456H151.079V102.304H153.383ZM152.231 104.608V103.456H151.079V104.608H152.231ZM152.231 100V98.8482H151.079V100H152.231ZM149.927 104.608V103.456H148.775V104.608H149.927ZM149.927 100V98.8482H148.775V100H149.927ZM146.375 96.9676V95.8156H145.223V96.9676H146.375ZM149.111 92.5127C149.111 93.8407 148.023 94.9447 146.679 94.9447C145.335 94.9447 144.247 93.8407 144.247 92.5127C144.247 91.1527 145.335 90.0647 146.679 90.0647C148.023 90.0647 149.111 91.1527 149.111 92.5127ZM145.063 92.5127C145.063 93.3927 145.783 94.1287 146.679 94.1287C147.575 94.1287 148.295 93.3927 148.295 92.5127C148.295 91.6007 147.575 90.8807 146.679 90.8807C145.783 90.8807 145.063 91.6007 145.063 92.5127ZM146.375 85.9207V84.7687H145.223V85.9207H146.375ZM151.031 82.8739V81.7219H149.879V82.8739H151.031ZM146.423 82.8739V81.7219H145.271V82.8739H146.423ZM154.423 77.523V76.371H152.119V74.067H150.967V75.219H149.815V76.371H150.967V77.523H149.815V78.675H150.967V79.827H152.119V77.523H154.423ZM149.815 79.827V78.675H148.663V79.827H149.815ZM149.815 75.219V74.067H148.663V75.219H149.815Z" fill="black"/>
<path d="M71.1833 15.928H72.4793V17.224H71.1833V15.928ZM69.8873 17.224H71.1833V19.816H69.8873V17.224ZM72.4793 17.224H73.7753V19.816H72.4793V17.224ZM68.5913 19.816H69.8873V22.408H68.5913V19.816ZM73.7753 19.816H75.0713V22.408H73.7753V19.816ZM67.2953 22.408H68.5913V25H67.2953V22.408ZM75.0713 22.408H76.3673V25H75.0713V22.408ZM79.5725 23.506H80.6525V25.666H79.5725V23.506ZM78.4925 25.666H79.5725V26.746H78.4925V25.666ZM83.8616 23.506H84.9416V25.666H83.8616V23.506ZM82.7816 25.666H83.8616V26.746H82.7816V25.666ZM88.1506 23.506H89.2306V25.666H88.1506V23.506ZM87.0706 25.666H88.1506V26.746H87.0706V25.666ZM95.2477 15.928H96.5437V17.224H95.2477V15.928ZM93.9517 17.224H95.2477V19.816H93.9517V17.224ZM96.5437 17.224H97.8397V19.816H96.5437V17.224ZM92.6557 19.816H93.9517V22.408H92.6557V19.816ZM97.8397 19.816H99.1357V22.408H97.8397V19.816ZM91.3597 22.408H92.6557V25H91.3597V22.408ZM99.1357 22.408H100.432V25H99.1357V22.408ZM63.4361 32.59H64.7321V33.886H63.4361V32.59ZM62.1401 33.886H63.4361V35.182H62.1401V33.886ZM60.8441 35.182H62.1401V44.254H60.8441V35.182ZM62.1401 44.254H63.4361V45.55H62.1401V44.254ZM63.4361 45.55H64.7321V46.846H63.4361V45.55ZM78.1874 47.62H70.7174V46.468H78.1874V47.62ZM78.1874 49.996H70.7174V48.844H78.1874V49.996ZM76.2074 38.242H78.6914V40.762H76.2074V38.242ZM85.4886 38.116H86.9106V39.52H85.4886V38.116ZM93.7152 38.242H96.1992V40.762H93.7152V38.242ZM104.976 47.62H97.5064V46.468H104.976V47.62ZM104.976 49.996H97.5064V48.844H104.976V49.996ZM102.996 32.59H104.292V33.886H102.996V32.59ZM104.292 33.886H105.588V35.182H104.292V33.886ZM105.588 35.182H106.884V44.254H105.588V35.182ZM104.292 44.254H105.588V45.55H104.292V44.254ZM102.996 45.55H104.292V46.846H102.996V45.55ZM63.9491 53.59H65.2451V56.128H63.9491V53.59ZM62.6531 56.128H63.9491V58.648H62.6531V56.128ZM61.3571 58.648H62.6531V61.168H61.3571V58.648ZM60.0611 61.168H61.3571V63.706H60.0611V61.168ZM58.7651 63.706H60.0611V66.226H58.7651V63.706ZM57.4691 66.226H58.7651V68.746H57.4691V66.226ZM90.3527 55.714H94.6187V57.118H90.3527V55.714ZM86.0687 57.118H90.3527V58.54H86.0687V57.118ZM94.6187 57.118H96.0587V58.54H94.6187V57.118ZM96.0587 58.54H97.4807V64.174H96.0587V58.54ZM94.6187 64.174H96.0587V65.596H94.6187V64.174ZM91.7747 65.596H94.6187V67H91.7747V65.596ZM98.3087 54.058H99.7307V55.48H98.3087V54.058ZM99.7307 55.48H101.153V56.884H99.7307V55.48ZM98.3087 56.884H99.7307V58.288H98.3087V56.884ZM99.7307 58.288H101.153V59.71H99.7307V58.288ZM105.87 55.336H108.462V56.632H105.87V55.336ZM109.758 55.336H112.35V56.632H109.758V55.336ZM104.574 56.632H105.87V57.928H104.574V56.632ZM108.462 56.632H109.758V57.928H108.462V56.632ZM112.35 56.632H113.646V57.928H112.35V56.632ZM103.278 57.928H104.574V61.816H103.278V57.928ZM113.646 57.928H114.942V61.816H113.646V57.928ZM104.574 61.816H105.87V63.112H104.574V61.816ZM112.35 61.816H113.646V63.112H112.35V61.816ZM105.87 63.112H107.166V64.408H105.87V63.112ZM111.054 63.112H112.35V64.408H111.054V63.112ZM107.166 64.408H108.462V65.704H107.166V64.408ZM109.758 64.408H111.054V65.704H109.758V64.408ZM108.462 65.704H109.758V67H108.462V65.704Z" fill="black"/>
<path d="M62.0075 107.12H63.6635V110.24H68.5835V111.776H63.6635V114.896H62.0075V111.776H57.0875V110.24H62.0075V107.12ZM60.3755 114.896H62.0075V116.456H60.3755V114.896ZM63.6635 114.896H65.2955V116.456H63.6635V114.896ZM57.0875 116.456H60.3755V118.016H57.0875V116.456ZM65.2955 116.456H68.5835V118.016H65.2955V116.456ZM71.7275 107.12H73.4075V127.328H71.7275V107.12ZM61.9595 118.016H63.5675V121.088H68.5835V122.648H57.1115V121.088H61.9595V118.016ZM77.8925 107.12H84.4445V108.656H77.8925V107.12ZM76.2365 108.656H77.8925V122.672H76.2365V108.656ZM84.4445 108.656H86.1005V122.672H84.4445V108.656ZM77.8925 122.672H84.4445V124.208H77.8925V122.672ZM89.2445 107.12H90.8765V116.456H92.5325V107.12H94.1885V127.328H92.5325V117.992H90.8765V127.328H89.2445V107.12ZM98.5376 107.12H113.322V108.656H110.034V117.992H113.322V119.552H98.5376V117.992H101.826V108.656H98.5376V107.12ZM103.458 108.656V117.992H108.402V108.656H103.458ZM105.114 119.552H106.746V124.208H114.978V125.744H97.0256V124.208H105.114V119.552ZM57.0178 135.12H66.8818V150.672H65.2258V142.896H57.0178V141.336H65.2258V136.656H57.0178V135.12ZM63.5938 150.672H65.2258V152.208H63.5938V150.672ZM70.6258 135.12H72.2818V144.456H75.1858V146.016H72.2818V155.328H70.6258V135.12ZM78.0178 135.12H89.5138V136.656H79.6738V144.432H78.0178V135.12ZM79.6738 144.432H89.5138V145.992H79.6738V144.432ZM92.6578 135.12H94.3138V139.776H95.9698V141.336H94.3138V145.992H92.6578V135.12ZM81.1858 147.552H92.6578V149.112H81.1858V147.552ZM79.5298 149.112H81.1858V153.768H79.5298V149.112ZM92.6578 149.112H94.3138V153.768H92.6578V149.112ZM81.1858 153.768H92.6578V155.328H81.1858V153.768ZM103.703 135.12H105.335V136.68H110.255V138.216H105.335V142.896H103.703V138.216H98.7829V136.68H103.703V135.12ZM102.047 142.896H103.703V144.456H102.047V142.896ZM105.335 142.896H106.991V144.456H105.335V142.896ZM98.7829 144.456H102.047V145.992H98.7829V144.456ZM106.991 144.456H110.255V145.992H106.991V144.456ZM113.423 135.12H115.079V145.992H113.423V141.336H110.279V139.776H113.423V135.12ZM100.295 147.552H115.079V155.328H100.295V147.552ZM101.951 149.112V153.768H113.423V149.112H101.951ZM69.0298 163.12H70.6858V166.216H82.1578V163.12H83.8138V173.992H69.0298V163.12ZM70.6858 167.776V172.432H82.1578V167.776H70.6858ZM67.5178 175.552H85.4698V177.112H77.2378V183.328H75.6058V177.112H67.5178V175.552ZM88.2829 163.12H99.7549V164.656H94.8349V169.336H93.2029V164.656H88.2829V163.12ZM91.5469 169.336H93.2029V170.896H91.5469V169.336ZM94.8349 169.336H96.4909V170.896H94.8349V169.336ZM89.9149 170.896H91.5469V172.432H89.9149V170.896ZM96.4909 170.896H98.1229V172.432H96.4909V170.896ZM88.2829 172.432H89.9149V173.992H88.2829V172.432ZM98.1229 172.432H99.7549V173.992H98.1229V172.432ZM102.923 163.12H104.579V173.992H102.923V169.336H99.7789V167.776H102.923V163.12ZM89.7949 175.552H104.579V183.328H102.923V177.112H89.7949V175.552Z" fill="black"/>
<defs>
<linearGradient id="paint0_linear_1204_2130" x1="153.111" y1="16" x2="153.111" y2="256" gradientUnits="userSpaceOnUse">
<stop stop-color="#E6F7DF"/>
<stop offset="1" stop-color="#7FDE6F" stop-opacity="0"/>
</linearGradient>
<linearGradient id="paint1_linear_1204_2130" x1="153.111" y1="22.2222" x2="153.111" y2="250.667" gradientUnits="userSpaceOnUse">
<stop stop-color="#F8FFF3"/>
<stop offset="1" stop-color="#D9FFBB" stop-opacity="0"/>
</linearGradient>
<linearGradient id="paint2_linear_1204_2130" x1="85.1111" y1="2" x2="85.1111" y2="242" gradientUnits="userSpaceOnUse">
<stop stop-color="#E6F7DF"/>
<stop offset="1" stop-color="#7FDE6F" stop-opacity="0"/>
</linearGradient>
<linearGradient id="paint3_linear_1204_2130" x1="85.1108" y1="8.22217" x2="85.1108" y2="236.667" gradientUnits="userSpaceOnUse">
<stop stop-color="#F8FFF3"/>
<stop offset="1" stop-color="#D9FFBB" stop-opacity="0"/>
</linearGradient>
</defs>
</svg>
