<svg width="238" height="258" viewBox="0 0 238 258" fill="none" xmlns="http://www.w3.org/2000/svg">
<path d="M71.9652 63.3477L104.048 20.0467C105.934 17.5012 108.915 16 112.083 16H193.691C196.837 16 199.8 17.4805 201.688 19.9965L234.22 63.3323C235.519 65.0639 236.222 67.1706 236.222 69.3358V246C236.222 251.523 231.745 256 226.222 256H80C74.4772 256 70 251.523 70 246V69.301C70 67.1572 70.6889 65.0702 71.9652 63.3477Z" fill="white"/>
<path d="M71.9652 63.3477L104.048 20.0467C105.934 17.5012 108.915 16 112.083 16H193.691C196.837 16 199.8 17.4805 201.688 19.9965L234.22 63.3323C235.519 65.0639 236.222 67.1706 236.222 69.3358V246C236.222 251.523 231.745 256 226.222 256H80C74.4772 256 70 251.523 70 246V69.301C70 67.1572 70.6889 65.0702 71.9652 63.3477Z" fill="url(#paint0_linear_1204_2147)"/>
<path d="M71.9652 63.3477L104.048 20.0467C105.934 17.5012 108.915 16 112.083 16H193.691C196.837 16 199.8 17.4805 201.688 19.9965L234.22 63.3323C235.519 65.0639 236.222 67.1706 236.222 69.3358V246C236.222 251.523 231.745 256 226.222 256H80C74.4772 256 70 251.523 70 246V69.301C70 67.1572 70.6889 65.0702 71.9652 63.3477Z" stroke="#84BDA2" stroke-width="3"/>
<path d="M77.2502 67.1829L107.007 26.3342C108.889 23.7504 111.893 22.2222 115.09 22.2222H190.715C193.89 22.2222 196.876 23.7296 198.761 26.2839L228.934 67.1671C230.204 68.8869 230.889 70.968 230.889 73.1054V240.667C230.889 246.189 226.411 250.667 220.889 250.667H85.333C79.8102 250.667 75.333 246.189 75.333 240.667V73.0709C75.333 70.9548 76.0043 68.8933 77.2502 67.1829Z" fill="url(#paint1_linear_1204_2147)" stroke="#84BDA2" stroke-width="3"/>
<rect x="99.333" y="88.8889" width="107.556" height="144" rx="10" fill="#E6F5EB" stroke="#84BDA2" stroke-width="3"/>
<path d="M83.1453 228.491C82.4893 228.491 81.9453 228.123 81.9453 227.611C81.9453 227.131 82.4893 226.731 83.1453 226.731C83.8013 226.731 84.3453 227.131 84.3453 227.611C84.3453 228.123 83.8013 228.491 83.1453 228.491ZM83.1453 229.147C84.2333 229.147 85.1133 228.475 85.1133 227.611C85.1133 226.763 84.2333 226.091 83.1453 226.091C82.0573 226.091 81.1773 226.763 81.1773 227.611C81.1773 228.475 82.0573 229.147 83.1453 229.147ZM86.6173 213.551V212.399H88.9213V211.247H90.0733V212.399H92.3773V213.551H90.0733V214.703H88.9213V213.551H86.6173ZM87.7693 215.855V214.703H88.9213V215.855H87.7693ZM87.7693 211.247V210.095H88.9213V211.247H87.7693ZM90.0733 215.855V214.703H91.2253V215.855H90.0733ZM90.0733 211.247V210.095H91.2253V211.247H90.0733ZM93.6253 208.214V207.062H94.7773V208.214H93.6253ZM90.8893 203.759C90.8893 205.087 91.9773 206.191 93.3213 206.191C94.6653 206.191 95.7533 205.087 95.7533 203.759C95.7533 202.399 94.6653 201.311 93.3213 201.311C91.9773 201.311 90.8893 202.399 90.8893 203.759ZM94.9373 203.759C94.9373 204.639 94.2173 205.375 93.3213 205.375C92.4253 205.375 91.7053 204.639 91.7053 203.759C91.7053 202.847 92.4253 202.127 93.3213 202.127C94.2173 202.127 94.9373 202.847 94.9373 203.759ZM93.6253 197.167V196.015H94.7773V197.167H93.6253ZM88.9693 194.12V192.968H90.1213V194.12H88.9693ZM93.5773 194.12V192.968H94.7293V194.12H93.5773ZM85.5773 188.77V187.618H87.8813V185.314H89.0333V186.466H90.1853V187.618H89.0333V188.77H90.1853V189.922H89.0333V191.074H87.8813V188.77H85.5773ZM90.1853 191.074V189.922H91.3373V191.074H90.1853ZM90.1853 186.466V185.314H91.3373V186.466H90.1853ZM87.7693 183.433V182.169H89.0173V183.433H87.7693ZM83.1453 180.757C82.4893 180.757 81.9453 180.389 81.9453 179.877C81.9453 179.397 82.4893 178.997 83.1453 178.997C83.8013 178.997 84.3453 179.397 84.3453 179.877C84.3453 180.389 83.8013 180.757 83.1453 180.757ZM83.1453 181.413C84.2333 181.413 85.1133 180.741 85.1133 179.877C85.1133 179.029 84.2333 178.357 83.1453 178.357C82.0573 178.357 81.1773 179.029 81.1773 179.877C81.1773 180.741 82.0573 181.413 83.1453 181.413ZM86.6173 165.816V164.664H88.9213V163.512H90.0733V164.664H92.3773V165.816H90.0733V166.968H88.9213V165.816H86.6173ZM87.7693 168.12V166.968H88.9213V168.12H87.7693ZM87.7693 163.512V162.36H88.9213V163.512H87.7693ZM90.0733 168.12V166.968H91.2253V168.12H90.0733ZM90.0733 163.512V162.36H91.2253V163.512H90.0733ZM93.6253 160.48V159.328H94.7773V160.48H93.6253ZM90.8893 156.025C90.8893 157.353 91.9773 158.457 93.3213 158.457C94.6653 158.457 95.7533 157.353 95.7533 156.025C95.7533 154.665 94.6653 153.577 93.3213 153.577C91.9773 153.577 90.8893 154.665 90.8893 156.025ZM94.9373 156.025C94.9373 156.905 94.2173 157.641 93.3213 157.641C92.4253 157.641 91.7053 156.905 91.7053 156.025C91.7053 155.113 92.4253 154.393 93.3213 154.393C94.2173 154.393 94.9373 155.113 94.9373 156.025ZM93.6253 149.433V148.281H94.7773V149.433H93.6253ZM88.9693 146.386V145.234H90.1213V146.386H88.9693ZM93.5773 146.386V145.234H94.7293V146.386H93.5773ZM85.5773 141.035V139.883H87.8813V137.579H89.0333V138.731H90.1853V139.883H89.0333V141.035H90.1853V142.187H89.0333V143.339H87.8813V141.035H85.5773ZM90.1853 143.339V142.187H91.3373V143.339H90.1853ZM90.1853 138.731V137.579H91.3373V138.731H90.1853ZM87.7693 135.699V134.435H89.0173V135.699H87.7693ZM83.1453 133.022C82.4893 133.022 81.9453 132.654 81.9453 132.142C81.9453 131.662 82.4893 131.262 83.1453 131.262C83.8013 131.262 84.3453 131.662 84.3453 132.142C84.3453 132.654 83.8013 133.022 83.1453 133.022ZM83.1453 133.678C84.2333 133.678 85.1133 133.006 85.1133 132.142C85.1133 131.294 84.2333 130.622 83.1453 130.622C82.0573 130.622 81.1773 131.294 81.1773 132.142C81.1773 133.006 82.0573 133.678 83.1453 133.678ZM86.6173 118.082V116.93H88.9213V115.778H90.0733V116.93H92.3773V118.082H90.0733V119.234H88.9213V118.082H86.6173ZM87.7693 120.386V119.234H88.9213V120.386H87.7693ZM87.7693 115.778V114.626H88.9213V115.778H87.7693ZM90.0733 120.386V119.234H91.2253V120.386H90.0733ZM90.0733 115.778V114.626H91.2253V115.778H90.0733ZM93.6253 112.745V111.593H94.7773V112.745H93.6253ZM90.8893 108.291C90.8893 109.619 91.9773 110.723 93.3213 110.723C94.6653 110.723 95.7533 109.619 95.7533 108.291C95.7533 106.931 94.6653 105.843 93.3213 105.843C91.9773 105.843 90.8893 106.931 90.8893 108.291ZM94.9373 108.291C94.9373 109.171 94.2173 109.907 93.3213 109.907C92.4253 109.907 91.7053 109.171 91.7053 108.291C91.7053 107.379 92.4253 106.659 93.3213 106.659C94.2173 106.659 94.9373 107.379 94.9373 108.291ZM93.6253 101.699V100.547H94.7773V101.699H93.6253ZM88.9693 98.6516V97.4996H90.1213V98.6516H88.9693ZM93.5773 98.6516V97.4996H94.7293V98.6516H93.5773ZM85.5773 93.3008V92.1488H87.8813V89.8448H89.0333V90.9968H90.1853V92.1488H89.0333V93.3008H90.1853V94.4528H89.0333V95.6048H87.8813V93.3008H85.5773ZM90.1853 95.6048V94.4528H91.3373V95.6048H90.1853ZM90.1853 90.9968V89.8448H91.3373V90.9968H90.1853Z" fill="black"/>
<path d="M224.855 226.713C225.511 226.713 226.055 226.345 226.055 225.833C226.055 225.353 225.511 224.953 224.855 224.953C224.199 224.953 223.655 225.353 223.655 225.833C223.655 226.345 224.199 226.713 224.855 226.713ZM224.855 227.369C223.767 227.369 222.887 226.697 222.887 225.833C222.887 224.985 223.767 224.313 224.855 224.313C225.943 224.313 226.823 224.985 226.823 225.833C226.823 226.697 225.943 227.369 224.855 227.369ZM221.383 211.773V210.621H219.079V209.469H217.927V210.621H215.623V211.773H217.927V212.925H219.079V211.773H221.383ZM220.231 214.077V212.925H219.079V214.077H220.231ZM220.231 209.469V208.317H219.079V209.469H220.231ZM217.927 214.077V212.925H216.775V214.077H217.927ZM217.927 209.469V208.317H216.775V209.469H217.927ZM214.375 206.436V205.284H213.223V206.436H214.375ZM217.111 201.981C217.111 203.309 216.023 204.413 214.679 204.413C213.335 204.413 212.247 203.309 212.247 201.981C212.247 200.621 213.335 199.533 214.679 199.533C216.023 199.533 217.111 200.621 217.111 201.981ZM213.063 201.981C213.063 202.861 213.783 203.597 214.679 203.597C215.575 203.597 216.295 202.861 216.295 201.981C216.295 201.069 215.575 200.349 214.679 200.349C213.783 200.349 213.063 201.069 213.063 201.981ZM214.375 195.389V194.237H213.223V195.389H214.375ZM219.031 192.343V191.191H217.879V192.343H219.031ZM214.423 192.343V191.191H213.271V192.343H214.423ZM222.423 186.992V185.84H220.119V183.536H218.967V184.688H217.815V185.84H218.967V186.992H217.815V188.144H218.967V189.296H220.119V186.992H222.423ZM217.815 189.296V188.144H216.663V189.296H217.815ZM217.815 184.688V183.536H216.663V184.688H217.815ZM220.231 181.655V180.391H218.983V181.655H220.231ZM224.855 178.979C225.511 178.979 226.055 178.611 226.055 178.099C226.055 177.619 225.511 177.219 224.855 177.219C224.199 177.219 223.655 177.619 223.655 178.099C223.655 178.611 224.199 178.979 224.855 178.979ZM224.855 179.635C223.767 179.635 222.887 178.963 222.887 178.099C222.887 177.251 223.767 176.579 224.855 176.579C225.943 176.579 226.823 177.251 226.823 178.099C226.823 178.963 225.943 179.635 224.855 179.635ZM221.383 164.039V162.887H219.079V161.735H217.927V162.887H215.623V164.039H217.927V165.191H219.079V164.039H221.383ZM220.231 166.343V165.191H219.079V166.343H220.231ZM220.231 161.735V160.583H219.079V161.735H220.231ZM217.927 166.343V165.191H216.775V166.343H217.927ZM217.927 161.735V160.583H216.775V161.735H217.927ZM214.375 158.702V157.55H213.223V158.702H214.375ZM217.111 154.247C217.111 155.575 216.023 156.679 214.679 156.679C213.335 156.679 212.247 155.575 212.247 154.247C212.247 152.887 213.335 151.799 214.679 151.799C216.023 151.799 217.111 152.887 217.111 154.247ZM213.063 154.247C213.063 155.127 213.783 155.863 214.679 155.863C215.575 155.863 216.295 155.127 216.295 154.247C216.295 153.335 215.575 152.615 214.679 152.615C213.783 152.615 213.063 153.335 213.063 154.247ZM214.375 147.655V146.503H213.223V147.655H214.375ZM219.031 144.608V143.456H217.879V144.608H219.031ZM214.423 144.608V143.456H213.271V144.608H214.423ZM222.423 139.257V138.105H220.119V135.801H218.967V136.953H217.815V138.105H218.967V139.257H217.815V140.409H218.967V141.561H220.119V139.257H222.423ZM217.815 141.561V140.409H216.663V141.561H217.815ZM217.815 136.953V135.801H216.663V136.953H217.815ZM220.231 133.921V132.657H218.983V133.921H220.231ZM224.855 131.244C225.511 131.244 226.055 130.876 226.055 130.364C226.055 129.884 225.511 129.484 224.855 129.484C224.199 129.484 223.655 129.884 223.655 130.364C223.655 130.876 224.199 131.244 224.855 131.244ZM224.855 131.9C223.767 131.9 222.887 131.228 222.887 130.364C222.887 129.516 223.767 128.844 224.855 128.844C225.943 128.844 226.823 129.516 226.823 130.364C226.823 131.228 225.943 131.9 224.855 131.9ZM221.383 116.304V115.152H219.079V114H217.927V115.152H215.623V116.304H217.927V117.456H219.079V116.304H221.383ZM220.231 118.608V117.456H219.079V118.608H220.231ZM220.231 114V112.848H219.079V114H220.231ZM217.927 118.608V117.456H216.775V118.608H217.927ZM217.927 114V112.848H216.775V114H217.927ZM214.375 110.968V109.816H213.223V110.968H214.375ZM217.111 106.513C217.111 107.841 216.023 108.945 214.679 108.945C213.335 108.945 212.247 107.841 212.247 106.513C212.247 105.153 213.335 104.065 214.679 104.065C216.023 104.065 217.111 105.153 217.111 106.513ZM213.063 106.513C213.063 107.393 213.783 108.129 214.679 108.129C215.575 108.129 216.295 107.393 216.295 106.513C216.295 105.601 215.575 104.881 214.679 104.881C213.783 104.881 213.063 105.601 213.063 106.513ZM214.375 99.9207V98.7687H213.223V99.9207H214.375ZM219.031 96.8739V95.7219H217.879V96.8739H219.031ZM214.423 96.8739V95.7219H213.271V96.8739H214.423ZM222.423 91.523V90.371H220.119V88.067H218.967V89.219H217.815V90.371H218.967V91.523H217.815V92.675H218.967V93.827H220.119V91.523H222.423ZM217.815 93.827V92.675H216.663V93.827H217.815ZM217.815 89.219V88.067H216.663V89.219H217.815Z" fill="black"/>
<path d="M107.806 120.315H114.033V121.147H108.703V125.359H107.806V120.315ZM108.703 125.359H114.033V126.204H108.703V125.359ZM115.736 120.315H116.633V122.837H117.53V123.682H116.633V126.204H115.736V120.315ZM109.522 127.049H115.736V127.894H109.522V127.049ZM108.625 127.894H109.522V130.416H108.625V127.894ZM115.736 127.894H116.633V130.416H115.736V127.894ZM109.522 130.416H115.736V131.261H109.522V130.416ZM121.719 120.315H122.603V123.682H121.719V120.315ZM120.822 123.682H121.719V124.527H120.822V123.682ZM122.603 123.682H123.5V124.527H122.603V123.682ZM119.938 124.527H120.822V125.372H119.938V124.527ZM123.5 124.527H124.384V125.372H123.5V124.527ZM119.054 125.372H119.938V126.204H119.054V125.372ZM124.384 125.372H125.268V126.204H124.384V125.372ZM127.179 120.315H128.063V126.204H127.179V120.315ZM119.873 127.049H120.77V130.416H127.881V131.261H119.873V127.049ZM130.488 120.315H134.037V121.147H130.488V120.315ZM129.591 121.147H130.488V128.739H129.591V121.147ZM134.037 121.147H134.934V128.739H134.037V121.147ZM130.488 128.739H134.037V129.571H130.488V128.739ZM137.716 120.328H138.6V131.274H137.716V120.328ZM143.505 120.315H144.389V121.992H148.848V120.315H149.732V126.204H143.505V120.315ZM144.389 122.837V125.359H148.848V122.837H144.389ZM151.435 120.315H152.332V122.837H153.229V123.682H152.332V126.204H151.435V120.315ZM144.324 127.049H152.332V127.894H145.221V130.416H152.332V131.261H144.324V127.049ZM156.482 120.315H162.696V121.147H156.482V120.315ZM155.585 121.147H156.482V123.682H155.585V121.147ZM162.696 121.147H163.593V123.682H162.696V121.147ZM156.482 123.682H162.696V124.527H156.482V123.682ZM154.766 125.372H164.49V126.217H154.766V125.372ZM155.585 127.049H156.482V130.416H163.593V131.261H155.585V127.049ZM169.404 120.315H174.747V121.147H170.301V123.682H174.747V124.527H170.301V128.739H169.404V120.315ZM170.301 128.739H174.747V129.571H170.301V128.739ZM177.529 120.328H178.413V131.274H177.529V120.328ZM179.941 120.315H186.168V124.527H185.271V123.682H179.941V122.837H185.271V121.16H179.941V120.315ZM184.4 124.527H185.284V125.372H184.4V124.527ZM183.516 125.372H184.4V126.217H183.516V125.372ZM187.117 120.315H188.014V126.217H187.117V123.682H186.233V122.837H187.117V120.315ZM188.898 120.315H189.782V126.217H188.898V120.315ZM184.322 127.049H185.206V128.739H184.322V127.049ZM183.425 128.739H184.322V129.571H183.425V128.739ZM185.206 128.739H186.103V129.571H185.206V128.739ZM182.541 129.571H183.425V130.416H182.541V129.571ZM186.103 129.571H186.987V130.416H186.103V129.571ZM180.76 130.416H182.541V131.261H180.76V130.416ZM186.987 130.416H188.768V131.261H186.987V130.416ZM191.316 120.315H197.543V121.16H192.213V122.837H197.543V123.682H192.213V125.372H197.543V126.217H191.316V120.315ZM199.441 120.315H200.325V126.204H199.441V120.315ZM193.032 127.049H199.246V127.894H193.032V127.049ZM192.135 127.894H193.032V130.416H192.135V127.894ZM199.246 127.894H200.143V130.416H199.246V127.894ZM193.032 130.416H199.246V131.261H193.032V130.416ZM122.698 135.64H126.442V144.064H129.25V145H122.698V144.064H125.506V136.576H122.698V135.64ZM132.566 135.315H135.231V136.16H132.566V135.315ZM131.682 136.16H132.566V136.992H131.682V136.16ZM135.231 136.16H136.128V136.992H135.231V136.16ZM130.785 136.992H131.682V139.527H130.785V136.992ZM136.128 136.992H137.012V139.527H136.128V136.992ZM131.682 139.527H132.566V140.372H131.682V139.527ZM135.231 139.527H136.128V140.372H135.231V139.527ZM132.566 140.372H135.231V141.204H132.566V140.372ZM138.858 135.315H139.742V141.204H138.858V139.527H137.077V138.682H138.858V137.837H137.077V136.992H138.858V135.315ZM131.604 142.049H139.612V144.571H132.501V145.416H139.612V146.261H131.604V143.739H138.715V142.894H131.604V142.049ZM143.923 135.315H144.807V138.682H143.923V135.315ZM143.026 138.682H143.923V139.527H143.026V138.682ZM144.807 138.682H145.704V139.527H144.807V138.682ZM142.142 139.527H143.026V140.372H142.142V139.527ZM145.704 139.527H146.588V140.372H145.704V139.527ZM141.258 140.372H142.142V141.204H141.258V140.372ZM146.588 140.372H147.472V141.204H146.588V140.372ZM149.188 135.315H150.085V141.204H149.188V138.682H147.485V137.837H149.188V135.315ZM142.974 142.049H149.188V142.894H142.974V142.049ZM142.077 142.894H142.974V145.416H142.077V142.894ZM149.188 142.894H150.085V145.416H149.188V142.894ZM142.974 145.416H149.188V146.261H142.974V145.416ZM152.437 135.315H160.445V139.527H159.561V136.147H152.437V135.315ZM155.999 138.682H156.883V140.359H161.342V141.204H151.618V140.359H155.999V138.682ZM153.334 142.049H159.548V142.894H153.334V142.049ZM152.437 142.894H153.334V145.416H152.437V142.894ZM159.548 142.894H160.445V145.416H159.548V142.894ZM153.334 145.416H159.548V146.261H153.334V145.416ZM163.697 135.315H164.594V136.992H170.808V135.315H171.705V141.204H163.697V135.315ZM164.594 137.837V140.359H170.808V137.837H164.594ZM162.878 142.049H172.602V142.894H168.143V146.261H167.259V142.894H162.878V142.049ZM174.126 135.315H180.34V136.147H177.675V138.682H176.791V136.147H174.126V135.315ZM175.894 138.682H176.791V139.527H175.894V138.682ZM177.675 138.682H178.572V139.527H177.675V138.682ZM175.01 139.527H175.894V140.359H175.01V139.527ZM178.572 139.527H179.456V140.359H178.572V139.527ZM174.126 140.359H175.01V141.204H174.126V140.359ZM179.456 140.359H180.34V141.204H179.456V140.359ZM182.056 135.315H182.953V141.204H182.056V138.682H180.353V137.837H182.056V135.315ZM174.945 142.049H182.953V146.261H182.056V142.894H174.945V142.049ZM184.486 135.315H185.422V143.739H184.486V135.315ZM184.486 144.675H185.422V145.611H184.486V144.675ZM114.46 150.315H118.009V151.147H114.46V150.315ZM113.563 151.147H114.46V158.739H113.563V151.147ZM118.009 151.147H118.906V158.739H118.009V151.147ZM114.46 158.739H118.009V159.571H114.46V158.739ZM121.688 150.328H122.572V161.274H121.688V150.328ZM128.296 150.315H129.193V151.992H135.407V150.315H136.304V156.204H128.296V150.315ZM129.193 152.837V155.359H135.407V152.837H129.193ZM127.477 157.049H137.201V157.894H132.742V161.261H131.858V157.894H127.477V157.049ZM138.725 150.315H144.939V151.147H142.274V153.682H141.39V151.147H138.725V150.315ZM140.493 153.682H141.39V154.527H140.493V153.682ZM142.274 153.682H143.171V154.527H142.274V153.682ZM139.609 154.527H140.493V155.359H139.609V154.527ZM143.171 154.527H144.055V155.359H143.171V154.527ZM138.725 155.359H139.609V156.204H138.725V155.359ZM144.055 155.359H144.939V156.204H144.055V155.359ZM146.655 150.315H147.552V156.204H146.655V153.682H144.952V152.837H146.655V150.315ZM139.544 157.049H147.552V161.261H146.655V157.894H139.544V157.049ZM150.801 150.315H157.015V151.147H150.801V150.315ZM149.904 151.147H150.801V153.682H149.904V151.147ZM157.015 151.147H157.912V153.682H157.015V151.147ZM150.801 153.682H157.015V154.527H150.801V153.682ZM149.085 155.372H158.809V156.217H149.085V155.372ZM149.904 157.049H157.912V159.571H150.801V160.416H157.912V161.261H149.904V158.739H157.015V157.894H149.904V157.049ZM163.723 150.315H169.95V151.147H167.285V156.204H166.401V151.147H163.723V150.315ZM165.504 156.204H166.401V157.894H165.504V156.204ZM167.285 156.204H168.169V157.894H167.285V156.204ZM164.62 157.894H165.504V158.739H164.62V157.894ZM168.169 157.894H169.066V158.739H168.169V157.894ZM163.723 158.739H164.62V159.571H163.723V158.739ZM169.066 158.739H169.95V159.571H169.066V158.739ZM171.874 150.328H172.758V161.274H171.874V150.328ZM174.298 150.315H175.195V158.739H174.298V150.315ZM175.195 158.739H179.641V159.571H175.195V158.739ZM182.423 150.328H183.307V161.274H182.423V150.328ZM185.654 150.315H193.662V156.217H192.765V151.16H185.654V150.315ZM191.881 156.217H192.765V157.062H191.881V156.217ZM189.216 157.049H190.1V159.571H194.559V160.403H184.835V159.571H189.216V157.049ZM109.752 165.315H112.417V166.16H109.752V165.315ZM108.868 166.16H109.752V166.992H108.868V166.16ZM112.417 166.16H113.314V166.992H112.417V166.16ZM107.971 166.992H108.868V169.527H107.971V166.992ZM113.314 166.992H114.198V169.527H113.314V166.992ZM108.868 169.527H109.752V170.372H108.868V169.527ZM112.417 169.527H113.314V170.372H112.417V169.527ZM109.752 170.372H112.417V171.204H109.752V170.372ZM116.096 165.315H116.98V171.204H116.096V165.315ZM110.571 172.049H111.455V174.571H110.571V172.049ZM114.133 172.049H115.017V174.571H114.133V172.049ZM109.687 174.571H110.571V175.416H109.687V174.571ZM111.455 174.571H112.352V175.416H111.455V174.571ZM113.236 174.571H114.133V175.416H113.236V174.571ZM115.017 174.571H115.901V175.416H115.017V174.571ZM108.79 175.416H109.687V176.261H108.79V175.416ZM112.352 175.416H113.236V176.261H112.352V175.416ZM115.901 175.416H116.798V176.261H115.901V175.416ZM121.108 165.315H125.554V166.147H121.108V165.315ZM120.224 166.147H121.108V166.992H120.224V166.147ZM125.554 166.147H126.438V166.992H125.554V166.147ZM119.327 166.992H120.224V170.359H119.327V166.992ZM126.438 166.992H127.335V170.359H126.438V166.992ZM120.224 170.359H121.108V171.204H120.224V170.359ZM125.554 170.359H126.438V171.204H125.554V170.359ZM121.108 171.204H125.554V172.049H121.108V171.204ZM118.508 174.558H128.232V175.403H118.508V174.558ZM129.769 165.315H135.996V171.204H129.769V165.315ZM130.653 166.147V170.359H135.112V166.147H130.653ZM137.842 165.315H138.726V171.204H137.842V169.527H136.061V168.682H137.842V167.837H136.061V166.992H137.842V165.315ZM130.588 172.049H131.485V175.416H138.596V176.261H130.588V172.049ZM143.632 165.315H149.859V166.147H144.529V170.359H143.632V165.315ZM144.529 170.359H149.859V171.204H144.529V170.359ZM151.562 165.315H152.459V167.837H153.356V168.682H152.459V171.204H151.562V165.315ZM145.348 172.049H151.562V172.894H145.348V172.049ZM144.451 172.894H145.348V175.416H144.451V172.894ZM151.562 172.894H152.459V175.416H151.562V172.894ZM145.348 175.416H151.562V176.261H145.348V175.416ZM157.545 165.315H158.429V168.682H157.545V165.315ZM156.648 168.682H157.545V169.527H156.648V168.682ZM158.429 168.682H159.326V169.527H158.429V168.682ZM155.764 169.527H156.648V170.372H155.764V169.527ZM159.326 169.527H160.21V170.372H159.326V169.527ZM154.88 170.372H155.764V171.204H154.88V170.372ZM160.21 170.372H161.094V171.204H160.21V170.372ZM163.005 165.315H163.889V171.204H163.005V165.315ZM155.699 172.049H156.596V175.416H163.707V176.261H155.699V172.049ZM166.301 165.315H170.747V166.16H166.301V165.315ZM165.417 166.16H166.301V170.372H165.417V166.16ZM170.747 166.16H171.644V170.372H170.747V166.16ZM166.301 170.372H170.747V171.217H166.301V170.372ZM173.36 165.315H174.257V176.261H173.36V165.315ZM165.43 172.894H171.644V173.739H165.43V172.894ZM183.547 165.315H184.431V169.527H183.547V165.315ZM182.65 169.527H183.547V170.372H182.65V169.527ZM184.431 169.527H185.328V170.372H184.431V169.527ZM181.766 170.372H182.65V171.217H181.766V170.372ZM185.328 170.372H186.212V171.217H185.328V170.372ZM179.985 171.217H181.766V172.062H179.985V171.217ZM186.212 171.217H187.993V172.062H186.212V171.217ZM183.547 172.049H184.431V174.571H188.89V175.403H179.166V174.571H183.547V172.049ZM190.427 165.315H196.654V171.204H190.427V165.315ZM191.311 166.147V170.359H195.77V166.147H191.311ZM198.357 165.315H199.254V167.837H200.151V168.682H199.254V171.204H198.357V165.315ZM192.143 172.049H198.357V172.894H192.143V172.049ZM191.246 172.894H192.143V175.416H191.246V172.894ZM198.357 172.894H199.254V175.416H198.357V172.894ZM192.143 175.416H198.357V176.261H192.143V175.416ZM113.927 180.315H117.476V181.147H113.927V180.315ZM113.03 181.147H113.927V188.739H113.03V181.147ZM117.476 181.147H118.373V188.739H117.476V181.147ZM113.927 188.739H117.476V189.571H113.927V188.739ZM121.155 180.328H122.039V191.274H121.155V180.328ZM129.609 180.315H130.506V181.16H133.171V182.005H131.39V182.837H128.725V182.005H126.944V181.16H129.609V180.315ZM127.828 182.837H128.725V185.372H127.828V182.837ZM131.39 182.837H132.274V185.372H131.39V182.837ZM128.725 185.372H131.39V186.217H128.725V185.372ZM135.017 180.315H135.901V186.204H135.017V184.527H133.236V183.682H135.017V182.837H133.236V181.992H135.017V180.315ZM127.763 187.049H128.66V190.416H135.771V191.261H127.763V187.049ZM140.083 180.315H140.967V183.682H140.083V180.315ZM139.186 183.682H140.083V184.527H139.186V183.682ZM140.967 183.682H141.864V184.527H140.967V183.682ZM138.302 184.527H139.186V185.372H138.302V184.527ZM141.864 184.527H142.748V185.372H141.864V184.527ZM137.418 185.372H138.302V186.204H137.418V185.372ZM142.748 185.372H143.632V186.204H142.748V185.372ZM145.543 180.315H146.427V186.204H145.543V180.315ZM138.237 187.049H146.245V189.571H139.134V190.416H146.245V191.261H138.237V188.739H145.348V187.894H138.237V187.049ZM148.852 180.315H152.401V181.147H148.852V180.315ZM147.955 181.147H148.852V188.739H147.955V181.147ZM152.401 181.147H153.298V188.739H152.401V181.147ZM148.852 188.739H152.401V189.571H148.852V188.739ZM156.08 180.328H156.964V191.274H156.08V180.328ZM161.869 180.315H168.096V181.16H162.766V183.682H161.869V180.315ZM162.766 183.682H168.096V184.527H162.766V183.682ZM169.812 180.315H170.709V186.217H169.812V180.315ZM164.547 183.682H165.431V185.372H168.096V186.217H161.882V185.372H164.547V183.682ZM162.701 187.049H163.598V188.739H169.812V187.049H170.709V191.261H162.701V187.049ZM163.598 189.571V190.416H169.812V189.571H163.598ZM172.241 180.315H173.138V188.739H172.241V180.315ZM173.138 188.739H177.584V189.571H173.138V188.739ZM180.366 180.328H181.25V191.274H180.366V180.328ZM182.778 180.315H188.121V181.147H183.675V188.739H182.778V180.315ZM187.224 187.894H188.121V188.739H187.224V187.894ZM183.675 188.739H187.224V189.571H183.675V188.739ZM190.149 180.315H191.046V185.372H192.619V186.217H191.046V191.261H190.149V180.315ZM194.153 189.064H195.089V190H194.153V189.064Z" fill="black"/>
<path d="M128.995 36.7C129.702 36.7 130.355 36.8 130.955 37C131.568 37.2 132.108 37.4733 132.575 37.82L131.915 39.14C131.648 38.94 131.355 38.7667 131.035 38.62C130.715 38.4733 130.382 38.36 130.035 38.28C129.702 38.2 129.382 38.16 129.075 38.16C128.515 38.16 128.055 38.2533 127.695 38.44C127.335 38.6267 127.062 38.9 126.875 39.26C126.702 39.6067 126.615 40.0467 126.615 40.58C126.615 41.0467 126.695 41.4933 126.855 41.92C127.028 42.3467 127.275 42.74 127.595 43.1C127.915 43.4467 128.302 43.76 128.755 44.04C129.222 44.32 129.748 44.5533 130.335 44.74V52H128.575V45.66C127.882 45.34 127.295 44.98 126.815 44.58C126.335 44.1667 125.948 43.7333 125.655 43.28C125.362 42.8267 125.148 42.3667 125.015 41.9C124.882 41.4333 124.815 40.9733 124.815 40.52C124.815 39.72 124.968 39.04 125.275 38.48C125.595 37.9067 126.068 37.4667 126.695 37.16C127.322 36.8533 128.088 36.7 128.995 36.7ZM142.166 56.44H133.866V55.16H142.166V56.44ZM142.166 53.8H133.866V52.52H142.166V53.8ZM139.966 43.38H142.726V46.18H139.966V43.38ZM150.279 43.24H151.859V44.8H150.279V43.24ZM159.419 43.38H162.179V46.18H159.419V43.38ZM171.932 56.44H163.632V55.16H171.932V56.44ZM171.932 53.8H163.632V52.52H171.932V53.8ZM171.592 36.7C172.512 36.7 173.278 36.8533 173.892 37.16C174.518 37.4667 174.985 37.9067 175.292 38.48C175.612 39.04 175.772 39.72 175.772 40.52C175.772 40.9733 175.705 41.4333 175.572 41.9C175.438 42.3667 175.225 42.8267 174.932 43.28C174.638 43.7333 174.252 44.1667 173.772 44.58C173.292 44.98 172.705 45.34 172.012 45.66V52H170.252V44.74C170.838 44.5533 171.358 44.32 171.812 44.04C172.278 43.76 172.672 43.4467 172.992 43.1C173.312 42.74 173.552 42.3467 173.712 41.92C173.885 41.4933 173.972 41.0467 173.972 40.58C173.972 40.0467 173.885 39.6067 173.712 39.26C173.538 38.9 173.265 38.6267 172.892 38.44C172.532 38.2533 172.072 38.16 171.512 38.16C171.205 38.16 170.885 38.2 170.552 38.28C170.218 38.36 169.885 38.4733 169.552 38.62C169.232 38.7667 168.938 38.94 168.672 39.14L168.012 37.82C168.478 37.4733 169.018 37.2 169.632 37C170.245 36.8 170.898 36.7 171.592 36.7ZM120.262 60.1H121.702V62.92H120.262V60.1ZM118.822 62.92H120.262V65.72H118.822V62.92ZM117.382 65.72H118.822V68.52H117.382V65.72ZM115.942 68.52H117.382V71.34H115.942V68.52ZM114.502 71.34H115.942V74.14H114.502V71.34ZM113.062 74.14H114.502V76.94H113.062V74.14ZM134.013 62.46H138.753V64.02H134.013V62.46ZM129.253 64.02H134.013V65.6H129.253V64.02ZM138.753 64.02H140.353V65.6H138.753V64.02ZM140.353 65.6H141.933V71.86H140.353V65.6ZM138.753 71.86H140.353V73.44H138.753V71.86ZM135.593 73.44H138.753V75H135.593V73.44ZM142.853 60.62H144.433V62.2H142.853V60.62ZM144.433 62.2H146.013V63.76H144.433V62.2ZM142.853 63.76H144.433V65.32H142.853V63.76ZM144.433 65.32H146.013V66.9H144.433V65.32ZM151.254 62.04H154.134V63.48H151.254V62.04ZM155.574 62.04H158.454V63.48H155.574V62.04ZM149.814 63.48H151.254V64.92H149.814V63.48ZM154.134 63.48H155.574V64.92H154.134V63.48ZM158.454 63.48H159.894V64.92H158.454V63.48ZM148.374 64.92H149.814V69.24H148.374V64.92ZM159.894 64.92H161.334V69.24H159.894V64.92ZM149.814 69.24H151.254V70.68H149.814V69.24ZM158.454 69.24H159.894V70.68H158.454V69.24ZM151.254 70.68H152.694V72.12H151.254V70.68ZM157.014 70.68H158.454V72.12H157.014V70.68ZM152.694 72.12H154.134V73.56H152.694V72.12ZM155.574 72.12H157.014V73.56H155.574V72.12ZM154.134 73.56H155.574V75H154.134V73.56ZM168.882 66.44H178.962V67.88H168.882V66.44ZM168.882 69.32H178.962V70.76H168.882V69.32ZM185.363 77.5H173.363V76.48H185.363V77.5ZM189.406 80.5H177.406V79.48H189.406V80.5ZM185.363 62.5H173.363V61.48H185.363V62.5ZM189.406 59.5H177.406V58.48H189.406V59.5ZM184.203 62.04H187.083V63.48H184.203V62.04ZM188.523 62.04H191.403V63.48H188.523V62.04ZM182.763 63.48H184.203V64.92H182.763V63.48ZM187.083 63.48H188.523V64.92H187.083V63.48ZM191.403 63.48H192.843V64.92H191.403V63.48ZM181.323 64.92H182.763V69.24H181.323V64.92ZM192.843 64.92H194.283V69.24H192.843V64.92ZM182.763 69.24H184.203V70.68H182.763V69.24ZM191.403 69.24H192.843V70.68H191.403V69.24ZM184.203 70.68H185.643V72.12H184.203V70.68ZM189.963 70.68H191.403V72.12H189.963V70.68ZM185.643 72.12H187.083V73.56H185.643V72.12ZM188.523 72.12H189.963V73.56H188.523V72.12ZM187.083 73.56H188.523V75H187.083V73.56Z" fill="black"/>
<path d="M3.96516 49.3477L36.0482 6.04673C37.9343 3.50122 40.915 2 44.0831 2H125.691C128.837 2 131.8 3.48051 133.688 5.99652L166.22 49.3323C167.519 51.0639 168.222 53.1706 168.222 55.3358V232C168.222 237.523 163.745 242 158.222 242H12C6.47715 242 2 237.523 2 232V55.301C2 53.1572 2.68892 51.0702 3.96516 49.3477Z" fill="white"/>
<path d="M3.96516 49.3477L36.0482 6.04673C37.9343 3.50122 40.915 2 44.0831 2H125.691C128.837 2 131.8 3.48051 133.688 5.99652L166.22 49.3323C167.519 51.0639 168.222 53.1706 168.222 55.3358V232C168.222 237.523 163.745 242 158.222 242H12C6.47715 242 2 237.523 2 232V55.301C2 53.1572 2.68892 51.0702 3.96516 49.3477Z" fill="url(#paint2_linear_1204_2147)"/>
<path d="M3.96516 49.3477L36.0482 6.04673C37.9343 3.50122 40.915 2 44.0831 2H125.691C128.837 2 131.8 3.48051 133.688 5.99652L166.22 49.3323C167.519 51.0639 168.222 53.1706 168.222 55.3358V232C168.222 237.523 163.745 242 158.222 242H12C6.47715 242 2 237.523 2 232V55.301C2 53.1572 2.68892 51.0702 3.96516 49.3477Z" stroke="#84BDA2" stroke-width="3"/>
<path d="M9.25021 53.1829L39.0068 12.3342C40.889 9.75041 43.893 8.22217 47.0897 8.22217H122.715C125.89 8.22217 128.876 9.72959 130.761 12.2839L160.934 53.1671C162.204 54.8869 162.889 56.968 162.889 59.1054V226.667C162.889 232.189 158.411 236.667 152.889 236.667H17.333C11.8102 236.667 7.33301 232.189 7.33301 226.667V59.0709C7.33301 56.9548 8.00427 54.8933 9.25021 53.1829Z" fill="url(#paint3_linear_1204_2147)" stroke="#84BDA2" stroke-width="3"/>
<rect x="31.333" y="74.8889" width="107.556" height="144" rx="10" fill="#E6F5EB" stroke="#84BDA2" stroke-width="3"/>
<path d="M15.1453 214.491C14.4893 214.491 13.9453 214.123 13.9453 213.611C13.9453 213.131 14.4893 212.731 15.1453 212.731C15.8013 212.731 16.3453 213.131 16.3453 213.611C16.3453 214.123 15.8013 214.491 15.1453 214.491ZM15.1453 215.147C16.2333 215.147 17.1133 214.475 17.1133 213.611C17.1133 212.763 16.2333 212.091 15.1453 212.091C14.0573 212.091 13.1773 212.763 13.1773 213.611C13.1773 214.475 14.0573 215.147 15.1453 215.147ZM18.6173 199.551V198.399H20.9213V197.247H22.0733V198.399H24.3773V199.551H22.0733V200.703H20.9213V199.551H18.6173ZM19.7693 201.855V200.703H20.9213V201.855H19.7693ZM19.7693 197.247V196.095H20.9213V197.247H19.7693ZM22.0733 201.855V200.703H23.2253V201.855H22.0733ZM22.0733 197.247V196.095H23.2253V197.247H22.0733ZM25.6253 194.214V193.062H26.7773V194.214H25.6253ZM22.8893 189.759C22.8893 191.087 23.9773 192.191 25.3213 192.191C26.6653 192.191 27.7533 191.087 27.7533 189.759C27.7533 188.399 26.6653 187.311 25.3213 187.311C23.9773 187.311 22.8893 188.399 22.8893 189.759ZM26.9373 189.759C26.9373 190.639 26.2173 191.375 25.3213 191.375C24.4253 191.375 23.7053 190.639 23.7053 189.759C23.7053 188.847 24.4253 188.127 25.3213 188.127C26.2173 188.127 26.9373 188.847 26.9373 189.759ZM25.6253 183.167V182.015H26.7773V183.167H25.6253ZM20.9693 180.12V178.968H22.1213V180.12H20.9693ZM25.5773 180.12V178.968H26.7293V180.12H25.5773ZM17.5773 174.77V173.618H19.8813V171.314H21.0333V172.466H22.1853V173.618H21.0333V174.77H22.1853V175.922H21.0333V177.074H19.8813V174.77H17.5773ZM22.1853 177.074V175.922H23.3373V177.074H22.1853ZM22.1853 172.466V171.314H23.3373V172.466H22.1853ZM19.7693 169.433V168.169H21.0173V169.433H19.7693ZM15.1453 166.757C14.4893 166.757 13.9453 166.389 13.9453 165.877C13.9453 165.397 14.4893 164.997 15.1453 164.997C15.8013 164.997 16.3453 165.397 16.3453 165.877C16.3453 166.389 15.8013 166.757 15.1453 166.757ZM15.1453 167.413C16.2333 167.413 17.1133 166.741 17.1133 165.877C17.1133 165.029 16.2333 164.357 15.1453 164.357C14.0573 164.357 13.1773 165.029 13.1773 165.877C13.1773 166.741 14.0573 167.413 15.1453 167.413ZM18.6173 151.816V150.664H20.9213L20.9213 149.512H22.0733L22.0733 150.664H24.3773V151.816H22.0733V152.968H20.9213V151.816H18.6173ZM19.7693 154.12V152.968H20.9213V154.12H19.7693ZM19.7693 149.512V148.36H20.9213V149.512H19.7693ZM22.0733 154.12V152.968H23.2253V154.12H22.0733ZM22.0733 149.512V148.36H23.2253V149.512H22.0733ZM25.6253 146.48V145.328H26.7773V146.48H25.6253ZM22.8893 142.025C22.8893 143.353 23.9773 144.457 25.3213 144.457C26.6653 144.457 27.7533 143.353 27.7533 142.025C27.7533 140.665 26.6653 139.577 25.3213 139.577C23.9773 139.577 22.8893 140.665 22.8893 142.025ZM26.9373 142.025C26.9373 142.905 26.2173 143.641 25.3213 143.641C24.4253 143.641 23.7053 142.905 23.7053 142.025C23.7053 141.113 24.4253 140.393 25.3213 140.393C26.2173 140.393 26.9373 141.113 26.9373 142.025ZM25.6253 135.433V134.281H26.7773V135.433H25.6253ZM20.9693 132.386V131.234H22.1213V132.386H20.9693ZM25.5773 132.386V131.234H26.7293V132.386H25.5773ZM17.5773 127.035V125.883H19.8813V123.579H21.0333V124.731H22.1853V125.883H21.0333V127.035H22.1853V128.187H21.0333V129.339H19.8813V127.035H17.5773ZM22.1853 129.339V128.187H23.3373V129.339H22.1853ZM22.1853 124.731V123.579H23.3373V124.731H22.1853ZM19.7693 121.699V120.435H21.0173V121.699H19.7693ZM15.1453 119.022C14.4893 119.022 13.9453 118.654 13.9453 118.142C13.9453 117.662 14.4893 117.262 15.1453 117.262C15.8013 117.262 16.3453 117.662 16.3453 118.142C16.3453 118.654 15.8013 119.022 15.1453 119.022ZM15.1453 119.678C16.2333 119.678 17.1133 119.006 17.1133 118.142C17.1133 117.294 16.2333 116.622 15.1453 116.622C14.0573 116.622 13.1773 117.294 13.1773 118.142C13.1773 119.006 14.0573 119.678 15.1453 119.678ZM18.6173 104.082V102.93H20.9213V101.778H22.0733V102.93H24.3773V104.082H22.0733V105.234H20.9213V104.082H18.6173ZM19.7693 106.386V105.234H20.9213V106.386H19.7693ZM19.7693 101.778V100.626H20.9213V101.778H19.7693ZM22.0733 106.386V105.234H23.2253V106.386H22.0733ZM22.0733 101.778V100.626H23.2253V101.778H22.0733ZM25.6253 98.7454V97.5934H26.7773V98.7454H25.6253ZM22.8893 94.2905C22.8893 95.6185 23.9773 96.7225 25.3213 96.7225C26.6653 96.7225 27.7533 95.6185 27.7533 94.2905C27.7533 92.9305 26.6653 91.8425 25.3213 91.8425C23.9773 91.8425 22.8893 92.9305 22.8893 94.2905ZM26.9373 94.2905C26.9373 95.1705 26.2173 95.9065 25.3213 95.9065C24.4253 95.9065 23.7053 95.1705 23.7053 94.2905C23.7053 93.3785 24.4253 92.6585 25.3213 92.6585C26.2173 92.6585 26.9373 93.3785 26.9373 94.2905ZM25.6253 87.6985V86.5465H26.7773V87.6985H25.6253ZM20.9693 84.6516V83.4996H22.1213V84.6516H20.9693ZM25.5773 84.6516V83.4996H26.7293V84.6516H25.5773ZM17.5773 79.3008V78.1488H19.8813V75.8448H21.0333V76.9968H22.1853V78.1488H21.0333V79.3008H22.1853V80.4528H21.0333V81.6048H19.8813V79.3008H17.5773ZM22.1853 81.6048V80.4528H23.3373V81.6048H22.1853ZM22.1853 76.9968V75.8448H23.3373V76.9968H22.1853Z" fill="black"/>
<path d="M156.855 212.713C157.511 212.713 158.055 212.345 158.055 211.833C158.055 211.353 157.511 210.953 156.855 210.953C156.199 210.953 155.655 211.353 155.655 211.833C155.655 212.345 156.199 212.713 156.855 212.713ZM156.855 213.369C155.767 213.369 154.887 212.697 154.887 211.833C154.887 210.985 155.767 210.313 156.855 210.313C157.943 210.313 158.823 210.985 158.823 211.833C158.823 212.697 157.943 213.369 156.855 213.369ZM153.383 197.773V196.621H151.079V195.469H149.927V196.621H147.623V197.773H149.927V198.925H151.079V197.773H153.383ZM152.231 200.077V198.925H151.079V200.077H152.231ZM152.231 195.469V194.317H151.079V195.469H152.231ZM149.927 200.077V198.925H148.775V200.077H149.927ZM149.927 195.469V194.317H148.775V195.469H149.927ZM146.375 192.436V191.284H145.223V192.436H146.375ZM149.111 187.981C149.111 189.309 148.023 190.413 146.679 190.413C145.335 190.413 144.247 189.309 144.247 187.981C144.247 186.621 145.335 185.533 146.679 185.533C148.023 185.533 149.111 186.621 149.111 187.981ZM145.063 187.981C145.063 188.861 145.783 189.597 146.679 189.597C147.575 189.597 148.295 188.861 148.295 187.981C148.295 187.069 147.575 186.349 146.679 186.349C145.783 186.349 145.063 187.069 145.063 187.981ZM146.375 181.389V180.237H145.223V181.389H146.375ZM151.031 178.343V177.191H149.879V178.343H151.031ZM146.423 178.343V177.191H145.271V178.343H146.423ZM154.423 172.992V171.84H152.119V169.536H150.967V170.688H149.815V171.84H150.967V172.992H149.815V174.144H150.967V175.296H152.119V172.992H154.423ZM149.815 175.296V174.144H148.663V175.296H149.815ZM149.815 170.688V169.536H148.663V170.688H149.815ZM152.231 167.655V166.391H150.983V167.655H152.231ZM156.855 164.979C157.511 164.979 158.055 164.611 158.055 164.099C158.055 163.619 157.511 163.219 156.855 163.219C156.199 163.219 155.655 163.619 155.655 164.099C155.655 164.611 156.199 164.979 156.855 164.979ZM156.855 165.635C155.767 165.635 154.887 164.963 154.887 164.099C154.887 163.251 155.767 162.579 156.855 162.579C157.943 162.579 158.823 163.251 158.823 164.099C158.823 164.963 157.943 165.635 156.855 165.635ZM153.383 150.039V148.887H151.079V147.735H149.927V148.887H147.623V150.039H149.927V151.191H151.079V150.039H153.383ZM152.231 152.343V151.191H151.079V152.343H152.231ZM152.231 147.735V146.583H151.079V147.735H152.231ZM149.927 152.343V151.191H148.775V152.343H149.927ZM149.927 147.735V146.583H148.775V147.735H149.927ZM146.375 144.702V143.55H145.223V144.702H146.375ZM149.111 140.247C149.111 141.575 148.023 142.679 146.679 142.679C145.335 142.679 144.247 141.575 144.247 140.247C144.247 138.887 145.335 137.799 146.679 137.799C148.023 137.799 149.111 138.887 149.111 140.247ZM145.063 140.247C145.063 141.127 145.783 141.863 146.679 141.863C147.575 141.863 148.295 141.127 148.295 140.247C148.295 139.335 147.575 138.615 146.679 138.615C145.783 138.615 145.063 139.335 145.063 140.247ZM146.375 133.655V132.503H145.223V133.655H146.375ZM151.031 130.608V129.456H149.879V130.608H151.031ZM146.423 130.608V129.456H145.271V130.608H146.423ZM154.423 125.257V124.105H152.119V121.801H150.967V122.953H149.815V124.105H150.967V125.257H149.815V126.409H150.967V127.561H152.119V125.257H154.423ZM149.815 127.561V126.409H148.663V127.561H149.815ZM149.815 122.953V121.801H148.663V122.953H149.815ZM152.231 119.921V118.657H150.983V119.921H152.231ZM156.855 117.244C157.511 117.244 158.055 116.876 158.055 116.364C158.055 115.884 157.511 115.484 156.855 115.484C156.199 115.484 155.655 115.884 155.655 116.364C155.655 116.876 156.199 117.244 156.855 117.244ZM156.855 117.9C155.767 117.9 154.887 117.228 154.887 116.364C154.887 115.516 155.767 114.844 156.855 114.844C157.943 114.844 158.823 115.516 158.823 116.364C158.823 117.228 157.943 117.9 156.855 117.9ZM153.383 102.304V101.152H151.079V100H149.927V101.152H147.623V102.304H149.927V103.456H151.079V102.304H153.383ZM152.231 104.608V103.456H151.079V104.608H152.231ZM152.231 100V98.8482H151.079V100H152.231ZM149.927 104.608V103.456H148.775V104.608H149.927ZM149.927 100V98.8482H148.775V100H149.927ZM146.375 96.9676V95.8156H145.223V96.9676H146.375ZM149.111 92.5127C149.111 93.8407 148.023 94.9447 146.679 94.9447C145.335 94.9447 144.247 93.8407 144.247 92.5127C144.247 91.1527 145.335 90.0647 146.679 90.0647C148.023 90.0647 149.111 91.1527 149.111 92.5127ZM145.063 92.5127C145.063 93.3927 145.783 94.1287 146.679 94.1287C147.575 94.1287 148.295 93.3927 148.295 92.5127C148.295 91.6007 147.575 90.8807 146.679 90.8807C145.783 90.8807 145.063 91.6007 145.063 92.5127ZM146.375 85.9207V84.7687H145.223V85.9207H146.375ZM151.031 82.8739V81.7219H149.879V82.8739H151.031ZM146.423 82.8739V81.7219H145.271V82.8739H146.423ZM154.423 77.523V76.371H152.119V74.067H150.967V75.219H149.815V76.371H150.967V77.523H149.815V78.675H150.967V79.827H152.119V77.523H154.423ZM149.815 79.827V78.675H148.663V79.827H149.815ZM149.815 75.219V74.067H148.663V75.219H149.815Z" fill="black"/>
<path d="M60.9951 22.7C61.7018 22.7 62.3551 22.8 62.9551 23C63.5685 23.2 64.1085 23.4733 64.5751 23.82L63.9151 25.14C63.6485 24.94 63.3551 24.7667 63.0351 24.62C62.7151 24.4733 62.3818 24.36 62.0351 24.28C61.7018 24.2 61.3818 24.16 61.0751 24.16C60.5151 24.16 60.0551 24.2533 59.6951 24.44C59.3351 24.6267 59.0618 24.9 58.8751 25.26C58.7018 25.6067 58.6151 26.0467 58.6151 26.58C58.6151 27.0467 58.6951 27.4933 58.8551 27.92C59.0285 28.3467 59.2751 28.74 59.5951 29.1C59.9151 29.4467 60.3018 29.76 60.7551 30.04C61.2218 30.32 61.7485 30.5533 62.3351 30.74V38H60.5751V31.66C59.8818 31.34 59.2951 30.98 58.8151 30.58C58.3351 30.1667 57.9485 29.7333 57.6551 29.28C57.3618 28.8267 57.1485 28.3667 57.0151 27.9C56.8818 27.4333 56.8151 26.9733 56.8151 26.52C56.8151 25.72 56.9685 25.04 57.2751 24.48C57.5951 23.9067 58.0685 23.4667 58.6951 23.16C59.3218 22.8533 60.0885 22.7 60.9951 22.7ZM74.1661 42.44H65.8661V41.16H74.1661V42.44ZM74.1661 39.8H65.8661V38.52H74.1661V39.8ZM71.9661 29.38H74.7261V32.18H71.9661V29.38ZM82.2786 29.24H83.8586V30.8H82.2786V29.24ZM91.4192 29.38H94.1792V32.18H91.4192V29.38ZM103.932 42.44H95.6317V41.16H103.932V42.44ZM103.932 39.8H95.6317V38.52H103.932V39.8ZM103.592 22.7C104.512 22.7 105.278 22.8533 105.892 23.16C106.518 23.4667 106.985 23.9067 107.292 24.48C107.612 25.04 107.772 25.72 107.772 26.52C107.772 26.9733 107.705 27.4333 107.572 27.9C107.438 28.3667 107.225 28.8267 106.932 29.28C106.638 29.7333 106.252 30.1667 105.772 30.58C105.292 30.98 104.705 31.34 104.012 31.66V38H102.252V30.74C102.838 30.5533 103.358 30.32 103.812 30.04C104.278 29.76 104.672 29.4467 104.992 29.1C105.312 28.74 105.552 28.3467 105.712 27.92C105.885 27.4933 105.972 27.0467 105.972 26.58C105.972 26.0467 105.885 25.6067 105.712 25.26C105.538 24.9 105.265 24.6267 104.892 24.44C104.532 24.2533 104.072 24.16 103.512 24.16C103.205 24.16 102.885 24.2 102.552 24.28C102.218 24.36 101.885 24.4733 101.552 24.62C101.232 24.7667 100.938 24.94 100.672 25.14L100.012 23.82C100.478 23.4733 101.018 23.2 101.632 23C102.245 22.8 102.898 22.7 103.592 22.7ZM52.2618 46.1H53.7018V48.92H52.2618V46.1ZM50.8218 48.92H52.2618V51.72H50.8218V48.92ZM49.3818 51.72H50.8218V54.52H49.3818V51.72ZM47.9418 54.52H49.3818V57.34H47.9418V54.52ZM46.5018 57.34H47.9418V60.14H46.5018V57.34ZM45.0618 60.14H46.5018V62.94H45.0618V60.14ZM66.0132 48.46H70.7532V50.02H66.0132V48.46ZM61.2532 50.02H66.0132V51.6H61.2532V50.02ZM70.7532 50.02H72.3532V51.6H70.7532V50.02ZM72.3532 51.6H73.9332V57.86H72.3532V51.6ZM70.7532 57.86H72.3532V59.44H70.7532V57.86ZM67.5932 59.44H70.7532V61H67.5932V59.44ZM74.8532 46.62H76.4332V48.2H74.8532V46.62ZM76.4332 48.2H78.0132V49.76H76.4332V48.2ZM74.8532 49.76H76.4332V51.32H74.8532V49.76ZM76.4332 51.32H78.0132V52.9H76.4332V51.32ZM83.2543 48.04H86.1343V49.48H83.2543V48.04ZM87.5743 48.04H90.4543V49.48H87.5743V48.04ZM81.8143 49.48H83.2543V50.92H81.8143V49.48ZM86.1343 49.48H87.5743V50.92H86.1343V49.48ZM90.4543 49.48H91.8943V50.92H90.4543V49.48ZM80.3743 50.92H81.8143V55.24H80.3743V50.92ZM91.8943 50.92H93.3343V55.24H91.8943V50.92ZM81.8143 55.24H83.2543V56.68H81.8143V55.24ZM90.4543 55.24H91.8943V56.68H90.4543V55.24ZM83.2543 56.68H84.6943V58.12H83.2543V56.68ZM89.0143 56.68H90.4543V58.12H89.0143V56.68ZM84.6943 58.12H86.1343V59.56H84.6943V58.12ZM87.5743 58.12H89.0143V59.56H87.5743V58.12ZM86.1343 59.56H87.5743V61H86.1343V59.56ZM100.882 52.44H110.962V53.88H100.882V52.44ZM100.882 55.32H110.962V56.76H100.882V55.32ZM117.363 63.5H105.363V62.48H117.363V63.5ZM121.406 66.5H109.406V65.48H121.406V66.5ZM117.363 48.5H105.363V47.48H117.363V48.5ZM121.406 45.5H109.406V44.48H121.406V45.5ZM116.203 48.04H119.083V49.48H116.203V48.04ZM120.523 48.04H123.403V49.48H120.523V48.04ZM114.763 49.48H116.203V50.92H114.763V49.48ZM119.083 49.48H120.523V50.92H119.083V49.48ZM123.403 49.48H124.843V50.92H123.403V49.48ZM113.323 50.92H114.763V55.24H113.323V50.92ZM124.843 50.92H126.283V55.24H124.843V50.92ZM114.763 55.24H116.203V56.68H114.763V55.24ZM123.403 55.24H124.843V56.68H123.403V55.24ZM116.203 56.68H117.643V58.12H116.203V56.68ZM121.963 56.68H123.403V58.12H121.963V56.68ZM117.643 58.12H119.083V59.56H117.643V58.12ZM120.523 58.12H121.963V59.56H120.523V58.12ZM119.083 59.56H120.523V61H119.083V59.56Z" fill="black"/>
<path d="M57.51 107.12H67.374V108.656H59.166V113.336H67.374V114.896H59.166V122.672H57.51V107.12ZM59.166 122.672H67.374V124.208H59.166V122.672ZM72.51 107.144H74.142V127.352H72.51V107.144ZM76.9631 107.12H88.4591V114.896H86.8031V113.336H76.9631V111.776H86.8031V108.68H76.9631V107.12ZM85.1951 114.896H86.8271V116.456H85.1951V114.896ZM83.5631 116.456H85.1951V118.016H83.5631V116.456ZM90.2111 107.12H91.8671V118.016H90.2111V113.336H88.5791V111.776H90.2111V107.12ZM93.4991 107.12H95.1311V118.016H93.4991V107.12ZM85.0511 119.552H86.6831V122.672H85.0511V119.552ZM83.3951 122.672H85.0511V124.208H83.3951V122.672ZM86.6831 122.672H88.3391V124.208H86.6831V122.672ZM81.7631 124.208H83.3951V125.768H81.7631V124.208ZM88.3391 124.208H89.9711V125.768H88.3391V124.208ZM78.4751 125.768H81.7631V127.328H78.4751V125.768ZM89.9711 125.768H93.2591V127.328H89.9711V125.768ZM97.9631 107.12H109.459V108.68H99.6191V111.776H109.459V113.336H99.6191V116.456H109.459V118.016H97.9631V107.12ZM112.963 107.12H114.595V117.992H112.963V107.12ZM101.131 119.552H112.603V121.112H101.131V119.552ZM99.4751 121.112H101.131V125.768H99.4751V121.112ZM112.603 121.112H114.259V125.768H112.603V121.112ZM101.131 125.768H112.603V127.328H101.131V125.768ZM60.7678 135.72H67.6798V151.272H72.8638V153H60.7678V151.272H65.9518V137.448H60.7678V135.72ZM78.9855 135.12H83.9055V136.68H78.9855V135.12ZM77.3535 136.68H78.9855V138.216H77.3535V136.68ZM83.9055 136.68H85.5615V138.216H83.9055V136.68ZM75.6975 138.216H77.3535V142.896H75.6975V138.216ZM85.5615 138.216H87.1935V142.896H85.5615V138.216ZM77.3535 142.896H78.9855V144.456H77.3535V142.896ZM83.9055 142.896H85.5615V144.456H83.9055V142.896ZM78.9855 144.456H83.9055V145.992H78.9855V144.456ZM90.6015 135.12H92.2335V145.992H90.6015V142.896H87.3135V141.336H90.6015V139.776H87.3135V138.216H90.6015V135.12ZM77.2095 147.552H91.9935V152.208H78.8655V153.768H91.9935V155.328H77.2095V150.672H90.3375V149.112H77.2095V147.552ZM99.9529 135.12H101.585V141.336H99.9529V135.12ZM98.2969 141.336H99.9529V142.896H98.2969V141.336ZM101.585 141.336H103.241V142.896H101.585V141.336ZM96.6649 142.896H98.2969V144.456H96.6649V142.896ZM103.241 142.896H104.873V144.456H103.241V142.896ZM95.0329 144.456H96.6649V145.992H95.0329V144.456ZM104.873 144.456H106.505V145.992H104.873V144.456ZM109.673 135.12H111.329V145.992H109.673V141.336H106.529V139.776H109.673V135.12ZM98.2009 147.552H109.673V149.112H98.2009V147.552ZM96.5449 149.112H98.2009V153.768H96.5449V149.112ZM109.673 149.112H111.329V153.768H109.673V149.112ZM98.2009 153.768H109.673V155.328H98.2009V153.768ZM58.6353 163.12H73.4193V170.896H71.7873V164.656H58.6353V163.12ZM65.2113 169.336H66.8433V172.432H75.0753V173.992H57.1233V172.432H65.2113V169.336ZM60.2913 175.552H71.7633V177.112H60.2913V175.552ZM58.6353 177.112H60.2913V181.768H58.6353V177.112ZM71.7633 177.112H73.4193V181.768H71.7633V177.112ZM60.2913 181.768H71.7633V183.328H60.2913V181.768ZM79.4243 163.12H81.0803V166.216H92.5523V163.12H94.2083V173.992H79.4243V163.12ZM81.0803 167.776V172.432H92.5523V167.776H81.0803ZM77.9123 175.552H95.8643V177.112H87.6323V183.328H86.0003V177.112H77.9123V175.552ZM98.6774 163.12H110.149V164.656H105.229V169.336H103.597V164.656H98.6774V163.12ZM101.941 169.336H103.597V170.896H101.941V169.336ZM105.229 169.336H106.885V170.896H105.229V169.336ZM100.309 170.896H101.941V172.432H100.309V170.896ZM106.885 170.896H108.517V172.432H106.885V170.896ZM98.6774 172.432H100.309V173.992H98.6774V172.432ZM108.517 172.432H110.149V173.992H108.517V172.432ZM113.317 163.12H114.973V173.992H113.317V169.336H110.173V167.776H113.317V163.12ZM100.189 175.552H114.973V183.328H113.317V177.112H100.189V175.552Z" fill="black"/>
<defs>
<linearGradient id="paint0_linear_1204_2147" x1="153.111" y1="16" x2="153.111" y2="256" gradientUnits="userSpaceOnUse">
<stop stop-color="#D8EDDF"/>
<stop offset="1" stop-color="#5B7965" stop-opacity="0"/>
</linearGradient>
<linearGradient id="paint1_linear_1204_2147" x1="153.111" y1="22.2222" x2="153.111" y2="250.667" gradientUnits="userSpaceOnUse">
<stop stop-color="#F8FFF3"/>
<stop offset="1" stop-color="#90CAA4" stop-opacity="0"/>
</linearGradient>
<linearGradient id="paint2_linear_1204_2147" x1="85.1111" y1="2" x2="85.1111" y2="242" gradientUnits="userSpaceOnUse">
<stop stop-color="#D8EDDF"/>
<stop offset="1" stop-color="#5B7965" stop-opacity="0"/>
</linearGradient>
<linearGradient id="paint3_linear_1204_2147" x1="85.1108" y1="8.22217" x2="85.1108" y2="236.667" gradientUnits="userSpaceOnUse">
<stop stop-color="#F8FFF3"/>
<stop offset="1" stop-color="#90CAA4" stop-opacity="0"/>
</linearGradient>
</defs>
</svg>
