<svg width="289" height="291" viewBox="0 0 289 291" fill="none" xmlns="http://www.w3.org/2000/svg">
<path d="M0 20C0 8.9543 8.9543 0 20 0H269C280.046 0 289 8.9543 289 20V271C289 282.046 280.046 291 269 291H20C8.9543 291 0 282.046 0 271V20Z" fill="white"/>
<mask id="path-2-inside-1_869_1759" fill="white">
<path fill-rule="evenodd" clip-rule="evenodd" d="M23.1094 6.08447C13.7205 6.08447 6.10938 13.6957 6.10938 23.0845V246.351C6.10938 255.74 13.7205 263.351 23.1093 263.351H200.045L196.205 283.73C195.852 285.601 198.068 286.86 199.495 285.598L224.663 263.351H265.47C274.859 263.351 282.47 255.74 282.47 246.351V23.0845C282.47 13.6956 274.859 6.08447 265.47 6.08447H23.1094Z"/>
</mask>
<path d="M200.045 263.351L201.028 263.536L201.252 262.351H200.045V263.351ZM196.205 283.73L197.188 283.915L196.205 283.73ZM199.495 285.598L200.158 286.348L199.495 285.598ZM224.663 263.351V262.351H224.284L224.001 262.602L224.663 263.351ZM7.10938 23.0845C7.10938 14.2479 14.2728 7.08447 23.1094 7.08447V5.08447C13.1682 5.08447 5.10938 13.1434 5.10938 23.0845H7.10938ZM7.10938 246.351V23.0845H5.10938V246.351H7.10938ZM23.1093 262.351C14.2728 262.351 7.10938 255.188 7.10938 246.351H5.10938C5.10938 256.292 13.1682 264.351 23.1093 264.351V262.351ZM200.045 262.351H23.1093V264.351H200.045V262.351ZM197.188 283.915L201.028 263.536L199.063 263.166L195.223 283.544L197.188 283.915ZM198.833 284.849C198.119 285.48 197.012 284.851 197.188 283.915L195.223 283.544C194.693 286.352 198.017 288.24 200.158 286.348L198.833 284.849ZM224.001 262.602L198.833 284.849L200.158 286.348L225.325 264.101L224.001 262.602ZM265.47 262.351H224.663V264.351H265.47V262.351ZM281.47 246.351C281.47 255.188 274.307 262.351 265.47 262.351V264.351C275.411 264.351 283.47 256.292 283.47 246.351H281.47ZM281.47 23.0845V246.351H283.47V23.0845H281.47ZM265.47 7.08447C274.307 7.08447 281.47 14.2479 281.47 23.0845H283.47C283.47 13.1434 275.411 5.08447 265.47 5.08447V7.08447ZM23.1094 7.08447H265.47V5.08447H23.1094V7.08447Z" fill="black" mask="url(#path-2-inside-1_869_1759)"/>
<path d="M25.2007 34L26.1847 33.292L27.1687 34L26.7967 32.872L27.6967 32.26H26.5807L26.1847 31.06L25.7887 32.26H24.6727L25.5727 32.872L25.2007 34ZM33.46 28.06H34.324V28.924H33.46V28.06ZM32.596 28.924H33.46V29.788H32.596V28.924ZM34.324 28.924H35.188V29.788H34.324V28.924ZM33.46 29.788H34.324V30.652H33.46V29.788ZM40.585 34.408H41.449V35.272H40.585V34.408ZM39.721 35.272H40.585V36.136H39.721V35.272ZM41.449 35.272H42.313V36.136H41.449V35.272ZM40.585 36.136H41.449V37H40.585V36.136ZM48.574 29.224H50.302V30.088H48.574V29.224ZM51.166 29.224H52.894V30.088H51.166V29.224ZM47.71 30.088H48.574V30.952H47.71V30.088ZM50.302 30.088H51.166V30.952H50.302V30.088ZM52.894 30.088H53.758V30.952H52.894V30.088ZM46.846 30.952H47.71V33.544H46.846V30.952ZM53.758 30.952H54.622V33.544H53.758V30.952ZM47.71 33.544H48.574V34.408H47.71V33.544ZM52.894 33.544H53.758V34.408H52.894V33.544ZM48.574 34.408H49.438V35.272H48.574V34.408ZM52.03 34.408H52.894V35.272H52.03V34.408ZM49.438 35.272H50.302V36.136H49.438V35.272ZM51.166 35.272H52.03V36.136H51.166V35.272ZM50.302 36.136H51.166V37H50.302V36.136ZM59.1147 34L60.0987 33.292L61.0827 34L60.7107 32.872L61.6107 32.26H60.4947L60.0987 31.06L59.7027 32.26H58.5867L59.4867 32.872L59.1147 34ZM67.3741 28.06H68.2381V28.924H67.3741V28.06ZM66.5101 28.924H67.3741V29.788H66.5101V28.924ZM68.2381 28.924H69.1021V29.788H68.2381V28.924ZM67.3741 29.788H68.2381V30.652H67.3741V29.788ZM74.4991 34.408H75.3631V35.272H74.4991V34.408ZM73.6351 35.272H74.4991V36.136H73.6351V35.272ZM75.3631 35.272H76.2271V36.136H75.3631V35.272ZM74.4991 36.136H75.3631V37H74.4991V36.136ZM82.4881 29.224H84.2161V30.088H82.4881V29.224ZM85.0801 29.224H86.8081V30.088H85.0801V29.224ZM81.6241 30.088H82.4881V30.952H81.6241V30.088ZM84.2161 30.088H85.0801V30.952H84.2161V30.088ZM86.8081 30.088H87.6721V30.952H86.8081V30.088ZM80.7601 30.952H81.6241V33.544H80.7601V30.952ZM87.6721 30.952H88.5361V33.544H87.6721V30.952ZM81.6241 33.544H82.4881V34.408H81.6241V33.544ZM86.8081 33.544H87.6721V34.408H86.8081V33.544ZM82.4881 34.408H83.3521V35.272H82.4881V34.408ZM85.9441 34.408H86.8081V35.272H85.9441V34.408ZM83.3521 35.272H84.2161V36.136H83.3521V35.272ZM85.0801 35.272H85.9441V36.136H85.0801V35.272ZM84.2161 36.136H85.0801V37H84.2161V36.136ZM93.0288 34L94.0128 33.292L94.9968 34L94.6248 32.872L95.5248 32.26H94.4088L94.0128 31.06L93.6168 32.26H92.5008L93.4008 32.872L93.0288 34ZM101.288 28.06H102.152V28.924H101.288V28.06ZM100.424 28.924H101.288V29.788H100.424V28.924ZM102.152 28.924H103.016V29.788H102.152V28.924ZM101.288 29.788H102.152V30.652H101.288V29.788ZM108.413 34.408H109.277V35.272H108.413V34.408ZM107.549 35.272H108.413V36.136H107.549V35.272ZM109.277 35.272H110.141V36.136H109.277V35.272ZM108.413 36.136H109.277V37H108.413V36.136ZM116.402 29.224H118.13V30.088H116.402V29.224ZM118.994 29.224H120.722V30.088H118.994V29.224ZM115.538 30.088H116.402V30.952H115.538V30.088ZM118.13 30.088H118.994V30.952H118.13V30.088ZM120.722 30.088H121.586V30.952H120.722V30.088ZM114.674 30.952H115.538V33.544H114.674V30.952ZM121.586 30.952H122.45V33.544H121.586V30.952ZM115.538 33.544H116.402V34.408H115.538V33.544ZM120.722 33.544H121.586V34.408H120.722V33.544ZM116.402 34.408H117.266V35.272H116.402V34.408ZM119.858 34.408H120.722V35.272H119.858V34.408ZM117.266 35.272H118.13V36.136H117.266V35.272ZM118.994 35.272H119.858V36.136H118.994V35.272ZM118.13 36.136H118.994V37H118.13V36.136ZM127.843 28.06H128.707V28.924H127.843V28.06ZM126.979 28.924H127.843V29.788H126.979V28.924ZM128.707 28.924H129.571V29.788H128.707V28.924ZM127.843 29.788H128.707V30.652H127.843V29.788ZM134.968 34.408H135.832V35.272H134.968V34.408ZM134.104 35.272H134.968V36.136H134.104V35.272ZM135.832 35.272H136.696V36.136H135.832V35.272ZM134.968 36.136H135.832V37H134.968V36.136ZM138.076 34L139.06 33.292L140.044 34L139.672 32.872L140.572 32.26H139.456L139.06 31.06L138.664 32.26H137.548L138.448 32.872L138.076 34ZM146.335 34.408H147.199V35.272H146.335V34.408ZM145.471 35.272H146.335V36.136H145.471V35.272ZM147.199 35.272H148.063V36.136H147.199V35.272ZM146.335 36.136H147.199V37H146.335V36.136ZM150.343 28.06H151.207V28.924H150.343V28.06ZM149.479 28.924H150.343V29.788H149.479V28.924ZM151.207 28.924H152.071V29.788H151.207V28.924ZM150.343 29.788H151.207V30.652H150.343V29.788ZM158.332 29.224H160.06V30.088H158.332V29.224ZM160.924 29.224H162.652V30.088H160.924V29.224ZM157.468 30.088H158.332V30.952H157.468V30.088ZM160.06 30.088H160.924V30.952H160.06V30.088ZM162.652 30.088H163.516V30.952H162.652V30.088ZM156.604 30.952H157.468V33.544H156.604V30.952ZM163.516 30.952H164.38V33.544H163.516V30.952ZM157.468 33.544H158.332V34.408H157.468V33.544ZM162.652 33.544H163.516V34.408H162.652V33.544ZM158.332 34.408H159.196V35.272H158.332V34.408ZM161.788 34.408H162.652V35.272H161.788V34.408ZM159.196 35.272H160.06V36.136H159.196V35.272ZM160.924 35.272H161.788V36.136H160.924V35.272ZM160.06 36.136H160.924V37H160.06V36.136ZM166.655 28.06H167.519V28.924H166.655V28.06ZM165.791 28.924H166.655V29.788H165.791V28.924ZM167.519 28.924H168.383V29.788H167.519V28.924ZM166.655 29.788H167.519V30.652H166.655V29.788ZM173.78 34.408H174.644V35.272H173.78V34.408ZM172.916 35.272H173.78V36.136H172.916V35.272ZM174.644 35.272H175.508V36.136H174.644V35.272ZM173.78 36.136H174.644V37H173.78V36.136ZM180.005 34L180.989 33.292L181.973 34L181.601 32.872L182.501 32.26H181.385L180.989 31.06L180.593 32.26H179.477L180.377 32.872L180.005 34ZM189.129 29.224H190.857V30.088H189.129V29.224ZM191.721 29.224H193.449V30.088H191.721V29.224ZM188.265 30.088H189.129V30.952H188.265V30.088ZM190.857 30.088H191.721V30.952H190.857V30.088ZM193.449 30.088H194.313V30.952H193.449V30.088ZM187.401 30.952H188.265V33.544H187.401V30.952ZM194.313 30.952H195.177V33.544H194.313V30.952ZM188.265 33.544H189.129V34.408H188.265V33.544ZM193.449 33.544H194.313V34.408H193.449V33.544ZM189.129 34.408H189.993V35.272H189.129V34.408ZM192.585 34.408H193.449V35.272H192.585V34.408ZM189.993 35.272H190.857V36.136H189.993V35.272ZM191.721 35.272H192.585V36.136H191.721V35.272ZM190.857 36.136H191.721V37H190.857V36.136ZM199.669 34L200.653 33.292L201.637 34L201.265 32.872L202.165 32.26H201.049L200.653 31.06L200.257 32.26H199.141L200.041 32.872L199.669 34ZM207.929 28.06H208.793V28.924H207.929V28.06ZM207.065 28.924H207.929V29.788H207.065V28.924ZM208.793 28.924H209.657V29.788H208.793V28.924ZM207.929 29.788H208.793V30.652H207.929V29.788ZM215.054 34.408H215.918V35.272H215.054V34.408ZM214.19 35.272H215.054V36.136H214.19V35.272ZM215.918 35.272H216.782V36.136H215.918V35.272ZM215.054 36.136H215.918V37H215.054V36.136ZM223.043 29.224H224.771V30.088H223.043V29.224ZM225.635 29.224H227.363V30.088H225.635V29.224ZM222.179 30.088H223.043V30.952H222.179V30.088ZM224.771 30.088H225.635V30.952H224.771V30.088ZM227.363 30.088H228.227V30.952H227.363V30.088ZM221.315 30.952H222.179V33.544H221.315V30.952ZM228.227 30.952H229.091V33.544H228.227V30.952ZM222.179 33.544H223.043V34.408H222.179V33.544ZM227.363 33.544H228.227V34.408H227.363V33.544ZM223.043 34.408H223.907V35.272H223.043V34.408ZM226.499 34.408H227.363V35.272H226.499V34.408ZM223.907 35.272H224.771V36.136H223.907V35.272ZM225.635 35.272H226.499V36.136H225.635V35.272ZM224.771 36.136H225.635V37H224.771V36.136ZM233.583 34L234.567 33.292L235.551 34L235.179 32.872L236.079 32.26H234.963L234.567 31.06L234.171 32.26H233.055L233.955 32.872L233.583 34ZM241.843 28.06H242.707V28.924H241.843V28.06ZM240.979 28.924H241.843V29.788H240.979V28.924ZM242.707 28.924H243.571V29.788H242.707V28.924ZM241.843 29.788H242.707V30.652H241.843V29.788ZM248.968 34.408H249.832V35.272H248.968V34.408ZM248.104 35.272H248.968V36.136H248.104V35.272ZM249.832 35.272H250.696V36.136H249.832V35.272ZM248.968 36.136H249.832V37H248.968V36.136ZM256.957 29.224H258.685V30.088H256.957V29.224ZM259.549 29.224H261.277V30.088H259.549V29.224ZM256.093 30.088H256.957V30.952H256.093V30.088ZM258.685 30.088H259.549V30.952H258.685V30.088ZM261.277 30.088H262.141V30.952H261.277V30.088ZM255.229 30.952H256.093V33.544H255.229V30.952ZM262.141 30.952H263.005V33.544H262.141V30.952ZM256.093 33.544H256.957V34.408H256.093V33.544ZM261.277 33.544H262.141V34.408H261.277V33.544ZM256.957 34.408H257.821V35.272H256.957V34.408ZM260.413 34.408H261.277V35.272H260.413V34.408ZM257.821 35.272H258.685V36.136H257.821V35.272ZM259.549 35.272H260.413V36.136H259.549V35.272ZM258.685 36.136H259.549V37H258.685V36.136Z" fill="black"/>
<path d="M262.141 238.965L261.157 238.257L260.173 238.965L260.545 237.837L259.645 237.225H260.761L261.157 236.025L261.553 237.225H262.669L261.769 237.837L262.141 238.965ZM253.882 233.025H253.018V233.889H253.882V233.025ZM254.746 233.889H253.882V234.753H254.746V233.889ZM253.018 233.889H252.154V234.753H253.018V233.889ZM253.882 234.753H253.018V235.617H253.882V234.753ZM246.757 239.373H245.893V240.237H246.757V239.373ZM247.621 240.237H246.757V241.101H247.621V240.237ZM245.893 240.237H245.029V241.101H245.893V240.237ZM246.757 241.101H245.893V241.965H246.757V241.101ZM238.768 234.189H237.04V235.053H238.768V234.189ZM236.176 234.189H234.448V235.053H236.176V234.189ZM239.632 235.053H238.768V235.917H239.632V235.053ZM237.04 235.053H236.176V235.917H237.04V235.053ZM234.448 235.053H233.584V235.917H234.448V235.053ZM240.496 235.917H239.632V238.509H240.496V235.917ZM233.584 235.917H232.72V238.509H233.584V235.917ZM239.632 238.509H238.768V239.373H239.632V238.509ZM234.448 238.509H233.584V239.373H234.448V238.509ZM238.768 239.373H237.904V240.237H238.768V239.373ZM235.312 239.373H234.448V240.237H235.312V239.373ZM237.904 240.237H237.04V241.101H237.904V240.237ZM236.176 240.237H235.312V241.101H236.176V240.237ZM237.04 241.101H236.176V241.965H237.04V241.101ZM228.227 238.965L227.243 238.257L226.259 238.965L226.631 237.837L225.731 237.225H226.847L227.243 236.025L227.639 237.225H228.755L227.855 237.837L228.227 238.965ZM219.968 233.025H219.104V233.889H219.968V233.025ZM220.832 233.889H219.968V234.753H220.832V233.889ZM219.104 233.889H218.24V234.753H219.104V233.889ZM219.968 234.753H219.104V235.617H219.968V234.753ZM212.843 239.373H211.979V240.237H212.843V239.373ZM213.707 240.237H212.843V241.101H213.707V240.237ZM211.979 240.237H211.115V241.101H211.979V240.237ZM212.843 241.101H211.979V241.965H212.843V241.101ZM204.854 234.189H203.126V235.053H204.854V234.189ZM202.262 234.189H200.534V235.053H202.262V234.189ZM205.718 235.053H204.854V235.917H205.718V235.053ZM203.126 235.053H202.262V235.917H203.126V235.053ZM200.534 235.053H199.67V235.917H200.534V235.053ZM206.582 235.917H205.718V238.509H206.582V235.917ZM199.67 235.917H198.806V238.509H199.67V235.917ZM205.718 238.509H204.854V239.373H205.718V238.509ZM200.534 238.509H199.67V239.373H200.534V238.509ZM204.854 239.373H203.99V240.237H204.854V239.373ZM201.398 239.373H200.534V240.237H201.398V239.373ZM203.99 240.237H203.126V241.101H203.99V240.237ZM202.262 240.237H201.398V241.101H202.262V240.237ZM203.126 241.101H202.262V241.965H203.126V241.101ZM194.313 238.965L193.329 238.257L192.345 238.965L192.717 237.837L191.817 237.225H192.933L193.329 236.025L193.725 237.225H194.841L193.941 237.837L194.313 238.965ZM186.054 233.025H185.19V233.889H186.054V233.025ZM186.918 233.889H186.054V234.753H186.918V233.889ZM185.19 233.889H184.326V234.753H185.19V233.889ZM186.054 234.753H185.19V235.617H186.054V234.753ZM178.929 239.373H178.065V240.237H178.929V239.373ZM179.793 240.237H178.929V241.101H179.793V240.237ZM178.065 240.237H177.201V241.101H178.065V240.237ZM178.929 241.101H178.065V241.965H178.929V241.101ZM170.94 234.189H169.212V235.053H170.94V234.189ZM168.348 234.189H166.62V235.053H168.348V234.189ZM171.804 235.053H170.94V235.917H171.804V235.053ZM169.212 235.053H168.348V235.917H169.212V235.053ZM166.62 235.053H165.756V235.917H166.62V235.053ZM172.668 235.917H171.804V238.509H172.668V235.917ZM165.756 235.917H164.892V238.509H165.756V235.917ZM171.804 238.509H170.94V239.373H171.804V238.509ZM166.62 238.509H165.756V239.373H166.62V238.509ZM170.94 239.373H170.076V240.237H170.94V239.373ZM167.484 239.373H166.62V240.237H167.484V239.373ZM170.076 240.237H169.212V241.101H170.076V240.237ZM168.348 240.237H167.484V241.101H168.348V240.237ZM169.212 241.101H168.348V241.965H169.212V241.101ZM159.499 233.025H158.635V233.889H159.499V233.025ZM160.363 233.889H159.499V234.753H160.363V233.889ZM158.635 233.889H157.771V234.753H158.635V233.889ZM159.499 234.753H158.635V235.617H159.499V234.753ZM152.374 239.373H151.51V240.237H152.374V239.373ZM153.238 240.237H152.374V241.101H153.238V240.237ZM151.51 240.237H150.646V241.101H151.51V240.237ZM152.374 241.101H151.51V241.965H152.374V241.101ZM149.266 238.965L148.282 238.257L147.298 238.965L147.67 237.837L146.77 237.225H147.886L148.282 236.025L148.678 237.225H149.794L148.894 237.837L149.266 238.965ZM141.007 239.373H140.143V240.237H141.007V239.373ZM141.871 240.237H141.007V241.101H141.871V240.237ZM140.143 240.237H139.279V241.101H140.143V240.237ZM141.007 241.101H140.143V241.965H141.007V241.101ZM136.999 233.025H136.135V233.889H136.999V233.025ZM137.863 233.889H136.999V234.753H137.863V233.889ZM136.135 233.889H135.271V234.753H136.135V233.889ZM136.999 234.753H136.135V235.617H136.999V234.753ZM129.01 234.189H127.282V235.053H129.01V234.189ZM126.418 234.189H124.69V235.053H126.418V234.189ZM129.874 235.053H129.01V235.917H129.874V235.053ZM127.282 235.053H126.418V235.917H127.282V235.053ZM124.69 235.053H123.826V235.917H124.69V235.053ZM130.738 235.917H129.874V238.509H130.738V235.917ZM123.826 235.917H122.962V238.509H123.826V235.917ZM129.874 238.509H129.01V239.373H129.874V238.509ZM124.69 238.509H123.826V239.373H124.69V238.509ZM129.01 239.373H128.146V240.237H129.01V239.373ZM125.554 239.373H124.69V240.237H125.554V239.373ZM128.146 240.237H127.282V241.101H128.146V240.237ZM126.418 240.237H125.554V241.101H126.418V240.237ZM127.282 241.101H126.418V241.965H127.282V241.101ZM120.686 233.025H119.822V233.889H120.686V233.025ZM121.55 233.889H120.686V234.753H121.55V233.889ZM119.822 233.889H118.958V234.753H119.822V233.889ZM120.686 234.753H119.822V235.617H120.686V234.753ZM113.561 239.373H112.697V240.237H113.561V239.373ZM114.425 240.237H113.561V241.101H114.425V240.237ZM112.697 240.237H111.833V241.101H112.697V240.237ZM113.561 241.101H112.697V241.965H113.561V241.101ZM107.336 238.965L106.352 238.257L105.368 238.965L105.74 237.837L104.84 237.225H105.956L106.352 236.025L106.748 237.225H107.864L106.964 237.837L107.336 238.965ZM98.2131 234.189H96.4851V235.053H98.2131V234.189ZM95.621 234.189H93.893V235.053H95.621V234.189ZM99.0771 235.053H98.2131V235.917H99.0771V235.053ZM96.4851 235.053H95.621V235.917H96.4851V235.053ZM93.893 235.053H93.029V235.917H93.893V235.053ZM99.9411 235.917H99.0771V238.509H99.9411V235.917ZM93.029 235.917H92.165V238.509H93.029V235.917ZM99.0771 238.509H98.2131V239.373H99.0771V238.509ZM93.893 238.509H93.029V239.373H93.893V238.509ZM98.2131 239.373H97.3491V240.237H98.2131V239.373ZM94.757 239.373H93.893V240.237H94.757V239.373ZM97.3491 240.237H96.4851V241.101H97.3491V240.237ZM95.621 240.237H94.757V241.101H95.621V240.237ZM96.4851 241.101H95.621V241.965H96.4851V241.101ZM87.6724 238.965L86.6884 238.257L85.7044 238.965L86.0764 237.837L85.1764 237.225H86.2924L86.6884 236.025L87.0844 237.225H88.2004L87.3004 237.837L87.6724 238.965ZM79.413 233.025H78.549V233.889H79.413V233.025ZM80.277 233.889H79.413V234.753H80.277V233.889ZM78.549 233.889H77.685V234.753H78.549V233.889ZM79.413 234.753H78.549V235.617H79.413V234.753ZM72.288 239.373H71.424V240.237H72.288V239.373ZM73.152 240.237H72.288V241.101H73.152V240.237ZM71.424 240.237H70.56V241.101H71.424V240.237ZM72.288 241.101H71.424V241.965H72.288V241.101ZM64.299 234.189H62.571V235.053H64.299V234.189ZM61.707 234.189H59.979V235.053H61.707V234.189ZM65.163 235.053H64.299V235.917H65.163V235.053ZM62.571 235.053H61.707V235.917H62.571V235.053ZM59.979 235.053H59.115V235.917H59.979V235.053ZM66.027 235.917H65.163V238.509H66.027V235.917ZM59.115 235.917H58.251V238.509H59.115V235.917ZM65.163 238.509H64.299V239.373H65.163V238.509ZM59.979 238.509H59.115V239.373H59.979V238.509ZM64.299 239.373H63.435V240.237H64.299V239.373ZM60.843 239.373H59.979V240.237H60.843V239.373ZM63.435 240.237H62.571V241.101H63.435V240.237ZM61.707 240.237H60.843V241.101H61.707V240.237ZM62.571 241.101H61.707V241.965H62.571V241.101ZM53.7583 238.965L52.7743 238.257L51.7903 238.965L52.1623 237.837L51.2623 237.225H52.3783L52.7743 236.025L53.1703 237.225H54.2863L53.3863 237.837L53.7583 238.965ZM45.4989 233.025H44.6349V233.889H45.4989V233.025ZM46.3629 233.889H45.4989V234.753H46.3629V233.889ZM44.6349 233.889H43.7709V234.753H44.6349V233.889ZM45.4989 234.753H44.6349V235.617H45.4989V234.753ZM38.3739 239.373H37.5099V240.237H38.3739V239.373ZM39.2379 240.237H38.3739V241.101H39.2379V240.237ZM37.5099 240.237H36.6459V241.101H37.5099V240.237ZM38.3739 241.101H37.5099V241.965H38.3739V241.101ZM30.3849 234.189H28.6569V235.053H30.3849V234.189ZM27.7929 234.189H26.0649V235.053H27.7929V234.189ZM31.2489 235.053H30.3849V235.917H31.2489V235.053ZM28.6569 235.053H27.7929V235.917H28.6569V235.053ZM26.0649 235.053H25.2009V235.917H26.0649V235.053ZM32.1129 235.917H31.2489V238.509H32.1129V235.917ZM25.2009 235.917H24.3369V238.509H25.2009V235.917ZM31.2489 238.509H30.3849V239.373H31.2489V238.509ZM26.0649 238.509H25.2009V239.373H26.0649V238.509ZM30.3849 239.373H29.5209V240.237H30.3849V239.373ZM26.9289 239.373H26.0649V240.237H26.9289V239.373ZM29.5209 240.237H28.6569V241.101H29.5209V240.237ZM27.7929 240.237H26.9289V241.101H27.7929V240.237ZM28.6569 241.101H27.7929V241.965H28.6569V241.101Z" fill="black"/>
</svg>
