<svg width="321" height="353" viewBox="0 0 321 353" fill="none" xmlns="http://www.w3.org/2000/svg">
<path d="M192.495 333.23L198.709 249.763L260.188 284.007L192.495 333.23Z" fill="white"/>
<path d="M0 30C0 13.4314 13.4315 0 30 0H290.579C307.147 0 320.579 13.4315 320.579 30V261.435C320.579 278.004 307.147 291.435 290.579 291.435H30.0001C13.4315 291.435 0 278.004 0 261.435V30Z" fill="white"/>
<mask id="path-3-inside-1_869_1759" fill="white">
<path fill-rule="evenodd" clip-rule="evenodd" d="M39.1094 17.0845C29.7205 17.0845 22.1094 24.6957 22.1094 34.0845V257.351C22.1094 266.74 29.7205 274.351 39.1093 274.351H217.67L207.441 306.37L244.195 274.351H281.47C290.859 274.351 298.47 266.74 298.47 257.351V34.0845C298.47 24.6956 290.859 17.0845 281.47 17.0845H39.1094Z"/>
</mask>
<path d="M217.67 274.351L218.623 274.656L219.04 273.351H217.67V274.351ZM207.441 306.37L206.489 306.066L205.399 309.475L208.098 307.124L207.441 306.37ZM244.195 274.351V273.351H243.82L243.538 273.597L244.195 274.351ZM23.1094 34.0845C23.1094 25.2479 30.2728 18.0845 39.1094 18.0845V16.0845C29.1682 16.0845 21.1094 24.1434 21.1094 34.0845H23.1094ZM23.1094 257.351V34.0845H21.1094V257.351H23.1094ZM39.1093 273.351C30.2728 273.351 23.1094 266.188 23.1094 257.351H21.1094C21.1094 267.292 29.1682 275.351 39.1093 275.351V273.351ZM217.67 273.351H39.1093V275.351H217.67V273.351ZM208.394 306.674L218.623 274.656L216.718 274.047L206.489 306.066L208.394 306.674ZM243.538 273.597L206.784 305.616L208.098 307.124L244.851 275.105L243.538 273.597ZM281.47 273.351H244.195V275.351H281.47V273.351ZM297.47 257.351C297.47 266.188 290.307 273.351 281.47 273.351V275.351C291.411 275.351 299.47 267.292 299.47 257.351H297.47ZM297.47 34.0845V257.351H299.47V34.0845H297.47ZM281.47 18.0845C290.307 18.0845 297.47 25.2479 297.47 34.0845H299.47C299.47 24.1434 291.411 16.0845 281.47 16.0845V18.0845ZM39.1094 18.0845H281.47V16.0845H39.1094V18.0845Z" fill="black" mask="url(#path-3-inside-1_869_1759)"/>
<path d="M41.2007 45L42.1847 44.292L43.1687 45L42.7967 43.872L43.6967 43.26H42.5807L42.1847 42.06L41.7887 43.26H40.6727L41.5727 43.872L41.2007 45ZM49.46 39.06H50.324V39.924H49.46V39.06ZM48.596 39.924H49.46V40.788H48.596V39.924ZM50.324 39.924H51.188V40.788H50.324V39.924ZM49.46 40.788H50.324V41.652H49.46V40.788ZM56.585 45.408H57.449V46.272H56.585V45.408ZM55.721 46.272H56.585V47.136H55.721V46.272ZM57.449 46.272H58.313V47.136H57.449V46.272ZM56.585 47.136H57.449V48H56.585V47.136ZM64.574 40.224H66.302V41.088H64.574V40.224ZM67.166 40.224H68.894V41.088H67.166V40.224ZM63.71 41.088H64.574V41.952H63.71V41.088ZM66.302 41.088H67.166V41.952H66.302V41.088ZM68.894 41.088H69.758V41.952H68.894V41.088ZM62.846 41.952H63.71V44.544H62.846V41.952ZM69.758 41.952H70.622V44.544H69.758V41.952ZM63.71 44.544H64.574V45.408H63.71V44.544ZM68.894 44.544H69.758V45.408H68.894V44.544ZM64.574 45.408H65.438V46.272H64.574V45.408ZM68.03 45.408H68.894V46.272H68.03V45.408ZM65.438 46.272H66.302V47.136H65.438V46.272ZM67.166 46.272H68.03V47.136H67.166V46.272ZM66.302 47.136H67.166V48H66.302V47.136ZM75.1147 45L76.0987 44.292L77.0827 45L76.7107 43.872L77.6107 43.26H76.4947L76.0987 42.06L75.7027 43.26H74.5867L75.4867 43.872L75.1147 45ZM83.3741 39.06H84.2381V39.924H83.3741V39.06ZM82.5101 39.924H83.3741V40.788H82.5101V39.924ZM84.2381 39.924H85.1021V40.788H84.2381V39.924ZM83.3741 40.788H84.2381V41.652H83.3741V40.788ZM90.4991 45.408H91.3631V46.272H90.4991V45.408ZM89.6351 46.272H90.4991V47.136H89.6351V46.272ZM91.3631 46.272H92.2271V47.136H91.3631V46.272ZM90.4991 47.136H91.3631V48H90.4991V47.136ZM98.4881 40.224H100.216V41.088H98.4881V40.224ZM101.08 40.224H102.808V41.088H101.08V40.224ZM97.6241 41.088H98.4881V41.952H97.6241V41.088ZM100.216 41.088H101.08V41.952H100.216V41.088ZM102.808 41.088H103.672V41.952H102.808V41.088ZM96.7601 41.952H97.6241V44.544H96.7601V41.952ZM103.672 41.952H104.536V44.544H103.672V41.952ZM97.6241 44.544H98.4881V45.408H97.6241V44.544ZM102.808 44.544H103.672V45.408H102.808V44.544ZM98.4881 45.408H99.3521V46.272H98.4881V45.408ZM101.944 45.408H102.808V46.272H101.944V45.408ZM99.3521 46.272H100.216V47.136H99.3521V46.272ZM101.08 46.272H101.944V47.136H101.08V46.272ZM100.216 47.136H101.08V48H100.216V47.136ZM109.029 45L110.013 44.292L110.997 45L110.625 43.872L111.525 43.26H110.409L110.013 42.06L109.617 43.26H108.501L109.401 43.872L109.029 45ZM117.288 39.06H118.152V39.924H117.288V39.06ZM116.424 39.924H117.288V40.788H116.424V39.924ZM118.152 39.924H119.016V40.788H118.152V39.924ZM117.288 40.788H118.152V41.652H117.288V40.788ZM124.413 45.408H125.277V46.272H124.413V45.408ZM123.549 46.272H124.413V47.136H123.549V46.272ZM125.277 46.272H126.141V47.136H125.277V46.272ZM124.413 47.136H125.277V48H124.413V47.136ZM132.402 40.224H134.13V41.088H132.402V40.224ZM134.994 40.224H136.722V41.088H134.994V40.224ZM131.538 41.088H132.402V41.952H131.538V41.088ZM134.13 41.088H134.994V41.952H134.13V41.088ZM136.722 41.088H137.586V41.952H136.722V41.088ZM130.674 41.952H131.538V44.544H130.674V41.952ZM137.586 41.952H138.45V44.544H137.586V41.952ZM131.538 44.544H132.402V45.408H131.538V44.544ZM136.722 44.544H137.586V45.408H136.722V44.544ZM132.402 45.408H133.266V46.272H132.402V45.408ZM135.858 45.408H136.722V46.272H135.858V45.408ZM133.266 46.272H134.13V47.136H133.266V46.272ZM134.994 46.272H135.858V47.136H134.994V46.272ZM134.13 47.136H134.994V48H134.13V47.136ZM143.843 39.06H144.707V39.924H143.843V39.06ZM142.979 39.924H143.843V40.788H142.979V39.924ZM144.707 39.924H145.571V40.788H144.707V39.924ZM143.843 40.788H144.707V41.652H143.843V40.788ZM150.968 45.408H151.832V46.272H150.968V45.408ZM150.104 46.272H150.968V47.136H150.104V46.272ZM151.832 46.272H152.696V47.136H151.832V46.272ZM150.968 47.136H151.832V48H150.968V47.136ZM154.076 45L155.06 44.292L156.044 45L155.672 43.872L156.572 43.26H155.456L155.06 42.06L154.664 43.26H153.548L154.448 43.872L154.076 45ZM162.335 45.408H163.199V46.272H162.335V45.408ZM161.471 46.272H162.335V47.136H161.471V46.272ZM163.199 46.272H164.063V47.136H163.199V46.272ZM162.335 47.136H163.199V48H162.335V47.136ZM166.343 39.06H167.207V39.924H166.343V39.06ZM165.479 39.924H166.343V40.788H165.479V39.924ZM167.207 39.924H168.071V40.788H167.207V39.924ZM166.343 40.788H167.207V41.652H166.343V40.788ZM174.332 40.224H176.06V41.088H174.332V40.224ZM176.924 40.224H178.652V41.088H176.924V40.224ZM173.468 41.088H174.332V41.952H173.468V41.088ZM176.06 41.088H176.924V41.952H176.06V41.088ZM178.652 41.088H179.516V41.952H178.652V41.088ZM172.604 41.952H173.468V44.544H172.604V41.952ZM179.516 41.952H180.38V44.544H179.516V41.952ZM173.468 44.544H174.332V45.408H173.468V44.544ZM178.652 44.544H179.516V45.408H178.652V44.544ZM174.332 45.408H175.196V46.272H174.332V45.408ZM177.788 45.408H178.652V46.272H177.788V45.408ZM175.196 46.272H176.06V47.136H175.196V46.272ZM176.924 46.272H177.788V47.136H176.924V46.272ZM176.06 47.136H176.924V48H176.06V47.136ZM182.655 39.06H183.519V39.924H182.655V39.06ZM181.791 39.924H182.655V40.788H181.791V39.924ZM183.519 39.924H184.383V40.788H183.519V39.924ZM182.655 40.788H183.519V41.652H182.655V40.788ZM189.78 45.408H190.644V46.272H189.78V45.408ZM188.916 46.272H189.78V47.136H188.916V46.272ZM190.644 46.272H191.508V47.136H190.644V46.272ZM189.78 47.136H190.644V48H189.78V47.136ZM196.005 45L196.989 44.292L197.973 45L197.601 43.872L198.501 43.26H197.385L196.989 42.06L196.593 43.26H195.477L196.377 43.872L196.005 45ZM205.129 40.224H206.857V41.088H205.129V40.224ZM207.721 40.224H209.449V41.088H207.721V40.224ZM204.265 41.088H205.129V41.952H204.265V41.088ZM206.857 41.088H207.721V41.952H206.857V41.088ZM209.449 41.088H210.313V41.952H209.449V41.088ZM203.401 41.952H204.265V44.544H203.401V41.952ZM210.313 41.952H211.177V44.544H210.313V41.952ZM204.265 44.544H205.129V45.408H204.265V44.544ZM209.449 44.544H210.313V45.408H209.449V44.544ZM205.129 45.408H205.993V46.272H205.129V45.408ZM208.585 45.408H209.449V46.272H208.585V45.408ZM205.993 46.272H206.857V47.136H205.993V46.272ZM207.721 46.272H208.585V47.136H207.721V46.272ZM206.857 47.136H207.721V48H206.857V47.136ZM215.669 45L216.653 44.292L217.637 45L217.265 43.872L218.165 43.26H217.049L216.653 42.06L216.257 43.26H215.141L216.041 43.872L215.669 45ZM223.929 39.06H224.793V39.924H223.929V39.06ZM223.065 39.924H223.929V40.788H223.065V39.924ZM224.793 39.924H225.657V40.788H224.793V39.924ZM223.929 40.788H224.793V41.652H223.929V40.788ZM231.054 45.408H231.918V46.272H231.054V45.408ZM230.19 46.272H231.054V47.136H230.19V46.272ZM231.918 46.272H232.782V47.136H231.918V46.272ZM231.054 47.136H231.918V48H231.054V47.136ZM239.043 40.224H240.771V41.088H239.043V40.224ZM241.635 40.224H243.363V41.088H241.635V40.224ZM238.179 41.088H239.043V41.952H238.179V41.088ZM240.771 41.088H241.635V41.952H240.771V41.088ZM243.363 41.088H244.227V41.952H243.363V41.088ZM237.315 41.952H238.179V44.544H237.315V41.952ZM244.227 41.952H245.091V44.544H244.227V41.952ZM238.179 44.544H239.043V45.408H238.179V44.544ZM243.363 44.544H244.227V45.408H243.363V44.544ZM239.043 45.408H239.907V46.272H239.043V45.408ZM242.499 45.408H243.363V46.272H242.499V45.408ZM239.907 46.272H240.771V47.136H239.907V46.272ZM241.635 46.272H242.499V47.136H241.635V46.272ZM240.771 47.136H241.635V48H240.771V47.136ZM249.583 45L250.567 44.292L251.551 45L251.179 43.872L252.079 43.26H250.963L250.567 42.06L250.171 43.26H249.055L249.955 43.872L249.583 45ZM257.843 39.06H258.707V39.924H257.843V39.06ZM256.979 39.924H257.843V40.788H256.979V39.924ZM258.707 39.924H259.571V40.788H258.707V39.924ZM257.843 40.788H258.707V41.652H257.843V40.788ZM264.968 45.408H265.832V46.272H264.968V45.408ZM264.104 46.272H264.968V47.136H264.104V46.272ZM265.832 46.272H266.696V47.136H265.832V46.272ZM264.968 47.136H265.832V48H264.968V47.136ZM272.957 40.224H274.685V41.088H272.957V40.224ZM275.549 40.224H277.277V41.088H275.549V40.224ZM272.093 41.088H272.957V41.952H272.093V41.088ZM274.685 41.088H275.549V41.952H274.685V41.088ZM277.277 41.088H278.141V41.952H277.277V41.088ZM271.229 41.952H272.093V44.544H271.229V41.952ZM278.141 41.952H279.005V44.544H278.141V41.952ZM272.093 44.544H272.957V45.408H272.093V44.544ZM277.277 44.544H278.141V45.408H277.277V44.544ZM272.957 45.408H273.821V46.272H272.957V45.408ZM276.413 45.408H277.277V46.272H276.413V45.408ZM273.821 46.272H274.685V47.136H273.821V46.272ZM275.549 46.272H276.413V47.136H275.549V46.272ZM274.685 47.136H275.549V48H274.685V47.136Z" fill="black"/>
<path d="M278.141 249.965L277.157 249.257L276.173 249.965L276.545 248.837L275.645 248.225H276.761L277.157 247.025L277.553 248.225H278.669L277.769 248.837L278.141 249.965ZM269.882 244.025H269.018V244.889H269.882V244.025ZM270.746 244.889H269.882V245.753H270.746V244.889ZM269.018 244.889H268.154V245.753H269.018V244.889ZM269.882 245.753H269.018V246.617H269.882V245.753ZM262.757 250.373H261.893V251.237H262.757V250.373ZM263.621 251.237H262.757V252.101H263.621V251.237ZM261.893 251.237H261.029V252.101H261.893V251.237ZM262.757 252.101H261.893V252.965H262.757V252.101ZM254.768 245.189H253.04V246.053H254.768V245.189ZM252.176 245.189H250.448V246.053H252.176V245.189ZM255.632 246.053H254.768V246.917H255.632V246.053ZM253.04 246.053H252.176V246.917H253.04V246.053ZM250.448 246.053H249.584V246.917H250.448V246.053ZM256.496 246.917H255.632V249.509H256.496V246.917ZM249.584 246.917H248.72V249.509H249.584V246.917ZM255.632 249.509H254.768V250.373H255.632V249.509ZM250.448 249.509H249.584V250.373H250.448V249.509ZM254.768 250.373H253.904V251.237H254.768V250.373ZM251.312 250.373H250.448V251.237H251.312V250.373ZM253.904 251.237H253.04V252.101H253.904V251.237ZM252.176 251.237H251.312V252.101H252.176V251.237ZM253.04 252.101H252.176V252.965H253.04V252.101ZM244.227 249.965L243.243 249.257L242.259 249.965L242.631 248.837L241.731 248.225H242.847L243.243 247.025L243.639 248.225H244.755L243.855 248.837L244.227 249.965ZM235.968 244.025H235.104V244.889H235.968V244.025ZM236.832 244.889H235.968V245.753H236.832V244.889ZM235.104 244.889H234.24V245.753H235.104V244.889ZM235.968 245.753H235.104V246.617H235.968V245.753ZM228.843 250.373H227.979V251.237H228.843V250.373ZM229.707 251.237H228.843V252.101H229.707V251.237ZM227.979 251.237H227.115V252.101H227.979V251.237ZM228.843 252.101H227.979V252.965H228.843V252.101ZM220.854 245.189H219.126V246.053H220.854V245.189ZM218.262 245.189H216.534V246.053H218.262V245.189ZM221.718 246.053H220.854V246.917H221.718V246.053ZM219.126 246.053H218.262V246.917H219.126V246.053ZM216.534 246.053H215.67V246.917H216.534V246.053ZM222.582 246.917H221.718V249.509H222.582V246.917ZM215.67 246.917H214.806V249.509H215.67V246.917ZM221.718 249.509H220.854V250.373H221.718V249.509ZM216.534 249.509H215.67V250.373H216.534V249.509ZM220.854 250.373H219.99V251.237H220.854V250.373ZM217.398 250.373H216.534V251.237H217.398V250.373ZM219.99 251.237H219.126V252.101H219.99V251.237ZM218.262 251.237H217.398V252.101H218.262V251.237ZM219.126 252.101H218.262V252.965H219.126V252.101ZM210.313 249.965L209.329 249.257L208.345 249.965L208.717 248.837L207.817 248.225H208.933L209.329 247.025L209.725 248.225H210.841L209.941 248.837L210.313 249.965ZM202.054 244.025H201.19V244.889H202.054V244.025ZM202.918 244.889H202.054V245.753H202.918V244.889ZM201.19 244.889H200.326V245.753H201.19V244.889ZM202.054 245.753H201.19V246.617H202.054V245.753ZM194.929 250.373H194.065V251.237H194.929V250.373ZM195.793 251.237H194.929V252.101H195.793V251.237ZM194.065 251.237H193.201V252.101H194.065V251.237ZM194.929 252.101H194.065V252.965H194.929V252.101ZM186.94 245.189H185.212V246.053H186.94V245.189ZM184.348 245.189H182.62V246.053H184.348V245.189ZM187.804 246.053H186.94V246.917H187.804V246.053ZM185.212 246.053H184.348V246.917H185.212V246.053ZM182.62 246.053H181.756V246.917H182.62V246.053ZM188.668 246.917H187.804V249.509H188.668V246.917ZM181.756 246.917H180.892V249.509H181.756V246.917ZM187.804 249.509H186.94V250.373H187.804V249.509ZM182.62 249.509H181.756V250.373H182.62V249.509ZM186.94 250.373H186.076V251.237H186.94V250.373ZM183.484 250.373H182.62V251.237H183.484V250.373ZM186.076 251.237H185.212V252.101H186.076V251.237ZM184.348 251.237H183.484V252.101H184.348V251.237ZM185.212 252.101H184.348V252.965H185.212V252.101ZM175.499 244.025H174.635V244.889H175.499V244.025ZM176.363 244.889H175.499V245.753H176.363V244.889ZM174.635 244.889H173.771V245.753H174.635V244.889ZM175.499 245.753H174.635V246.617H175.499V245.753ZM168.374 250.373H167.51V251.237H168.374V250.373ZM169.238 251.237H168.374V252.101H169.238V251.237ZM167.51 251.237H166.646V252.101H167.51V251.237ZM168.374 252.101H167.51V252.965H168.374V252.101ZM165.266 249.965L164.282 249.257L163.298 249.965L163.67 248.837L162.77 248.225H163.886L164.282 247.025L164.678 248.225H165.794L164.894 248.837L165.266 249.965ZM157.007 250.373H156.143V251.237H157.007V250.373ZM157.871 251.237H157.007V252.101H157.871V251.237ZM156.143 251.237H155.279V252.101H156.143V251.237ZM157.007 252.101H156.143V252.965H157.007V252.101ZM152.999 244.025H152.135V244.889H152.999V244.025ZM153.863 244.889H152.999V245.753H153.863V244.889ZM152.135 244.889H151.271V245.753H152.135V244.889ZM152.999 245.753H152.135V246.617H152.999V245.753ZM145.01 245.189H143.282V246.053H145.01V245.189ZM142.418 245.189H140.69V246.053H142.418V245.189ZM145.874 246.053H145.01V246.917H145.874V246.053ZM143.282 246.053H142.418V246.917H143.282V246.053ZM140.69 246.053H139.826V246.917H140.69V246.053ZM146.738 246.917H145.874V249.509H146.738V246.917ZM139.826 246.917H138.962V249.509H139.826V246.917ZM145.874 249.509H145.01V250.373H145.874V249.509ZM140.69 249.509H139.826V250.373H140.69V249.509ZM145.01 250.373H144.146V251.237H145.01V250.373ZM141.554 250.373H140.69V251.237H141.554V250.373ZM144.146 251.237H143.282V252.101H144.146V251.237ZM142.418 251.237H141.554V252.101H142.418V251.237ZM143.282 252.101H142.418V252.965H143.282V252.101ZM136.686 244.025H135.822V244.889H136.686V244.025ZM137.55 244.889H136.686V245.753H137.55V244.889ZM135.822 244.889H134.958V245.753H135.822V244.889ZM136.686 245.753H135.822V246.617H136.686V245.753ZM129.561 250.373H128.697V251.237H129.561V250.373ZM130.425 251.237H129.561V252.101H130.425V251.237ZM128.697 251.237H127.833V252.101H128.697V251.237ZM129.561 252.101H128.697V252.965H129.561V252.101ZM123.336 249.965L122.352 249.257L121.368 249.965L121.74 248.837L120.84 248.225H121.956L122.352 247.025L122.748 248.225H123.864L122.964 248.837L123.336 249.965ZM114.213 245.189H112.485V246.053H114.213V245.189ZM111.621 245.189H109.893V246.053H111.621V245.189ZM115.077 246.053H114.213V246.917H115.077V246.053ZM112.485 246.053H111.621V246.917H112.485V246.053ZM109.893 246.053H109.029V246.917H109.893V246.053ZM115.941 246.917H115.077V249.509H115.941V246.917ZM109.029 246.917H108.165V249.509H109.029V246.917ZM115.077 249.509H114.213V250.373H115.077V249.509ZM109.893 249.509H109.029V250.373H109.893V249.509ZM114.213 250.373H113.349V251.237H114.213V250.373ZM110.757 250.373H109.893V251.237H110.757V250.373ZM113.349 251.237H112.485V252.101H113.349V251.237ZM111.621 251.237H110.757V252.101H111.621V251.237ZM112.485 252.101H111.621V252.965H112.485V252.101ZM103.672 249.965L102.688 249.257L101.704 249.965L102.076 248.837L101.176 248.225H102.292L102.688 247.025L103.084 248.225H104.2L103.3 248.837L103.672 249.965ZM95.413 244.025H94.549V244.889H95.413V244.025ZM96.277 244.889H95.413V245.753H96.277V244.889ZM94.549 244.889H93.685V245.753H94.549V244.889ZM95.413 245.753H94.549V246.617H95.413V245.753ZM88.288 250.373H87.424V251.237H88.288V250.373ZM89.152 251.237H88.288V252.101H89.152V251.237ZM87.424 251.237H86.56V252.101H87.424V251.237ZM88.288 252.101H87.424V252.965H88.288V252.101ZM80.299 245.189H78.571V246.053H80.299V245.189ZM77.707 245.189H75.979V246.053H77.707V245.189ZM81.163 246.053H80.299V246.917H81.163V246.053ZM78.571 246.053H77.707V246.917H78.571V246.053ZM75.979 246.053H75.115V246.917H75.979V246.053ZM82.027 246.917H81.163V249.509H82.027V246.917ZM75.115 246.917H74.251V249.509H75.115V246.917ZM81.163 249.509H80.299V250.373H81.163V249.509ZM75.979 249.509H75.115V250.373H75.979V249.509ZM80.299 250.373H79.435V251.237H80.299V250.373ZM76.843 250.373H75.979V251.237H76.843V250.373ZM79.435 251.237H78.571V252.101H79.435V251.237ZM77.707 251.237H76.843V252.101H77.707V251.237ZM78.571 252.101H77.707V252.965H78.571V252.101ZM69.7583 249.965L68.7743 249.257L67.7903 249.965L68.1623 248.837L67.2623 248.225H68.3783L68.7743 247.025L69.1703 248.225H70.2863L69.3863 248.837L69.7583 249.965ZM61.4989 244.025H60.6349V244.889H61.4989V244.025ZM62.3629 244.889H61.4989V245.753H62.3629V244.889ZM60.6349 244.889H59.7709V245.753H60.6349V244.889ZM61.4989 245.753H60.6349V246.617H61.4989V245.753ZM54.3739 250.373H53.5099V251.237H54.3739V250.373ZM55.2379 251.237H54.3739V252.101H55.2379V251.237ZM53.5099 251.237H52.6459V252.101H53.5099V251.237ZM54.3739 252.101H53.5099V252.965H54.3739V252.101ZM46.3849 245.189H44.6569V246.053H46.3849V245.189ZM43.7929 245.189H42.0649V246.053H43.7929V245.189ZM47.2489 246.053H46.3849V246.917H47.2489V246.053ZM44.6569 246.053H43.7929V246.917H44.6569V246.053ZM42.0649 246.053H41.2009V246.917H42.0649V246.053ZM48.1129 246.917H47.2489V249.509H48.1129V246.917ZM41.2009 246.917H40.3369V249.509H41.2009V246.917ZM47.2489 249.509H46.3849V250.373H47.2489V249.509ZM42.0649 249.509H41.2009V250.373H42.0649V249.509ZM46.3849 250.373H45.5209V251.237H46.3849V250.373ZM42.9289 250.373H42.0649V251.237H42.9289V250.373ZM45.5209 251.237H44.6569V252.101H45.5209V251.237ZM43.7929 251.237H42.9289V252.101H43.7929V251.237ZM44.6569 252.101H43.7929V252.965H44.6569V252.101Z" fill="black"/>
</svg>
