<svg width="219" height="79" viewBox="0 0 219 79" fill="none" xmlns="http://www.w3.org/2000/svg">
<path fill-rule="evenodd" clip-rule="evenodd" d="M163.909 19.3976L158.138 2L152.366 19.3976H30.3012C14.1186 19.3976 1 32.5162 1 48.6988C1 64.8814 14.1186 78 30.3012 78H188.699C204.881 78 218 64.8814 218 48.6988C218 32.5162 204.881 19.3976 188.699 19.3976H163.909Z" fill="white"/>
<path d="M158.138 2L158.613 1.84257L158.138 0.412026L157.663 1.84257L158.138 2ZM163.909 19.3976L163.435 19.5551L163.548 19.8976H163.909V19.3976ZM152.366 19.3976V19.8976H152.727L152.841 19.5551L152.366 19.3976ZM157.663 2.15743L163.435 19.5551L164.384 19.2402L158.613 1.84257L157.663 2.15743ZM152.841 19.5551L158.613 2.15743L157.663 1.84257L151.892 19.2402L152.841 19.5551ZM30.3012 19.8976H152.366V18.8976H30.3012V19.8976ZM1.5 48.6988C1.5 32.7924 14.3947 19.8976 30.3012 19.8976V18.8976C13.8425 18.8976 0.5 32.2401 0.5 48.6988H1.5ZM30.3012 77.5C14.3947 77.5 1.5 64.6053 1.5 48.6988H0.5C0.5 65.1576 13.8425 78.5 30.3012 78.5V77.5ZM188.699 77.5H30.3012V78.5H188.699V77.5ZM217.5 48.6988C217.5 64.6053 204.605 77.5 188.699 77.5V78.5C205.158 78.5 218.5 65.1576 218.5 48.6988H217.5ZM188.699 19.8976C204.605 19.8976 217.5 32.7924 217.5 48.6988H218.5C218.5 32.2401 205.158 18.8976 188.699 18.8976V19.8976ZM163.909 19.8976H188.699V18.8976H163.909V19.8976Z" fill="black"/>
</svg>
