<svg width="195" height="79" viewBox="0 0 195 79" fill="none" xmlns="http://www.w3.org/2000/svg">
<path fill-rule="evenodd" clip-rule="evenodd" d="M145.892 19.3975L140.759 1.99976L135.625 19.3975H30.3012C14.1186 19.3975 1 32.5161 1 48.6987C1 64.8813 14.1186 77.9999 30.3012 77.9999H164.699C180.881 77.9999 194 64.8813 194 48.6987C194 32.5161 180.881 19.3975 164.699 19.3975H145.892Z" fill="white"/>
<path d="M140.759 1.99976L141.142 1.88656L140.759 0.586273L140.375 1.88656L140.759 1.99976ZM145.892 19.3975L145.508 19.5107L145.593 19.7975H145.892V19.3975ZM135.625 19.3975V19.7975H135.924L136.009 19.5107L135.625 19.3975ZM140.375 2.11295L145.508 19.5107L146.275 19.2843L141.142 1.88656L140.375 2.11295ZM136.009 19.5107L141.142 2.11295L140.375 1.88656L135.242 19.2843L136.009 19.5107ZM30.3012 19.7975H135.625V18.9975H30.3012V19.7975ZM1.4 48.6987C1.4 32.737 14.3395 19.7975 30.3012 19.7975V18.9975C13.8977 18.9975 0.6 32.2951 0.6 48.6987H1.4ZM30.3012 77.5999C14.3395 77.5999 1.4 64.6604 1.4 48.6987H0.6C0.6 65.1022 13.8977 78.3999 30.3012 78.3999V77.5999ZM164.699 77.5999H30.3012V78.3999H164.699V77.5999ZM193.6 48.6987C193.6 64.6604 180.66 77.5999 164.699 77.5999V78.3999C181.102 78.3999 194.4 65.1022 194.4 48.6987H193.6ZM164.699 19.7975C180.66 19.7975 193.6 32.737 193.6 48.6987H194.4C194.4 32.2951 181.102 18.9975 164.699 18.9975V19.7975ZM145.892 19.7975H164.699V18.9975H145.892V19.7975Z" fill="black"/>
</svg>
