<svg width="300" height="45" viewBox="0 0 300 45" fill="none" xmlns="http://www.w3.org/2000/svg">
<rect width="300" height="45" rx="7" fill="#FEE500"/>
<path opacity="0.902" fill-rule="evenodd" clip-rule="evenodd" d="M24 15C19.29 15 15 18.8109 15 22.0349C15 24.4507 16.558 26.5816 18.931 27.8479L17.933 31.538C17.844 31.8651 18.213 32.1248 18.496 31.9366L22.873 29.0125C23.242 29.0487 23.618 29.0699 24 29.0699C28.97 29.0699 33 25.9203 33 22.0349C33 18.8109 28.97 15 24 15Z" fill="black"/>
<path d="M118.888 19.032C118.879 23.0173 117.012 25.948 113.288 27.824L112.518 26.872C114.562 25.9387 116.009 24.632 116.858 22.952L112.938 23.372L112.714 22.28L117.264 21.93C117.451 21.342 117.558 20.726 117.586 20.082H113.204V19.032H118.888ZM121.982 17.744V22.672H123.928V23.694H121.982V29.98H120.75V17.744H121.982ZM131.001 19.032C130.992 23.0173 129.125 25.948 125.401 27.824L124.631 26.872C126.675 25.9387 128.122 24.632 128.971 22.952L125.051 23.372L124.827 22.28L129.377 21.93C129.564 21.342 129.671 20.726 129.699 20.082H125.317V19.032H131.001ZM134.095 17.744V22.672H136.041V23.694H134.095V29.98H132.863V17.744H134.095ZM146.839 21.902C146.839 22.854 146.479 23.638 145.761 24.254C145.051 24.8607 144.095 25.2107 142.891 25.304V27.376H147.805V28.398H136.759V27.376H141.645V25.29C140.45 25.1873 139.498 24.8327 138.789 24.226C138.079 23.6193 137.725 22.8447 137.725 21.902C137.725 20.8847 138.14 20.0633 138.971 19.438C139.811 18.8127 140.912 18.5 142.275 18.5C143.656 18.5 144.762 18.8127 145.593 19.438C146.423 20.054 146.839 20.8753 146.839 21.902ZM144.655 23.61C145.261 23.1713 145.565 22.602 145.565 21.902C145.565 21.202 145.261 20.6327 144.655 20.194C144.057 19.7553 143.264 19.536 142.275 19.536C141.295 19.536 140.501 19.7553 139.895 20.194C139.297 20.6327 138.999 21.202 138.999 21.902C138.999 22.602 139.297 23.1713 139.895 23.61C140.501 24.0487 141.295 24.268 142.275 24.268C143.255 24.268 144.048 24.0487 144.655 23.61ZM163.596 28.426H152.55V27.418H157.422V25.486H153.88V21.552H160.992V19.76H153.852V18.752H162.224V22.56H155.112V24.478H162.56V25.486H158.668V27.418H163.596V28.426ZM175.709 28.202H164.663V27.194H175.709V28.202ZM174.239 19.13C174.239 22.2567 174.048 24.6507 173.665 26.312L172.461 26.158C172.61 25.598 172.732 24.702 172.825 23.47C172.928 22.2287 172.979 21.1133 172.979 20.124H165.811V19.13H174.239ZM186.814 26.634H185.568V17.744H186.814V26.634ZM187.094 29.602H178.764V25.794H180.01V28.608H187.094V29.602ZM177.98 19.452C178.596 18.864 179.375 18.57 180.318 18.57C181.261 18.57 182.04 18.8593 182.656 19.438C183.281 20.0167 183.594 20.7447 183.594 21.622C183.594 22.4993 183.286 23.218 182.67 23.778C182.054 24.3287 181.27 24.604 180.318 24.604C179.375 24.604 178.596 24.3287 177.98 23.778C177.364 23.218 177.056 22.504 177.056 21.636C177.056 20.7587 177.364 20.0307 177.98 19.452ZM180.318 19.634C179.749 19.634 179.277 19.8207 178.904 20.194C178.54 20.5673 178.358 21.0387 178.358 21.608C178.358 22.168 178.54 22.6347 178.904 23.008C179.277 23.3813 179.749 23.568 180.318 23.568C180.915 23.568 181.391 23.386 181.746 23.022C182.101 22.658 182.278 22.1913 182.278 21.622C182.278 21.034 182.101 20.558 181.746 20.194C181.391 19.8207 180.915 19.634 180.318 19.634Z" fill="black"/>
</svg>
