<svg width="308" height="53" viewBox="0 0 308 53" fill="none" xmlns="http://www.w3.org/2000/svg">
<g filter="url(#filter0_d_1042_1761)">
<rect x="4" width="300" height="45" rx="7" fill="#FEE500"/>
</g>
<path opacity="0.902" fill-rule="evenodd" clip-rule="evenodd" d="M28 15C23.29 15 19 18.8109 19 22.0349C19 24.4507 20.558 26.5816 22.931 27.8479L21.933 31.538C21.844 31.8651 22.213 32.1248 22.496 31.9366L26.873 29.0125C27.242 29.0487 27.618 29.0699 28 29.0699C32.97 29.0699 37 25.9203 37 22.0349C37 18.8109 32.97 15 28 15Z" fill="black"/>
<path d="M122.888 19.032C122.879 23.0173 121.012 25.948 117.288 27.824L116.518 26.872C118.562 25.9387 120.009 24.632 120.858 22.952L116.938 23.372L116.714 22.28L121.264 21.93C121.451 21.342 121.558 20.726 121.586 20.082H117.204V19.032H122.888ZM125.982 17.744V22.672H127.928V23.694H125.982V29.98H124.75V17.744H125.982ZM135.001 19.032C134.992 23.0173 133.125 25.948 129.401 27.824L128.631 26.872C130.675 25.9387 132.122 24.632 132.971 22.952L129.051 23.372L128.827 22.28L133.377 21.93C133.564 21.342 133.671 20.726 133.699 20.082H129.317V19.032H135.001ZM138.095 17.744V22.672H140.041V23.694H138.095V29.98H136.863V17.744H138.095ZM150.839 21.902C150.839 22.854 150.479 23.638 149.761 24.254C149.051 24.8607 148.095 25.2107 146.891 25.304V27.376H151.805V28.398H140.759V27.376H145.645V25.29C144.45 25.1873 143.498 24.8327 142.789 24.226C142.079 23.6193 141.725 22.8447 141.725 21.902C141.725 20.8847 142.14 20.0633 142.971 19.438C143.811 18.8127 144.912 18.5 146.275 18.5C147.656 18.5 148.762 18.8127 149.593 19.438C150.423 20.054 150.839 20.8753 150.839 21.902ZM148.655 23.61C149.261 23.1713 149.565 22.602 149.565 21.902C149.565 21.202 149.261 20.6327 148.655 20.194C148.057 19.7553 147.264 19.536 146.275 19.536C145.295 19.536 144.501 19.7553 143.895 20.194C143.297 20.6327 142.999 21.202 142.999 21.902C142.999 22.602 143.297 23.1713 143.895 23.61C144.501 24.0487 145.295 24.268 146.275 24.268C147.255 24.268 148.048 24.0487 148.655 23.61ZM167.596 28.426H156.55V27.418H161.422V25.486H157.88V21.552H164.992V19.76H157.852V18.752H166.224V22.56H159.112V24.478H166.56V25.486H162.668V27.418H167.596V28.426ZM179.709 28.202H168.663V27.194H179.709V28.202ZM178.239 19.13C178.239 22.2567 178.048 24.6507 177.665 26.312L176.461 26.158C176.61 25.598 176.732 24.702 176.825 23.47C176.928 22.2287 176.979 21.1133 176.979 20.124H169.811V19.13H178.239ZM190.814 26.634H189.568V17.744H190.814V26.634ZM191.094 29.602H182.764V25.794H184.01V28.608H191.094V29.602ZM181.98 19.452C182.596 18.864 183.375 18.57 184.318 18.57C185.261 18.57 186.04 18.8593 186.656 19.438C187.281 20.0167 187.594 20.7447 187.594 21.622C187.594 22.4993 187.286 23.218 186.67 23.778C186.054 24.3287 185.27 24.604 184.318 24.604C183.375 24.604 182.596 24.3287 181.98 23.778C181.364 23.218 181.056 22.504 181.056 21.636C181.056 20.7587 181.364 20.0307 181.98 19.452ZM184.318 19.634C183.749 19.634 183.277 19.8207 182.904 20.194C182.54 20.5673 182.358 21.0387 182.358 21.608C182.358 22.168 182.54 22.6347 182.904 23.008C183.277 23.3813 183.749 23.568 184.318 23.568C184.915 23.568 185.391 23.386 185.746 23.022C186.101 22.658 186.278 22.1913 186.278 21.622C186.278 21.034 186.101 20.558 185.746 20.194C185.391 19.8207 184.915 19.634 184.318 19.634Z" fill="black"/>
<defs>
<filter id="filter0_d_1042_1761" x="0" y="0" width="308" height="53" filterUnits="userSpaceOnUse" color-interpolation-filters="sRGB">
<feFlood flood-opacity="0" result="BackgroundImageFix"/>
<feColorMatrix in="SourceAlpha" type="matrix" values="0 0 0 0 0 0 0 0 0 0 0 0 0 0 0 0 0 0 127 0" result="hardAlpha"/>
<feOffset dy="4"/>
<feGaussianBlur stdDeviation="2"/>
<feComposite in2="hardAlpha" operator="out"/>
<feColorMatrix type="matrix" values="0 0 0 0 0 0 0 0 0 0 0 0 0 0 0 0 0 0 0.25 0"/>
<feBlend mode="normal" in2="BackgroundImageFix" result="effect1_dropShadow_1042_1761"/>
<feBlend mode="normal" in="SourceGraphic" in2="effect1_dropShadow_1042_1761" result="shape"/>
</filter>
</defs>
</svg>
